<?xml version="1.0" standalone="no"?>
<!DOCTYPE svg PUBLIC "-//W3C//DTD SVG 1.1//EN" "http://www.w3.org/Graphics/SVG/1.1/DTD/svg11.dtd" >
<svg xmlns="http://www.w3.org/2000/svg" xmlns:xlink="http://www.w3.org/1999/xlink" version="1.1">
<metadata></metadata>
<defs>
<font id="layiji_ruduuronregular" horiz-adv-x="0" >
<font-face units-per-em="2048" ascent="1638" descent="-410" />
<missing-glyph horiz-adv-x="421" />
<glyph unicode="&#x3b;&#x3b;Layiji&#x3b;&#x3b;" horiz-adv-x="1942" d="M-131.5 1208q0.5 7 5.5 12.5t16 6.5q15 -1 37.5 -4t45.5 -8.5t43.5 -13.5t31.5 -19q7 -8 5.5 -16t-7 -12.5t-14 -4.5t-15.5 7q-6 6 -23 11.5t-37.5 9.5t-39.5 7t-28 3q-11 1 -16 7.5t-4.5 13.5zM-64.5 832.5q-7.5 10.5 0.5 24.5q16 16 35.5 27.5t39 22.5t37.5 24t31 32 q7 5 14.5 5.5t13 -3t7.5 -10t-2 -15.5q-12 -16 -26.5 -28t-30.5 -22t-32.5 -19.5t-31.5 -20.5q-2 -8 -12 -14l-15 -8l-5 -3q-16 -3 -23.5 7.5zM19 1421q2 9 7.5 13.5t12 4.5t12 -4t8.5 -13q3 -29 21.5 -45.5t40.5 -33.5q8 -6 9.5 -14t-2 -14t-11 -8.5t-17.5 1.5 q-15 13 -29 24.5t-24.5 24t-17.5 28t-10 36.5zM77 1062q1 24 7 48t11 42q4 17 21 36.5t39 36.5t44.5 30t38.5 17q20 5 40.5 5t40.5 1q7 0 19 -5.5t23.5 -14.5t21 -20t11.5 -21q6 -28 12.5 -58t6.5 -58t-10 -52.5t-38 -41.5q13 -5 12 -19.5t-18 -18.5q-18 -2 -32 -13 t-28.5 -21.5t-31 -14.5t-39.5 7l-108 54q-26 14 -35 35.5t-8 45.5zM117.5 1060q4.5 -27 29.5 -48q22 -17 47.5 -27.5t51.5 -21.5q15 -7 33.5 4.5t37.5 23.5q-27 -2 -60.5 8.5t-57 28.5t-30.5 41.5t18 49.5q9 9 29.5 20.5t41.5 17.5t37 2t16 -28q-2 -18 -15 -21t-21 9 q-10 0 -19 -3q-6 -2 -14.5 -5.5t-16 -9.5t-11.5 -13.5t-1 -16.5q4 -10 18 -18t32 -13.5t36.5 -7.5t29.5 1q20 6 31 22t15 37t1 44.5t-12 44t-23 36t-31 20.5q-25 7 -53.5 -1t-55 -26t-47.5 -43t-31 -52.5t-5.5 -54.5zM205.5 -159.5q0.5 19.5 7 36.5t19.5 30t34 19 q6 2 15 -1.5t13 -8.5q18 -21 27 -46t13 -52t5 -54.5t1 -53.5q0 -11 -9 -11t-11 10q0 21 -0.5 44t-3 46t-8 45t-15.5 41q-11 21 -21.5 24t-19 -5t-14.5 -24t-9 -34q5 -3 5 -10v-13.5v-7.5t-1 -5.5t-4 -7.5q-3 -7 -9 -8t-10 7q-5 20 -4.5 39.5zM231 1398q1 26 6 50.5t6 50.5 q2 9 7.5 13.5t12 4.5t12 -4t8.5 -13q-1 -25 -6.5 -50t-5.5 -51q-1 -11 -6.5 -16t-12.5 -5.5t-13.5 4.5t-7.5 16zM248 755v73q2 9 7.5 13.5t12 4.5t12 -4t8.5 -13v-73q-1 -11 -6.5 -16t-12.5 -5.5t-13.5 4.5t-7.5 16zM342.5 -122.5q1.5 35.5 17.5 60.5q4 7 10 7q24 -2 41 -14 t26.5 -30t10.5 -39.5t-8 -42.5q-5 -9 -13.5 -7.5t-6.5 12.5q6 15 6.5 32t-4.5 31.5t-17 25t-31 11.5q-7 -11 -10 -27t-1 -33v12t1 12q2 11 11 10t9 -12q-1 -17 -1.5 -33.5t-6.5 -32.5q-2 -5 -7.5 -7t-10.5 3q-17 26 -15.5 61.5zM387 -224q2 8 8 9t11 -5q14 -23 19 -24.5 t7 8.5t3.5 26.5t7.5 28.5q6 9 14.5 5.5t3.5 -13.5q-7 -14 -10 -34.5t-8.5 -34t-16 -12.5t-32.5 32q-6 2 -7 9v5zM420 1349q20 18 40 36.5t40 37.5l4 5l1 -1q15 10 26 1.5t5 -23.5q0 -2 2 -2l-7 -6l-4 -5l-3 -2l-75 -70q-16 -8 -26.5 2.5t-2.5 26.5zM433.5 934 q-4.5 12 9.5 22q1 0 2 1q10 5 19 1q18 -9 36.5 -25t26.5 -35q5 -18 -8 -26t-27 5q-5 13 -17 24t-25 19q-12 2 -16.5 14zM466.5 1108q0.5 7 5.5 12.5t16 6.5q22 2 38.5 -3.5t18.5 -31.5q-1 -10 -6.5 -15.5t-12 -6t-13 4t-8.5 13.5q-5 0 -9 -0.5t-9 -0.5q-11 1 -16 7.5 t-4.5 13.5zM471 -66q0 6 2 10q23 21 50 26.5t56 5.5q11 0 12 -9t-10 -11q-25 0 -46 -2t-42 -19q5 -9 14.5 -15t19 -12.5t17 -15.5t10.5 -24q2 -12 -2.5 -25.5t-13 -21.5t-18 -8t-18.5 15q-2 4 -2 6.5t2 6.5q5 4 7.5 5t8.5 2q13 0 11 -11q6 1 6.5 8t-1 14.5t-4.5 14.5t-5 9 q-6 8 -13.5 13.5t-15.5 11t-14.5 11.5t-10.5 15zM476 47q-1 5 1.5 8.5t6 4t7 -1.5t5.5 -7q1 -7 1.5 -14.5t5.5 -12.5q12 1 22.5 8t20 16t18 18.5t15.5 17.5q8 7 14.5 0.5t-0.5 -14.5q-12 -13 -30 -31.5t-35.5 -28.5t-31.5 -4t-20 41zM507.5 342q-1.5 27 1.5 54.5t9.5 53 t12.5 43.5q13 36 21 58.5t14 39t11 30.5t12 31q-8 28 -11 53q1 7 6 12q-1 18 -1.5 36t-3.5 35q-3 12 2 29.5t14 33.5t21.5 27.5t26.5 11.5q7 -3 13 -8q21 7 41 8q11 27 19.5 54.5t12.5 56.5v2q-9 14 -15 33.5t-10.5 39.5l-9 40t-9.5 35q-7 20 -14.5 39t-14.5 39 q-4 13 -6.5 21.5t-4 15.5t-1.5 14t2 18q4 18 22 19q20 -6 37.5 -18.5t33 -27.5t30.5 -31t30 -29q13 -11 28 -22.5t29 -24.5q-5 72 4 145t20 145q4 16 16 18t22 -10q17 -30 28.5 -60.5t19.5 -64.5q3 -11 5.5 -26.5t6 -32t8.5 -32.5t11 -27q10 -10 10 -19q16 17 43.5 26.5 t61.5 13.5t71 3.5t71 -4.5t62 -10t44 -13q58 -24 101.5 -52t77.5 -63t59 -81t46 -106q9 -24 18 -48.5t11 -50.5q2 -24 1.5 -49t-0.5 -50q29 -16 45 -46q28 -53 30 -102t-15 -107q-11 -34 -39 -68.5t-66 -61t-81 -41t-82 -6.5v-3q-5 -17 -8 -35t-12 -35q-15 -27 -41 -49 t-57 -39t-64 -29t-62 -18q-57 -12 -99.5 -19.5t-78 -10t-67 0t-66 10.5t-75.5 21.5t-95 32.5q-46 16 -79 32.5t-57.5 37t-44.5 48.5t-41 67q-10 19 -11.5 46zM551 399q-7 -44 4 -85q10 -34 31.5 -59.5t49.5 -45t59.5 -34.5t60.5 -27q21 -9 46 -18.5t51.5 -18.5t53.5 -15.5 t52 -8.5q31 -2 72 -1t85.5 7t89.5 17t84.5 28t71 40.5t49.5 53.5q8 14 10.5 29.5t6.5 30.5l2 4q-4 2 -7.5 4.5t-7.5 5.5q-14 11 -14.5 23.5t7.5 23.5t21 18t26 7q9 -3 13 -8.5t4 -12t-4.5 -12t-13.5 -7.5h-4l-4 -4q25 -13 47.5 -11.5t48.5 9.5q42 13 78 41.5t59 66t31 82 t-5 88.5q-6 18 -24 39t-40 33.5t-44 11t-34 -28.5q-3 -8 -4 -16t-3 -16q-6 -15 -18 -15.5t-18 10.5q-18 -8 -40 -10q5 -17 0 -40.5t-15 -47t-23.5 -43.5t-24.5 -30q-8 -8 -18 -13t-20 -11q-27 -17 -57 -19.5t-60 3.5t-59 18.5t-53 26.5q-8 -6 -16.5 -3.5t-13.5 13.5l-2 8 q-8 5 -15.5 11t-13.5 14q-17 23 -18.5 57t1.5 69q-3 11 -5 22.5t-3 23.5v2l-3 -3q-5 -8 -6.5 -17.5l-3 -19t-4.5 -18.5t-11 -17q-32 -30 -62.5 -46.5t-62 -24.5t-65.5 -10t-72 -2l-4 -4q-4 -12 -14.5 -15t-21.5 8q-17 2 -34.5 9t-26.5 14q-39 29 -62 71q-24 -62 -42 -123 q-11 -38 -18 -82zM586 -132.5q-1 22.5 8 45.5t24 39.5t26 10.5l4 2q7 3 12 -2q16 -15 19 -39t-5 -45.5t-25 -34.5t-41 -6q-21 7 -22 29.5zM608.5 -128q0.5 -9 6.5 -14q14 1 24 9t16 19t6.5 24t-4.5 24q0 -2 0.5 -4t0.5 -4q1 -7 0.5 -13.5t-0.5 -14.5q-2 -9 -10 -8.5t-10 9.5 v26q-5 2 -5 8v4q-2 2 -2 4q-5 -4 -7 -7.5t-5 -10.5q-2 -5 -5 -14t-4.5 -18.5t-1 -18.5zM690 1259q12 -47 31 -103t33 -106q1 0 1 -1h-1l1 -1v-1q2 -8 5 -15.5t8 -11.5q7 -8 5.5 -15.5t-6.5 -12.5q-3 -29 -10.5 -55.5t-18.5 -52.5q19 -6 28 -21q35 -3 66.5 -13t61.5 -24 t59 -31t59 -35q18 -11 28 -34q6 7 18 9q51 0 101 -1.5t100 -14.5q12 -3 36.5 -10.5t53 -17.5t57 -22t47.5 -24q3 7 13 11q6 1 12.5 2t12.5 3q5 11 20 13l11 -3q1 9 8 17q20 24 48 34.5t57 6.5q1 22 1 47.5t-4 45.5q-12 60 -36 116t-60.5 103t-84.5 82.5t-108 55.5 q-34 13 -75 19q-8 1 -28 3t-45.5 3t-53 -0.5t-51.5 -7t-40 -16t-19 -27.5q-7 -17 -21.5 -15t-17.5 20q1 5 1 10t2 10l-7 -2h-3q-11 2 -16 7.5t-5 13.5q-5 8 -7.5 16.5t-7.5 23.5q-10 37 -18 74t-20 73q-4 -32 -6.5 -64.5t-6.5 -64.5q0 1 0.5 6t0.5 9.5v7t0 0.5 q-3 -47 -3.5 -91.5t11.5 -90.5q-1 -16 -13 -20.5t-23 6.5l-3 5v1q-17 29 -43.5 50t-51.5 43q-21 19 -41.5 39t-41.5 39zM722 -76q-3 8 1 12.5t12 2.5q7 -1 10 -10q3 -5 3 -9q2 -13 1 -27.5t-1 -19.5q8 8 15 16t16 13q9 6 16.5 9.5t15.5 5.5q0 4 -2 12q-2 15 -2 30t-1 30 q2 10 10 9.5t10 -8.5v-30.5t2 -38.5h5q24 4 34 -4t11 -20t-6 -24.5t-16.5 -17t-20.5 2t-19 33.5l-2 8q-12 -6 -22.5 -15t-19.5 -17.5t-17.5 -14t-16.5 -4.5q-4 2 -6 7q-4 17 -3 33t-3 32zM726 811l2 -11q3 -1 9 -7q0 8 1 13zM730.5 365q6.5 7 14.5 0q64 -63 148 -84t171 -1 q7 2 21.5 4.5t29 6.5t27 9.5t15.5 12.5l-3 5q-5 10 2.5 14t14.5 -4l7 -11q1 -5 -1 -9q-7 -13 -19.5 -21t-27.5 -12.5t-31 -7.5t-29 -6q-92 -21 -181 1t-157 88q-8 8 -1.5 15zM772 818q10 -13 18 -32v11q5 15 19 16t20 -14h1v-3q4 -30 7.5 -60t5.5 -60l6 -24t7 -23 q4 -16 -8 -25q0 -2 0.5 -4.5t0.5 -4.5q-1 -14 -9.5 -19t-21.5 0q-11 11 -18.5 27t-12.5 36q4 -29 6 -57q-2 -12 -6 -16q41 -5 82.5 3.5t75.5 28.5q-9 2 -15 8q-6 9 -13 29t-14 42.5t-12 44t-6 33.5q2 9 7.5 13.5t12 4.5t12 -4t8.5 -13q12 7 24 -3q16 -14 26 -38v4q2 9 6 13 q-38 33 -95 58t-114 33v-5zM832 -96q2 -9 6 -16.5t11 -12.5q8 2 8.5 11.5t-0.5 14.5q-14 5 -25 3zM835 968q7 34 28 53t45 21t45 -14.5t28 -53.5q-2 -17 -16.5 -21t-22.5 13q-3 20 -13 29t-21 7.5t-20.5 -11.5t-13.5 -28q-7 -17 -21.5 -15t-17.5 20zM965 611q2 1 6 5l-5 9 q0 -2 0.5 -3t0.5 -2q-1 -3 -1 -5t-1 -4zM1069 688q5 5 10 6v1h-9q0 -5 -1 -7zM1114 627l3 -9q-1 7 -1 13.5v13.5q-1 -5 -1.5 -9t-0.5 -9zM1155 691q1 -9 2 -17.5t3 -17.5q6 6 15 5t17 -9q0 -2 1 -3q8 -29 12 -53.5t18 -51.5q6 -2 10.5 -8t3.5 -15q0 -3 -2 -7 q-5 -11 -13.5 -14.5t-17.5 2.5q-1 -5 -1.5 -10.5t-0.5 -10.5q63 -29 114 -26q-17 46 -30.5 93t-37.5 90l-8 2q-17 7 -14 20.5t17 17.5q-41 8 -88 13zM1226 890q9 41 34 56.5t52.5 10.5t51 -28.5t31.5 -60.5q-2 -17 -16.5 -21t-22.5 13q-4 20 -16.5 35t-27.5 20.5t-28.5 -1 t-18.5 -29.5q-7 -17 -21.5 -15t-17.5 20zM1251 -186q1 6 8 9q32 11 68.5 15t70.5 9l14 2q24 19 35.5 47t20.5 60.5t19.5 66.5t33.5 64q7 4 12 2q11 -5 14 -18t2 -28.5t-4 -31t-4 -24.5q-4 -8 -11 -7.5t-9 9.5q2 18 4 35.5t1 35.5q-15 -26 -24 -53.5t-16.5 -54.5t-16 -51.5 t-22.5 -44.5q31 5 62.5 9t62.5 0q8 -2 8.5 -10t-9.5 -10h-17q-2 1 -3 1t-2 1q-29 0 -59.5 -3.5t-61.5 -9.5q-17 -15 -43.5 -23.5t-64.5 -9.5q-11 0 -29.5 -1t-32.5 4q-8 4 -7 10zM1272 670q1 0 3 -2q13 -15 26 -40q-3 19 -3 34v1q-11 4 -26 7zM1348 647q2 -4 4 -12q3 5 8 7z M1362 467l1 1v1h-1v-2zM1388 632q2 -6 3.5 -13t3.5 -14q0 7 -0.5 13t-0.5 11zM1398 497q5 5 9 11.5t8 14.5q-6 -4 -13 -3q-1 -6 -1.5 -12t-2.5 -11zM1434 583q2 8 4 22l-4 3q0 -6 0.5 -12.5t-0.5 -12.5zM1495 476q5 29 20 50q11 14 28 24q23 13 43 4t30 -28t6.5 -41 t-27.5 -35q-9 -5 -18 -6.5t-19 3.5q-11 11 -6.5 23t18.5 13q4 2 11.5 6t3.5 11q-6 11 -13 14.5t-18 -5.5q-9 -8 -13.5 -17.5t-6.5 -20.5q-7 -17 -21.5 -15t-17.5 20zM1539 -251q11 21 26 32.5t33 18t38.5 10t44.5 8.5q17 4 35.5 8t39.5 8q3 17 3.5 34t-2.5 31 q-5 -11 -12 -25.5t-15.5 -24.5t-19.5 -9.5t-24 20.5q-3 -6 -9 -14l-6 -8q-5 -4 -12 -1q-10 6 -9.5 20t0.5 23q-4 -6 -9.5 -15t-11.5 -17.5t-13.5 -14.5t-16.5 -7q-2 1 -4 1.5t-4 2.5q-5 7 -6 17t1.5 21t6 21t7.5 16q5 7 11 6.5t8 -8.5q1 -1 1 -3q0 -7 -6 -9q-3 -8 -4.5 -18 t-2.5 -19q11 15 21 32t22 31q5 5 10 3.5t7 -8.5q3 -9 2 -22t-2 -23q2 6 4.5 11.5t7.5 8.5q7 3 12 -2q13 -16 19.5 -20t10.5 1t8.5 18.5t14.5 33.5q4 6 10 6h11q6 -3 9 -9q9 -36 4 -76q47 8 94.5 13t85.5 1q8 -2 8.5 -8t-6.5 -11t-16.5 -6.5t-17.5 -5.5q-8 -1 -11 3t-1 9 q-33 -1 -69 -5.5t-71 -11.5l-3 -15q-12 -50 -36 -75t-55 -30t-66.5 6.5t-71.5 34.5q-4 6 -3 11zM1561 -251q13 -9 34 -17.5t43 -13t43 -2.5t35 16t22.5 36t12.5 39q0 2 0.5 3t0.5 3l-65 -14q-10 -2 -28.5 -5.5t-38 -9.5t-36.5 -14.5t-23 -20.5z" />
<glyph unicode="&#x3b;&#x3b;For&#x20;Education&#x20;Used&#x20;Only&#x3b;&#x3b;" horiz-adv-x="1001" d="M148 545q4 23 2.5 67t-1.5 99.5t3.5 116t17.5 116t41 101t74 69.5q78 43 138.5 60t113 15t101.5 -17.5t102 -36.5q29 -12 48.5 -43.5t31.5 -70t17 -76.5t7 -62q10 -57 12.5 -117t1.5 -119q3 -42 6 -99.5t3 -119.5t-5.5 -125t-20.5 -117q-2 -22 -5.5 -42.5t-10.5 -37.5 t-17 -29.5t-24 -16.5q-8 -2 -12 0q-6 -6 -13 -9.5t-15 -5.5q-2 -2 -9 -4h-3q-51 -5 -102 -9t-102 -5t-102 4.5t-102 20.5q-69 17 -105.5 64.5t-48.5 138.5q-6 48 -10.5 80.5t-7 62t-3.5 63t-1 84.5zM187.5 697q2.5 -73 0.5 -151q-1 -33 0 -70t4 -74.5t7.5 -75t10.5 -70.5 q7 -33 15.5 -59t27.5 -45t52 -32t88 -21.5t136 -12.5t197 -5q9 3 21 11q20 17 32 43t20 55q2 22 2.5 44.5t0.5 40.5v30v14l6 120q2 51 6 107t5 116q-4 54 -8 106.5t-6 106.5q0 2 -0.5 3.5t-0.5 3.5q-4 37 -16.5 77t-41 74.5t-77 57.5t-123.5 25q-106 3 -173 -16t-106 -56.5 t-56 -91t-21.5 -118t-2 -137.5zM340 699.5q1 63.5 21 129.5q9 31 46 50q2 4 4 7t4 7q6 10 20 13.5t29.5 4.5t30.5 -0.5t24 -1.5q50 -3 76.5 -10.5t38 -24.5t12 -47t-0.5 -79q0 -2 -0.5 -2.5t-0.5 -1.5t1 -2q-2 -13 -10.5 -19t-17.5 -2q-8 -2 -15 3t-9 17q0 12 6 18 q0 21 -1.5 46t-16.5 39q-10 9 -29 13t-40.5 4t-42 -3.5t-33.5 -8.5q-15 -30 -25 -66.5t-15.5 -75.5t-7.5 -78t-2 -75q7 -48 14 -92t9 -78q-2 -12 -7 -16q2 -5 4.5 -10t6.5 -9q17 -13 42.5 -21t52.5 -10t51 2t38 15q6 5 8 30t2 54.5t-1 56t-1 35.5q3 14 14.5 17t19.5 -5 q13 -2 18 -17q0 -23 2 -47t2 -48t-4 -47.5t-16 -44.5q-6 -12 -25 -21t-44.5 -14.5t-54 -7t-54.5 1.5t-45.5 11t-27.5 21l-1 1q-15 10 -22 21q-4 6 -6 13t-4 13q-2 7 0 12t5 8q-8 32 -11 66.5t-4 70.5q0 14 -0.5 28t0.5 28q-8 65 -7 128.5z" />
<glyph unicode="&#x3b;&#x3b;Registered&#x3b;&#x3b;" horiz-adv-x="883" d="M82 545q4 23 2.5 67t-1.5 99.5t3.5 116t17.5 116t41 101t74 69.5q53 19 94.5 28t76 11.5t64 -1t58 -9.5t57.5 -12.5t64 -10.5q31 -4 57 -32t45 -65.5t30 -76.5t13 -63q-6 -98 -1 -194t9.5 -185.5t4 -170t-15.5 -147.5q-28 -70 -71 -111t-93 -61t-103 -22t-101 6.5 t-87.5 23.5t-61.5 30q-30 19 -55.5 36.5t-45.5 39.5t-33.5 52t-19.5 75q-6 48 -10.5 80.5t-7 62t-3.5 63t-1 84.5zM129 715.5q3 -69.5 1 -147.5q-1 -33 0 -75.5t3.5 -87t7 -87.5t10.5 -76q2 -9 16.5 -30t40 -47t60 -52t76 -45t88.5 -27t97 3.5t101.5 46t102.5 99.5 q2 22 2.5 44.5t0.5 40.5v30v14l3 556q0 2 -0.5 3.5t-0.5 3.5q-4 37 -16.5 72.5t-41 64.5t-76.5 47.5t-123 20.5q-106 3 -172.5 -12.5t-105 -47t-54 -78.5t-19.5 -105.5t-1 -128zM296 878q2 9 7.5 13.5t12 4.5t12 -4t8.5 -13v-1q24 18 61 23.5t73 -2t63 -28t31 -55.5 q2 -16 5.5 -32t-1.5 -31q-1 -3 -3 -12t-5.5 -20.5t-8 -22.5t-9.5 -18q-21 -26 -29 -37t-15 -17t-17 -11.5t-35 -19.5l10.5 -10.5t10.5 -12.5q32 -28 47.5 -69.5t25.5 -81.5l4 -22q11 -35 23 -67.5t26 -58.5l8 -3l8 -2v-1q11 -6 11 -17.5t-12 -17.5l-1 -1q-6 -2 -11 0h-1h-1 q-16 2 -25 11l-12 6q-9 4 -16 18t-12.5 30.5t-9 32t-5.5 22.5l-6 28q-12 39 -27 81t-37 74q-6 -1 -12 2t-9 11q-16 1 -20 14q-10 2 -20 3.5t-20 3.5q-1 0 -5 2q-5 0 -9.5 -0.5t-9.5 -0.5q2 -78 2.5 -155t1.5 -155q-1 -11 -6.5 -16t-12.5 -5.5t-13.5 4.5t-7.5 16 q-1 156 -3.5 310t-3.5 310zM336 819q0 -53 1 -105t2 -105q21 3 37.5 5t31 6t29.5 12.5t33 23.5q20 17 37 49.5t21 66t-10 60t-54 31.5q-17 2 -33 -1t-33 -5q-28 -2 -49 -18q0 -4 -1 -6q-5 -11 -12 -14zM421 552q0 -1 1 -1q-1 1 -1 4v-3z" />
<glyph unicode="&#x3b;&#x3b;Trademark&#x3b;&#x3b;" horiz-adv-x="599" d="M86.5 1237q-1.5 5 1 10.5t10.5 8.5q21 7 41.5 8.5t41 0t41 -4t41.5 -3.5q14 -4 13 -16t-14 -15q-16 1 -31 2.5t-31 3.5q2 -51 5 -104t-5 -104q-5 -12 -16.5 -11t-13.5 15v9q0 3 1 4q5 49 2 97t-3 96q-34 2 -64 -7q-8 -2 -13 1.5t-6.5 8.5zM286 1020q0 29 1 58t3 59 q1 14 1.5 21.5t1.5 13.5t2 13t4 20q3 20 12.5 31t21 13t23 -5.5t20.5 -25.5q11 -23 15 -46q6 16 16 33q11 15 23.5 25.5t25 13.5t24 -3.5t21.5 -25.5q6 -13 7 -38t-0.5 -53t-4.5 -54.5t-4 -42.5q0 -8 -4.5 -12t-10 -4t-10 3.5t-5.5 11.5q1 19 4 44.5t4.5 51.5t0 50t-10.5 40 q-19 2 -30 -16.5t-16 -44t-6.5 -51t-1.5 -37.5q-2 -15 -13.5 -17t-16.5 11q-2 1 -4 7q-2 8 -3 17t-3 17v1q-5 9 -7.5 27.5t-5.5 38t-8 35t-16 18.5q-5 -4 -8 -17t-4.5 -27.5t-2 -28t-1.5 -19.5v5q-2 -28 -3 -55.5t-1 -54.5q0 -8 -4.5 -12.5t-10 -4.5t-10 4t-5.5 12z" />
<glyph unicode="&#x3b;&#x3b;Multiply&#x3b;&#x3b;" horiz-adv-x="613" d="M60 890.5q0 8.5 5.5 14.5t14 7.5t17.5 -5.5q57 -46 105.5 -97.5t97.5 -103.5q29 40 58 79.5t58 80.5q-2 5 0 12t10 12q6 2 9 12.5t8 18.5q-1 6 3 12t15 11q17 2 29 -10t14 -28q0 -10 -8 -19l-1 -1q-7 -4 -14 -4q-37 -53 -74.5 -104.5t-76.5 -104.5l3 -3t3 -2 q45 -48 95.5 -92.5t91.5 -96.5q3 1 5 1.5t4 0.5h6q14 -4 17 -13.5t-2 -18.5q12 -8 8.5 -20.5t-19.5 -15.5q-23 2 -37 11.5t-17 30.5q-35 43 -76.5 80.5t-81.5 75.5q-4 -2 -6 -2h-9q-7 -5 -16 -5t-16 7q-28 -37 -57.5 -73.5t-59.5 -73.5l-43 -66q-11 -14 -24.5 -10t-15.5 17 q-12 12 -3 28q28 31 57 66q32 45 64 89.5t68 84.5q-49 53 -96.5 104.5t-104.5 96.5q-8 8 -8 16.5z" />
<glyph unicode="&#x3b;&#x3b;Divide&#x3b;&#x3b;" horiz-adv-x="759" d="M64 586q0 9 1.5 18t3.5 17q7 11 16.5 12.5t17.5 -4.5q134 0 266 -3t265 -3q0 5 3 8l1 1q0 2 3 2q1 1 6 4l8 2h2h12q18 -6 18 -22q7 -4 10 -12q3 -9 0 -16.5t-9 -11.5t-13.5 -3.5t-13.5 7.5q-5 1 -10.5 -0.5t-10.5 -1.5h-69q-101 1 -199 2.5t-198 2.5q-3 -13 -19 -16 q-9 0 -18 0.5t-18 0.5q-4 0 -10.5 -2.5t-8.5 -2.5q-4 -2 -12 -2q-8 -1 -15 5t-9 18zM306 787.5q-7 21.5 3 41.5v2q6 30 19 40.5t27.5 8t28 -15.5t21 -30t7 -35t-14.5 -31q-8 -7 -21 -9.5t-24 -0.5q-39 8 -46 29.5zM319.5 395.5q0.5 10.5 5.5 20.5t12 18q1 3 6 8q3 6 13 9 q10 4 24 1q15 5 31 -8.5t21 -39.5q0 -2 -0.5 -3t-0.5 -3q3 -5 3 -12q0 -17 -13 -23q-11 -3 -19.5 -4t-16.5 -1q-13 -4 -26 -5t-23 7q-10 6 -13.5 15.5t-3 20z" />
<glyph unicode="&#x2018;&#x2018;" horiz-adv-x="436" d="M63 979.5q0 33.5 15 70.5t38 70.5t43 52.5q8 10 17 15q2 1 5.5 3t5.5 2q6 2 8 2q10 5 19 2t11 -11q5 -8 1 -17.5t-16 -11.5h-1q-1 -1 -3 -1q-4 -6 -6 -7q0 -11 -10 -17h-1l-7 -5q-5 -5 -11 -14q-7 -9 -14 -19t-13 -21l-7 -14q32 -5 45.5 -30.5t10.5 -53t-22 -47 t-52 -12.5q-5 1 -13 5q-5 2 -9 3.5t-8 3.5q-26 18 -26 51.5zM258 1005q-1 28 6.5 57.5t21.5 57t32 45.5q3 5 6.5 8.5t7.5 8.5q8 5 13 5q10 13 27 8q8 -3 10.5 -8.5t4.5 -13.5q-1 -11 -7.5 -17t-14.5 -5q-1 -3 -6 -5l-4 -2t-4 -3q-14 -20 -24 -41t-16 -44q26 -5 47.5 -18 t24.5 -42q1 -13 -3 -27.5t-12.5 -25.5t-21.5 -16.5t-28 0.5q-6 2 -7 3q-2 1 -5 1.5t-5 2.5q-20 10 -28 25q-14 18 -15 46z" />
<glyph unicode="&#x2019;&#x2019;" horiz-adv-x="608" d="M148.5 947.5q2.5 9.5 8.5 17t14 11.5t16 2q13 19 21.5 38.5t14.5 40.5q-26 5 -47.5 18t-24.5 42q-2 13 2.5 27.5t13 25.5t21.5 16.5t28 -0.5q6 -2 7 -3q2 -1 5 -1.5t5 -2.5q20 -10 28 -25q13 -18 14.5 -46t-6 -57.5t-21.5 -57t-32 -45.5q-3 -5 -6.5 -8.5t-7.5 -8.5 q-7 -5 -11 -6q0 -2 -1 -3v-8q-1 -11 -6.5 -16t-12.5 -5.5t-13.5 4.5t-7.5 16v12q0 1 0.5 2t0.5 3q-5 8 -2.5 17.5zM297 906q-5 15 1.5 28t20.5 18q6 5 15 6q-2 6 0.5 12.5t9.5 10.5h1l7 5q5 5 11 14q7 9 14 19t13 21l7 14q-32 5 -45.5 30.5t-10.5 53t22 47t52 12.5 q5 -1 13 -5q5 -2 9 -3.5t8 -3.5q26 -18 26 -51.5t-15 -70.5t-38 -70.5t-43 -52.5q-8 -10 -17 -15l-5 -3v-14q-2 -17 -14 -21t-20 6q-6 -2 -12 1t-10 12z" />
<glyph unicode="&#xe24;&#xe32;" horiz-adv-x="901" d="M46 939q22 30 52.5 51t62.5 38q39 20 83 29.5t85 4t75 -29t52 -69.5q19 -49 26.5 -100.5t8.5 -105.5v-1l3 -39q2 -49 -0.5 -97.5t-7.5 -97.5q-2 -25 -6.5 -49.5t-6.5 -49.5q-1 -27 3 -53.5t2 -54.5q0 -14 -3.5 -27.5t-5.5 -27.5q-2 -18 0 -36t0 -37v-6q2 -146 3.5 -291.5 t2.5 -293.5q-2 -18 -16 -21t-21 11q-8 -2 -15 3t-9 16q-1 103 -1 204.5t4 203.5v48t1 48q1 51 2 101t3 101q1 27 2 46.5t2 37.5t2 36.5t3 42.5q5 71 12 143.5t5 144.5q-8 43 -20 80.5t-19 79.5q-4 4 -5 9q-2 15 -16.5 26.5t-32.5 22t-34 21t-20 23.5q-44 9 -123 -31 q-45 -23 -85 -60q34 -14 51 -30t23 -37t4.5 -48t-2.5 -63q-4 -123 -14.5 -244t-18.5 -243l-4 -98q-1 -25 -1.5 -49.5t-0.5 -49.5v-14q6 -10 22 -7t48 21q22 9 30 -15v-2q4 -6 2 -14.5t-12 -13.5q-19 -9 -38.5 -15.5t-37 -7t-31 7t-19.5 25.5q-11 17 -11 40v49 q0 132 0.5 262.5t11.5 261.5q0 3 2 30.5t5.5 62.5t9 69.5t13.5 51.5q-6 10 -15.5 16t-20 10.5l-21 9t-19.5 10.5q-13 14 -4 30zM540 1021q5 16 25.5 24.5t46 11.5t51.5 2t43 -4q31 0 49 -18l5 -3q20 -14 30 -35.5t14 -46.5t4 -50.5v-47.5q2 -91 1 -181t-9 -181 q-3 -83 -9 -165q0 -75 4 -150.5t6 -151.5q2 -78 -1.5 -156t-4.5 -157q-1 -30 1.5 -60t2.5 -61q0 -2 -0.5 -3t-0.5 -3q-1 -1 -1 -3l-6 -8q-2 -2 -3.5 -2.5t-3.5 -1.5h-5q-8 -9 -20 -5.5t-14 19.5q1 91 3.5 180.5t-3.5 179.5q-2 40 -3 77t0 82q1 35 0 65t2 65q2 20 3.5 40 t3.5 40v21.5t1 21.5q1 35 3 68.5t5 68.5l3 106q0 30 0.5 62.5t0 66.5t-1.5 67t-3 63q-3 51 -7 89t-22 55q-6 4 -12.5 6.5t-13.5 4.5q-6 0 -22.5 1t-36.5 1t-39 -2t-30 -7q-4 -8 -11 -10t-13.5 0t-10 8.5t-1.5 16.5z" />
<glyph unicode="&#xe26;&#xe32;" horiz-adv-x="1006" d="M8 35.5q2 10.5 9 19t18 9.5q4 0 15 -3q2 2 4.5 2t5.5 1q18 0 30.5 -0.5t20.5 -0.5t13 3t9 11q5 14 9 33q2 18 2 41.5t2 53.5q1 17 2 34.5t1 35.5q-2 85 -9 167.5t-8 167.5q0 24 -0.5 39t-1 28t-0.5 28t1 38q0 6 0.5 16.5t0.5 22.5v24.5v22.5q-12 -2 -25.5 1.5t-23 11 t-14.5 19.5t0 27q14 51 52.5 92t88 64.5t104.5 26t103 -24.5q4 -2 11.5 -7t16.5 -12t17 -14.5t12 -14.5q19 -30 28 -61t12 -63.5t1.5 -65t-5.5 -65.5q-1 -10 -1.5 -49t-0.5 -97t0.5 -129.5t1 -146t1.5 -146t1.5 -129.5t0.5 -97.5v-49.5q-1 -20 0 -24.5t2 -6.5t2.5 -8.5 t3 -30.5t2.5 -71.5t1 -132.5q-1 -6 -8.5 -11t-11.5 -7q-3 -7 -8.5 -10t-11.5 -2t-11 6t-6 14q-1 229 -5.5 454.5t-5.5 454.5q-3 4 -3 11q1 52 6 107.5t3.5 111t-13.5 108t-45 97.5q-23 32 -43 48.5t-41 20.5q-36 0 -73 -14q-8 -4 -17.5 -9t-19.5 -10q-28 -16 -48.5 -35.5 t-26.5 -51.5q-8 -18 -23 -15q-4 -10 -6 -20q4 -1 13 -4t14 -3q3 7 18.5 6.5t25.5 -3.5q16 -7 16.5 -25t-3.5 -35v-255q0 -63 1 -126t-1 -126v-48t-1 -49q0 -20 -1.5 -40t-3.5 -40t-2.5 -43t-5.5 -42t-18 -30.5t-39 -9.5q-8 1 -21 1.5t-26.5 1t-26.5 1t-22 1.5 q-11 1 -14 10.5t-1 20zM604 917q-3 24 8.5 49.5t33 47.5t50 38.5t59.5 23t61.5 1t55.5 -26.5q8 -6 12 -13.5t8 -15.5q11 -4 15 -16v-11t-1 -11q11 -32 13.5 -64.5t1.5 -65.5t-3.5 -66t-2.5 -66q2 -61 0.5 -131.5t-0.5 -131.5q2 -109 1 -211.5t-6 -211.5q0 -40 -0.5 -67.5 t-2 -53t-2.5 -53.5t-1 -68l1 -13t2.5 -29t2 -29l0.5 -13q3 -13 7.5 -29.5t6 -32t-2.5 -28t-16 -17.5q-8 -2 -18.5 -2t-19 1.5t-14 4.5t-2.5 8q4 30 10 65.5t4 65.5q-4 69 -1 138t6 137q0 53 -0.5 85t-1 51t-1.5 28t-1.5 16.5t-1 17t-1 28.5t-1 51t-0.5 85q-1 1 -0.5 36t1 88 t2 114.5t3 114.5t2 89t0.5 38q6 25 3.5 59t-7.5 59q-11 31 -32 45t-46 14t-50.5 -11.5t-46.5 -29.5t-34.5 -40.5t-13.5 -45.5q-7 -17 -21.5 -15t-17.5 20z" />
<glyph unicode="&#xd;" horiz-adv-x="579" />
<glyph unicode=" "  horiz-adv-x="421" />
<glyph unicode="&#x09;" horiz-adv-x="421" />
<glyph unicode="&#xa0;" horiz-adv-x="421" />
<glyph unicode="!" horiz-adv-x="254" d="M90 1205q1 10 6 16q5 7 18 10l7 3q6 13 19 13t19 -15q4 -3 6 -10v-9v-2v-1107q-1 -12 -8 -17.5t-15 -4.5q-8 -1 -14 4.5t-8 16.5v241q-4 6 -4 12q-1 198 -6 394.5t-7 394.5l-2 2q-3 7 -6 17t-4.5 20.5t-0.5 20.5zM94 -92q1 24 9.5 34.5t19.5 11.5q14 11 31 10t28 -24 q6 -11 4 -25q3 -12 -3 -24t-23 -17q-11 -8 -24 -10t-25 6q-8 6 -12.5 17t-4.5 21z" />
<glyph unicode="&#x22;" horiz-adv-x="511" d="M146 1121q2 9 8 14t13 4q8 6 18 3t14 -16v-119q-1 -10 -6 -16q1 -14 2.5 -23.5t5.5 -12.5q8 -11 5 -19.5t-11 -11.5q-2 -10 -7.5 -15t-12.5 -5t-13 5t-7 16l-2 48q-2 12 -2.5 24.5t-0.5 25.5q-2 24 -3 48.5t-1 49.5zM291 929q1 23 3 44.5t4 44.5q0 10 -1 24l-2 28t1 27.5 t8 23.5v4q2 9 7.5 13.5t12 4.5t12 -4t8.5 -13q0 -45 -2.5 -89.5t-2.5 -89.5q-1 -11 -8 -18q-1 -10 -7 -15.5t-12.5 -5.5t-13 5t-7.5 16z" />
<glyph unicode="#" horiz-adv-x="1163" d="M-0.5 477q0.5 7 5.5 12.5t16 6.5q28 0 67.5 1.5t81 3t81 3t67.5 1.5q20 59 41 117l42 116l-254 -7q-9 1 -13.5 5.5t-6.5 10.5q-8 8 -4.5 19.5t20.5 13.5l274 7q9 39 19 78t22 78q15 49 24.5 77.5t19 51.5t22.5 49t34 72q5 9 13 11t14.5 -1t9.5 -10.5t-1 -16.5l-8 -16 q-4 -43 -19.5 -80.5t-33.5 -75.5q-2 -2 -2 -5q0 1 0.5 1.5t0.5 1.5q0 -1 -1 -2v-1q-1 -1 -1 -2q-1 -1 0 -1q-20 -50 -37 -101l-34 -102l-2 -6h105q40 1 67.5 2t53 1t53.5 0.5t67 1.5l4 11q10 43 25 85.5t31 84l32 83t28 83.5q0 1 0.5 1.5t0.5 1.5l4 25q2 8 7 12.5t11 5 t11 -2t8 -8.5q12 -5 11 -21q-4 -39 -13.5 -74.5t-23.5 -69.5q3 -10 -5 -21q-12 -49 -26 -97.5t-30 -96.5q13 1 34 1.5t45.5 0.5t50 -0.5t47.5 -2.5t38 -5t22 -7l4 -7l24 -2q4 -2 7 -4q1 0 3 -2q6 -6 6 -11q2 -4 0 -7q0 -1 -1 -2q0 -1 -0.5 -2t-0.5 -2l-3.5 -3.5l-3.5 -3.5 q-1 0 -1.5 -0.5t-1.5 -0.5l-4 -2h-2q-31 0 -67.5 0.5t-74.5 1t-74.5 1t-67.5 0.5q-20 -57 -41 -113t-42 -113q17 0 47.5 -0.5t63.5 -0.5t63.5 -0.5t48.5 -0.5q17 -6 17 -20q14 -7 12.5 -21t-17.5 -17q-22 0 -56.5 0.5t-72 0.5h-72h-56.5q-15 -39 -29 -78t-26 -79 q-10 -30 -19 -61t-20 -61q-12 -36 -25.5 -71t-16.5 -73q-1 -10 -6.5 -15.5t-12.5 -6t-13 4.5t-8 15q-6 0 -11 5.5t-7 14.5q3 25 10 48t16.5 45t20.5 44t20 45q8 17 12 33.5t9 33.5v1q8 38 18.5 77t21.5 77l-66 4q-18 -2 -36.5 -4t-36.5 -3q-42 -2 -84 -3t-84 -1 q-11 -40 -28.5 -89t-37 -99.5t-40 -98.5t-38.5 -86l-6 -13q-2 -11 -3 -22t-3 -22q-5 -13 -14.5 -15t-17.5 5q-11 0 -17 9.5t1 22.5l15 31q6 39 19 88.5t28.5 101t31.5 100.5t28 88q-18 0 -47.5 -1t-61.5 -2t-61.5 -1.5t-47.5 -0.5h-2h-21q-19 3 -21 18h-15q-11 1 -16 7.5 t-4.5 13.5zM396 506q48 1 84.5 1h70h70t84.5 1q14 42 28.5 83.5t29.5 84.5q5 14 9.5 29t9.5 29l-336 4q-13 -56 -24.5 -110.5t-22.5 -108.5zM641 271l1 1v1z" />
<glyph unicode="$" horiz-adv-x="629" d="M67 391q3 8 6.5 11.5t12.5 6.5q29 11 53 -2q13 2 24.5 -7.5t16.5 -31.5q0 -2 1 -3v-7q-1 -32 -2.5 -68.5t0.5 -73.5t8.5 -72.5t21.5 -65.5q8 -11 18 -20t22 -17q12 -3 25.5 -2.5t27.5 3.5q-4 161 -8.5 321t-9.5 321q-29 4 -57 9t-52 22q-55 39 -74 85.5t-17 107.5v8 q-8 33 -10.5 66t11.5 65l10 20t12 19q8 25 23.5 50t36.5 47t47.5 37.5t56.5 20.5q-2 17 -4 35.5t-1 35.5q-11 0 -18.5 7.5t-3.5 20.5v1l1 1l17 31q7 10 18 12q17 10 30.5 2.5t9.5 -21.5q2 -3 2 -10q-10 -22 -9 -52.5t5 -61.5q10 -2 19.5 -4.5t19.5 -5.5q29 -4 53 -20 q18 -11 36.5 -30t33.5 -40.5t25.5 -42t12.5 -34.5q4 -20 7.5 -40.5t5.5 -40.5q3 -4 5 -8q2 -7 7.5 -13l11 -12t10 -13t4.5 -15q0 -14 -14 -21l-6 -2q-9 -2 -14 0h-2q-4 0 -10 2q-8 -5 -18 -2.5t-15 13.5l-5 16q-6 10 -8 25q-8 0 -15 5t-9 16q-3 23 -3.5 45.5t-5.5 45.5 q-6 26 -16.5 49t-25.5 40.5t-35 27.5t-44 9v-6q1 -82 2 -164.5t3 -165.5l2 -136q14 -8 36 -15.5t44.5 -15.5t42 -19t28.5 -26q14 -22 25 -58t18.5 -80t11.5 -91.5t5 -92t-1.5 -81.5t-7.5 -60q-16 -66 -48.5 -99.5t-77.5 -50.5q-7 -10 -20 -13q-10 -2 -19 -5l-18 -6l2 -127 q10 -5 14 -16q3 -11 -5.5 -19.5t-21.5 -12.5q-5 -5 -11.5 -6.5t-12.5 0t-11 6.5t-6 13q0 4 -0.5 7.5t-0.5 7.5q-9 19 7 29l-1 101q-14 -3 -28.5 -2.5t-31.5 8.5q-3 2 -7 4q-11 2 -20 6.5t-15 12.5q-8 8 -14.5 16.5t-11.5 17.5q-19 23 -30.5 50t-18 55.5t-9.5 58t-4 58.5 q-1 13 -3 28.5t0 31.5q-5 2 -10 11q-2 7 -7.5 12t-11 9.5t-9.5 10t-4 13.5zM131 910q5 -19 8.5 -36t5.5 -31q-2 -10 -6 -14q0 -1 1 -1.5t1 -1.5q7 -28 21.5 -45.5t33.5 -28t41 -15.5t46 -9l-3 126q-2 82 -2.5 163.5t-2.5 162.5q-8 -3 -15.5 -8t-15.5 -10q-34 -22 -60 -53 q-17 -20 -30 -39l-6 -21q-9 -34 -12 -69t-5 -70zM331 651q5 -149 9.5 -298.5t8.5 -298.5q2 0 3 1q19 5 39 11.5t31 20.5q21 27 35 61t22 69.5t10.5 70.5t1.5 66q-2 28 -4 64t-7 73.5t-14.5 72.5t-25.5 60q-7 9 -18 16t-23.5 11.5t-24.5 8.5t-20 7l-5 -3q-6 -11 -18 -13z" />
<glyph unicode="%" horiz-adv-x="734" d="M61 27.5q5 11.5 15 25t13 27.5q14 25 25 47t21 45t20.5 47.5t24.5 54.5q112 239 220 477.5t225 474.5q7 5 14.5 5.5t13 -3t7.5 -10t-2 -15.5q-5 -7 -9 -13.5t-8 -13.5q6 -5 7.5 -13t-5.5 -18q-42 -84 -78.5 -160t-70 -149.5t-66 -146.5t-67 -150t-72.5 -160t-83 -177 q-11 -31 -19.5 -56.5t-24.5 -53.5q-8 -12 -11 -19.5l-5 -12.5q7 -7 6 -18q-2 -13 -6.5 -20t-11.5 -12t-15.5 -8.5t-18.5 -8.5q-31 5 -37.5 14t-1.5 20.5zM127 1067.5q1 31.5 25 58.5q5 5 10 7.5t11 4.5q20 14 37.5 16.5t35.5 0.5q7 7 16 8l27 -4.5t29.5 -7.5t26.5 -13 t18 -22q12 -26 16 -52.5t-1 -50.5t-18.5 -44t-35.5 -32q0 -5 -5 -12q-12 -8 -24 -20t-26 -10q-13 2 -26.5 1.5t-24.5 7.5q-23 17 -44.5 43.5t-34.5 57.5t-12 62.5zM172.5 1061q1.5 -22 14 -43t32 -37t39.5 -20q22 -5 39 4.5t28 26t15.5 37t0.5 38.5q-6 26 -26 39h-2 q-29 2 -48 9t-39 4q-3 -8 -11 -12q-7 -2 -14 -3.5t-14 -4.5q-16 -16 -14.5 -38zM358 143q-3 28 14 59q8 16 19 30.5t27 22.5q5 7 15 8q15 6 33.5 9.5t35.5 1.5t31 -10.5t20 -24.5q23 -12 34 -32q11 -21 10.5 -43t-8.5 -43q-3 -18 -23 -38q-12 -15 -28 -27t-33.5 -19.5 t-35.5 -9.5t-36 3q-14 3 -28 18q-8 6 -16 12.5t-13 14.5q-21 30 -18 68zM399 145q3 -19 17 -43q4 -7 6 -12t6 -10q1 0 1.5 -0.5t1.5 -0.5q18 -8 43.5 -2.5t46.5 19.5q11 10 19.5 21t13.5 23q2 11 -1 21q-3 11 -9.5 19t-11.5 16q-2 6 -2 9q-19 11 -40 12.5t-43 3.5 q-19 -11 -32 -32t-16 -44z" />
<glyph unicode="&#x26;" horiz-adv-x="752" d="M93.5 453q-0.5 41 2.5 87.5t10.5 87.5t23.5 59q11 11 20 16l3 3q15 13 24 25t18 23t19.5 22.5t27.5 23.5q-12 13 -21.5 26t-16 27t-11 30.5t-6.5 38.5q-14 69 -12 140q0 5 -1 12t-1 19t2.5 30t10.5 44q10 37 39 57t64 26.5t70 2.5t58 -14q36 -17 57 -34.5t29 -44.5 t3.5 -68t-20.5 -104q-5 -19 -11.5 -42.5t-22.5 -37.5q-23 -37 -49.5 -61.5t-55.5 -46.5q13 -38 23.5 -78.5t21.5 -81t23 -80t29 -75.5q21 -51 45.5 -98.5t50.5 -95.5l3 2q1 1 3 1q5 0 7 -1q2 66 -0.5 132t-3.5 132q2 10 8.5 14.5t14.5 3.5q7 1 13.5 -3t9.5 -14 q1 -29 2.5 -71t2.5 -90t-1 -98.5t-9 -98.5l22 -40l11 -22q16 0 22 -17q1 -8 4.5 -21t9 -27t12.5 -27.5t15 -21.5q10 5 19 -1.5t8 -20.5l-3 -10q-4 -9 -9 -13t-16 -2q-2 1 -3 1t-2 1q-7 -5 -16 -3.5t-14 12.5q-3 9 -6 17.5t-7 16.5q-5 8 -9 16.5t-8 17.5l-24 47q-13 4 -23 16 l-6 -19q-5 -14 -11.5 -27.5t-14.5 -24.5q-10 -13 -19 -21q-13 -12 -30 -17t-33 -13q-8 -3 -15 -3q-14 -5 -29 -5.5t-30.5 0t-31 2t-30.5 1.5q-17 0 -37.5 10t-41.5 24.5t-40.5 30.5t-34.5 27t-26 34.5t-19.5 53.5t-13.5 63.5t-8.5 64t-5 55.5t-2.5 39q0 18 -0.5 59z M148.5 373.5q3.5 -55.5 11.5 -100.5t16 -68q8 -51 28.5 -79.5t46.5 -44.5t54 -25t51 -21q32 -2 70.5 8.5t70.5 21.5q6 1 12 9q5 8 9.5 16.5t9.5 18.5q3 11 6 21.5t5 21.5q-17 10 -18.5 29t3.5 38q2 6 4 10q-33 60 -64.5 119t-56.5 122q-12 30 -22.5 60t-21.5 60 q-15 43 -38 85t-38 87q-48 -18 -76.5 -60.5t-43.5 -96.5t-18.5 -115t0 -116.5zM218.5 1013q4.5 -41 7.5 -75q-7 -17 1 -30.5t22 -25t29 -22.5t22 -23q13 10 29 19.5t31.5 19.5t29 21t21.5 24q1 4 6 11q8 15 14.5 36t11.5 45t8 49.5t5 49.5t-9 41t-30.5 27t-44.5 14.5 t-51 4.5q-8 0 -23.5 -5t-32 -17t-30 -31t-16.5 -47q-5 -45 -0.5 -86z" />
<glyph unicode="'" horiz-adv-x="301" d="M102 1118q2 16 12 25q11 8 21 5q12 5 24 -9q4 -4 7 -12v-5q5 -17 5 -36.5v-36.5l-2 -10q1 -18 1.5 -36.5t0.5 -37.5l-2 -8q1 -8 1.5 -16.5t0.5 -16.5q-1 -11 -6.5 -16t-12.5 -5.5t-13.5 4.5t-7.5 16q0 6 -0.5 12t-0.5 13q-8 5 -10 18l-2 35q-3 4 -3 10q-2 15 -6 34 t-6.5 38t-0.5 35z" />
<glyph unicode="(" horiz-adv-x="378" d="M63 508.5q1 36.5 6 64.5q-1 71 -1 108.5t1 56t2.5 26t3 18t4 32t4.5 69.5q2 42 8.5 89.5t14.5 87.5q16 79 40.5 142.5t62 107.5t90 68t125.5 25q12 -4 15.5 -13t-1.5 -17q5 -4 4.5 -12t-5 -16.5t-11 -16t-13.5 -8.5q-44 11 -78 3.5t-60 -27.5t-45.5 -50t-34 -63 t-24.5 -67t-18 -61q-5 -38 -7.5 -77t-4.5 -78q-7 -75 -12 -128t-8 -94.5t-4.5 -76t-2 -72t0 -83t2.5 -108.5q0 -2 0.5 -16.5t1 -31.5t1 -31.5t0.5 -15.5q0 -37 6 -82.5t18 -93t29.5 -93.5t40.5 -84.5t51.5 -65t62.5 -35.5q9 -2 18 -1t17.5 3t17.5 3.5t18 0.5q8 2 20 0.5 t15 -6.5q5 -5 4.5 -14.5t-5 -19t-12 -16t-16.5 -5.5q-1 0 -1.5 0.5t-1.5 0.5q-11 -2 -23 -2h-24q-29 1 -60 15t-58.5 36t-50.5 48.5t-37 52.5q-4 8 -10.5 28.5t-13 48t-13.5 59t-13 61.5t-9.5 55.5t-4.5 40.5q-1 13 -3.5 40t-6 61.5t-7 74t-5 79t-0.5 76z" />
<glyph unicode=")" horiz-adv-x="372" d="M-73.5 -257.5q-0.5 9.5 4.5 14.5q1 3 5.5 7t9.5 7.5t10.5 6t9.5 1.5q9 1 19 -2t20.5 -7t20 -6.5t18.5 0.5q29 11 53.5 38t45 63.5t36.5 80.5t27 88t16.5 86t5.5 75q0 1 1 14.5t3 33.5t4.5 43t4.5 43t3 34t1 15q1 63 3 111t3 88.5t1 78.5t-1.5 82.5t-5.5 100t-11 130.5 q-1 19 -4 34.5t-6 30t-6.5 30t-5.5 34.5q-7 16 -15 42t-21 54.5t-30.5 56t-43 46.5t-59 26.5t-77.5 -4.5q-7 1 -14.5 9t-12 17.5t-6 18.5t3.5 13q-5 8 -1.5 17t15.5 13q73 -1 125.5 -25t90 -68t62 -107.5t40.5 -142.5q8 -40 14.5 -87.5t8.5 -89.5q2 -47 5 -68t5.5 -30 t4.5 -14.5t3 -23t0 -54t-4 -107.5q-1 -28 -4.5 -69.5t-8.5 -88.5t-10 -95t-9 -89.5t-7.5 -73t-3.5 -44.5q-1 -23 -8 -59t-16 -73t-19 -67.5t-16 -42.5q-14 -26 -35 -58t-46.5 -60.5t-54.5 -48t-58 -20.5h-24t-23 2q-1 0 -1.5 -0.5t-1.5 -0.5q-9 -1 -16.5 5.5t-12 16t-5 19z " />
<glyph unicode="*" horiz-adv-x="542" d="M92 889q7 16 23 29q1 7 9 13q22 11 47 30t43 41l-23 16q-17 9 -33 18t-30 18q-5 1 -9 5l-20 15q-13 14 -5 27t26 8q6 -5 12.5 -9.5t13.5 -9.5q12 -4 22.5 -10.5t20.5 -14.5q10 -6 20.5 -11.5t21.5 -10.5q-2 26 -4.5 51.5t-2.5 51.5q-4 6 -4 12v6q4 16 16 18.5t22 -10.5 q0 -2 2 -4q13 -2 18 -17q1 -26 3.5 -57t-2.5 -60q23 10 47 24.5t42 27.5q14 5 21 -1l13 4q1 0 1.5 0.5t1.5 0.5q5 11 18.5 10.5t18.5 -16.5v-2q0 -8 -7 -18q-9 -9 -19 -10.5t-21 -7.5q-14 -8 -26 -18t-26 -18q-8 -5 -14.5 -8.5t-14.5 -6.5q26 -17 47.5 -36t34.5 -42l27 -25 q6 -8 6 -14.5t-4.5 -11.5t-12 -6.5t-15.5 1.5q-5 4 -10 9l-10 10q-5 1 -11 7q-2 0 -5 3q-1 -1 -5 3.5t-6 6.5q-8 5 -13.5 10t-11.5 10q-1 0 -2 1q-11 4 -14 14q-13 12 -27 23.5t-30 18.5q-10 -18 -27 -30t-35 -23q-20 -14 -39 -24q-16 -13 -23 -28q-6 -8 -13 -9.5t-12.5 1.5 t-9 9.5t-1.5 15.5z" />
<glyph unicode="+" horiz-adv-x="673" d="M20.5 587.5q-3.5 8.5 3.5 16.5v1q1 16 7.5 28t14.5 18.5t16.5 5t13.5 -12.5h7h134h79q2 11 5.5 21t11.5 14q-6 105 -9 211q-2 7 -3.5 15t0.5 16q-1 4 -1.5 7.5t-0.5 8.5q0 10 4.5 17t11.5 10t15 1.5t15 -8.5q8 -7 9.5 -16.5t0.5 -20.5q1 -2 2 -3.5t2 -4.5l-3 -243 q6 -5 8 -10q4 -4 8 -4q7 -1 13 -9q117 3 237 3q9 -3 12 -9.5t1 -12.5q2 -6 -1.5 -13t-12.5 -9h-29q-2 -2 -4.5 -3.5t-6.5 -2.5q-92 0 -183 -3q-2 -11 -15 -14q-2 -1 -5 -1q-3 -11 -9 -16q-10 -4 -14 -3v-23q4 -57 6 -114l4 -114v-1q0 -2 4 -4q6 -14 8.5 -28.5t3.5 -28.5 q-1 -13 -10 -16.5t-17 2.5q-1 -2 -2 -3.5t-2 -3.5q-10 -5 -21 -1q-10 5 -14.5 15.5t-4.5 20.5v3q0 1 1 1q-2 6 -2 10v3q3 11 11 14v102.5t1 103.5l-1 43q-6 0 -11 4.5t-6 12.5q-1 10 -3.5 18.5t-13.5 10.5q-3 0 -7 4q-5 -1 -15 -1q-57 -2 -114.5 -3t-112.5 -12 q-13 2 -16.5 10.5z" />
<glyph unicode="," horiz-adv-x="299" d="M72 -147.5q-2 7.5 3 16.5q29 24 43.5 57t20.5 69q-5 1 -10 6q-9 3 -16 9t-10.5 15t-2.5 20t10 23q9 11 13.5 16t14.5 11q13 7 24 -3l19 -18q11 -7 10 -21q-3 -29 -9 -61.5t-15.5 -64t-23 -60.5t-32.5 -53q-15 -8 -25.5 2t-5.5 24q-6 5 -8 12.5z" />
<glyph unicode="-" horiz-adv-x="643" d="M38.5 639.5q2.5 7.5 8 11.5t13 3t13.5 -8q118 0 235 -2t235 -2q2 2 8.5 7t11.5 6q8 -1 11.5 -7.5t8.5 -11.5q8 -3 13 -16v-6q-1 -16 -13 -20.5t-23 6.5q-1 0 -1 2q-73 0 -145 0.5t-145 1.5q-4 -2 -7 -2q-51 -5 -94 -4.5t-89 0.5q-6 -5 -14 -5t-16 8q-2 5 -4 10.5t-4 10.5 q0 1 -1 1q-4 9 -1.5 16.5z" />
<glyph unicode="." horiz-adv-x="299" d="M88 60q1 13 11 24q14 16 33 19t38 5q18 2 28.5 -4t15.5 -17t6.5 -25t1.5 -27q0 -2 -0.5 -3t-0.5 -3t1 -3q-2 -23 -7.5 -28t-17.5 -4q-5 -7 -12 -8.5t-14.5 -1t-15.5 2.5t-15 3q-8 3 -11 8q-12 4 -22 14t-15 22.5t-4 25.5z" />
<glyph unicode="/" horiz-adv-x="758" d="M26 -73.5q-1 7.5 4 15.5q6 6 12.5 24.5t11.5 39t9.5 39t6.5 25.5q9 24 25.5 60.5t34.5 74.5t34.5 73t25.5 56q35 74 70.5 146t73.5 144l31 73q33 74 68.5 147t73.5 144q14 36 26 74t24 75.5t26 74.5t32 72q-1 1 -1 5q2 31 9.5 47t24.5 19q-7 10 2 24l3 4q9 8 22 6 q12 2 23 -0.5t16 -16.5q2 -4 2 -10q5 -5 5 -14.5t-7 -17.5q-2 -1 -7.5 -14t-13.5 -32.5t-17 -43t-17 -44t-14 -36.5t-8 -21l-31 -66l-52 -102q-6 -13 -11 -25t-11 -24l-144 -283q-19 -44 -40 -91.5t-42 -95.5t-41.5 -95t-38.5 -91q-26 -60 -49.5 -123t-52.5 -123 q-5 -11 -9 -23.5t-8.5 -25t-11 -24t-15.5 -19.5q-8 -2 -9 -2q-2 -4 -4 -7t-5 -8q-9 -4 -16.5 -2.5t-13 6t-6.5 12z" />
<glyph unicode="0" horiz-adv-x="536" d="M86.5 251.5q-0.5 43.5 0 84.5t0.5 70q-1 79 0.5 156.5t3.5 154t4 154t2 157.5q-4 6 -4 11q0 16 -0.5 34.5t1 36.5t6.5 34.5t16 30.5q16 19 42 31.5t56 19t62.5 7t61.5 -5t52 -17t36 -28.5q22 -30 29.5 -71.5t7 -90.5t-4.5 -103t-4 -109l-3 -431q0 -39 -0.5 -67l-1 -56 t-1.5 -62.5t-1 -86.5q-1 -6 -5 -17.5t-11.5 -26t-19 -30.5t-27.5 -31q-20 -14 -49 -20t-60.5 -4.5t-61 9.5t-49.5 21q-17 20 -36 42t-27 47q-8 30 -11 71.5t-3.5 85zM127 407q1 -72 0.5 -149t11.5 -150q2 -6 7.5 -16t12 -20t13.5 -19t13 -13q15 -9 35.5 -15.5t42 -8.5 t42.5 -1t38 7q9 6 19 13.5t20 18.5t18.5 26.5t14.5 39.5q-1 30 -0.5 48.5t0.5 39.5t-0.5 50t-3.5 80l8 528q1 76 4 137.5t-7 104.5t-40 65t-96 20q-76 -2 -108.5 -37.5t-34.5 -115.5q0 -81 -2 -159.5l-4 -157t-3.5 -157t-0.5 -159.5z" />
<glyph unicode="1" horiz-adv-x="301" d="M23 1146q-2 8 4 15t18 8q24 23 40.5 35.5t28 18.5t18.5 7t13 1q39 1 52.5 -6.5t14.5 -22t-5 -35t-6 -45.5v-16q2 -63 0.5 -126t-2.5 -126q-2 -196 -7 -388.5t-7 -389.5q5 -14 3.5 -30t-3.5 -31v-2q-2 -17 -14 -20.5t-20 5.5q-11 2 -15 5q-8 -2 -15 3t-9 17q-1 4 0 7t2 7 q-2 10 -2 19q3 12 13 17q2 14 5 29t4 30q1 6 4 10t7 6q2 139 5 276.5t6 277.5q2 97 0.5 193t5.5 192q-1 17 -1.5 35.5t-2.5 36.5q-1 0 -9 4q-19 -5 -42 -19.5t-35 -30.5q-11 -14 -22.5 -9.5t-13.5 17.5q-2 1 -4 6q-11 6 -9 19z" />
<glyph unicode="2" horiz-adv-x="556" d="M73 993q0 14 1.5 27.5t1.5 23.5q1 42 12.5 81.5t43.5 72.5q25 25 66 41.5t85 19t83.5 -10t62.5 -43.5q6 -9 11 -23.5t8.5 -30t5 -30t1.5 -23.5q-2 -33 -0.5 -75.5t1.5 -82t-3 -71.5t-13 -44q-12 -15 -31.5 -30.5t-33.5 -29.5q-16 -16 -31 -34q-31 -50 -52 -104.5 t-43 -106.5q-14 -32 -31.5 -62.5t-32.5 -62.5q-4 -26 -5.5 -46t-2 -38.5t-0.5 -38.5v-46q0 -7 -1.5 -25.5t-2.5 -42.5t-0.5 -49.5t3.5 -46.5h268q15 -4 19.5 -12.5t-0.5 -16.5q5 -8 0 -17t-20 -12q-69 1 -137 5.5t-137 6.5q-3 -9 -10 -13.5t-15 -4t-14.5 5.5t-8.5 15v7l-9 6 q-8 12 1 21l2 1q0 2 2 2q0 1 1 1q-2 43 -5.5 80t-5 73t1 73t12.5 81q6 26 19 49q8 54 25.5 106.5t46.5 104.5q18 33 40.5 64.5t47.5 61.5l3 4q8 14 18 26.5t21 24.5q8 10 15 19.5t12.5 15t8.5 6.5t3 -6q1 -3 0 3.5t-1 9.5v17.5t1 17.5l7 84q1 12 3 32t2.5 43.5t-1.5 49 t-8.5 47t-18.5 38t-32 22.5q-22 8 -54 6t-54 -8q-39 -10 -59 -37.5t-28.5 -63.5t-8.5 -74.5t2 -69.5l4 -6q5 -7 3 -13t-7 -11q-2 -9 -9 -13.5t-15 -4t-15 5.5t-9 15v11q-6 11 -8 24.5t-2 27.5z" />
<glyph unicode="3" horiz-adv-x="511" d="M60 1138.5q6 29.5 26 48.5q14 17 32.5 26.5t50.5 23.5q31 14 62.5 12.5t63.5 -5.5q14 -2 25.5 -6t21.5 -9h9q12 -4 16 -15q10 -8 13 -13l5 -14q13 -22 19 -47.5t7 -53.5q2 -14 2.5 -28.5t-1.5 -28.5q1 -23 -1.5 -59t-7.5 -72.5t-13 -67.5t-19 -44q-6 -14 -13.5 -23.5 t-18.5 -10.5l-7 -6q15 -6 26 -17q9 -9 19 -29q17 -25 24.5 -41t9 -32.5t0 -37.5t-2.5 -54l3 -42t1.5 -25t-0.5 -25t-2 -42q-1 -54 -2.5 -108t-4.5 -108l-2 -35q1 -2 1 -9l-3 -23q-4 -27 -13.5 -51t-32.5 -41q-30 -21 -61 -26.5t-69 0.5q-36 6 -60.5 14.5t-41.5 24.5 t-27.5 40t-17.5 60q-1 6 -2.5 25.5t-2 41.5t1.5 41.5t9 25.5q10 7 18 5t13 -8q6 -5 9 -13q1 -52 3 -88t15 -59.5t43 -36t87 -15.5q9 -3 14 -10q22 5 37 13.5t25 24.5q5 78 12 156.5t12 157.5q0 32 -0.5 50t-1 33.5t-1.5 33.5t-1 50q-2 26 -8 58.5t-17 56.5q-8 12 -18.5 21 t-26.5 11q-8 1 -12.5 4t-6.5 7q-10 -1 -22 -2t-28 -3l-20 -3q-5 -11 -12.5 -14t-14.5 0q0 -1 -1 -1l-3 -3q-6 -11 -18 -11t-18 14q-5 17 8 28t34 18q11 9 26.5 12t32 4.5t32 4t26.5 10.5q14 9 25.5 26t20.5 38q0 3 3 18t6.5 33t7 34t4.5 21q5 20 4 49.5t2 51.5 q0 10 -0.5 18.5t-1.5 16.5l-2 21q-5 23 -14 42.5t-23 31.5q-5 5 -12.5 7t-15.5 4q-36 2 -75.5 2t-70.5 -10t-47.5 -34t-6.5 -69l2 -5v-3q-2 -17 -16.5 -21t-22.5 13q-12 45 -6 74.5z" />
<glyph unicode="4" horiz-adv-x="541" d="M47 1241q8 13 26 8l11 -7q11 9 25 -2q11 -11 18 -25t12 -29q4 -10 6.5 -23t5.5 -32q4 -26 4.5 -52t0.5 -53q0 -41 -2.5 -89t-6.5 -96.5t-8.5 -94.5t-6.5 -83l-3 -36q1 -17 2.5 -32.5t4.5 -27.5q5 -7 5 -17v-2q3 -4 9 -9.5t14 -12.5q19 -7 44.5 -12.5t54 -9t58.5 -6.5 t58 -4l2 98t3 99q1 134 1.5 267.5t0.5 268.5q2 9 7.5 13.5t12.5 4.5l8 7q9 4 15.5 2t10 -7.5t3 -13t-5.5 -14.5q-3 -2 -3.5 -13.5t-0.5 -25t1 -26t1 -16.5q0 -22 -0.5 -48t-1 -52.5t-1 -52.5t-0.5 -48q-2 -62 -4 -123.5t-4 -123.5q0 -50 -0.5 -99t-0.5 -99q17 -1 32 -0.5 t26 0.5h1q6 5 13 5t12 -3.5t7.5 -10.5t-1.5 -15q0 -1 -1 -1q6 -7 6 -8t-11 -6q-2 -1 -3 -1t-2 -1h-1q-18 -5 -37 -7t-39 -2q-1 -101 -2 -209t-1 -208v-19q-2 -9 -4 -12q0 -1 -2 -3l-2 -2q-7 -6 -17 -4q-1 0 -1.5 0.5t-1.5 0.5q-1 1 -2 1l-5 4q0 1 -2 3q0 1 -0.5 1.5 t-0.5 1.5q-2 4 -2 7v20q-6 36 -7.5 77.5t-1 83t2 80.5t1.5 70q0 22 0.5 53t1.5 54h-13q-35 0 -74.5 1t-77 7t-69 17.5t-49.5 32.5q-8 8 -8.5 20.5t-2.5 23.5q-3 15 8 21q-2 8 -2 15.5t-1 15.5q-3 42 0 84t3 65q1 69 5.5 136.5t6.5 136.5q0 12 1 31.5t1 41.5t-1.5 44.5 t-6.5 40.5q-4 10 -7 14q-6 10 -17.5 14t-22.5 10q-13 14 -5 27z" />
<glyph unicode="5" horiz-adv-x="516" d="M60 930q0 66 0.5 133t0.5 133q3 15 14 18q5 12 15 14t16 -9h5q19 5 40 4.5t38 -0.5q32 2 62.5 0.5t60.5 -3.5q26 -1 53.5 -0.5t52.5 -10.5q11 -10 9 -22t-16 -16q-2 0 -4.5 -0.5t-4.5 -0.5q-9 1 -13 7l-13 2q-11 -7 -21 1q-2 -1 -6 -1h-231q-6 -2 -8 -4q2 -80 5 -159 t0 -160q0 -11 0.5 -24.5t-0.5 -27.5q14 5 28 6.5t23 3.5q20 4 57.5 7t76.5 -0.5t71.5 -15.5t41.5 -37q7 -20 11.5 -33t6.5 -26t3 -29t2 -40q2 -26 2 -52v-52v-54v-47t-0.5 -47t-1.5 -54q-2 -34 -3.5 -68.5t-3.5 -67.5v-11q0 -4 -1 -6l-2 -45v-24t-1 -26t-4.5 -25.5 t-11.5 -21.5q-5 -5 -9.5 -8.5t-9.5 -7.5q-12 -12 -31 -16q-34 -13 -74 -9t-75 18q-38 11 -70 32t-40 54q-5 21 -8 55.5t-4.5 71.5t-1.5 71.5t1 56.5q-5 7 -6 15.5t-2 16.5q-3 8 -5 17q-1 11 -1 30.5t9 28.5q9 8 17 6t12 -10q8 7 17 4.5t12 -16.5q0 -27 -1 -72.5t-1 -95 t3 -95t11 -71.5q6 -20 23 -34.5t40 -25.5q29 -8 58.5 -8t48.5 7q15 5 23 11t18 14l9 39q1 17 1 32.5t2 32.5l6 85q3 30 7 69t7.5 81.5t6 87t1 86t-7.5 78t-18 63.5q-5 11 -23 20.5t-38 17.5h-7q-37 2 -73 -3t-73 -9q-16 -1 -30.5 -1.5t-29.5 -5.5q-1 -1 -2 -1q-1 -1 -2 -1 h-1q-3 -1 -9 -1q-5 0 -7 1q-11 5 -15 15t-2 24l2 13q-2 7 -2.5 14t-1.5 14q-2 26 -2.5 49.5t-0.5 50.5z" />
<glyph unicode="6" horiz-adv-x="567" d="M78.5 469q-0.5 20 0 39.5t2.5 34.5q-2 114 -0.5 227t8.5 225v21.5t1 47t4.5 51t11.5 34.5q5 7 18.5 19.5t29.5 25.5t31 23t22 12q26 6 57.5 7.5t62.5 -3t59 -16t49 -31.5q10 -10 13 -22.5t3.5 -25.5t2 -26t8.5 -23q3 -14 -1 -21q10 -8 7 -20t-16 -15q-21 2 -28.5 15.5 t-11.5 31t-8 37t-19 33.5q-23 23 -53.5 32.5t-61 6t-58 -19.5t-45.5 -44q-6 -10 -12 -18t-8 -21q0 -1 -0.5 -1t-0.5 -1q-4 -85 -10.5 -169t-11.5 -169q14 13 34.5 22.5t44.5 16.5q32 17 68.5 22.5t81.5 3.5q7 0 18 -2.5t22.5 -6.5t21.5 -8.5t16 -7.5q16 -10 26 -29.5 t15.5 -42t7.5 -45t4 -39.5q4 -38 6 -88t2.5 -105.5t-2 -113t-8.5 -112t-16.5 -102t-25.5 -81.5q-5 -12 -20 -20t-29 -13q-16 -14 -32.5 -22.5t-35.5 -10.5q-7 -4 -14 -5q-73 -16 -123 19q-9 0 -15 6q-2 3 -3.5 6.5t-3.5 5.5q-8 8 -14.5 18.5t-11.5 22.5q-10 15 -17.5 30.5 t-9.5 29.5l-5 26l-3 9q-1 3 -1.5 5t-1.5 9t-2 21.5t-3 43t-5.5 73.5t-8.5 112q0 16 -1 35.5t-1.5 39.5zM130 313q2 -6 2.5 -12.5t2.5 -14.5q1 -10 1 -32.5t0.5 -47t2 -46.5t5.5 -32q5 -2 7 -6t4 -9v-1q11 -52 48.5 -81.5t89.5 -25.5q7 1 14 -0.5t15 0.5q5 3 10.5 6.5 t11.5 6.5l21 7q22 16 37 40.5t17 51.5q3 15 15 18q10 55 15 123.5t5.5 136.5t-2 129.5t-5.5 102.5q-1 0 -1 2q-4 22 -6 38.5t-6 30.5t-12.5 26.5t-26.5 25.5l-15 10q-11 2 -22.5 2h-16.5q-28 -1 -46 -1.5t-32.5 -2.5t-29.5 -6.5t-37 -13.5q-16 -11 -29.5 -23.5t-23.5 -27.5 q-3 -94 -7 -187t-6 -187z" />
<glyph unicode="7" horiz-adv-x="526" d="M35 -27q1 8 4.5 14t4.5 14q3 12 12 16q15 39 30 83.5t29.5 89.5t28 88.5t25.5 81.5q43 140 84.5 277.5t83.5 276.5l42 135q4 11 10 35t18 57l-15 6q-6 5 -8 14h-4q-19 3 -21 19q-42 2 -84 3.5t-84 -1.5q-6 -1 -12 -1.5t-13 -0.5q-20 -2 -38.5 -5.5t-36.5 -8.5 q-17 -4 -24 8q-14 3 -15.5 17.5t15.5 21.5q23 8 51 8h55l28 2q15 4 33.5 5t32.5 1q42 1 83 -4t83 -7h8q8 -3 13 -9q12 -2 15.5 -13t-4.5 -22q-7 -5 -11 -14.5t-6.5 -20t-4 -21t-4.5 -18.5q-15 -54 -31.5 -99.5t-32.5 -98.5q-42 -139 -83.5 -276.5t-84.5 -276.5 q-12 -41 -27 -88.5t-31 -96.5t-32.5 -96.5t-32.5 -87.5q-5 -9 -11 -13q-7 -16 -21 -13.5t-17 19.5z" />
<glyph unicode="8" horiz-adv-x="547" d="M81.5 1046.5q0.5 31.5 9.5 58.5q-2 6 0 14q9 24 36.5 51.5t61.5 47.5t69.5 27t61.5 -9q4 -3 13.5 -5.5t20 -5.5t20 -6.5t12.5 -7.5q5 -3 9 -6t7 -7q13 -14 22 -29t16 -32q15 -30 23 -61.5t6 -58.5q0 -5 -1 -8.5t-2 -7.5q2 -17 2 -33.5t1 -32.5q0 -38 -10 -68.5t-28 -57.5 q-2 -8 -4 -15t-7 -14q-6 -9 -18.5 -18t-26.5 -17.5t-27.5 -17t-21.5 -15.5q11 -7 28.5 -16.5l35 -19t30.5 -18.5t16 -15q17 -42 24 -91t7.5 -99.5t-2 -100.5t-5.5 -95q-1 -18 -0.5 -50.5t-1.5 -67t-8.5 -65t-19.5 -44.5q-41 -41 -84 -61.5t-101 -16.5q-35 2 -59 11t-39 24 h-8q-12 5 -15.5 14t-6.5 20q-7 13 -10 30.5t-6 46.5t-6 72.5t-10 108.5q1 61 4.5 127.5t21.5 124.5q4 35 10 66t26 59q6 8 16 13t21 9.5t21.5 8.5t17.5 10l20 16q-11 6 -20.5 10t-15.5 9q-48 26 -70.5 55t-31.5 63q-8 -2 -8 -3t-2 11q0 27 -4 59t-7 65t-2.5 64.5z M142.5 954.5q-1.5 -24.5 1 -47.5t11.5 -44.5t29 -40.5q7 -6 16.5 -16.5t21 -22t25.5 -23t29 -20.5q12 10 29 20.5l34 21t31.5 21.5t22.5 23q13 24 17 61.5t7 85.5q0 20 0.5 39t1.5 39q-3 17 -7 33t-9 32q-1 1 -1 2q-8 16 -21.5 30t-29 24.5t-30.5 17.5t-25 10q-4 0 -6 1 q-2 0 -3.5 1t-3.5 1q-25 0 -52 -14q-20 -12 -38.5 -26.5t-35.5 -30.5q-6 -12 -8.5 -29t-3 -35t0 -35t-0.5 -29q-1 -25 -2.5 -49.5zM150.5 389l3 -48t2.5 -48.5t-1 -49.5q-2 -16 -2 -40t3 -50.5t10 -52.5t21.5 -47t36.5 -34t55 -13q15 0 32 5.5t33 13.5t27 16.5t14 14.5 q16 33 21 80t4.5 97.5t-3 99.5t-0.5 86q1 27 -1.5 53t-5.5 49t-5 43t1 34q3 15 -10 31t-32 29.5t-40.5 21.5t-34.5 7q-21 -19 -36 -27t-26 -14t-20.5 -14.5t-19.5 -27.5q-2 -4 -5 -15.5t-6 -24.5t-5.5 -25t-3.5 -16q-2 -22 -3 -43.5t-3 -41.5q-2 -25 -0.5 -49z" />
<glyph unicode="9" horiz-adv-x="542" d="M52 910.5q-4 47.5 1.5 90.5t23 82.5t54.5 77.5q27 28 63.5 42t76 15t79 -10t71.5 -32q4 -3 9 -10t9 -15.5t7.5 -17t5.5 -12.5q10 -20 13 -51.5t2.5 -66t-2.5 -65.5t-2 -49q0 -100 -2.5 -183.5t-5.5 -164t-5.5 -164.5t-3.5 -184q0 -5 -2.5 -23t-6 -37.5t-7.5 -35t-7 -16.5 q-10 -17 -26 -33.5t-30 -24.5q-36 -20 -70 -27q-20 -6 -44 -7.5t-47.5 4t-44.5 19t-35 36.5q-22 36 -31 57t-12 37.5t-2 34t-1 46.5q-1 13 -2.5 19t-2 9.5t1.5 9t9 17.5q13 10 25.5 3.5t8.5 -22.5q9 -22 8.5 -41t-1.5 -38t0.5 -39t14.5 -45q18 -36 52 -52.5t72 -14.5 q38 7 69.5 29t45.5 56q5 11 6 22t3 22q1 10 10 15q1 66 3.5 124.5t5.5 116t5.5 118t3.5 130.5q-13 -29 -26.5 -48t-31.5 -31t-42.5 -18t-57.5 -7q-10 0 -19 2.5t-19 5.5q-9 2 -18 4.5t-18 7.5l-4 2q-2 0 -2 1l-14 6q-1 0 -2 0.5t-2 0.5q-9 5 -17 9.5t-13 12.5l-3 3l-3 4 q-7 7 -12 14t-10 15l-11 16q-17 24 -23.5 63.5t-7.5 84.5q-6 53 -10 100.5zM102 778q0 -5 0.5 -10t1.5 -10l4 -11q7 -25 14 -43t17 -32.5t25.5 -27.5t40.5 -28q44 -15 90.5 3t81.5 63q0 1 0.5 1t0.5 1q8 11 14 23t13 23v1q4 11 5.5 25t5.5 34q2 7 4 9q1 25 2 51t1 38 q0 19 2 46.5t3 57.5t-1 59t-11 50q-1 3 -6.5 11t-11.5 16.5t-11.5 15.5t-6.5 7q-24 13 -54.5 19t-61.5 4t-58.5 -12t-45.5 -29q-26 -26 -40 -67q4 -13 -6 -21q-8 -29 -11 -57q-1 -22 0 -43.5t0 -43.5l-1 -7l4 -103q-2 -10 -4 -13z" />
<glyph unicode=":" horiz-adv-x="299" d="M97 119q-4 27 8.5 43t30.5 20.5t36.5 -2t26.5 -24.5q5 -13 6 -23q3 -6 3 -11q0 -20 -16 -36.5t-39 -16.5q-22 0 -39 16zM97 782q0 23 17 39q11 10 23 14q19 15 34 14t25 -11.5t14.5 -27.5t2.5 -34.5t-11 -32.5t-25 -21q-20 -8 -36 -1.5t-26 20.5l-1 1q-17 17 -17 40z" />
<glyph unicode=";" horiz-adv-x="299" d="M65 -116q4 23 16 41.5t25 36.5q5 11 10.5 22t10.5 22q0 4 1 6q1 9 8 14l3 6q-5 0 -8 1q-16 4 -26 16q-11 5 -18 15q-12 17 -4.5 38t24.5 33q6 11 15 18t22 5q25 -4 39 -26.5t11 -45.5v-2q0 -2 1 -3q-3 -43 -18 -81.5t-37 -74.5q0 -2 -2 -10q-8 -16 -17.5 -30t-17.5 -29 q-11 -14 -29 -6h-1q-6 7 -7 14t1 12q-2 6 -2 8zM87 756q0 23 17 39l8 6q9 11 22.5 17.5t31.5 4.5q21 -3 31 -19t10 -35.5t-9 -37t-26 -22.5q-11 -8 -25 -9q-8 -8 -17 -9.5t-19 5.5q-15 9 -18 33q-6 12 -6 27z" />
<glyph unicode="&#x3c;" horiz-adv-x="467" d="M43 538.5q3 8.5 9 12.5q1 13 9 24t16 21q5 10 15.5 33.5t23.5 53t27.5 61.5t27.5 60t23.5 48.5t15.5 26.5q8 14 17 35t16 35q11 26 18 50.5t26 46.5q3 14 10.5 24.5t23.5 13.5q12 1 19 -7h8q16 -5 17 -18t-10 -19q-34 -41 -61 -86.5t-50.5 -93.5t-44 -97t-42.5 -97 l-12 -26l-7 -17q-5 -10 -8.5 -19.5t-10.5 -18.5l-6 -9q-11 -25 -18 -49q-1 -1 -1 -3q17 -23 31 -48l28 -50q37 -65 69.5 -121.5t73.5 -118.5q7 -11 26.5 -37t37.5 -55.5t29 -57t2 -40.5q-6 -8 -12.5 -9.5t-12.5 1.5t-9.5 8.5t-1.5 13.5q-6 21 -21.5 46.5t-34 51t-36.5 49 t-28 41.5q-30 51 -59 103l-58 104q-17 30 -33.5 60.5t-40.5 55.5q-4 9 -1 17.5z" />
<glyph unicode="=" horiz-adv-x="727" d="M110 597q0 8 6 14.5t16 8.5t20 -4q5 4 12 7t12 0q34 2 69 0t58 -3q6 -2 8 -4q70 -3 139.5 -6.5t139.5 -3.5q9 -3 13 -8.5t4 -12t-4.5 -12t-13.5 -7.5q-83 1 -169.5 8t-169.5 9q-8 1 -8.5 -1t-6.5 -5t-23.5 -6.5t-57.5 -4.5q-2 0 -3 0.5t-3 0.5q-5 -2 -11 0h-2 q-12 5 -14 16q-11 6 -11 14zM137.5 418q0.5 7 5.5 12.5t16 6.5q103 2 204 5t203 4h9l2 -1h1l3 -2q1 0 2 -1l3 -3q1 0 1 -1l2 -2q0 -1 0.5 -1t0.5 -1q1 -2 1 -4q8 -8 5 -19t-17 -14q-60 -1 -118.5 2t-118.5 2q-41 -1 -82.5 -3t-82.5 -6q-10 2 -13 5h-6q-11 1 -16 7.5 t-4.5 13.5z" />
<glyph unicode="&#x3e;" horiz-adv-x="401" d="M50 18q1 5 2 9.5t3 9.5q2 15 9.5 24.5t22.5 13.5q21 47 52.5 102.5t64.5 116t64.5 124t53.5 126.5q1 4 5 10q-2 4 -3.5 7.5t-3.5 7.5q9 -14 0 5t-28.5 57t-46.5 88.5t-53.5 99.5t-49.5 90.5t-34 61.5q-3 0 -5 1q-24 9 -37 33t-16 48q2 11 9.5 15.5t15.5 1.5h3q13 4 23 -9 q10 -14 19 -31.5t17.5 -35.5t16.5 -35t16 -30q28 -49 55.5 -91t52.5 -83t46.5 -84.5t37.5 -94.5q4 -13 5 -28.5t-8 -15.5q-9 -40 -23 -75t-31 -68t-35 -66t-35 -70q-13 -30 -27.5 -62.5t-31 -65t-35.5 -63.5t-41 -56q-4 -2 -7 -3t-6 -1q-7 -6 -18 -4q-16 2 -19 20z" />
<glyph unicode="?" horiz-adv-x="486" d="M66.5 970.5q-0.5 43.5 3.5 86.5t17 79.5t35.5 63.5t59.5 39q5 9 20 11q32 4 73.5 -0.5t73.5 -25.5q8 -5 17 -14t16.5 -34t12 -71t2.5 -125v-13q7 -73 4 -151t-14 -145q-1 -9 -8.5 -17.5t-17 -16.5t-19.5 -15t-16 -13q-31 -28 -51 -58l-6 -9q-5 -7 -8.5 -14.5t-7.5 -15.5 q-5 -31 -4.5 -64t1.5 -63q2 -94 4.5 -188t2.5 -189q-1 -9 -6 -15q-1 -2 -5 -4l-4 -2q-8 -2 -15 2q-8 -5 -17.5 -0.5t-11.5 18.5q-1 59 -4 118t-4 118.5t1 118t11 117.5q5 29 16 55q5 19 12 35q6 10 14 12q14 26 35.5 47.5l41.5 41.5q5 5 12 9t9 10q5 16 3 32t-3 32 q0 34 3 61.5t6 53t5 52t1 58.5v1q-2 21 -3.5 42.5t-3.5 42.5q-2 6 -2 9q-2 35 -11 60t-33 39q-2 2 -4 2q-2 1 -7.5 4.5t-11.5 7.5t-12 7t-9 4l-12 3l-16 2q-26 3 -43.5 -10t-29.5 -34q-20 -34 -28.5 -76.5t-10.5 -88t-1 -90.5t1 -83q0 -5 -2 -13l2 -37q5 -27 -4.5 -37 t-20.5 -4.5t-18.5 26t0.5 54.5q-3 34 -6.5 76t-4 85.5zM176 -192l3 9q0 4 0.5 7.5t0.5 7.5q1 9 8 14v2q-5 8 0.5 17.5t19.5 10.5q13 0 26.5 0.5t25.5 -2t20.5 -10t12.5 -22.5q15 -18 6 -49q-3 -9 -9.5 -16t-14.5 -12v-6q-2 -17 -7 -21t-12.5 -2t-15.5 7t-15 7l-4 5h-2 q-4 0 -7.5 -2t-8.5 -2q-8 2 -12.5 4.5t-7.5 10.5q-2 5 -2.5 11t-0.5 12q2 6 4 10z" />
<glyph unicode="@" horiz-adv-x="973" d="M131.5 499q-1.5 57 0.5 117t10.5 119.5t28 113t52 97t83.5 72.5q25 15 49.5 22.5t48.5 11t49.5 5t54.5 4.5q51 4 107 -5.5t103.5 -36t79 -71.5t31.5 -111q15 -60 23 -128t10 -137t-1.5 -135t-11.5 -122q-2 -18 -3 -33t-3 -28.5t-5.5 -26.5t-11.5 -28q-6 -18 -11.5 -28.5 t-14.5 -19.5t-22.5 -20.5t-33.5 -32.5q-4 -4 -10.5 -10t-14 -12t-14.5 -10t-13 -4q-16 0 -32.5 1t-29 8.5t-20 23.5t-5.5 45v2q-1 11 -0.5 20.5t1.5 20.5v28q-17 -24 -39 -42t-48.5 -25t-55.5 -2t-60 26q-23 16 -36.5 48t-19.5 68.5t-7 72.5t0 60q1 11 1.5 22t2.5 22 q0 7 0.5 13t0.5 14q1 18 7.5 46t17.5 56.5t26.5 52.5t34.5 35q20 11 41.5 17.5t42.5 13.5q14 4 36 1q18 4 34.5 5.5t30.5 -3.5l-3 22q-13 35 -37.5 56.5t-66.5 23.5q-20 1 -40.5 -3t-41.5 -8q-14 -8 -29 -18.5t-31 -20.5t-33 -16t-35 -5q-9 1 -15.5 6.5t-8.5 12t0 13t11 9.5 q26 5 47 13.5t43 24.5q25 19 61 28q14 7 41 11.5t59 -2t65 -30t59 -73.5q10 -19 12.5 -42.5t1.5 -48t-3 -48t-2 -41.5q-1 -54 -2 -109.5t-7 -109.5q-4 -41 -8.5 -81.5t-6.5 -81.5q2 -21 4.5 -41.5t7.5 -41.5q7 -3 11 -3t7 0.5t7.5 2t13.5 1.5q12 9 24.5 21t24.5 24t22 23 t15 18q15 39 24 88q2 19 3 40t2 40.5t1 37v30.5q1 32 0.5 62.5t-2.5 61.5q-1 32 -2.5 63t-4.5 62q-3 45 -8 94.5t-16 94.5q-1 5 -6.5 15.5t-12 21.5t-12.5 21.5t-8 15.5l-43 32q-20 15 -50.5 24.5t-66.5 14t-74 4.5t-72.5 -4.5t-63 -12.5t-44.5 -20q-43 -31 -72.5 -73.5 t-48 -92t-28 -104t-12.5 -110t-0.5 -109t8.5 -100.5q2 -54 3.5 -109.5t14.5 -108.5q6 -24 15 -53t23.5 -58t34.5 -55.5t49 -47.5q19 -14 40.5 -22.5t44.5 -13.5q32 -8 61 -17t61 -14q28 -4 63 -3.5t62 7.5q8 2 18.5 9t16.5 9q11 12 24 23t25 23t22 25t16 27q9 6 20 9t20 2.5 t12.5 -5t-2.5 -13.5q-8 -26 -15 -32.5t-18 -11.5q-9 -3 -16 -10t-14 -16t-15 -17.5t-18 -14.5q-2 0 -6 -2l-12 -11q-37 -25 -82 -35.5t-91.5 -9t-92 12.5t-83.5 29q-10 5 -26.5 12.5t-34 16.5t-32 20t-20.5 23l-6 14q-36 40 -56 91.5t-29.5 107t-12.5 111.5t-4 106 q-1 49 -2.5 106zM380 416q1 -59 12.5 -113t37.5 -84q4 -4 11 -8.5t15.5 -8.5t16.5 -6.5t14 -2.5q46 0 66.5 20t24.5 54q1 6 3.5 14.5t5.5 15t6.5 10.5t7.5 2q1 2 1 7q1 6 7 12q2 61 5 121t5 122q0 8 0.5 19.5t0.5 24.5q-1 1 -1 3q-6 26 -29 37t-51 12q-32 -6 -60.5 -15 t-36.5 -19q-17 -21 -28.5 -47.5t-18 -56t-10 -59t-5.5 -54.5z" />
<glyph unicode="A" horiz-adv-x="677" d="M90 209q4 65 5 125q2 142 6.5 282.5t22.5 280.5q1 6 4 27t7.5 50t11 62.5t14.5 63t16.5 52t18.5 30.5q14 11 27.5 21t27.5 21q11 8 20.5 5t12.5 -10q8 3 15 6t14 8q8 5 18.5 6t18.5 2q29 3 59 -1.5t57.5 -17.5t50 -33t36.5 -47q5 -9 7 -37t3 -58.5t0.5 -55t-0.5 -26.5 q1 -50 1.5 -92t0 -83t-0.5 -83.5v-93.5v-188q5 -55 9.5 -110t8.5 -111q1 -24 2 -39.5t1.5 -29t1 -29t0.5 -40.5q0 -7 1 -14l2 -14q2 -8 7.5 -13t0.5 -3q6 -12 -3.5 -21.5t-25.5 -3.5q-6 4 -8 8q-3 -6 -9 -8.5t-12 -1t-10.5 6t-5.5 13.5q0 103 0.5 204.5t0.5 204.5 q-4 55 -6.5 109.5t-3.5 109.5q-46 1 -91.5 4t-90.5 4q-26 1 -52 1h-25h-12q-33 0 -66 5h-14v-49.5t-1 -45.5q-1 -44 -7 -89.5t-13 -90.5v14l-1 -16q0 1 1 2q0 -2 -0.5 -3t-0.5 -3v-1l-3 -72q0 -52 1 -103q0 -17 1 -34q0 -34 -2 -69v-22v-12t1 -11v-3q6 -8 4 -15.5 t-7.5 -11.5t-13.5 -4t-15 7q-5 6 -7.5 21.5t-3.5 35.5q-7 46 -7 93q-1 17 0 34zM164 727q52 6 105 5q32 0 65 -2q86 -6 170 -5q6 0 11 -0.5t10 -2.5q0 59 -0.5 116t-1.5 126q0 7 1 30.5t0.5 51.5t-4 54t-13.5 39q-12 18 -30.5 29.5t-38.5 19.5q-34 15 -66.5 15t-61.5 -13.5 t-53 -39t-41 -60.5q-17 -37 -27.5 -80.5t-16 -90.5t-7 -95.5t-1.5 -96.5z" />
<glyph unicode="B" horiz-adv-x="663" d="M18 1187q3 13 11.5 21.5t20.5 13.5t26 7t27 4q23 5 42 5q47 6 91 9q19 1 38 1q26 0 50 -2q42 -4 83.5 -16t83.5 -36q19 -11 32.5 -30.5t22.5 -42t13.5 -46t4.5 -43.5q2 -27 -1 -62t-11 -61q-21 -72 -66 -117t-104 -70q19 -6 37.5 -11.5t37.5 -12.5q13 -5 23.5 -14t19 -21 t16.5 -24.5t17 -22.5q29 -32 45 -81t24 -103t8 -106q0 -17 -1 -33v-57q-1 -21 -5.5 -48.5t-13.5 -55t-23.5 -51t-33.5 -36.5q-2 -2 -12.5 -7.5t-23 -11t-23.5 -10t-14 -5.5q-23 -8 -62 -13t-82 -7.5t-83.5 -3.5t-67.5 -1q-5 -8 -16 -11l-5 15q-13 -2 -23 -8t-12 -20 q-5 -11 -12.5 -14t-15.5 1q-8 -10 -20 -6t-14 19q5 37 27 54t52 22l-4 14h6l-7 197q-5 168 -12 334t-9 335q0 9 -1 40t-2 70q0 20 -1 40q0 20 1 40q1 40 5 70q-1 -1 -3 -1h-21.5t-21.5 2h-1q-8 -14 -21 -11.5t-16 19.5zM161 250q1 -30 3 -54t4 -47t3.5 -46.5t1.5 -53.5 q47 -1 91 -1h5q42 0 91 8q19 3 33 4.5t26 3.5t25.5 6.5t33.5 13.5q21 10 32.5 29.5t18 43.5t9.5 49.5t7 46.5q10 54 10 105q0 48 -9 92q-19 90 -91 168q-6 6 -16.5 11t-22 9t-22.5 8t-17 9q-5 -3 -8 -3q-30 0 -54.5 -0.5t-48 -2t-48 -5t-54.5 -9.5h-1zM164 723q21 2 42.5 1 t39.5 0q55 2 100.5 19t89.5 53q21 17 38.5 43.5t29.5 58t18 66.5q4 26 4 51v17q-7 2 -12 7q-8 12 -11 23.5t-4 21t-2 17t-7 11.5q-36 27 -72 43t-73.5 25t-77.5 12.5t-84 4.5q-3 -3 -7.5 -5.5t-9.5 -3.5q0 -117 -0.5 -232.5t-1.5 -232.5z" />
<glyph unicode="C" horiz-adv-x="554" d="M69.5 951.5q-1.5 30.5 0.5 61t9 59.5t24 52q23 32 48 55t57 44q16 10 39 15.5t48 7.5t50 0t44 -6q14 -1 31.5 -6.5t31.5 -8.5q11 -3 20.5 -11.5t16 -20.5t10 -25.5t2.5 -25.5q7 -14 8 -22q1 -11 -1 -21t-2 -21q5 -8 3.5 -16t-8.5 -13q-2 -8 -10.5 -13t-20.5 0 q-15 11 -13.5 29.5t-0.5 33.5q-4 20 -14.5 38t-13.5 39q-3 3 -10.5 4.5t-16 3t-17 2.5t-12.5 3q-19 -1 -41 -2.5t-43 -3.5t-38.5 -6t-27.5 -10q-35 -24 -55 -54.5t-29.5 -66t-11.5 -73.5q-1 -25 -1 -51v-26q2 -81 2 -161q0 -53 -1 -105v-44q0 -110 8 -223q2 -28 3.5 -61 t4.5 -67.5t9.5 -67t20.5 -58.5q5 -11 16 -18t20 -15q16 -15 42.5 -24t56 -12.5t59.5 -1.5t54 11q14 10 22 27q-2 11 6 19q3 7 10 11q5 9 5 22.5t1 20.5v1q3 11 10 15t15 2q4 6 10 8.5t12 1t10.5 -7.5t3.5 -15q-2 -32 -9 -61t-32 -52q-10 -8 -22 -16v-2q-10 -18 -27.5 -26.5 t-38.5 -11.5t-43.5 -2t-42.5 1q-7 -11 -22 -9q-21 8 -47 16.5t-52 19t-48.5 24.5t-36.5 34q-6 10 -10.5 38t-7.5 58t-4 53l-2 23q-7 104 -7 204v45q1 49 1 98q0 74 -2 151q-1 39 -1 78.5v78.5q0 25 -1.5 55.5z" />
<glyph unicode="D" horiz-adv-x="598" d="M-14 -14q2 19 9.5 30.5t19.5 24.5q16 11 27 2q11 5 19.5 14.5t23.5 8.5q-1 2 4.5 13t5.5 13q-4 124 -4 243q1 15 1 29q0 132 2.5 264.5t6 268.5t5.5 282q-25 -12 -40.5 -11.5t-23.5 7t-8.5 17t3.5 20.5t12 16t19 4q20 -5 47.5 -4.5t56.5 1.5t58.5 1t54.5 -6 q26 -2 49 -9.5t40.5 -15.5t28.5 -15t13 -8q39 -30 64 -82.5t41.5 -113t26.5 -121t19 -106.5q9 -44 10 -91v-24q0 -34 -2 -70q-3 -48 -8.5 -95t-10.5 -92q-7 -60 -31.5 -118t-57.5 -111q-21 -33 -34.5 -49t-27.5 -26.5t-33.5 -21t-51.5 -31.5q-17 -11 -26 -16.5t-17 -7.5 t-19 -3t-31 -2l-148 -10q-1 -2 -1.5 -5t-2.5 -5q-14 -8 -30.5 -11t-31.5 -11q-14 -3 -22 6t-3 20zM144 266q-1 -31 0 -61q0 -41 1 -82q0 -12 0.5 -25.5t1.5 -27.5q2 0 3.5 0.5t3.5 0.5q14 -1 27 -3t27 -3q14 -5 16 -16q17 8 32 17t29 18q40 26 64.5 58.5t50.5 71.5 q30 44 50.5 98.5t34 112t20 116t6.5 110.5v22q0 45 -3 96q-4 63 -16.5 125t-35.5 118t-61 98q-8 10 -17.5 16t-21.5 20q-13 10 -28.5 18t-30.5 14q-29 11 -61.5 10t-71.5 -6q-1 -99 -3 -195t-4 -191.5t-4.5 -191t-4.5 -194.5z" />
<glyph unicode="E" horiz-adv-x="627" d="M76 355q-2 16 -2 34q0 24 4 48q6 43 7 82q2 39 2 75v24v16q0 40 4 84q2 22 3 43.5t2 44.5q1 20 1 40q0 25 -1.5 49t-1.5 49q0 20 1 40q1 40 6 83v1q0 40 -3 79t-3 78q0 2 1 3q0 2 1 3q3 7 9 10t12 2q1 0 2 -1h1q14 10 26 -2q14 2 31 2t37 -1q56 5 110.5 5.5t110.5 0.5 q18 0 41 1t43 -4q12 9 28 12t30 5q19 2 22 -14q11 -5 11.5 -15.5t-9.5 -17.5q3 1 -1.5 -3.5t-6.5 -7.5q-5 -5 -12 -6.5t-14 -2.5q-3 0 -7 2l-12 -2q-5 -5 -12 -6q-28 3 -55.5 3t-55.5 -1q-5 -7 -13 -8q-20 1 -39 2t-38 3l-186 -7v-20q1 -106 2 -210v-42q0 -84 -3 -169 q15 3 45 2t62.5 -3t62 -4.5t44.5 -2.5q2 0 5 0.5t5 0.5q5 9 12 15t18 4q18 -2 26.5 -12.5t10 -24.5t-3 -28.5t-12.5 -24.5q-11 -6 -20 -2h-4q-14 0 -22 11q-11 -6 -22 0q-8 5 -26.5 6.5t-41.5 1.5q-7 -1 -27.5 -2t-44 -2t-43.5 -2t-27 -1v-12q-3 -49 -4 -94t-6 -94 q2 -80 1 -155q1 -19 1 -37q0 -13 -1 -26q0 -80 3 -166q6 -46 37 -41q46 11 87 11q6 -1 10 -1q44 -2 91 -5q10 -1 20 -3.5t21 -2.5q9 1 28.5 2.5t41 2.5t40.5 0.5t28 -3.5q8 -2 16 -2.5t16 -1.5q14 -5 16 -18q14 -7 12.5 -20.5t-17.5 -17.5l-445 -4q-5 -5 -12.5 -4.5 t-12.5 5.5q-2 -1 -4 -0.5t-4 0.5q-10 3 -14 12t-5 19.5t0 21.5t1 19l-2 128q-5 43 -8.5 85t-4.5 86z" />
<glyph unicode="F" horiz-adv-x="568" d="M62 7v3q-2 11 3 17q3 12 1 24.5t-2 24.5q1 75 2 148t1 147q0 112 1.5 223t3.5 223q0 92 -0.5 183t-0.5 183q1 7 6 12v30q3 16 19 18q9 5 20.5 6.5t23 1.5t22 -1t18.5 -1q23 -2 45.5 -3.5t45.5 -3.5q7 7 18 8q33 -1 66.5 -3.5t66.5 -5.5q19 4 38.5 4t33.5 -8h12q2 0 2 -1 q9 2 14 0t13 -7v-1q13 -5 17 -17q5 -12 -1.5 -23t-14.5 -19q-8 -5 -18 -4q-14 3 -21 16h-65q-74 2 -147 3.5t-147 2.5q-7 -3 -15 -2l-6 -3q-1 -90 -2 -178t-3 -177v-16q8 0 16 -9l1 1q0 -2 1 -3q0 -1 0.5 -1t0.5 -1t1 -1t1.5 -0.5t1.5 -0.5q7 -7 8 -12l4 -1l2 -2q14 1 31 2 t34 1t32 -0.5t25 -2.5q4 7 12 9.5t18 -4.5q0 -1 1 -1q0 -1 0.5 -1t0.5 -1l6 -4q14 -5 16.5 -15.5t-5.5 -18.5q-4 -13 -25 -15q-2 -4 -6 -7t-10 -4q-42 -2 -82 -7t-81 -6q-1 -1 -3 -1l3 -442q10 -3 14 -16q0 -30 2 -61t2.5 -62t-1 -61.5t-7.5 -60.5q-6 -14 -17.5 -15 t-18.5 10q-8 -5 -15.5 -3t-12.5 13z" />
<glyph unicode="G" horiz-adv-x="613" d="M70 603q0 92 4 186t11 185q0 26 1.5 51.5t4.5 46.5q0 7 0.5 14t0.5 15q3 14 16 18l36 53q13 13 27 26.5t30 25.5t33 21t36 12t37.5 8t36.5 1q63 -3 103.5 -23t64.5 -49t33 -62.5t9 -64.5q0 -8 1 -20.5t1.5 -25.5t0 -25.5t-2.5 -21.5q-22 -17 -34.5 -20.5t-19 2t-8 17.5 t-1.5 26q0 22 4.5 33t4.5 26q0 11 2 18.5t2.5 14t-1.5 13.5t-10 17q-11 15 -25 28.5t-28 24.5q-32 27 -68 38q-27 9 -53 9q-9 0 -19 -1q-35 -4 -68 -23t-57 -51q-14 -19 -21.5 -34.5t-11 -31.5t-5.5 -34t-6 -41l-3 -6v-1q-1 -32 -1 -64t-2 -64l-3 -46q10 -5 9 -20 q0 -3 -1.5 -20.5t-3 -37.5t-3.5 -37t-4 -18q-1 -18 0.5 -22.5t3.5 -7t4.5 -7.5t3.5 -23q2 -58 2.5 -110.5t5.5 -110.5q7 -78 9 -156.5t2 -157.5q2 -5 6 -10t11 -10q27 -22 46 -35t37 -18t39.5 -3t53.5 10q16 4 25 4.5t16 0.5q-5 4 -2 7t8.5 6t12.5 6t10 7q26 29 49 64.5 t40 70.5q5 38 6 82v34v52q-2 44 -4.5 84.5t-3.5 72.5v1q-10 3 -13 11l-109 10l-51 -7q-14 3 -19 15t8 22q5 4 12.5 6.5t16.5 4.5q1 0 2 0.5t3 0.5q16 3 44 4t55 0.5t47 -1l20 -0.5q6 0 12 -2h4q8 4 16.5 0.5t12.5 -15.5q0 -23 1 -45t2 -43l2 -2q6 -8 5.5 -15.5t-5.5 -12.5 q1 -22 1 -46v-25q-1 -39 -4 -77.5t-8.5 -74.5t-12.5 -64q-2 -16 -4 -25t-5.5 -16t-8.5 -13.5t-11 -18.5q-9 -16 -21 -32t-26.5 -29.5t-31.5 -23t-36 -12.5q-27 -17 -50 -22.5t-46.5 -3t-49 11t-58.5 20.5q-15 5 -30 13t-27 19q-8 -3 -16.5 2t-10.5 18v4q-15 2 -18 21 q0 70 -1 140t-7 139q-5 64 -9.5 122.5t-4.5 122.5z" />
<glyph unicode="H" horiz-adv-x="676" d="M80 92q-1 26 6 50.5t11 48.5q5 30 6 63.5t1 63.5q0 64 -4 128q-2 34 -1 69q0 30 1 59q5 72 12 142t9 142q0 30 0.5 60t-0.5 59q-1 59 -2 119q-9 5 -10 18v41v13.5t-1 12.5v3q-5 5 -7.5 12t-6.5 12q-6 16 3.5 25t20.5 4q5 11 15.5 12.5t18.5 -6.5q11 -3 16 -17 q0 -65 -0.5 -123t-1.5 -115t-1.5 -115t-1.5 -123q2 0 4 -2q24 -2 49 -1t49 0q35 -1 64 -2.5t56.5 -2.5t55.5 -2t61 -1q7 12 18 17q-1 64 -1.5 121.5t-0.5 114v114.5v123q2 10 8.5 14.5t14.5 3.5q8 6 18 3t14 -16v-238.5t1 -237.5q6 -1 11.5 -5t7.5 -12l4 -8q2 -4 2.5 -7.5 t1.5 -6.5q-2 -14 -10.5 -19t-16.5 -2q1 -153 2 -304.5t1 -305.5q-1 -3 -1 -6t-2 -5l1 -1q1 -17 12 -27q6 0 12 -4t9 -13v-3q8 -9 5.5 -18t-11.5 -13q-5 -20 -24 -24.5t-35 5.5l-4 4q-5 2 -8.5 6.5t-4.5 12.5q0 81 -0.5 169.5t-1.5 178.5t-1.5 178.5t-1.5 170.5 q-38 0 -68.5 1t-59.5 2t-60 2.5t-69 2.5q-20 1 -42.5 0.5t-43.5 -0.5q-2 -13 -16 -16q-1 -80 -2 -167t-1.5 -175t-0.5 -174.5t-1 -165.5q-1 -11 -6.5 -16t-13.5 -5q-2 -9 -7.5 -14t-12 -4.5t-12.5 5.5t-7 15q-1 26 -8.5 51t-9.5 51z" />
<glyph unicode="I" horiz-adv-x="365" d="M34.5 1217q1.5 11 12.5 14.5t26 1.5t23 -1q8 2 15 3.5t15 2.5q29 2 58 0q21 1 42 1.5t38 0.5h28h13q17 -6 17 -22v-5.5t-2 -6.5q-5 -9 -18 -12.5t-29.5 -4t-34 1t-31.5 3.5q1 -144 1 -283t-1 -271q-2 -266 -4 -483l-3 -81q5 1 9 1.5t9 0.5q11 -4 15 -11.5t1 -15.5 q15 -1 30.5 -0.5t30.5 0.5q17 -5 17 -19.5t-14 -19.5q-5 -4 -11 -5q-25 -1 -53 -3.5t-56 -3.5t-55 1.5t-51 12.5l-2 2q-9 2 -13.5 8t-4 12.5t6 12t15.5 6.5q11 0 22.5 -0.5t22.5 -0.5q1 6 6 10.5t15 5.5h17l6 86q-5 117 -9 232q-3 77 -3 155q0 39 1 78q2 60 6.5 118t6.5 118 q-9 63 -11.5 97t-1.5 53.5t3.5 32t3.5 32.5q2 30 0.5 60t-3.5 61q-8 0 -15.5 -0.5t-15.5 -0.5t-16 0.5t-16 -0.5q-2 -2 -6.5 -6t-10 -7t-12.5 -3.5t-13 5.5q-18 25 -16.5 36z" />
<glyph unicode="J" horiz-adv-x="588" d="M60 317q1 13 15 18q5 2 10 2h10q3 -1 9 -5h12q16 -5 17 -18.5t-12 -19.5q1 -23 4.5 -59t7.5 -71t9 -63t11 -35q21 -24 53.5 -37t67.5 -14h6q32 0 62 10q33 11 54 35l10 14v1q2 13 6.5 24t9.5 22q2 16 5.5 32t8.5 31q-1 30 -1 59t1 58q2 58 6 116q-2 34 -3.5 68.5 t-1.5 68.5q0 54 1 90.5t2.5 70t3.5 70t3 90.5q-3 66 -5.5 132t-3.5 132q-4 14 -15 21.5t-25 8.5q-11 1 -17 9h-3q-4 -2 -10 -4q-7 -1 -18 -6t-30 -7q-6 -5 -14 -5t-16 8l-10 11q-13 7 -16.5 17.5t1.5 19.5q-1 10 5.5 17t23.5 9q14 1 21 -10l5 -3q3 3 8 5q14 2 29 3.5 t29 -2.5l15 -4q19 2 37.5 2.5t38.5 1.5q13 -5 16 -14t-2 -17v-5q6 -10 0 -21l7 -270q1 -38 1 -79t-1.5 -83t-2.5 -83.5t-1 -78.5q0 -34 -1.5 -51t-3 -30.5t-4 -30t-3.5 -50.5q2 -65 4.5 -129t2.5 -130q-2 -11 -6 -15q1 -3 1 -9q-2 -6 -2.5 -11.5t-1.5 -11.5v-1 q-1 -3 -1 -5.5t-2 -4.5q-4 -19 -12.5 -35.5t-25.5 -30.5q-30 -22 -56 -35q-5 -3 -9.5 -5.5t-9.5 -4.5l-23 -6q-31 -8 -62 -8q-12 0 -23 1q-43 4 -91 21q-16 5 -30.5 15t-24.5 23q-19 27 -27.5 55.5t-11.5 58.5t-2 61l2 62l3 24q-15 7 -14 20z" />
<glyph unicode="K" horiz-adv-x="669" d="M79 45.5q2 14.5 17 23.5h1q4 7 8 11q-2 24 -3 41t-1.5 33t-1 33.5t-0.5 42.5q0 102 1 202.5t2 202.5q-4 3 -7 7q-8 10 -7.5 20.5t15.5 18.5v73t1 73q1 51 1 101q-1 25 -1 50v151q0 8 0.5 16.5t0.5 16.5q-7 4 -9.5 11.5t-2 16t2.5 17.5t4 15q7 13 18 12.5t19 -10.5 q3 -5 3 -6q5 16 20 16t20 -17q-2 -123 -9.5 -244.5t-13.5 -245.5q22 28 46.5 52.5t46.5 49.5q21 23 41.5 47.5t39.5 50.5q7 10 10.5 19.5t6.5 19t6.5 19t10.5 19.5q14 23 36.5 48t33.5 50q9 22 16.5 44t16 43t18.5 41.5t25 38.5q9 6 17 5.5t12.5 -5t5 -12.5t-5.5 -17l-3 -4 q7 -11 2 -22q-13 -24 -19 -39.5t-11.5 -29.5t-13.5 -30.5t-24 -42.5l-33 -53q-12 -21 -24 -41t-26 -40q-13 -19 -26.5 -37.5t-28.5 -36.5l-45 -63q4 -4 7 -11q-1 -13 -3 -20t-4.5 -12t-4.5 -10t-2 -13q-2 -12 -7 -16q40 -65 69.5 -128t62.5 -133q17 -37 31 -72t27.5 -69.5 t27 -69.5t29.5 -73q14 -31 31 -60t31 -59q4 3 11 3q11 6 19 3q10 4 19 -2t8 -20q-5 -12 -24 -22.5t-30 -12.5q-5 -4 -9.5 -4t-8.5 1t-8.5 2.5t-10.5 1.5q-10 2 -23.5 12.5t-14.5 16.5q-21 21 -37.5 61.5t-30 83.5t-23.5 81t-17 56q-8 18 -13 31.5t-10.5 26.5t-11.5 26.5 t-15 30.5q-16 32 -26 60t-27 60q-8 16 -15.5 31.5t-15.5 32.5q-2 5 -7.5 14t-11.5 22q-8 -3 -16.5 1.5t-10.5 17.5q0 3 -1 4q-5 1 -10 6l-3 -2q-1 0 -2 -1q1 -7 -3.5 -14t-14.5 -9h-3q-13 -10 -19 -21t-16 -25l-1 -1q-1 -24 -0.5 -48.5t-0.5 -47.5q-1 -43 -1 -84v-39 q1 -58 3 -114t3.5 -114t1.5 -122v-3q-2 -6 -4 -10q0 -1 -2 -3l-7 -5q-5 -14 -12.5 -16.5t-15 -1t-13 4t-5.5 -0.5q-1 -8 -7 -2t-9.5 18t-1.5 26.5z" />
<glyph unicode="L" horiz-adv-x="565" d="M23 1q5 19 24 29q1 5 7 9q4 4 12 7q4 9 12 17.5t18 12.5q4 44 6 92q1 36 2 70v24q0 47 -2 92t-2 85q0 193 -1.5 383.5t-1.5 383.5q-4 0 -6 1q-11 1 -16 7.5t-4.5 13.5t5.5 12.5t16 6.5q1 0 1.5 -0.5t1.5 -0.5q3 2 12 4q5 -1 9 -1.5t9 -2.5q7 -2 13 -7q5 -5 8 -10t3 -12 q-2 -9 -4 -12q5 -29 11.5 -57.5t7.5 -59.5q1 -18 1 -35q0 -44 -4 -88q-5 -61 -6 -123q-1 -109 -1 -217v-161q2 -188 3 -380q7 -8 16.5 -21t19.5 -13q4 -1 10 -5l26 -4q23 -3 52 -6t59 -4t59.5 -1t52.5 4q11 8 21.5 17t20.5 15q4 12 13.5 16t19 2t17 -9.5t9.5 -18.5 q-1 -10 -6.5 -16t-13.5 -6q-2 -6 -4 -8l-3 -3l-8 -9l-5 -6q-4 -5 -11 -7.5t-15 -4.5q-12 -5 -24 -7t-23 -4q-8 -5 -13 -6q-20 -5 -53.5 -4t-70.5 5.5t-72 9.5t-57 7q-17 2 -40.5 1.5t-43.5 4.5q-8 0 -11 -1q-2 -10 -8 -14.5t-14 -3.5q-5 -7 -11.5 -8.5t-12.5 1t-9 9t-1 15.5 z" />
<glyph unicode="M" horiz-adv-x="879" d="M76 1204q0 6 3 12q12 13 28.5 18.5t33.5 4t33 -9t28 -19.5q15 -15 30.5 -43.5t28.5 -61t23 -63.5t14 -52q14 -72 27.5 -121.5t25.5 -86.5t22 -64t18 -54q14 -45 22.5 -98.5t19.5 -110.5q6 -2 9 -4q4 -5 12 -9h1q2 5 2.5 11t0.5 9q5 20 22 18q11 64 21.5 109.5t21.5 82.5 t22.5 69t24.5 68.5t27.5 81t32.5 106.5l13 40q15 54 33.5 101.5t41.5 73.5q1 2 2 2.5t3 2.5l12 19q7 9 17.5 14t19.5 11q15 6 23 -2.5t4 -21.5q5 -11 -4 -23l-10 -6v-35q1 -61 3 -123q1 -24 1 -49q0 -55 -6 -110q4 -81 4 -165q-1 -10 -1 -20q0 -94 -3 -187q-2 -45 -4.5 -85 t-7.5 -84q-1 -52 -2 -112v-17q0 -51 3 -100l3 -14q3 -17 4 -33.5t2 -33.5q2 -4 8.5 -10.5t4.5 -9.5l14 -26q-1 -11 -14 -15.5t-29 -4.5t-30 5.5t-15 16.5l-4 34v27q0 27 1 56q2 43 2 84q0 39 3.5 78t8.5 78v36q-1 85 -1 165q0 6 -1 12q0 74 6 151q3 33 3 68v12q0 5 -1 9 q0 36 4 70q0 5 0.5 9.5t1.5 9.5q-3 42 -9.5 84t-11.5 85q-5 3 -6 9q-1 2 -1 3t-1 2q-10 -11 -21 -8l-11 -36q-13 -48 -25.5 -92t-19.5 -79q-5 -23 -14 -58t-20 -72t-21.5 -71.5t-18.5 -57t-11.5 -28t0.5 15.5q-14 -76 -30 -152.5t-27 -152.5q5 -5 5 -12.5t-6 -15.5l-2 -2 q-1 -5 -1 -13q-1 -10 -6.5 -15.5t-12 -6t-13 4t-8.5 13.5q-1 0 -2 -0.5t-3 -0.5h-7q-1 1 -3 1l-2 2q-1 0 -3 2q-3 2 -5 7q0 1 -0.5 1t-0.5 1l-1 2q-3 4 -3 11q-1 16 -1.5 24.5t-1.5 12.5t-2 6t-2 5q-4 8 -2.5 14.5t6.5 11.5q-9 23 -16.5 48t-14 49t-11 45t-6.5 36 q-8 53 -15 87t-14 59t-14 45t-14.5 45t-16.5 59t-19 86q-8 44 -18 83q-9 32 -21.5 69.5t-28.5 71.5q-11 0 -16 9q-2 2 -5.5 5t-5.5 4l-10 6v-142.5v-140.5v-93q0 -94 1 -191q1 -66 5 -134q1 -21 1 -41q0 -46 -6 -92q-4 -58 -4 -114q0 -23 1 -45q2 -78 2 -159 q-1 -11 -11 -16.5t-22 -5.5t-22.5 4.5t-11.5 15.5q3 11 5 39q1 21 2 46v18q0 36 -2 75.5t-2 72t1 54.5t6 23l2 341q1 64 1 128v128q0 70 -1 132v12q0 56 8 115q-15 5 -29 3q-11 2 -16.5 9t-3.5 15z" />
<glyph unicode="N" horiz-adv-x="762" d="M52 1225q-2 4 0 9q0 4 3 10q8 8 18 9t20.5 -0.5t20.5 -4.5t19 -4l1 -1q13 11 27.5 8.5t17.5 -25.5q0 -3 3.5 -6t7.5 -6t6.5 -5t1.5 -3q10 -16 21.5 -29t23.5 -27.5t24 -32t24 -42.5q33 -68 53.5 -134t34.5 -132t25 -131.5t24.5 -132.5t34 -135t53.5 -139q10 -21 19 -46 t19 -50t21 -49t25 -42q-1 1 -1 4q0 7 1 13.5t2 13.5q-5 8 -2 18q7 20 11 40q-2 14 -2 25.5t1 22t1.5 21.5t-0.5 25q-4 45 -4 83t1 74.5t2 74.5v40v43q-1 38 -2.5 81.5t-2.5 87.5q-1 43 -1 87q0 9 -1 18q0 34 2 64q3 55 3 102t5 101q1 10 1 19.5v18.5q-9 2 -14 11.5t2 21.5 q5 8 6.5 11t1.5 5v5t2 11v3h1q2 8 7.5 12t11.5 4t11.5 -4.5t8.5 -12.5v-8q4 -4 7 -12q-2 -108 -2 -215.5t-2 -216.5q0 -17 0.5 -56.5t1 -90t1 -107t1 -108.5t0.5 -95v-65q5 -38 6 -77t2 -77q-2 -14 -9 -18q0 -8 0.5 -14.5t-0.5 -14.5q16 -4 15 -23q-1 -7 -3 -14.5t-9 -12.5 l-7 -3q-9 -7 -20 -6q-19 7 -39 27l-7 5q-76 82 -119.5 176.5t-71 195t-47.5 204.5t-49 206q-10 36 -23 81t-30 91t-39 89.5t-49 75.5q-2 -154 -8 -306t-8 -306q-1 -40 -1 -79q-1 -90 3 -178q4 -128 5 -256v-2q0 -2 -0.5 -2.5t-0.5 -1.5q-1 -1 -1 -3l-6 -8l-3 -3q-3 0 -4 -1 h-3q-6 -2 -15.5 1t-39.5 5q-9 1 -10 9.5t3.5 19t12.5 20.5t16 14q1 282 2 558t2 559l-12 7q-8 2 -16.5 4.5t-16.5 6.5q-10 10 -7 22z" />
<glyph unicode="O" horiz-adv-x="698" d="M76 293.5v93.5q1 60 3.5 119.5t6.5 119.5v10q2 54 7 107.5t10 107.5l4 63l2 38q0 7 -0.5 21.5t-1 32.5t0.5 37t4 36q-6 7 -3 20q8 29 21 49.5t31 35.5t41 25.5t51 19.5q51 16 105 20q13 1 25 1q41 0 77 -10q48 -13 85.5 -44.5t58.5 -84.5q6 -15 8 -33t2 -36.5v-37 t2 -34.5q4 -24 7.5 -58t5.5 -59q2 -31 2.5 -59.5t-1.5 -56.5t-5 -56.5t-7 -59.5q0 -21 -0.5 -42t-0.5 -41q-1 -32 -4 -65t-4 -65v-188v-15v-27t-1 -31t-3 -26q-2 -8 -7.5 -15t-9.5 -15q-23 -46 -54 -75t-82 -46q-21 -8 -46 -9.5t-47 -0.5q-36 2 -69 10.5t-67 20.5l-4 3 q-5 -8 -15 -9.5t-19 6.5q-6 6 -14.5 11t-17.5 9.5t-17 10t-12 13.5q-20 44 -30 86t-14 85t-4 87.5zM151 642q-1 -38 -1 -75q0 -51 2 -101q4 -88 8 -175q1 -30 1 -61q-1 -23 -1 -46v-17q0 -45 7 -90q71 -51 145 -60q12 -1 24 -1q63 0 127 39q30 18 47 41t28 55q13 39 15 81 q1 21 1 41.5t-1 41.5q-3 1 -1.5 5.5t4.5 10.5t5.5 12.5t2.5 10.5q1 43 2 83t2.5 79t3.5 78.5t4 82.5q0 6 0.5 12t0.5 12q-1 18 -1.5 36t-0.5 36q-2 25 -2 51q0 18 1 36q2 46 3 89v22q0 31 -2 61q-3 40 -16 70q0 1 -1.5 7.5t-0.5 7.5q-8 14 -21.5 27t-29.5 23.5t-32.5 18.5 t-29.5 12q-20 6 -47.5 8t-57.5 -0.5t-60 -9t-55 -18.5v-6q-3 -16 -8.5 -26t-11 -19t-11 -18.5t-8.5 -23.5q-7 -32 -13 -65t-8 -66q-1 -32 -2 -74t-4 -74q-2 -23 -3 -43t-1.5 -39t-1 -38.5t-1.5 -43.5z" />
<glyph unicode="P" horiz-adv-x="483" d="M-15 1235q-2 10 2.5 16.5t11 8t13.5 -1.5t11 -12q7 3 17 -2h1q24 0 46.5 2t42.5 -13h1q8 2 16.5 2.5t16.5 1.5q15 2 31 2q31 0 61 -7q46 -10 85 -34q11 -5 20 -12.5t17 -15.5l6 -7q15 -17 26.5 -37t17.5 -44q7 -10 12 -20.5t6 -23.5q1 -12 3.5 -26.5t3.5 -37.5t-2 -57.5 t-14 -87.5q-1 -17 -3.5 -35t-6 -34.5t-8.5 -30t-11 -19.5q-27 -29 -59.5 -43t-68.5 -20q-20 -8 -39.5 -13.5t-38.5 -8.5q-14 -3 -28.5 -3t-28.5 -1q3 -7 -1 -17q-7 -13 -8 -26v-553l11 -4q9 -6 11 -16q1 -1 1 -3q-1 -5 -2 -9t-5 -9q-30 -16 -50 4q-8 -9 -20 -6t-14 19 q-1 103 -4 205q-1 28 -1 55q0 74 6 148q2 23 4.5 45t5.5 45v623q-2 15 -2.5 30.5t-1.5 31.5q-10 2 -19 3.5t-17 5.5q-19 2 -34 11t-20 31zM119 1123q6 -106 13 -210q6 -91 6 -184v-26q4 -2 15 -4q17 -6 17 -21q25 3 47.5 3.5t45.5 2.5q8 4 16.5 8t18.5 9q23 14 43.5 31.5 t33.5 41.5q5 10 9.5 20t7.5 21q2 9 3.5 30t2.5 48.5t1 57.5t-1.5 55.5t-5 44.5t-8.5 24q-2 3 -3.5 5.5t-2.5 5.5q-6 13 -12.5 26.5t-14.5 25.5q-5 7 -11.5 13t-13.5 11q-18 11 -41 17.5t-47.5 9.5t-49.5 3.5t-46 0.5q-2 -4 -6.5 -7t-9.5 -4h-7v-59z" />
<glyph unicode="Q" horiz-adv-x="669" d="M80 642q4 141 9 284q1 20 1.5 26.5t1 11.5t1 15t0.5 37q0 3 -1 22t3.5 48t18 64.5t43.5 71.5h5q24 13 58.5 22.5t73.5 13.5q32 4 65 4h15q40 -1 75.5 -8.5t62.5 -22.5t40 -37q4 -8 8 -15.5t7 -15.5q6 -5 9 -13v-8q13 -43 17 -85t5 -83v-40v-40v-19q0 -29 2 -56v9 q-1 -5 -1 -12l1 2q0 -1 -0.5 -1t-0.5 -1v-1q-1 -7 -1 -12t0 -3q-5 -66 -5 -132.5t1 -133t1 -132.5t-4 -132q-3 -46 -10 -81.5t-20 -66.5q-1 -1 -1 -2q13 -12 25 -25t22 -27q4 -6 7.5 -9t6.5 -5t6 -5t8 -9l-4 -4q-3 -3 -4 -3q1 0 4 -3q7 -2 11.5 -8t3.5 -15l-1 -2 q3 -11 -6 -19t-24 -3q-10 5 -31 27.5t-51 61.5q-11 -16 -24 -31.5t-29 -32.5q-7 -8 -17 -11.5t-21 -5t-22.5 -3t-21.5 -4.5q-10 -1 -17 2q-21 -2 -48 -2.5t-54.5 1.5t-53.5 7t-44 13q-5 -6 -14.5 -6.5t-17.5 7.5q-2 3 -4 5.5t-4 5.5q-14 4 -17 21v9q-23 45 -29.5 92 t-7.5 102q3 13 12 16q-5 25 -9 49.5t-6 51.5q-5 95 -5 190q0 47 1 94zM141 1057q1 -110 2.5 -217t3 -213.5t3 -214t2.5 -216.5q6 -31 8 -62.5t3 -63.5q18 -21 51.5 -33t71.5 -16q21 -2 41 -2q17 0 35 1q36 4 59 14q9 4 15.5 7.5t11.5 7.5l4 5q-2 -1 1.5 2t4.5 5 q5 10 11.5 19t11.5 18q6 10 12 27q-14 18 -23.5 33t-12.5 24q-3 16 7.5 22t21.5 -1q9 0 15 -5q2 -2 4 -4.5t5 -4.5q3 2 12 4q1 0 1.5 -0.5t2.5 -0.5q4 6 11 9q1 0 1.5 0.5t1.5 0.5q-3 4 -3 12l-1 919q-5 10 -9.5 20t-9.5 20q-11 19 -37.5 30.5t-59.5 16.5q-28 3 -57 3h-13 q-37 -1 -67 -7q-3 -11 -17 -14q-57 -8 -85 -44t-33 -91q-3 -7 -7 -10z" />
<glyph unicode="R" horiz-adv-x="604" d="M23 1238q-2 10 3 16.5t11.5 8t13.5 -2t10 -13.5q6 -2 11 -5q6 -6 13.5 -8t15.5 -4h7q5 8 13.5 8.5t15.5 -5.5q11 4 23.5 4.5t25.5 0.5l22 4t20 1q12 -1 25.5 -3t27.5 -6q32 -2 65 -8t62.5 -18.5t52.5 -32.5t35 -51q10 -12 13.5 -37t3.5 -52t-2 -52t-2 -38 q-1 -29 -3.5 -58.5t-6.5 -58.5q-3 -27 -7 -44.5t-11.5 -30t-19 -24.5t-30.5 -29q-26 -23 -54.5 -32t-60.5 -11q10 -19 16.5 -40t11.5 -36q17 -51 26.5 -103t18.5 -105q9 -32 18 -63.5t19 -63.5q5 -18 12.5 -41.5t17.5 -49t22 -51t26 -47.5q21 -24 43 -31h1l6 3 q15 -13 32 -23t34 -14l-6 -3q2 -8 -2.5 -15.5t-15.5 -9.5q-2 0 -2.5 0.5t-1.5 0.5h-10q-2 0 -5.5 -1t-5.5 -1q-13 -7 -24 4q-17 2 -34.5 18.5t-33.5 39.5q-32 33 -56 84t-40.5 105t-26.5 103.5t-15 79.5l-5 26l-2 9q-14 50 -29 98t-26 98q-7 4 -10 12l-1 1h-1q-11 4 -13 13 q-1 1 -1 2q-28 1 -56 3l-56 4q-1 -65 -1 -128.5v-127.5q0 -1 -0.5 -23.5t-1.5 -57.5t-1.5 -79t-0.5 -87t1.5 -81.5t5.5 -63.5h1l2 2l3 -44q-8 -5 -19 -5h-22q-11 2 -16 8t-5 14v3q0 177 2.5 352t4.5 352q-5 6 -4.5 13.5t5.5 12.5q2 117 3 232.5t2 232.5q-17 -2 -31.5 1 t-23.5 15q-18 11 -22 34zM141 765q7 -5 13.5 -10.5t11.5 -5.5q11 -4 14.5 -11.5t1.5 -14.5q14 -2 27 -2.5t30 -1.5q13 0 34.5 -1t44 -0.5t43 4t30.5 12.5q26 33 39 76.5t21 81.5q10 46 13 94v14q0 40 -14 79q-6 17 -22.5 33t-38.5 30t-48 26t-52 20q-5 1 -10 1.5t-10 0.5 q-2 -1 -4.5 -2t-4.5 -1h-8q-11 2 -15 7q-11 0 -16 1q-4 0 -21 1t-32 0h-13q-10 -2 -10 -3l-1 -1q0 -107 -1 -213.5t-2 -213.5zM270 641q2 0 3 -0.5t0 -0.5v1h-3z" />
<glyph unicode="S" horiz-adv-x="564" d="M61 960q-6 14 2 24q-1 15 -0.5 31t2.5 41q0 7 0.5 13t1.5 13q0 18 3 36t12 35q4 7 10 10l9 15q18 28 36.5 45.5t40.5 26t47 8.5t55 -7q18 -4 36.5 -6.5t36.5 -7t34.5 -12t30.5 -19.5q8 -8 11.5 -23.5t4 -33t-1.5 -35t-3 -29.5v-5q-1 -6 -1 -11v-13q-2 -11 -5 -14 q-2 -9 -7.5 -13t-12 -3.5t-12.5 5.5t-7 15q0 17 -1.5 36.5t-6 37.5t-14 33.5t-26.5 24.5q-10 5 -19 13.5t-20 8.5q-8 3 -11 9l-14 3q-11 3 -26.5 2.5t-32 -3.5t-32 -9t-25.5 -15q-18 -17 -29 -36.5t-18 -41.5q-5 -23 -2.5 -47.5t4.5 -47.5q1 -20 1 -41.5t1 -43t4 -42.5 t12 -40q10 -20 27.5 -31t36.5 -20l43 -24q20 -1 41 -1t41 -0.5t39 -4t35 -11.5q15 -8 24.5 -22t20.5 -26q8 -11 12 -31q8 -3 11 -14q0 -14 1 -27.5t1 -27.5q1 -3 5 -7q3 -13 -4 -22q4 -64 8 -129t5 -129v-22q0 -54 -4 -107q-5 -64 -20 -127q-3 -14 -11.5 -26t-15.5 -25 q-6 -8 -13.5 -9.5t-13.5 2.5q-20 -7 -50.5 -7.5t-61.5 3.5t-56.5 10t-35.5 13q-22 14 -36 25t-28 34q-15 26 -22 55t-9.5 59t-2.5 60t-1 59q-2 45 -3.5 89t-1.5 89q1 9 9 15q8 5 16 2q2 0 3 -1q4 -1 8 -7q1 -1 1 -2l3 -6v-60v-25v-53q1 -42 3.5 -85t8.5 -81.5t16 -68.5 t26 -44q28 -25 61.5 -29.5t68.5 -6.5q17 -1 36.5 -2.5t36.5 4.5q17 49 20.5 101t5.5 103q4 76 4 150q-1 9 -1 19q0 84 -5 169q-1 11 -0.5 21t0.5 20q-7 19 -14 36.5t-20 29.5q-11 10 -24 12t-27.5 2t-29 0.5t-27.5 5.5q-6 2 -10 4q-19 6 -36.5 13.5t-37.5 9.5q-3 0 -7 2 q-25 6 -44.5 23t-33 39.5t-21.5 48.5t-10 51l-4 49z" />
<glyph unicode="T" horiz-adv-x="725" d="M14 1256q4 16 16 18t22 -10q0 -2 1 -3q25 -14 55 -25q21 -8 46 -8q11 0 23 2q6 -2 12 -5l12 -6h19q67 0 134 2l134 4q38 1 78 4q17 1 33 1q22 0 44 -2q14 -2 27.5 -12t26.5 -15q10 -9 9.5 -19.5t-9.5 -15.5q-6 -8 -14 -9q-14 2 -26.5 8t-24.5 14q-63 0 -126 -0.5 t-126 -1.5q0 -79 4 -158t4 -159q2 -107 2.5 -213.5t2.5 -214.5q1 -44 1.5 -79t1 -68l1 -66t0.5 -73q1 -25 0 -49.5t0 -48.5q4 2 8 2q9 1 14.5 -3t7.5 -9.5t0 -12t-8 -10.5l-6 -6q-9 -7 -21 -5q-12 -9 -23 -1q-6 -2 -12 0q-4 -1 -10 0q-1 0 -2 0.5t-3 0.5q-8 3 -10 7.5 t-4 12.5v3q4 16 21 19l-2 10t-1 10v110.5t-1 108.5q-2 224 -8 445.5t-7 446.5q-7 -1 -13 -1h-12q-22 0 -43 -2.5t-43 -0.5q-14 1 -24 6q-7 0 -14 0.5t-15 0.5q-1 0 -2 -0.5t-2 -0.5h-3q-6 0 -10 3q-36 3 -72 14t-54 37q-9 9 -9 23z" />
<glyph unicode="U" horiz-adv-x="662" d="M85.5 1234.5q2.5 9.5 16.5 14.5q6 2 11 3t11 1q17 -5 19.5 -15.5t-6.5 -18.5q0 -130 6 -264.5t6 -263.5q-1 -63 -1 -127v-32q0 -48 1 -96q2 -64 6.5 -126.5t15.5 -125.5q3 -21 3 -31.5v-18t3 -15.5t14 -24q4 -6 12 -10t17.5 -8t18.5 -6.5t15 -5.5q29 -11 49 -17t38.5 -6 t38.5 5.5t49 17.5q42 19 58 45q4 11 9.5 17.5t6.5 17.5q0 7 1 10l2 18q1 9 9 15q0 1 0.5 1.5t0.5 2.5q1 5 0 13.5t2 10.5q2 30 2.5 60.5t0.5 59.5v54.5v43.5q2 150 2 298v98q-1 196 -3 395q2 9 8 13.5t13.5 4.5t14 -4t9.5 -13q1 -198 3 -394q0 -54 1 -108q0 -143 -3 -288 q-1 -88 -2 -178.5t-23 -178.5q-3 -15 -23 -30t-45.5 -27t-52 -19t-43.5 -7q-50 0 -93.5 6t-78 22t-57.5 45t-31 75q0 2 1 3q-16 69 -22 139q-6 68 -6 138v28q0 56 2 112q2 70 2 140q0 129 -1.5 256.5t-1.5 256.5q-8 8 -5.5 17.5z" />
<glyph unicode="V" horiz-adv-x="614" d="M38 1225q2 8 7.5 12.5t11.5 5t11.5 -3t8.5 -12.5h1q1 0 2 -0.5t2 -0.5l8 -5q3 -3 7 -18t8.5 -36t8.5 -45t7 -45t4 -35.5t-1 -16.5q3 -25 3.5 -35t0.5 -14.5t0.5 -9t3.5 -17.5q6 -26 11.5 -56t10 -61t9 -61.5t8.5 -57.5q17 -103 36.5 -197.5t39.5 -197.5q3 -20 6.5 -35.5 t7 -30t7.5 -30t9 -34.5q3 0 4.5 -7.5t3 -17t3 -18.5t2.5 -12q0 -7 3 -13q2 0 3 -0.5t3 -0.5q8 -6 10 -10q1 1 1.5 0.5t1.5 0.5l6 22q2 12 3 24t4 23q11 45 19 87t18 87q6 31 11.5 58.5t11 53.5t11.5 53t13 59q5 26 14 70.5t16 91.5q10 54 21.5 108t25.5 108q2 27 5.5 52.5 t8.5 51.5l6 30q-1 2 -2 5t-1 6q1 31 8.5 60.5t8.5 60.5q2 9 8 14t13 4q8 6 18 3t14 -16q-1 -27 -4 -55.5t-9 -54.5q-3 -28 -7 -49.5t-8.5 -42t-9.5 -42t-11 -48.5q-5 -26 -9 -56.5t-8.5 -62t-9.5 -62t-11 -55.5q-14 -75 -33.5 -149.5t-37.5 -149.5q-12 -66 -25 -130.5 t-30 -130.5q-2 -5 -2.5 -9t-1.5 -9l-3 -13q-6 -28 -13.5 -56t-18.5 -54q-8 -11 -19.5 -9.5t-16.5 14.5v2q0 1 -0.5 1t-0.5 1t-0.5 1t-0.5 1q-15 34 -27 69q-2 4 -2 5v1q-17 52 -29 105t-23 108q-20 103 -43.5 202.5t-40.5 202.5q-8 54 -11.5 104t-15.5 102q-17 78 -33 158 t-20 160z" />
<glyph unicode="W" horiz-adv-x="638" d="M36 1218q2 11 9.5 15.5t15.5 1.5q8 10 19.5 7.5t16.5 -16.5q-1 -78 -1 -154v-31q0 -61 2 -123q2 -17 3 -34l2 -34q1 -24 1.5 -47.5t2.5 -46.5q4 -45 8.5 -89t6.5 -89q1 -11 1 -20.5v-19.5l3 -27q9 -70 18 -139.5t17 -139.5q9 34 21 70q4 20 7.5 40t8.5 40q14 75 28 151 t37 148q8 26 17 50.5t17 29.5q15 6 23 -2.5t5 -20.5q4 -6 5 -10q6 -69 17.5 -139.5t25.5 -140.5t28.5 -138t27.5 -132q5 49 10 97t10 97q10 115 15.5 228t23.5 226q9 55 21 109t23 109q5 40 9.5 78.5t11.5 67.5l2 28q2 8 7 12.5t11 5.5q15 7 25.5 -3t1.5 -26q-1 -7 -4 -19.5 t-5 -24.5q-2 -18 -4.5 -36t-5.5 -36q-6 -50 -11 -99t-12 -98q-9 -70 -21 -140.5t-16 -141.5q-1 -16 -5.5 -57t-10.5 -94t-12.5 -112.5t-11.5 -113t-7 -94t2 -56.5v12l-1 -19q0 5 1 7q-1 -2 -1 -6v-2l-2 -42q-1 -16 -14 -20v-8q-1 -11 -6.5 -16t-12.5 -5.5t-13.5 4.5t-7.5 16 v33q-5 31 -12 52.5t-13 52.5l-5 20q-28 116 -53.5 234t-42.5 237q-8 -28 -13 -59q-9 -51 -15.5 -101.5t-20.5 -101.5q-5 -19 -10.5 -36.5t-11.5 -35.5q-13 -69 -24.5 -138.5t-20.5 -138.5q-3 -6 -6 -9q-7 -11 -20.5 -8.5t-15.5 19.5q-2 58 -10.5 114.5t-19.5 113.5 q-5 29 -12 57.5t-10 57.5q-2 28 -2 56q1 14 1 27q2 41 1 83q-6 55 -10 109.5t-6 109.5q-4 41 -6 85l-3 78q-6 75 -14 150t-8 151z" />
<glyph unicode="X" horiz-adv-x="534" d="M24 21q1 8 9 14q4 3 7 10.5t5.5 17.5t4.5 19.5t4 16.5q24 70 48 139.5t49 138.5q9 26 18 60t18 72q0 5 1 8q1 1 1 2t1 3q8 32 15 65t15 63q2 11 4.5 20.5t6.5 19.5q4 13 7.5 24.5t8.5 22.5q-8 31 -12.5 48.5t-8.5 31.5t-9 31t-15 48q-8 26 -20.5 55.5t-26.5 59 t-28.5 57.5t-27.5 52q-11 21 -18 41.5t-21 39.5q-3 10 -0.5 17.5t7.5 11t12 2t13 -9.5q13 -20 19.5 -40t17.5 -40q23 -42 41 -76.5t33.5 -69t29 -73.5t27.5 -89q2 2 8 4h3q9 0 15 -3q14 28 29.5 52.5t27.5 61.5q14 43 27.5 79t28 69t31.5 67t38 73q6 5 13 5.5t12 -3t6.5 -10 t-1.5 -15.5q-21 -38 -37.5 -70t-30.5 -64t-26.5 -66t-25.5 -76q-10 -30 -17.5 -55.5t-15 -50.5t-16 -50t-19.5 -54v-1l4 -25q0 -22 7.5 -61t17.5 -84.5t21 -93.5t18 -88q11 -60 31 -118t37 -118q7 -23 12 -42.5t9 -43.5l3 -28l3 -3q12 -8 10.5 -20.5t-13.5 -15.5 q-4 -6 -12.5 -8t-16.5 3l1 -1l-2 2q0 -1 1 -1q-7 8 -8.5 19t-2.5 22q-12 24 -22.5 56.5t-19.5 64t-15.5 58t-9.5 37.5q-8 27 -15.5 53.5t-15.5 52.5q-6 21 -13 58.5t-14.5 80t-14.5 85t-13 73.5q-2 0 -2.5 -8.5t-1.5 -19t-1 -19t-1 -6.5q-13 -39 -30 -77t-25 -80 q-4 -9 -12 -14q-22 -60 -43 -119.5t-42 -119.5q-1 -3 -8.5 -28.5t-17.5 -56.5t-21 -58t-19 -33q-8 -5 -15 -3t-11 8t-3 14zM437 -16q1 0 3 -2q-1 0 -3 2z" />
<glyph unicode="Y" horiz-adv-x="501" d="M34.5 1168.5q-4.5 37.5 3.5 54.5q4 8 10 10.5t12 1t10.5 -6t5.5 -11.5q4 -4 5 -9q2 -18 6 -46.5t10.5 -60.5t16.5 -64.5t24 -58.5q5 -10 14 -37.5t19 -59.5q17 -35 35.5 -66t37.5 -57q1 0 1.5 0.5t2.5 0.5l10 -3q57 104 98 217t78 228q-2 9 3 18l2 2q11 8 21 5.5 t15 -16.5q-1 -4 -1.5 -8t-2.5 -8q2 -3 -4.5 -13t-6.5 -15q-8 -42 -16 -71.5t-18.5 -57t-22.5 -57.5t-27 -73q-2 -4 -5.5 -15.5t-8 -24t-8 -23t-4.5 -11.5q-9 -21 -16.5 -34.5t-14 -25.5t-12 -26t-9.5 -36q-6 -16 -19 -16q-2 -15 -6.5 -30t-6.5 -31q1 -88 3.5 -159t5.5 -140 t5 -144.5t2 -171.5q-1 -12 -7.5 -17.5t-14.5 -3.5q-3 -3 -12 -5h-2q-8 1 -16 4.5t-14 8t-8.5 9.5t0.5 9q0 30 4 60t9.5 60.5t9.5 61t4 60.5v41v15.5t0 2t0 2t-1 15t-2 41.5q0 6 -1.5 28t-3.5 53t-4 66.5t-2.5 69t0 61t4.5 41.5q-18 12 -31.5 29t-26.5 36q-7 10 -21.5 43 t-31.5 78.5t-34 97t-29 98.5t-16.5 84.5z" />
<glyph unicode="Z" horiz-adv-x="623" d="M-47 -15q7 30 27.5 46t46.5 23q16 58 33.5 110.5t38 103t43 101.5t47.5 106q49 137 112 265.5t129 257.5l11 22t25 47.5t32 58.5t32 55l-116 7q-69 -2 -138 -3.5t-138 -1.5q-9 -2 -18.5 -3.5t-19.5 -3.5l-1 -1q-16 -8 -26.5 2.5t-2.5 26.5q4 4 10 7q5 11 20 12h13 q26 6 54.5 7t41.5 3q39 4 78 4q15 0 31 -1q56 -2 111 -7q31 1 61.5 1h61.5h4l2 -1h1l5 -3q3 -1 4 -4l3 -3h1q14 -5 16.5 -16t-6.5 -19q-1 -1 -1 -2v-3q-33 -74 -73 -146t-76 -158q-8 -19 -21.5 -34.5t-24.5 -32.5q-20 -44 -39.5 -87t-39.5 -87l-2 -4q-20 -62 -44 -121 t-48.5 -117t-48.5 -117.5t-44 -123.5q-8 -23 -3.5 -36.5t21.5 -21.5q24 2 41.5 0t33.5 -5t33.5 -6.5t43.5 -5.5q18 -1 46.5 -5t59 -8t59 -4.5t45.5 7.5q5 2 8 7l6 10q9 6 17 5.5t12.5 -5t4.5 -12.5t-5 -17q-16 -18 -33 -25.5t-36.5 -9.5t-41 -0.5t-45.5 2.5q-33 1 -69.5 4.5 t-74.5 6.5q-37 2 -75 2q-3 0 -7 1q-34 0 -65 -5q-6 -6 -13 -8h-14t-15 -1q-5 -3 -11 -5q-11 -5 -20 -11t-17 -13q-6 -3 -11 -3q-3 -5 -3 -9q-7 -17 -21.5 -15t-17.5 20z" />
<glyph unicode="[" horiz-adv-x="387" d="M104 1420q27 17 59 22t64.5 3.5t64.5 -6t59 -5.5q7 -1 12 -4t7 -7q4 -3 8 -14q2 -14 -6 -23q0 -3 0.5 -5.5t0.5 -5.5q-2 -14 -11.5 -18.5t-21.5 2.5q-1 0 -5 2q-18 0 -31.5 2.5t-28 4.5t-32 4t-43.5 2h-18.5t-19.5 -2l-5 -3q2 -18 1.5 -43t-1.5 -49t-2 -41.5t-1 -20.5 q-2 -137 2.5 -277t4.5 -277q0 -39 2.5 -105t6 -145.5t6.5 -165t4.5 -163.5t-0.5 -141t-8 -97l-14 -85q2 -2 4 -7t5 -3q8 5 14 4.5t11.5 -3t10 -5t8.5 -2.5q22 3 43 8t41 8.5t40.5 2t41.5 -12.5q8 -6 9 -14t-3 -14q5 -9 1 -22q-2 -2 -2.5 -3.5t-1.5 -3.5q-5 -5 -8.5 -6 t-9.5 -3q-5 1 -9 1.5t-9 2.5l-202 -7q-1 0 -2 -1q-1 0 -1.5 -0.5t-1.5 -0.5h-1q-4 -1 -7 0q-9 2 -13 9q-2 4 -4 10l-7 345q1 3 2.5 5.5t3.5 4.5q0 38 -0.5 81t-1 106.5t-1.5 156t-1.5 232t-1.5 333t-1 459.5z" />
<glyph unicode="\" horiz-adv-x="761" d="M23 1346q0 10 6.5 15.5t17.5 3.5q6 6 17 6t20 -10q38 -110 83 -216t90 -213q74 -171 149 -339t153 -337q29 -63 54.5 -115t55.5 -110q0 -1 0.5 -1.5t0.5 -1.5q8 -3 11 -14q3 -18 15.5 -32.5t22.5 -31.5q10 -6 15.5 -15.5t5 -18.5t-7.5 -16t-23 -9q-5 -9 -15.5 -12 t-18.5 8q-4 5 -4 12q-7 9 -3 18q-49 83 -91.5 170t-81.5 175.5t-76.5 178t-76.5 177.5z" />
<glyph unicode="]" horiz-adv-x="392" d="M-26 -254q1 8 9 14q21 11 46 13.5t50.5 1t50.5 -5t48 -6.5q4 0 8.5 2.5t9.5 5t11.5 3t14.5 -4.5q3 -2 5 3t4 7l3 57q-2 63 -2 124.5t1 124.5q-9 5 -10 18q1 125 5 247.5t5 247.5q2 8 4 10q-1 68 -1 149v164.5v164.5t-1 149q0 3 -1 20.5t-2 41.5t-1.5 49t1.5 43l-5 3 q-9 2 -19.5 2h-18.5t-23 0.5t-31.5 0.5h-31.5h-22q-5 -8 -16 -11q-8 -1 -21.5 -3.5t-18.5 -8.5q-4 -2 -5 -2q-12 -7 -21.5 -2.5t-11.5 18.5q0 3 0.5 5.5t0.5 5.5q-8 9 -6 23q4 11 8 14q2 4 7 7t12 4q24 0 55.5 0.5t64.5 1t64 1t55 0.5q8 11 20 9t17 -17q-1 -103 -1.5 -218.5 t-0.5 -233.5t-0.5 -233t-0.5 -218l2 -6q-1 -115 -3 -229t-3 -230q5 -5 6 -10l-7 -345q-2 -6 -4 -10q-4 -7 -13 -9q-3 -1 -7 0h-1q-1 0 -1.5 0.5t-1.5 0.5q-1 1 -2 1l-231 -2q-5 -2 -9 -2.5t-9 -1.5q-6 2 -9.5 3t-8.5 6q-1 2 -1.5 3.5t-2.5 3.5q-4 13 1 22q-4 6 -3 14z" />
<glyph unicode="^" horiz-adv-x="447" d="M74 839q6 35 18.5 67.5t27.5 64.5t30.5 63.5t29.5 63.5q4 16 7 30.5t7 28.5t9.5 28t15.5 28q20 14 34 -4q32 -60 53 -122t38 -128q6 -21 11 -42t13 -41l9 -24q2 -3 4 -9q1 -1 3 -3.5t0 -1.5q6 -12 -3.5 -22.5t-25.5 -3.5q-9 4 -16.5 23t-14.5 41.5t-11.5 44t-7.5 30.5 q-11 41 -20 71t-18 56q-9 -2 -16 2q-5 4 -7.5 8.5t-6.5 9.5q-10 -4 -15 0l-2 -6l-4 -14q-19 -68 -43.5 -137.5t-61.5 -131.5q-6 -9 -13.5 -10t-13.5 2.5t-8.5 11t1.5 16.5q-3 4 -3 10z" />
<glyph unicode="_" horiz-adv-x="618" d="M11.5 -57.5q4.5 11.5 20.5 12.5h219q25 0 34 0.5t11 1t-0.5 1.5t-1 1h10.5t34 -1h32.5t55 -0.5t61.5 -1.5t52 -3q3 3 8 4q18 8 33.5 0.5t20.5 -27.5q-2 -8 -6 -14q3 3 0.5 1t-9.5 -4.5t-17.5 -4.5t-22.5 0h-4q-5 1 -8.5 3t-6.5 4q-7 1 -35.5 0.5t-62 -1t-64.5 -1 t-43 -0.5h-18.5t0.5 0.5t8 1.5t4.5 1.5t-11 1t-38.5 0t-76.5 -2t-126.5 -3.5q-6 1 -14.5 1.5t-16.5 1t-13.5 2.5t-5.5 6q-8 8 -3.5 19.5z" />
<glyph unicode="`" horiz-adv-x="455" d="M82 1158.5q3 16.5 34 21.5q3 1 10.5 -1t15.5 -5.5t14.5 -8t8.5 -9.5q1 -7 3 -13.5t4 -12.5q32 -33 65.5 -64.5t66.5 -63.5l5 -10q10 -3 16 -4.5t9 -4t4.5 -8t3.5 -16.5q-1 -2 -1 -4t-1.5 -5t-5.5 -6.5t-13 -7.5q-4 0 -5 1q-28 6 -56.5 20t-55 33.5t-48.5 44t-36 51.5 q-13 12 -20 29l-2 4q-5 -1 -13 2q-6 21 -3 37.5z" />
<glyph unicode="a" horiz-adv-x="543" d="M61 790q2 11 3 22.5t5 22.5q3 10 8 19.5t10 17.5q4 8 6 11q8 11 15.5 23t18.5 19q37 22 82 32q28 6 56 6q17 0 33 -2q44 -6 82 -30.5t61 -71.5q11 -22 14.5 -54.5t3.5 -67.5t-2.5 -68.5t-4.5 -57.5q-1 -23 -1 -46v-23q1 -36 3 -72q2 -34 4 -70q1 -21 0 -43v-27 q-2 -62 -8 -126q-4 -47 -5 -92q0 -17 1 -34q2 -8 3 -15t3 -13q3 -5 8.5 -12t13 -14.5t18.5 -13.5t25 -9q-1 0 -3.5 -4.5t-4.5 -9.5t-4.5 -9.5t-3.5 -4.5q0 -15 -15 -20q-21 5 -37 15.5t-36 39.5q-6 13 1 24q-1 3 -1 6.5v6.5q-5 14 -8 30q0 1 -0.5 1.5t-0.5 1.5 q-5 -11 -10.5 -20t-13.5 -16q-6 -13 -24 -20t-30 -14q-27 -17 -54 -17q-11 0 -21 3q-38 9 -69 36l-23 12q-3 1 -8 6q-8 -8 -17.5 -4t-11.5 20l-9 21q-11 5 -16.5 41.5t-7.5 88.5q-1 35 -1 73v40q1 60 2.5 112.5t2.5 89t0 41.5q2 2 3.5 2.5t2.5 1.5q12 28 28.5 46t37.5 30 q17 17 41 24.5t52 5.5q20 4 41.5 5.5t42 -1.5t39 -10.5t31.5 -20.5q0 20 -1 44t-4 49t-7.5 48.5t-11.5 42.5q-6 17 -14.5 31t-19.5 24q-20 17 -52 19q-8 1 -16 1q-25 1 -51 -5q-35 -8 -67 -23.5t-50 -34.5q-2 -10 -3 -19.5t-3 -18.5q-5 -15 -16 -15q0 -4 -2 -12 q-5 -17 -18 -15t-15 20zM144 356q0 -42 2 -83.5t4 -80t4 -69.5q7 -17 16 -31.5t20 -25.5q27 -17 59 -17q8 0 16 1q41 5 70 28q12 3 24 12.5t22.5 26t18 41.5t8.5 59l1 1q0 5 0.5 10.5t0.5 10.5v27v49.5v61.5t-0.5 64t-0.5 57v40q0 7 0.5 13.5t0.5 14.5l-2 2l-1 1v1 q-17 29 -50.5 47.5t-70.5 23.5q-1 0 -1.5 -0.5t-2.5 -0.5q-5 -1 -15 -1q-5 -11 -14 -12q-11 -2 -20.5 -3t-18.5 -4q-44 -36 -64 -84q-11 -27 -12 -57q0 -22 7 -45q-1 -25 -1 -51v-27z" />
<glyph unicode="b" horiz-adv-x="516" d="M19.5 4.5q0.5 6.5 8.5 12.5q2 1 8 4.5t13 8.5t13 11.5t8 14.5q1 291 8.5 581.5t8.5 582.5q3 15 16 18q8 9 19 6.5t16 -16.5v-82.5v-76v-76t-1 -81.5q16 22 26 28q23 14 41 24t44 15q15 3 30 4q18 1 35 -5q31 -8 55.5 -28.5t41.5 -49t24 -61.5q3 -44 3 -89q-1 -17 -1 -35 q-2 -64 -5 -129.5t-5 -129.5q-1 -36 -2 -69q0 -27 1 -53q1 -18 2.5 -43t3 -51.5t1 -52.5t-4.5 -46l-8 -54q-17 -37 -43 -58t-55 -30.5t-58.5 -9.5t-55 5t-43.5 13.5t-23 15.5l-9 7q0 -9 -0.5 -14.5t-4.5 -9.5t-14.5 -7t-29.5 -6q-8 -5 -16.5 -5t-17.5 -5q-9 -2 -16 1 t-10.5 8.5t-3 12zM127 419q0 -37 1.5 -79t3.5 -84.5t3 -85t1 -79.5q7 -10 14 -19t15 -17l9 -8q24 -12 52.5 -12t55.5 10t49.5 28t33.5 41l4 16t5 16l3 5q0 2 2 8q1 78 2.5 165t3.5 176t4 176t2 165v1q-19 54 -55 78q-31 20 -64 21q-6 0 -12 -1q-40 -4 -73.5 -32.5 t-46.5 -77.5q4 -13 -5 -21q-1 -45 -2 -95t-2.5 -100.5t-2.5 -100t-1 -94.5z" />
<glyph unicode="c" horiz-adv-x="427" d="M67 632q2 34 4.5 84.5t8.5 98.5q2 19 5.5 38t9.5 36q3 10 6 18t8 13q16 22 51 34q36 14 74 14h2q37 0 71 -14q35 -14 51 -45q9 -17 12 -36.5t2.5 -39.5t-2.5 -40t-2 -39q-1 -11 -6.5 -16t-12.5 -5.5t-13.5 4.5t-7.5 16q0 13 2.5 34t3 43t-3 41t-14.5 28q-10 9 -32 15 t-47 7.5t-48.5 -1t-36.5 -11.5q0 -11 -12 -17q-5 -14 -9 -29t-7 -32q-4 -23 -6 -47.5t-4 -47.5q-4 -46 -6 -94q-2 -27 -3 -54t-1 -54q1 -55 4 -106t7 -93q3 -31 6 -61t7 -61q4 -24 7.5 -47.5t8.5 -46.5q7 -5 12 -15q3 -14 13 -27t23 -23t28 -16.5t29 -8.5l11 -6q8 1 17 1.5 t19 2.5q4 6 13 10q15 6 22.5 31.5t10.5 57t2.5 62t-0.5 44.5q2 9 7.5 13.5t12 4.5t12 -4t8.5 -13v-55v-9q0 -27 -2 -55q-3 -32 -13 -60.5t-31 -44.5q0 -16 -18 -20q-8 0 -15 -0.5t-15 -1.5q-2 -2 -9 -4q-11 -1 -23.5 -5.5t-24.5 -6.5t-21.5 0.5t-15.5 16.5q-25 6 -45 19 q-14 9 -22.5 27t-13.5 36q-11 22 -15 42q-26 130 -32 259q-3 68 -3 136q0 62 2 125z" />
<glyph unicode="d" horiz-adv-x="508" d="M76 260q0 27 1 54.5t1 56.5v37q0 56 2 116q3 78 15 151q8 45 8 88q-1 3 -1 5v19q0 37 2 76q1 6 10.5 17t13.5 13q9 23 30 38t47.5 22t56 6t56.5 -10q14 -5 26.5 -11t22.5 -15q1 40 3.5 76.5t4.5 72t4 72t3 76.5q2 9 7.5 13.5t12 4.5t12 -4t8.5 -13l-3 -163v-7 q0 -137 -4 -271.5t-8 -271.5v-24q0 -29 -0.5 -57t-0.5 -57q0 -41 -3 -73t-4 -73q-1 -20 -1 -38q0 -40 4 -64q4 -36 6 -51l6 -39q10 -8 31.5 -15t34.5 -8q9 -3 9.5 -10t-4 -15t-12.5 -15t-17 -9q-42 3 -61.5 13.5t-27.5 39.5l-9 12q-20 -14 -47 -17t-56.5 2t-58.5 17.5 t-52 29.5t-38.5 38.5t-16.5 44.5v9q-8 29 -10.5 56.5t-2.5 54.5zM129 383q1 -29 4.5 -57.5t6.5 -57.5q1 -1 1.5 -7t1.5 -13.5t1.5 -14.5t0.5 -8q0 -25 7 -48.5t20.5 -43.5t35.5 -34.5t52 -20.5q4 -2 7 -4q4 0 5.5 0.5t8 2.5t21.5 5.5t45 9.5v1q-1 4 1.5 6.5t5.5 4.5t5 4.5 t2 6.5q-1 5 -1 15q-1 17 -0.5 34.5t0.5 40.5q-2 26 -2 49.5t1.5 47t3.5 47t2 49.5q0 54 -0.5 111.5t-1 115.5t-0.5 116t2 112q-6 4 -7 11q-3 17 -27 31.5t-53.5 22t-57.5 5t-40 -19.5q-9 -12 -15.5 -29t-11.5 -37q-3 -19 -3 -48t-4 -47l-2 -17q-4 -29 -6.5 -59t-4.5 -61 q-2 -27 -2.5 -54t-1.5 -55t-1 -56.5t1 -56.5z" />
<glyph unicode="e" horiz-adv-x="454" d="M70 364v25q0 39 2 77q2 52 5.5 108.5t8.5 127.5q4 39 13.5 78t20.5 71q2 13 4.5 25.5t9.5 23.5q3 11 13 16q11 13 24.5 19.5t36.5 20.5q17 10 34.5 5t33 -16t27.5 -25.5t17 -23.5q9 -14 16 -31.5t12.5 -36.5t9.5 -37.5t7 -34.5q3 -17 4.5 -27t2 -17.5t-0.5 -14.5t-1 -17 q-2 -40 -13.5 -63.5t-30 -36.5t-42 -18t-49 -7t-52 -4t-49.5 -9q-7 -33 -10.5 -60.5t-5 -53t-1 -50.5t2.5 -54q3 -39 9 -74t19 -74q4 -13 11 -29q5 -7 8 -8.5t9 -9.5q8 -11 11.5 -18l6.5 -13q7 -6 13.5 -11.5t11.5 -11.5h1q1 0 1 -0.5t1 -0.5q9 2 13.5 5t7.5 6q2 11 11.5 15 t17.5 2q14 11 21.5 32.5t10.5 45t3.5 45.5t0.5 35q2 8 7 12q8 12 22.5 11t19.5 -17q0 -20 -1 -51.5t-6 -63.5t-16 -60t-32 -41q-18 -11 -27.5 -19.5t-27.5 -6.5q-17 -12 -36 -13t-35 19q-35 41 -56 89q-6 10 -9.5 20.5t-7.5 21.5q-8 24 -17 48t-11 50q-5 55 -5 105z M136.5 653.5q1.5 -20.5 3.5 -40.5q4 2 15 4q38 -3 77 -7q18 -2 37 -2q20 0 40 3q0 1 1 1q12 24 15 60q1 14 1 27q0 24 -3 49q-5 40 -18.5 78t-32.5 64q-8 -5 -17.5 -3t-14.5 12h-1q-2 -2 -5.5 -1t-5.5 0q-8 -4 -15.5 -10t-13.5 -12q-9 -10 -16 -21.5t-12 -23.5 q-5 -33 -12.5 -66.5t-19.5 -65.5q-1 -2 -1 -3t-1 -2q-2 -20 -0.5 -40.5z" />
<glyph unicode="f" horiz-adv-x="345" d="M92 736q-1 17 -1 35q0 60 4 120q-6 9 1 20l6 49l3 25q0 1 0.5 2t0.5 2q5 49 17.5 95.5t38.5 89.5q8 17 17 29t19 17q4 2 7 3t6 1q9 6 19 1q23 8 46.5 13.5t43.5 19.5q11 4 17 1l6 5q9 6 17 5.5t12.5 -5t5 -12.5t-5.5 -17l-22 -16t-25 -14q-10 -5 -28 -10t-37 -11 t-36 -12.5t-24 -14.5q-23 -42 -36.5 -95.5t-20.5 -105.5q-1 -9 -1.5 -18t-0.5 -17q32 1 62.5 3t62.5 2q8 -3 13 -9h1q9 -3 13 -8.5t4 -12t-4.5 -12t-13.5 -7.5q-35 -1 -69 -5t-69 -5v-57v-32q0 -87 5 -174q5 -102 6 -206q0 -48 -1.5 -101t-1.5 -108l3 -98v-4q1 -14 2 -26.5 t3 -25.5q-1 -11 -6.5 -16t-12.5 -5.5t-13.5 4.5t-7.5 16q-2 13 -3 26.5t-2 27.5v1q-3 51 -3 103q-4 97 -8 193.5t-6 194.5q-2 78 -3 156z" />
<glyph unicode="g" horiz-adv-x="573" d="M68 391q2 11 4 21.5t4 21.5v1q-1 22 -1 44q0 49 3 97q5 70 22 133q2 11 4.5 22t5.5 22q3 15 7.5 33t11 35.5t15.5 32.5t22 24q6 10 14 18.5t21 15.5q17 10 42.5 14t53.5 2t56 -10t50 -22q-2 11 0.5 21.5t13.5 15.5t22 -2q7 1 13.5 -3t9.5 -14q1 -171 5.5 -340.5 t6.5 -340.5q1 -51 3 -102t2 -102.5t-3 -103t-13 -101.5q-5 -22 -11.5 -46t-16 -47t-23 -44t-31.5 -37q-24 -22 -59 -32q-28 -8 -57 -8h-14q-36 3 -68.5 17t-53.5 40q-2 3 -4 5.5t-4 5.5q-5 8 -9.5 15t-8.5 15l-2 4q-3 7 -5.5 13.5t-4.5 14.5q-10 5 -11.5 13.5t1.5 17.5 t10 16.5t14 11.5q8 5 16 2h1q22 -4 26 -15.5t7 -28.5q6 -9 3 -18t-12 -12q12 -42 46 -59q29 -15 76 -15h16q1 5 4.5 9.5t10.5 6.5q10 3 20 4t18 6q35 18 54.5 61t29.5 94.5t13 102.5t4 84q0 2 1 3q0 19 -0.5 37.5t-0.5 38.5q-23 -44 -66 -66q-38 -18 -87 -18h-14 q-8 -1 -15 -1t-14 2l-11 2q-1 0 -1.5 0.5t-1.5 0.5q-22 3 -42 10t-38 21q-5 3 -8.5 8t-7.5 10l-9 11q-20 26 -23.5 55.5t-6.5 59.5v4q-2 8 -2.5 15t-1.5 14q-1 2 -1 6q-8 39 -17 78q-5 23 -5 47q0 16 2 32zM124 464q2 -68 7 -134t17 -133q-2 -12 -9 -18q11 -46 27 -86 q0 -3 2 -5q13 -11 28 -18t32 -10q2 -1 6 -1q5 -1 15 -1q23 -1 44.5 5t38.5 19q46 33 65 80.5t25 101.5q3 11 11 16q-2 124 -5.5 246t-5.5 246q-7 7 -8 17q-2 10 -5 22.5t-10 20.5q-1 0 -2 1l-7 3q-8 1 -13.5 6.5t-5.5 13.5q-5 8 -11 13.5t-15 7.5l-6 3q-19 5 -39.5 7 t-38.5 0.5t-31.5 -6t-19.5 -11.5q-2 -2 -2 -3v-1q-1 -16 -14 -21q-23 -38 -36 -77.5t-21 -82.5q-5 -40 -6 -77q0 -32 1 -64v-6q0 -30 -5 -59z" />
<glyph unicode="h" horiz-adv-x="556" d="M99 15q0 115 4 227.5t4 227.5v73v32t-0.5 11.5t-0.5 11.5v32v74q-1 1 -2 29.5t-2 71t-1 92t-0.5 92.5t-1 72.5t-0.5 31.5v44.5t0.5 16.5t0.5 16.5v44.5q3 16 17 18q8 5 17.5 2t13.5 -16v-110.5v-82.5v-82.5v-110.5q9 13 22 25q22 29 50.5 50t62.5 30h1q10 5 21.5 6 t23.5 0q5 0 9 -0.5t9 -0.5q14 -2 26.5 -8t25.5 -11t22.5 -16.5t17.5 -25.5q18 -24 28 -51.5t13 -57.5q2 -14 2 -27.5t-1 -27.5q-1 -43 -7 -86t-11 -83q0 -2 -0.5 -3t-0.5 -3v-1q1 -7 1.5 -14t0.5 -14t-1.5 -12.5t-3.5 -10.5q-1 -20 -1 -40.5t1 -41.5q2 -8 2.5 -17t-1.5 -18 l3 -91v-24q1 -31 -1 -61l-2 -38q0 -23 2 -46q2 -2 4 -8q1 -9 3 -21.5t6 -24.5t10.5 -21.5t17.5 -12.5q10 -3 14 -10t2.5 -14t-8 -12t-16.5 -3q-28 8 -43.5 32.5t-21.5 52.5q-9 8 -6 20q-1 13 -1 36.5v50.5v54.5v48.5l-2 62q-5 5 -6.5 12.5t3.5 15.5l2 4q-1 14 -1.5 28.5 t-0.5 29.5q-2 11 -4 21t-1 20q0 5 2 9.5t4 9.5v10.5t1 10.5q0 8 0.5 15.5t1.5 15.5q-1 10 -1.5 19.5t0.5 19.5q1 9 2 18.5t3 18.5l-2 92t-1 92q0 3 2 7v1q-9 30 -23 50q-20 20 -44.5 31t-44.5 9h-1q-5 -1 -9 -1.5t-9 -2.5l-10 -4q-13 -8 -24.5 -18.5t-23.5 -18.5l-25 -17 q-20 -23 -33 -50t-17 -55q-4 -10 -13 -14q-1 -63 -1 -126v-126q0 -113 -1 -216t-1 -217l9 -29q0 -1 -3.5 -5t-7 -8.5t-7.5 -8.5l-3 -4q-3 4 -14 9.5t-17 11.5q0 1 -0.5 1.5t-0.5 1.5q-2 4 -2 8z" />
<glyph unicode="i" horiz-adv-x="263" d="M89.5 1097.5q2.5 11.5 17.5 19.5q17 10 30 6.5t19.5 -14t5 -26t-13.5 -29.5q-5 -3 -5 -2.5t-7 -1.5h-3q-4 0 -10 2q-9 -1 -18 6t-13.5 17.5t-2 22zM100 486q4 220 4 442q3 14 15 17.5t20 -6.5q8 -1 13.5 -7t3.5 -17v-4.5t-2 -7.5v-3q-2 -17 -4 -43.5t-4 -55t-3.5 -55 t-1.5 -43.5v-87q0 -87 1 -172q2 -127 3 -260q0 -16 1 -36.5t3.5 -41t7 -36.5t11.5 -23q11 2 18 -6t2 -22l-2 -3q-8 -10 -22 -9q-18 6 -29 18q-4 -2 -8 4.5t-8 16t-7 20.5t-4 17l-1 -39q-7 164 -7 328q-1 57 0 114z" />
<glyph unicode="j" horiz-adv-x="253" d="M-179 -262q-2 10 2.5 16.5t11 8.5t13.5 -1t11 -12q12 -6 21.5 -14t17.5 -17q7 2 13.5 -2t9.5 -15q2 -8 4 -12q13 -13 32 -22q21 -9 42 -9q14 0 29 4q36 9 61 35q4 4 5.5 15t2 23.5t0.5 23v13.5q2 50 2.5 98.5t0.5 98.5q0 5 3 8l4 510q-1 1 -2.5 16.5t-3.5 39t-4 50.5 t-3.5 50.5t-3 40t-1.5 18.5q0 30 -1 52t-2.5 42t-2.5 42t-1 52q1 6 5 14t9 15t10.5 11.5t9.5 3.5q8 3 15.5 -1t11.5 -15q0 -158 -1 -293.5t-1 -263.5t2 -255.5t7 -268.5q1 -24 1.5 -49.5t-3 -50.5t-12.5 -48t-27 -42q-21 -22 -51.5 -32t-62 -8t-59.5 16.5t-43 40.5 q-20 18 -35 39q-11 8 -22 13.5t-15 20.5zM76 1108.5q-6 16.5 4 32.5q2 8 9 14.5t18 7.5l12 3q15 2 20.5 -8.5t-0.5 -20.5q3 -8 -3 -17l-3 -6q5 -10 -1.5 -19.5t-21.5 -7.5q-28 5 -34 21.5z" />
<glyph unicode="k" horiz-adv-x="492" d="M88 1107v10v19.5v19.5v10q1 6 2 15.5t3.5 19t7 17.5t12.5 10q9 5 19.5 2t15.5 -16q-1 -33 -3 -65.5t-4 -64.5v-4q-1 -6 -1 -12v-12q3 -5 3 -14q-2 -8 -4 -22v-15q0 -3 -2 -7q-3 -31 -3 -66t1 -68t2.5 -59.5t1.5 -40.5v-165q14 18 36 41.5t37 45.5q19 28 41.5 60t46.5 64 t48 63.5t47 58.5q0 1 0.5 3t0.5 1v1q2 9 8.5 13.5t13.5 4.5t13.5 -4t9.5 -13q0 -8 -7.5 -23.5t-18.5 -32.5q-7 -17 -23 -36t-25 -36q-15 -32 -37 -61.5t-46 -59t-48.5 -58.5t-43.5 -60q20 -94 58.5 -187t80.5 -180q8 -18 18.5 -43t24 -50.5t30 -47.5t36.5 -34q8 -4 13 -9 q0 -1 0.5 -1t0.5 -1q6 -16 -5 -23.5t-27 -2.5q-27 15 -46 38t-34 49.5t-26.5 54t-23.5 50.5q-35 69 -65.5 140t-52.5 146q-8 2 -13 7q-1 -1 -4 -1h-2l-1 -1q-8 -5 -15 -3l8 -464q-3 -4 -8 -8.5t-10.5 -5.5t-12.5 3t-15 16q0 13 -0.5 38.5t-0.5 53.5t-0.5 53.5t-0.5 38.5v561 q0 23 -1.5 53.5t-2.5 64.5q-1 22 -1 45v23q0 35 5 66v2q0 17 -2.5 27t-1.5 26q-3 11 -4 16.5t-1 9v6.5t-2 10z" />
<glyph unicode="l" horiz-adv-x="252" d="M93 754q1 7 7 13v2q-1 25 -1 49q0 48 3 98q4 74 8 149q-5 5 -5 13q0 20 0.5 40t0.5 40q0 9 -0.5 19.5t-0.5 20.5t3 18.5t11 14.5q7 11 19.5 9.5t17.5 -16.5q-2 -114 -10 -226q-6 -90 -6 -182v-46v-75.5v-78.5v-54q0 -52 1 -102q1 -27 2.5 -50.5t3 -46t1.5 -46t-2 -50.5 q0 -2 -0.5 -4.5t-0.5 -5.5q1 -32 1.5 -65t0.5 -65q0 -4 -1 -5q5 -34 15 -60t32 -34q1 0 1.5 0.5t1.5 0.5q8 -2 14.5 -5t14.5 -4q13 -4 16 -13t-2 -17q2 -8 -3 -15t-15 -9q-47 7 -75 37t-33 76v1q-11 42 -11 89.5t3 83.5q-2 126 -6.5 250.5t-5.5 250.5z" />
<glyph unicode="m" horiz-adv-x="752" d="M14 970.5q0 8.5 4.5 14t12.5 7t16 -5.5q0 -1 0.5 -1t0.5 -1q13 4 23 -9q13 -16 28.5 -28.5t25.5 -30.5q11 -20 15.5 -42.5t6.5 -45.5q17 33 43 62t54.5 44t58 11t53.5 -38q12 -17 22.5 -35.5t14.5 -39.5v-2q14 23 27 45t32 43q32 34 67 34h11q42 -6 95 -52q11 -10 20 -28 t11 -33q3 -19 4 -32t1 -26t-0.5 -28.5t-0.5 -38.5q-2 -168 -4 -331q0 -33 -2 -65q0 -131 9 -265q9 3 19.5 0t18 -10t10.5 -15.5t-2 -15.5l-7 -3q-5 -8 -15 -11q-8 -7 -20.5 -8t-24 6.5t-20 25t-8.5 47.5l-3 154q2 66 3.5 126t2.5 119t1.5 118.5t1.5 125.5q0 4 0.5 19.5 t0.5 33.5t-1 36t-3 29q-2 8 -8.5 21t-15.5 26q-6 -2 -12.5 0.5t-11.5 10.5q-5 2 -10 2h-10q-4 0 -9.5 2t-7.5 4q-31 -5 -53.5 -13.5t-38 -25.5t-24.5 -45t-12 -71q-6 -90 -8 -187l-2 -146v-48q0 -98 2 -192v-27q0 -79 -3 -151q-1 -9 -6.5 -14.5t-11.5 -6.5t-12 2.5t-9 11.5 q-6 1 -3.5 6.5t0.5 15.5q0 40 -1.5 70.5t-2.5 59.5t-0.5 60t3.5 70q1 13 1.5 30t4.5 30v227q3 15 3 24t-1 15.5t-2.5 11.5t-0.5 13q0 3 1 9t2 9l-1 155q0 2 -2 11t-4.5 19.5t-4 19.5t-0.5 10q-11 19 -24 36q-21 26 -47 17.5t-49.5 -34.5t-42 -60t-25.5 -59l6 -5 q4 -9 4.5 -19t0.5 -21q-1 -10 -6 -15t-11 -6l-4 -137q8 -154 8 -280v-16q0 -118 -7 -229q-1 -11 -8.5 -18t-17 -10t-18 0t-9.5 14q0 39 1 50t2 15.5t2 15.5t1 50q-1 1 -1 16.5v38.5t0.5 49.5t1 50t0.5 39.5v18q2 101 2 194.5t-4 194.5q-2 42 -5 86.5t-24 81.5 q-8 14 -23.5 25.5t-27.5 22.5q-7 7 -7 15.5z" />
<glyph unicode="n" horiz-adv-x="539" d="M44.5 969.5q2.5 7.5 8.5 11t14 2t13 -9.5q0 -2 3 -4q29 -20 42 -54t18 -75q11 19 22.5 34t25 28.5t30.5 25.5t40 24q11 6 34 7.5t47 -1.5t45 -10.5t28 -19.5q5 -9 15 -24.5t14 -30.5q5 -20 6 -39t-0.5 -35.5t-3.5 -31t-2 -26.5v-56t-1 -56l-5 -361q0 -21 -1 -38.5t-1 -34 t-1 -33.5t-1 -39q0 -16 2 -31t1 -32v-3q4 -17 13 -30.5t26 -17.5q10 -3 14 -10t2.5 -14t-8 -12t-16.5 -3q-8 2 -15 5t-13 7h-1q-15 4 -27.5 17t-16.5 28q-2 9 1 14q-4 27 -4 64q0 9 -1 18q-1 27 1 53q2 34 4 60.5t2 29.5l5 361q1 29 1 57v56q0 20 3 42t3 43t-5.5 41.5 t-21.5 37.5q-10 11 -28 14t-37.5 1.5t-37 -7t-26.5 -11.5q-85 -60 -108 -163q-1 -1 -1 -3l-5 -82v-152v-31.5t1 -31.5q1 -66 5 -132q2 -36 2 -72q0 -31 -1 -61q-1 -15 -4.5 -29.5t-5.5 -30.5v-92q-1 -11 -6.5 -16t-12.5 -5.5t-13.5 4.5t-7.5 16v12q-4 9 -1 17q1 16 0 31 t1 31v2q0 51 0.5 101t0.5 101l2 179q-2 44 -3 87t-2 87q-1 31 -0.5 62.5t-0.5 63t-4.5 62.5t-12.5 61q-1 3 -5 9q-2 2 -3.5 3t-2.5 3q-4 3 -8 5q-2 2 -3 3.5t-2 3.5l-7 8q-4 10 -1.5 17.5z" />
<glyph unicode="o" horiz-adv-x="528" d="M66 519q0 53 2.5 110.5t10.5 109.5t21 94t34 65q5 6 11.5 10.5t13.5 8.5q14 15 34 22.5t38 18.5q13 6 22 -2q8 2 17.5 1t18.5 -2q46 -4 74 -30t47 -66q16 -34 26 -85t14 -111q4 -54 4 -113q0 -7 -1 -13q0 -66 -3.5 -128t-9 -117.5t-11.5 -94.5q-3 -18 -6.5 -41.5t-11 -46 t-19 -42.5t-30.5 -31q-5 -5 -12 -7.5t-15 -4.5q-16 -6 -38 -10t-44.5 -5t-43 2t-32.5 11q-17 12 -29.5 30t-26.5 34q-14 18 -21.5 55t-11.5 78t-6 78.5t-5 55.5q-4 25 -7.5 69t-3.5 97zM116 512q2 -52 5 -98.5t7 -79.5q3 -24 5 -56.5t5.5 -67t11.5 -66.5t23 -54 q5 -8 22.5 -14t39 -9.5t44 -5t37.5 1.5q21 8 31 21v3q1 6 5 12q3 12 15 15q1 58 4.5 114.5t8 113t8 112.5t4.5 114q1 48 5 96q2 24 2 46.5t-2 44.5q-4 44 -22 83t-60 71q-14 6 -28.5 5.5t-29.5 1.5q-12 -10 -23 0q-3 -2 -6 -2.5t-5 -2.5q-1 -2 -1.5 -3.5t-2.5 -3.5 q-8 -5 -15.5 -8t-15.5 -7l-1 -1q-23 -28 -37.5 -70.5t-22 -93t-10.5 -105.5q-2 -37 -2 -72q1 -17 1 -35z" />
<glyph unicode="p" horiz-adv-x="566" d="M80.5 802.5q-0.5 9.5 3.5 19t12 16.5v6q0 3 -2 12t-3.5 21t-0.5 26t6 26v1q0 1 0.5 1t0.5 1t0.5 1.5t0.5 1.5l2 4q4 6 10 8t11 0q8 2 15.5 -1.5t10.5 -14.5l2 -77q20 20 47.5 41t58 36t61 19.5t55.5 -8.5t45 -34t33 -46t19 -52.5t5 -54.5q-1 -21 -0.5 -41t1.5 -46.5 t2 -63.5q1 -26 1 -59q0 -17 -1 -37q0 -57 -2 -138t-7 -194q-8 -7 -11 -23t-6 -33.5t-8.5 -32.5t-17.5 -20l-3 -6q-15 -28 -47 -42t-70 -17h-19l-57 6q-38 7 -65 23q-12 -3 -12 -18q-1 -16 -14 -20q0 -90 2.5 -175.5t2.5 -177.5v-1q14 -7 12.5 -20t-16.5 -18q-9 -9 -29 -7 q-16 2 -20 13.5t4 19.5q-1 1 -1 3q1 263 5.5 523.5t7.5 524.5q-3 3 -5 13q0 20 -0.5 39t-0.5 39q-9 6 -13.5 15t-5 18.5zM144 443.5q0 -76.5 1 -145t4 -122.5q4 -33 22 -57.5t43.5 -40.5t55 -22t57 -0.5t50 22t32.5 46.5l3 8q13 172 16 344v53q0 147 -12 298q-10 27 -25 48 t-37 30q-23 10 -48 1.5t-47.5 -27t-41 -43.5t-28.5 -49q-1 -2 -7.5 -6.5t-14 -9.5t-14 -9.5t-7.5 -5.5q-1 -76 -1.5 -156t-0.5 -156.5z" />
<glyph unicode="q" horiz-adv-x="571" d="M100 526q-2 33 -2 65q0 77 8 146q3 28 6 49.5t9 39.5t17.5 34.5t31.5 34.5q25 23 61 37t73 16h12q31 0 60 -9q34 -11 57 -38v26q2 9 7.5 13.5t12 4.5t12 -4t8.5 -13q-1 -212 -6.5 -421t-5.5 -422v-367q0 -9 4 -22t11 -26t15.5 -23.5t17.5 -14.5q13 -11 9 -25 q8 -10 2.5 -22t-22.5 -10q-21 4 -35 17t-23 30.5t-13.5 37.5t-5.5 38q0 3 1 4q-1 4 -1 8v7q-1 52 -1 104v51q1 77 1 155q-11 2 -15 13q-5 -7 -10 -13t-13 -11q-47 -33 -97 -33q-8 0 -16 1q-58 6 -108 44q-3 2 -9 10.5t-12.5 19t-12 20t-6.5 13.5q-6 20 -8.5 45.5t-4 51.5 t-2 51t-1.5 45q-2 127 -6 242zM155 686q1 -55 1 -101.5v-91.5v-92t1 -102v-33t0.5 -56.5t2 -58t5.5 -37.5q2 -6 10.5 -15t18.5 -18t19.5 -16.5t14.5 -9.5q25 -11 53 -13t54 8q20 7 31.5 19t18 26.5t11.5 30.5t13 32q-5 4 -7 15q0 6 0.5 11.5t1.5 11.5q2 10 6 9.5t11 -1.5 q1 150 5 298.5t6 299.5q-7 4 -10 12q-3 13 -4.5 25.5t-7.5 23.5q-15 29 -42.5 41t-59 10.5t-61 -14t-48.5 -32.5q-14 -15 -21 -28t-10.5 -26.5t-5 -29t-5.5 -35.5q-1 -2 -1 -11.5v-21v-20.5t-1 -10z" />
<glyph unicode="r" horiz-adv-x="432" d="M42 947q1 10 8 15q5 6 17 8q23 -4 37.5 -18.5t22.5 -34.5q11 -14 15.5 -29t6 -30.5t0.5 -32.5t-2 -33v-10q0 -14 1.5 -11t6 16t14 33.5t26 41.5t40 39t57.5 28q7 -1 19 -2t23 0t19.5 2.5t10.5 6.5q4 8 11 11t13 1t10.5 -8t3.5 -15q-5 -14 -13.5 -22t-20 -12t-24.5 -4.5 t-26 0.5q-2 -2 -4.5 -2t-5.5 -2q-52 -23 -74.5 -49.5t-32.5 -56.5t-15.5 -64t-23.5 -71q4 -32 4 -76v-46v-49q0 -51 -2.5 -105.5t-5 -107t-5.5 -100.5t-6 -85q4 -3 6 -10q0 -8 -0.5 -16t0.5 -17l2 -4q11 -6 11 -17t-8 -16q-2 -6 -4 -9q-8 -11 -19.5 -8t-22.5 5q-13 6 -14 15 q-7 7 -8 16q2 54 6.5 108t9.5 108q2 132 4 262v72q0 95 -3 190v16.5t-1 37.5t-4 46.5t-9 43.5q-10 10 -21.5 17t-22.5 16q-8 8 -7 18z" />
<glyph unicode="s" horiz-adv-x="477" d="M93 674v20q0 30 2 59q3 39 3 72q2 10 3 20t10 9q11 33 34 60t70 38q23 6 51.5 9t51.5 -9q22 -11 35.5 -25.5t21 -31.5t10 -36t2.5 -40q0 -14 1 -25t2 -25q2 -3 0 -9.5t-1 -9.5q15 -7 8 -17t-26 -13q-5 1 -6.5 2t-2 2.5t-1.5 3t-5 2.5q-7 2 -12 10t-8 18t-3.5 18.5 t2.5 12.5q-5 16 -2 34t3.5 35t-7 32t-34.5 26q-15 7 -33 5t-34 -7q-37 -10 -61 -37q-12 -16 -19 -46q-8 -30 -10 -63q-2 -21 -1 -41q1 -12 1 -24q2 -32 5 -51q7 -37 22.5 -59t35.5 -35t42 -20t43 -14t39.5 -18t30.5 -31q18 -30 24 -68q8 -39 8 -79v-10q0 -35 -4 -69 q-4 -39 -4 -71q0 -12 0.5 -34.5t-1.5 -46.5t-8 -46t-20 -34q-18 -15 -47 -21t-59 -3.5t-57 12.5t-40 27q-19 26 -28.5 54t-13.5 57.5t-4.5 59t-0.5 59.5q0 6 -0.5 21t-0.5 31.5t2.5 31t9.5 18.5q10 6 20 7t17.5 -1.5t10.5 -8.5t-3 -14q-1 -5 0 -18t1 -18q1 -14 -3.5 -23 t-6.5 -24v-54v-6q0 -30 4 -62q5 -34 18 -63t41 -39q10 -4 19.5 -4.5t19.5 -3.5q14 -2 34.5 2.5t31.5 10.5q5 3 8.5 16.5t5.5 33.5t3 42.5t1.5 41.5t0.5 32.5v15.5q0 12 1.5 28t3.5 33q-4 6 -4 11q0 20 -1.5 42.5t-6.5 44t-17 40.5t-33 32q-18 12 -38 19l-40 14t-37.5 16.5 t-30.5 25.5q-22 28 -30 64.5t-9 76.5z" />
<glyph unicode="t" horiz-adv-x="310" d="M33 913q2 10 15 15q14 2 30 6.5t33 6.5l3 286q2 9 7.5 13.5t12 4.5t12 -4t8.5 -13l-2 -292h79q8 0 16.5 3t16.5 1q10 -3 14 -10t2.5 -14t-8 -12t-16.5 -3q-5 2 -11 -1.5t-13 -3.5h-65l-3 -6q-6 -6 -13 -9l-7 -593q0 -24 -4 -66q-2 -27 -3 -54q0 -16 1 -32l9 -41 q-3 -22 1.5 -35t13.5 -20t20.5 -9t22.5 -1q8 -3 13 -9q21 0 41 5v1q7 5 14.5 6t13 -3t7.5 -10.5t-2 -15.5q-9 -16 -33 -20.5t-51 -0.5t-50.5 15t-30.5 25q-16 33 -21.5 66.5t-6.5 69.5q0 32 2.5 64t2.5 64l7 591q-16 2 -30.5 4.5t-24.5 3.5q-13 1 -18 10q-7 7 -5 17z" />
<glyph unicode="u" horiz-adv-x="523" d="M71 906.5q3 23.5 21 35.5l1 1q8 7 18 5q2 1 4 1.5t5 0.5q16 -6 16 -20v-2q-3 -149 -7.5 -298t-4.5 -299q0 -20 -0.5 -41t-0.5 -41q6 -43 18 -92.5t38 -84.5q2 -4 6 -8l7 -7l15 -5q9 -5 18 -9.5t19 -8.5q24 0 59 11t60 33l6 7l8 8q11 16 14 33v95q-1 18 -1.5 32t-0.5 23 q-1 29 -1 59q0 37 2 73q2 66 5 133q2 81 3 161t2 161q-1 31 -6 64q3 14 12.5 17.5t17.5 -4.5q10 -4 13 -16v-60q3 -50 3 -100q0 -30 -1 -60q-3 -80 -7 -162q-2 -80 -3 -159t-2 -159q2 -19 3.5 -40t5.5 -41q1 -2 1 -7q6 -49 20 -78q5 -11 15 -16t19 -12h9q17 -5 16 -20 t-17 -19h-8t-8 1q-3 0 -9 2q-22 5 -42 18t-29 33q-14 -17 -35.5 -29t-44.5 -19q-38 -21 -80 -23q-4 0 -7 -1q-38 0 -73 24q-8 5 -12 14t-8 17q-13 4 -22.5 10.5t-13.5 19.5q-12 45 -16 90.5t-4 92.5q-3 13 -3 26q-5 78 -5 155q-1 38 1 76q4 114 6 233q1 30 1.5 60.5 t-1.5 61.5q-1 1 -2 1.5t-2 2.5q-14 26 -11 49.5z" />
<glyph unicode="v" horiz-adv-x="441" d="M30 908q0 1 0.5 2t0.5 3q1 8 2.5 15t5.5 13q6 4 10 5q8 8 18.5 5.5t15.5 -16.5q1 -16 1.5 -31t2.5 -30q3 -16 5.5 -32t3.5 -33v-3q11 -76 26 -150t29 -151q6 -31 15 -61t11 -60q8 -32 16.5 -63t15.5 -63q6 2 10 2h3q3 -2 5.5 -2.5t4.5 -2.5q16 130 45 256t65 253 q9 40 15.5 79.5t8.5 81.5q2 9 7.5 13.5t12 4.5t12 -4t8.5 -13q-5 -106 -27.5 -206t-46.5 -203q-28 -121 -50.5 -241t-22.5 -245v-2q0 -2 -0.5 -2.5t-0.5 -1.5q-1 -1 -1 -3l-2 -3q0 -1 -2 -3l-3 -4.5t-4.5 -0.5t-13 4t-29.5 9l-15 66q-3 12 -5 30.5t-3.5 38t-3.5 38t-6 30.5 q-11 35 -18 68t-15 68q-15 67 -32 135t-32 136t-26.5 137t-16.5 137z" />
<glyph unicode="w" horiz-adv-x="635" d="M72 763v21q0 32 2 64q3 42 12 82q6 10 14 12q6 14 19 13.5t18 -17.5q-1 -157 -3 -313q0 -19 -1 -37q0 -137 10 -277q2 -25 3.5 -49t4.5 -48l11 -44q2 -9 2.5 -21t1.5 -25q4 -20 12 -36h1l33 -4h2q8 8 17 5q11 30 15 64.5t7 62.5q3 20 6.5 39t7.5 39q2 64 8.5 126.5 t8.5 127.5q-10 8 -7 23q8 23 28 21l2 1l1 1q17 7 24 -5.5t-1 -26.5v-28l2 -22q5 -48 7 -96l4 -96q3 -57 11.5 -113.5t35.5 -106.5l5 -8t11.5 -18t14.5 -18t15 -8q8 17 15 36t11 40q2 21 3.5 43.5t2.5 43t1.5 35t1.5 19.5q4 35 10.5 71t8.5 71q2 22 2 44t2 43q3 42 7.5 81.5 t7.5 81.5q5 60 5 119q-1 6 -1 12v131q0 3 3 8v2q2 9 7 13.5t11 4.5t11.5 -4t8.5 -13q0 -61 3 -123q2 -31 2 -62t-2 -62q0 -15 -3 -34t-4 -33t-3 -41.5t-5.5 -62t-7 -72.5t-7.5 -72.5t-7 -61.5t-4 -39q-1 -7 -2 -23t-2.5 -36.5t-4.5 -44.5t-7 -48q-2 -26 -7 -47.5t-14 -31.5 q-5 -3 -8 -3q-19 -30 -47 -23q-10 2 -18 9.5t-16 15.5q-35 46 -52 94.5t-25 102.5q-7 2 -12 8q-2 4 -4 5l-5 -6q-1 -1 -2 -1q-3 -30 -6.5 -60.5t-9.5 -59.5q0 -1 -1.5 -7l-3.5 -14t-4.5 -16.5t-4.5 -13.5q-6 -13 -9 -20.5t-6.5 -13.5t-8.5 -11t-15 -14q-6 -5 -17 -3 q-14 3 -24.5 7t-18.5 12t-13.5 20t-9.5 31l-1 3q-2 8 -3.5 17.5t-3.5 18.5l-11 59q-2 8 -3 15t-2 15l-3 12q-17 94 -22 189.5t-10 189.5q-2 41 -4.5 83.5t-3.5 85.5z" />
<glyph unicode="x" horiz-adv-x="457" d="M31 1.5q-8 10.5 0 24.5q19 34 35 68q2 7 6 13q7 16 13 31t11 31q5 20 8 26l3 8l5 18l6 8q8 15 16.5 31.5t6.5 32.5q0 2 1.5 18t5 37t8 42.5t9.5 35.5l19 107q-9 35 -23 62t-22 62q-3 10 -8.5 23.5t-11.5 27.5t-11.5 27.5t-8.5 23.5q-11 36 -23 71t-20 71q0 1 -1 1 q-2 2 -3 2q-4 3 -5 8q0 1 -0.5 1t-0.5 1q0 2 -0.5 3t-0.5 3v11q1 7 6 12q2 8 7.5 12.5t12 4.5t12 -4t8.5 -13q3 -34 9.5 -58.5t15.5 -48t19 -51.5t21 -68l47 -98h6q2 -1 3 -1t2 -1q9 25 19 44t20.5 37t21.5 37.5t22 43.5q12 27 17.5 39.5t10 22t11 21.5t19.5 38q4 8 6 16.5 t4 16.5t6 15t12 12q9 4 15.5 2t10 -7.5t2.5 -13t-5 -14.5q-1 -1 -3 -1v-1q-8 -30 -20 -58.5t-25.5 -57l-27 -57t-25.5 -57.5q-10 -25 -17.5 -43.5t-14.5 -36.5t-14 -37t-16 -44q7 -27 16 -60.5t17 -59.5q7 -26 16 -57t18.5 -63.5t18.5 -63.5t17 -57v-4q0 -1 0.5 -1t0.5 -1 l4 -11v2q12 -37 25.5 -72t28.5 -71q7 -18 -11 -27q-1 -1 -2 -1t-3 -1q-14 -3 -21.5 5.5t-3.5 18.5q-8 21 -17 41t-17 42q-13 37 -26 80.5t-25.5 88t-24.5 88t-22 81.5q-3 -1 -8 -1q-4 -5 -11 -7q-1 -3 -2 -5.5t-2 -4.5q-4 -12 -7 -30.5t-5.5 -37.5t-5.5 -37.5t-8 -30.5 q-8 -23 -18 -43.5t-20 -42.5q-5 -14 -9.5 -28.5t-10.5 -29.5q-4 -17 -9 -39.5t-10.5 -44.5t-12 -39t-13.5 -24q-10 -5 -18.5 -2.5t-11.5 9.5q-11 -2 -19 8.5z" />
<glyph unicode="y" horiz-adv-x="500" d="M69 913v2q0 3 1 5l1 1q6 14 19 12q7 21 24 16q8 2 15 -2t10 -14q-3 -97 -10 -194t-9 -194v-10q0 -44 1 -87t3 -87v-18q4 -50 12 -100q5 -34 11 -64.5t20 -53.5l3 -4q8 -13 21 -19q14 -8 32.5 -10t38 0t39 5.5t35.5 6.5l4 5q-10 13 -2 30v2q4 18 23 19q1 0 1 -0.5t1 -0.5 q-1 23 -0.5 47t0.5 47q-1 115 -2.5 228t-3.5 228q0 31 -0.5 59t-0.5 55v54.5v59.5q2 9 7.5 13.5t12 4.5t12 -4t8.5 -13q1 -229 4 -455.5t5 -456.5q0 -41 1 -84q2 -31 2 -64v-21q-1 -43 -6 -85t-18 -82q-3 -9 -10.5 -27t-18 -35.5t-24 -29.5t-28.5 -8l-5 2q-3 0 -5.5 -0.5 t-4.5 -0.5q-6 -4 -10 -5q-22 1 -39 9t-33 23l-10 8q-1 0 -1 -0.5t-1 -0.5q-5 0 -9 -1.5t-9 -1.5q-11 1 -16 7.5t-4.5 13.5t5.5 12.5t16 6.5h3q7 6 16.5 3.5t21 -8.5t23 -13.5t21.5 -12.5q5 0 10 -3l17 3q10 10 21 5q30 33 39.5 76.5t13.5 85.5q5 63 6 127v43q0 42 -1 84 q-5 0 -7 1q-13 4 -15 8q-10 -7 -22 -9.5t-23 -4.5q-25 -3 -50.5 -2t-48.5 7.5t-41.5 20t-29.5 35.5q-17 26 -25.5 58.5t-13 66t-6 66.5t-2.5 60q-5 89 -5 177q0 38 1 75q3 125 7 253q-5 2 -9.5 6.5t-5.5 13.5q0 6 -0.5 12t-1.5 12q0 1 -0.5 2t-0.5 3z" />
<glyph unicode="z" horiz-adv-x="430" d="M52 7q3 48 12 94.5t21 91.5t26.5 90t29.5 91q12 37 20.5 76t24.5 74q5 11 10.5 21t11.5 20q26 68 55 134q11 26 22.5 51.5t20.5 52.5q-3 4 -3 10q1 15 5.5 29.5t7.5 29.5q-5 8 -10 16.5t-14 10.5q-9 3 -12 9q-3 0 -5.5 0.5t-5.5 0.5q-25 1 -49 1h-36q-42 -2 -86 -3 q-3 0 -4 1q-9 -5 -17 -3t-12 8t-3 14t10 14q34 8 73 8q13 -1 25 -1q22 -1 43 -1q32 0 65 3q17 0 33 -2t30 -7h3q8 -2 14 -10q8 -8 9 -19q1 -10 -1.5 -19.5t-4.5 -19.5q-2 -12 -2.5 -19t-1.5 -13t-2.5 -13t-5.5 -19v-1q-1 -1 -0.5 -1.5t-0.5 -1.5q-11 -53 -30.5 -108.5 t-43.5 -98.5q-11 -19 -22 -36t-21 -35q-11 -32 -21.5 -63.5t-19.5 -63.5q-2 -5 -3 -9t-2 -9l-6 -20q-5 -15 -8.5 -30.5t-8.5 -29.5q-17 -57 -32.5 -113.5t-25.5 -114.5q9 -4 13 -16v-7q1 -1 2.5 -2t3.5 -4h1q14 -4 16 -17q54 1 105.5 4.5t104.5 6.5q9 -3 13 -8.5t4 -12 t-4.5 -12t-13.5 -7.5q-30 -2 -64 -5.5t-68.5 -6t-68.5 -2.5t-64 6q-8 -7 -19 -3t-13 19z" />
<glyph unicode="{" horiz-adv-x="404" d="M49 605q-3 10 0.5 17t10 11.5t14.5 6.5t16 2q2 0 6.5 1t6.5 1q21 23 31 50t14 56q-1 15 -2.5 42t-3.5 55t-3.5 52t-1.5 33q-2 40 -4 68t-3.5 53.5t-1 53.5t4.5 68q1 6 3 22.5t6 38.5t9 46.5t11 45.5t12.5 36t14.5 18q1 0 1.5 0.5t2.5 0.5q21 22 52 26.5t69 6.5h1 q17 2 33 2t24 15q5 9 13 11t14.5 -1t9.5 -10.5t-1 -16.5l-3 -6q0 -4 -2 -7.5t-4 -7.5q-17 -11 -28.5 -17t-32.5 -8q-11 -1 -23.5 0.5t-25 2.5t-24.5 0t-22 -7q-13 -8 -21 -21t-12.5 -28.5t-7 -31.5t-4.5 -28q-7 -47 -9 -82t-1.5 -68.5t1.5 -69.5t0 -83q0 -18 1 -50.5t1 -68 t-1 -68.5t-5 -54q-1 -17 -3.5 -32t-10.5 -29q-11 -20 -28.5 -34t-35.5 -28q11 -13 22 -27t18 -29q21 -48 25.5 -113.5t1.5 -136t-9 -140.5t-6 -125q0 -14 0.5 -25t1.5 -21t2 -21t3 -26q3 -24 8 -47.5t13 -46.5q15 -39 31 -58.5t35 -26.5q22 -1 44 3.5t42 6.5t37.5 -2 t30.5 -22l20 -15q11 0 17 -10.5t-4 -24.5q-1 0 -3 -2q-7 -4 -11.5 -4t-12.5 3q-9 4 -17 11q-9 0 -16 7q-1 2 -1 4q-6 -6 -14.5 -6t-13.5 6q-29 -5 -49 -5t-49 6q-10 3 -23 8q-14 4 -30 13.5t-33 27.5q-4 11 1 22q-23 42 -34 81t-15.5 74t-4 67t2.5 60q1 16 1 45v59.5v59 t1 44.5q2 32 4.5 63t2.5 62q1 25 1.5 38t0.5 19.5t-1 9.5t-3 8.5t-5 17t-8 34.5q-3 16 -14.5 28t-23.5 24q-15 -2 -22 14q-3 9 0 18q-2 2 -2 5z" />
<glyph unicode="|" horiz-adv-x="252" d="M72.5 1361q1.5 12 8 22.5t16.5 17t21 5.5q6 -2 9 -4t7 -7q5 -13 6 -19.5t2 -22.5v-2q0 -213 -1 -422.5t-3 -422.5q0 -85 -0.5 -167.5t-0.5 -167.5q0 -12 -1 -36t-2 -52t0 -57.5t6 -52.5l2 -6v-4v-1v-56q-1 -11 -6.5 -16t-12.5 -5.5t-13.5 4.5t-7.5 16v4l-4 3q-3 5 -5 13 q0 20 -2 38.5t-2 37.5q1 7 6 12q-3 44 -0.5 87.5t2.5 68.5q0 85 0.5 168t0.5 167l-1 661q-1 21 -4.5 58t-2.5 72q-7 3 -11 12q-5 16 -3 33q-5 9 -3.5 21z" />
<glyph unicode="}" horiz-adv-x="422" d="M-23 -287.5q6 10.5 17 10.5l20 15q13 18 30.5 22t37.5 2t42 -6.5t44 -3.5q19 7 35 26.5t31 58.5q8 23 13 46.5t8 47.5q1 15 2.5 26t2.5 21t1.5 21t0.5 25q0 55 -6 125t-9 140.5t1.5 136t25.5 113.5q7 15 18 29t22 27q-18 14 -35.5 28t-28.5 34q-8 14 -10.5 29t-3.5 32 q-4 21 -5 54t-1 68.5t1 68t1 50.5q-1 47 0 83t1.5 69.5t-1.5 68.5t-9 82q-2 12 -4.5 28t-7 31.5t-12.5 28.5t-21 21q-10 6 -22 7t-24.5 0t-25 -2.5t-23.5 -0.5q-21 2 -32.5 8t-28.5 17q-2 4 -4 7.5t-2 7.5l-3 6q-4 9 -1 16.5t9.5 10.5t14.5 1t13 -11q8 -15 24 -15t33 -2h1 q38 -2 69 -6.5t52 -26.5q2 0 2.5 -0.5t1.5 -0.5q7 -3 14 -18t13 -36t11 -45.5t9 -46.5t6 -38.5t3 -22.5q4 -40 4.5 -68t-1 -53.5t-4 -53.5t-3.5 -68q0 -9 -1.5 -33t-3.5 -52t-3.5 -55t-2.5 -42q4 -29 14 -56t31 -50q2 0 6.5 -1t6.5 -1q7 0 15.5 -2t15 -6.5t10 -11.5t0.5 -17 q0 -3 -2 -5q3 -9 0 -18q-7 -16 -22 -14q-12 -12 -23.5 -24t-14.5 -28q-5 -23 -8 -34.5t-5 -17t-3 -8.5t-1 -9.5t0.5 -19.5t1.5 -38q0 -31 2.5 -62t4.5 -63q1 -16 1 -44.5v-59v-59.5t1 -45q2 -28 2.5 -60t-4 -67t-16 -74t-33.5 -81q5 -11 1 -22q-17 -18 -33 -27.5t-30 -13.5 q-13 -5 -23 -8q-29 -6 -49 -6t-49 5q-5 -6 -13.5 -6t-14.5 6q0 -2 -1 -4q-7 -7 -16 -7q-8 -7 -17 -11q-8 -3 -12.5 -3t-11.5 4q-2 2 -3 2q-10 14 -4 24.5z" />
<glyph unicode="~" horiz-adv-x="698" d="M77 495q3 26 17.5 49t35.5 40.5t47 29t54 14.5q20 8 39.5 7t30.5 -2q15 -1 36.5 -11.5t45.5 -24.5l48 -28t43 -20q8 -3 22.5 -6.5t28.5 -2.5q15 4 27 15l1 1q2 4 2.5 16t2.5 20q-11 8 -7 20.5t21 14.5q14 0 23 -12q7 0 15 -5l3 -3q7 -7 6 -18q-5 -15 -13.5 -27t-18.5 -23 q-8 -14 -18 -23.5t-22 -11.5h-2q-23 -13 -46 -12.5t-46 9t-45.5 22t-45.5 26.5t-47 22t-48 10q-15 0 -31 -3q-16 -8 -30.5 -16.5t-26.5 -16.5q-8 -5 -16 -11t-16 -14v-8.5t1 -8.5q10 -11 3.5 -23t-21.5 -10q-7 -7 -21 -7q-15 2 -20 13q-11 5 -12 19z" />
<glyph unicode="&#xad;" horiz-adv-x="643" d="M38.5 639.5q2.5 7.5 8 11.5t13 3t13.5 -8q118 0 235 -2t235 -2q2 2 8.5 7t11.5 6q8 -1 11.5 -7.5t8.5 -11.5q8 -3 13 -16v-6q-1 -16 -13 -20.5t-23 6.5q-1 0 -1 2q-73 0 -145 0.5t-145 1.5q-4 -2 -7 -2q-51 -5 -94 -4.5t-89 0.5q-6 -5 -14 -5t-16 8q-2 5 -4 10.5t-4 10.5 q0 1 -1 1q-4 9 -1.5 16.5z" />
<glyph unicode="&#xde;" horiz-adv-x="736" d="M36 821q-8 12 0 33.5t22 45t29 43t23 26.5q15 21 47 45t70.5 39t77.5 14.5t67 -27.5q13 -7 20 -16q11 -8 22 -18t17 -21q3 -6 4.5 -24t2 -42t0.5 -51t-0.5 -50.5t-1 -41t-0.5 -21.5q0 -59 0.5 -114t0 -109.5t-1.5 -109.5t-3 -114q-1 -23 -4 -46.5t-7 -46.5 q-1 -20 -1.5 -38.5t2 -35.5t9.5 -33t21 -30q15 -15 36 -22.5t41.5 -10t37 -1.5t22.5 4q8 60 7 121.5t-2 121.5q-1 110 -3.5 218.5t-4.5 217.5q0 6 -1.5 32.5t-3 62.5t-2.5 77t-1 78t2 64t7 35q11 8 22 5t13 -14q6 0 12 -4t9 -13v-68q0 -3 -2 -7q1 -3 1 -9q-1 -11 -4.5 -22 t-5.5 -22l-4 -8q1 -98 3 -195t2 -195q-1 -3 -1 -5t-1 -4l3 -223q1 -66 1 -130.5t-8 -130.5q-2 -5 -4.5 -8.5t-7.5 -6.5q-22 -10 -47 -12t-51.5 0t-52.5 5.5t-50 5.5q-9 -4 -17 2t-10 17q-8 83 -6 167q2 49 7.5 97t6.5 98q1 48 1.5 92t0.5 87.5t-0.5 87t-0.5 91.5q0 7 0.5 20 t1 29.5t1 36t0.5 38.5q-4 3 -6.5 11.5t-3.5 18.5t-1.5 19.5t-0.5 14.5q-5 6 -14.5 12.5t-20 13t-20.5 12.5t-16 10q-40 9 -74 1t-64 -28t-55 -49.5t-47 -64.5q28 0 41.5 -7.5t18 -21.5t3.5 -34.5t-2 -46.5q0 -20 -0.5 -28.5t-1.5 -28.5q-4 -129 -13 -259.5t-4 -260.5 q0 -13 2 -27.5t6 -29t11 -28t18 -23.5q8 -6 16.5 -5.5t17.5 4t17.5 8.5t16.5 7q15 -2 25 -2t13.5 -3.5t1 -13.5t-11.5 -31q-5 -5 -11.5 -8t-14.5 -5q-25 -7 -42.5 -10t-32 0.5t-26.5 15t-27 35.5q-10 16 -14 38.5t-5.5 46t-0.5 46t1 40.5q2 117 7.5 232t9.5 231q1 19 1.5 34 t1 29t0.5 29t-1 34q-8 2 -16.5 2t-16.5 0.5t-15.5 2.5t-12.5 10zM359 -140q0 2 1 2q0 5 1 8q1 5 2 11.5t1 9.5v23q-5 7 -4 14.5t5.5 12.5t12 5.5t15.5 -5.5q6 1 12 -3.5t9 -13.5q2 -11 3.5 -22.5t12.5 -19.5q13 -8 33.5 -7t42 5.5t42.5 10.5t35 8q8 2 15.5 2t15.5 1v1l3 3 q7 5 14.5 5.5t13 -3t7.5 -10t-2 -15.5l-4 -4q3 -8 -1.5 -16t-15.5 -10q-38 -2 -75.5 -9.5t-75.5 -9.5l-12 2q-6 -6 -13 -7q-25 0 -40.5 2.5t-25.5 9.5q-11 -3 -19 3t-8 16h-1z" />
<glyph unicode="&#xe0d;" horiz-adv-x="736" d="M36 821q-8 12 0 33.5t22 45t29 43t23 26.5q15 21 47 45t70.5 39t77.5 14.5t67 -27.5q13 -7 20 -16q11 -8 22 -18t17 -21q3 -6 4.5 -24t2 -42t0.5 -51t-0.5 -50.5t-1 -41t-0.5 -21.5q0 -59 0.5 -114t0 -109.5t-1.5 -109.5t-3 -114q-1 -23 -4 -46.5t-7 -46.5 q-1 -20 -1.5 -38.5t2 -35.5t9.5 -33t21 -30q15 -15 36 -22.5t41.5 -10t37 -1.5t22.5 4q8 60 7 121.5t-2 121.5q-1 110 -3.5 218.5t-4.5 217.5q0 6 -1.5 32.5t-3 62.5t-2.5 77t-1 78t2 64t7 35q11 8 22 5t13 -14q6 0 12 -4t9 -13v-68q0 -3 -2 -7q1 -3 1 -9q-1 -11 -4.5 -22 t-5.5 -22l-4 -8q1 -98 3 -195t2 -195q-1 -3 -1 -5t-1 -4l3 -223q1 -66 1 -130.5t-8 -130.5q-2 -5 -4.5 -8.5t-7.5 -6.5q-22 -10 -47 -12t-51.5 0t-52.5 5.5t-50 5.5q-9 -4 -17 2t-10 17q-8 83 -6 167q2 49 7.5 97t6.5 98q1 48 1.5 92t0.5 87.5t-0.5 87t-0.5 91.5q0 7 0.5 20 t1 29.5t1 36t0.5 38.5q-4 3 -6.5 11.5t-3.5 18.5t-1.5 19.5t-0.5 14.5q-5 6 -14.5 12.5t-20 13t-20.5 12.5t-16 10q-40 9 -74 1t-64 -28t-55 -49.5t-47 -64.5q28 0 41.5 -7.5t18 -21.5t3.5 -34.5t-2 -46.5q0 -20 -0.5 -28.5t-1.5 -28.5q-4 -129 -13 -259.5t-4 -260.5 q0 -13 2 -27.5t6 -29t11 -28t18 -23.5q8 -6 16.5 -5.5t17.5 4t17.5 8.5t16.5 7q15 -2 25 -2t13.5 -3.5t1 -13.5t-11.5 -31q-5 -5 -11.5 -8t-14.5 -5q-25 -7 -42.5 -10t-32 0.5t-26.5 15t-27 35.5q-10 16 -14 38.5t-5.5 46t-0.5 46t1 40.5q2 117 7.5 232t9.5 231q1 19 1.5 34 t1 29t0.5 29t-1 34q-8 2 -16.5 2t-16.5 0.5t-15.5 2.5t-12.5 10zM359 -140q0 2 1 2q0 5 1 8q1 5 2 11.5t1 9.5v23q-5 7 -4 14.5t5.5 12.5t12 5.5t15.5 -5.5q6 1 12 -3.5t9 -13.5q2 -11 3.5 -22.5t12.5 -19.5q13 -8 33.5 -7t42 5.5t42.5 10.5t35 8q8 2 15.5 2t15.5 1v1l3 3 q7 5 14.5 5.5t13 -3t7.5 -10t-2 -15.5l-4 -4q3 -8 -1.5 -16t-15.5 -10q-38 -2 -75.5 -9.5t-75.5 -9.5l-12 2q-6 -6 -13 -7q-25 0 -40.5 2.5t-25.5 9.5q-11 -3 -19 3t-8 16h-1z" />
<glyph unicode="&#x152;" d="M-376 1375l7 19q4 5 7 7.5t8 4.5q20 3 41.5 -3t38.5 -20q8 2 15 -2t9 -15q0 -4 1 -6q6 -8 7 -20t0 -25t-1.5 -23.5t2.5 -14.5q9 -10 19 -11.5t21 0.5t22.5 5t25.5 2q12 0 19 2t12 4.5t12 5t19 2.5q5 5 17 7q17 -1 20 16q3 10 10 14t14 3t11.5 -7t3.5 -16q-2 -17 -11 -28 t-23 -16q-3 -10 -17 -13l-11 1q-5 -9 -15 -10q-11 0 -17 -1t-11.5 -2.5t-13 -2t-20.5 0.5q-8 0 -11.5 -1t-5.5 -2t-5.5 -1h-12.5q-8 0 -17 0.5t-18 1.5q-29 -2 -56.5 -6t-52.5 -13q-2 -9 -7 -13.5t-11 -5t-12 3.5t-8 13q-12 10 -2 24q-5 8 -1.5 16.5t14.5 13.5 q14 3 28.5 4.5t28.5 2.5q-2 5 1 10q7 12 5 32.5t-9 31.5q-3 6 -11 7.5t-14 0.5q-5 -9 -13.5 -9.5t-15.5 5.5q-8 1 -13.5 7.5t-2.5 18.5z" />
<glyph unicode="&#xf70b;" d="M-376 1375l7 19q4 5 7 7.5t8 4.5q20 3 41.5 -3t38.5 -20q8 2 15 -2t9 -15q0 -4 1 -6q6 -8 7 -20t0 -25t-1.5 -23.5t2.5 -14.5q9 -10 19 -11.5t21 0.5t22.5 5t25.5 2q12 0 19 2t12 4.5t12 5t19 2.5q5 5 17 7q17 -1 20 16q3 10 10 14t14 3t11.5 -7t3.5 -16q-2 -17 -11 -28 t-23 -16q-3 -10 -17 -13l-11 1q-5 -9 -15 -10q-11 0 -17 -1t-11.5 -2.5t-13 -2t-20.5 0.5q-8 0 -11.5 -1t-5.5 -2t-5.5 -1h-12.5q-8 0 -17 0.5t-18 1.5q-29 -2 -56.5 -6t-52.5 -13q-2 -9 -7 -13.5t-11 -5t-12 3.5t-8 13q-12 10 -2 24q-5 8 -1.5 16.5t14.5 13.5 q14 3 28.5 4.5t28.5 2.5q-2 5 1 10q7 12 5 32.5t-9 31.5q-3 6 -11 7.5t-14 0.5q-5 -9 -13.5 -9.5t-15.5 5.5q-8 1 -13.5 7.5t-2.5 18.5z" />
<glyph unicode="&#x153;" d="M-495 1524q9 11 23 17t30 7t31 -3.5t26 -13.5q20 -13 29.5 -36.5t6.5 -46.5q19 0 40 -3q13 -2 26 -6t25 -5.5t23.5 1t21.5 14.5q1 0 2 1l2 10q4 8 11 11t13 1t10.5 -8t3.5 -15q0 -1 -1 -6t-3 -10q-1 -2 -1.5 -4.5t-2.5 -4.5q-3 -7 -7 -9q-2 -2 -6 -4q-12 -10 -25 -13 q-26 -10 -48.5 -11.5t-44 0.5t-44 5.5t-48.5 5.5q-3 0 -5.5 1t-4.5 2q-21 -8 -45 -24q-16 -8 -26.5 2.5t-2.5 26.5q23 17 46 26.5t46 13.5q-2 14 -5 28.5t-12 23.5q-13 3 -28 0l-4 -2t-5 -1h-4q-4 0 -10 4l-4 -4q-16 -8 -26.5 2.5t-2.5 26.5z" />
<glyph unicode="&#xf714;" d="M-495 1524q9 11 23 17t30 7t31 -3.5t26 -13.5q20 -13 29.5 -36.5t6.5 -46.5q19 0 40 -3q13 -2 26 -6t25 -5.5t23.5 1t21.5 14.5q1 0 2 1l2 10q4 8 11 11t13 1t10.5 -8t3.5 -15q0 -1 -1 -6t-3 -10q-1 -2 -1.5 -4.5t-2.5 -4.5q-3 -7 -7 -9q-2 -2 -6 -4q-12 -10 -25 -13 q-26 -10 -48.5 -11.5t-44 0.5t-44 5.5t-48.5 5.5q-3 0 -5.5 1t-4.5 2q-21 -8 -45 -24q-16 -8 -26.5 2.5t-2.5 26.5q23 17 46 26.5t46 13.5q-2 14 -5 28.5t-12 23.5q-13 3 -28 0l-4 -2t-5 -1h-4q-4 0 -10 4l-4 -4q-16 -8 -26.5 2.5t-2.5 26.5z" />
<glyph unicode="&#x160;" d="M-480 1175q3 40 18 62t40.5 34t60.5 17t78 13q4 10 7.5 27t5.5 28q2 10 10 13.5t16.5 1.5t14.5 -9t5 -17q-2 -12 -3.5 -26t-5 -26.5t-12 -22t-23.5 -12.5q-10 -2 -32.5 -4.5t-47 -7t-44.5 -11.5t-24 -17q-4 -9 -5 -19t-3 -20v-1h4q9 -3 13 -8.5t4 -12t-4.5 -12 t-13.5 -7.5q-12 2 -23 5t-19 11q-14 4 -17 21z" />
<glyph unicode="&#xf709;" d="M-480 1175q3 40 18 62t40.5 34t60.5 17t78 13q4 10 7.5 27t5.5 28q2 10 10 13.5t16.5 1.5t14.5 -9t5 -17q-2 -12 -3.5 -26t-5 -26.5t-12 -22t-23.5 -12.5q-10 -2 -32.5 -4.5t-47 -7t-44.5 -11.5t-24 -17q-4 -9 -5 -19t-3 -20v-1h4q9 -3 13 -8.5t4 -12t-4.5 -12 t-13.5 -7.5q-12 2 -23 5t-19 11q-14 4 -17 21z" />
<glyph unicode="&#x161;" d="M-645 1279.5q0 11.5 3 19.5q4 12 17 19.5t28 12t30 6.5t24 4q20 3 55.5 2t72.5 0.5t68 8.5t43 26q6 9 7.5 19t3.5 20q4 8 11 11t13 1t10.5 -8t3.5 -15q-3 -12 -5.5 -25t-8.5 -24q-12 -21 -36 -32t-54.5 -15.5t-64.5 -5.5t-67.5 -2.5t-62.5 -5.5t-49 -16q-8 -35 5.5 -56 t37.5 -26t52 6t49 39l10.5 14t11.5 6.5t18 -7.5t30 -28q13 -15 24.5 -17t20.5 4.5t15.5 20t10.5 28.5q4 8 11 11t13 1t10.5 -8t3.5 -15q-5 -19 -17 -41.5t-28 -39t-35.5 -21.5t-40.5 13l-15.5 15.5t-17.5 5.5q-12 -6 -29.5 -15t-37.5 -17t-41 -11.5t-39.5 2t-33 22.5 t-21.5 51q-1 6 -3.5 16.5t-4 22.5t-1.5 23.5z" />
<glyph unicode="&#xf712;" d="M-645 1279.5q0 11.5 3 19.5q4 12 17 19.5t28 12t30 6.5t24 4q20 3 55.5 2t72.5 0.5t68 8.5t43 26q6 9 7.5 19t3.5 20q4 8 11 11t13 1t10.5 -8t3.5 -15q-3 -12 -5.5 -25t-8.5 -24q-12 -21 -36 -32t-54.5 -15.5t-64.5 -5.5t-67.5 -2.5t-62.5 -5.5t-49 -16q-8 -35 5.5 -56 t37.5 -26t52 6t49 39l10.5 14t11.5 6.5t18 -7.5t30 -28q13 -15 24.5 -17t20.5 4.5t15.5 20t10.5 28.5q4 8 11 11t13 1t10.5 -8t3.5 -15q-5 -19 -17 -41.5t-28 -39t-35.5 -21.5t-40.5 13l-15.5 15.5t-17.5 5.5q-12 -6 -29.5 -15t-37.5 -17t-41 -11.5t-39.5 2t-33 22.5 t-21.5 51q-1 6 -3.5 16.5t-4 22.5t-1.5 23.5z" />
<glyph unicode="&#x178;" d="M-419 1377q1 1 1 3q0 5 2 13q2 18 15 26q8 8 17 14q9 4 20 6q14 4 29.5 4t29.5 1t26.5 5t20.5 15v2q-1 12 1 19t13 14h1q4 6 10.5 8t12.5 0t9.5 -7.5t2.5 -14.5q-2 -8 -4 -14.5t-4 -12.5q0 -2 -1 -3q-5 -19 -22 -37t-36 -24q-20 -5 -42 -0.5t-42 4.5l-4 -3q-3 -5 -7 -6 l-3 -5q7 -6 7 -15t-8 -14q1 -3 1 -8q-1 -11 -6.5 -16t-12.5 -5.5t-13.5 4.5t-7.5 16v9q-9 7 -6 22z" />
<glyph unicode="&#xf717;" d="M-419 1377q1 1 1 3q0 5 2 13q2 18 15 26q8 8 17 14q9 4 20 6q14 4 29.5 4t29.5 1t26.5 5t20.5 15v2q-1 12 1 19t13 14h1q4 6 10.5 8t12.5 0t9.5 -7.5t2.5 -14.5q-2 -8 -4 -14.5t-4 -12.5q0 -2 -1 -3q-5 -19 -22 -37t-36 -24q-20 -5 -42 -0.5t-42 4.5l-4 -3q-3 -5 -7 -6 l-3 -5q7 -6 7 -15t-8 -14q1 -3 1 -8q-1 -11 -6.5 -16t-12.5 -5.5t-13.5 4.5t-7.5 16v9q-9 7 -6 22z" />
<glyph unicode="&#x17d;" d="M-236.5 1277q0.5 7 5.5 12.5t16 6.5h12h10.5t11.5 1q8 1 15 1.5t15 2.5v1q-2 22 -2.5 43t-1.5 42q2 9 7.5 13.5t12 4.5t12 -4t8.5 -13v-12t1 -12q7 -5 8 -13q0 -22 -3 -46h16t16 -1q5 1 8.5 1h8.5q2 0 3 -1q6 1 12 1h12q9 -3 13 -8.5t4 -12t-4.5 -12t-13.5 -7.5l-19 -1 q-7 -3 -15 -2q-3 0 -6 0.5t-6 0.5h-10q6 -6 7 -12v-5q-1 -11 -6.5 -16.5t-12.5 -5.5q1 -8 -4 -15q0 -4 -1 -6q1 -5 1 -10.5v-10.5q-1 -11 -6.5 -16t-12.5 -5.5t-13.5 4.5t-7.5 16q0 8 -0.5 16t-1.5 16l-3 9v36l-34 -2h-31q-11 1 -16 7.5t-4.5 13.5z" />
<glyph unicode="&#xf70d;" d="M-236.5 1277q0.5 7 5.5 12.5t16 6.5h12h10.5t11.5 1q8 1 15 1.5t15 2.5v1q-2 22 -2.5 43t-1.5 42q2 9 7.5 13.5t12 4.5t12 -4t8.5 -13v-12t1 -12q7 -5 8 -13q0 -22 -3 -46h16t16 -1q5 1 8.5 1h8.5q2 0 3 -1q6 1 12 1h12q9 -3 13 -8.5t4 -12t-4.5 -12t-13.5 -7.5l-19 -1 q-7 -3 -15 -2q-3 0 -6 0.5t-6 0.5h-10q6 -6 7 -12v-5q-1 -11 -6.5 -16.5t-12.5 -5.5q1 -8 -4 -15q0 -4 -1 -6q1 -5 1 -10.5v-10.5q-1 -11 -6.5 -16t-12.5 -5.5t-13.5 4.5t-7.5 16q0 8 -0.5 16t-1.5 16l-3 9v36l-34 -2h-31q-11 1 -16 7.5t-4.5 13.5z" />
<glyph unicode="&#x17e;" d="M-455.5 1477q0.5 7 5.5 12.5t16 6.5q18 0 35.5 0.5t35.5 1.5q0 17 0.5 33t0.5 30q2 6 4 10q2 8 7.5 12.5t12 4.5t12 -4t8.5 -13v-35t-1 -35q23 2 47 2.5t47 1.5q9 -3 13 -8.5t4 -12t-4.5 -12t-13.5 -7.5q-24 -1 -47.5 -1.5t-47.5 -2.5q0 -8 -0.5 -16.5t-0.5 -16.5 q3 -20 7 -32q3 -10 -0.5 -17t-10 -10t-14 -1t-11.5 11q-8 5 -11 18v33q-1 7 -1 14v14q-18 -1 -36 -1.5t-36 -0.5q-11 1 -16 7.5t-4.5 13.5z" />
<glyph unicode="&#xf716;" d="M-455.5 1477q0.5 7 5.5 12.5t16 6.5q18 0 35.5 0.5t35.5 1.5q0 17 0.5 33t0.5 30q2 6 4 10q2 8 7.5 12.5t12 4.5t12 -4t8.5 -13v-35t-1 -35q23 2 47 2.5t47 1.5q9 -3 13 -8.5t4 -12t-4.5 -12t-13.5 -7.5q-24 -1 -47.5 -1.5t-47.5 -2.5q0 -8 -0.5 -16.5t-0.5 -16.5 q3 -20 7 -32q3 -10 -0.5 -17t-10 -10t-14 -1t-11.5 11q-8 5 -11 18v33q-1 7 -1 14v14q-18 -1 -36 -1.5t-36 -0.5q-11 1 -16 7.5t-4.5 13.5z" />
<glyph unicode="&#x192;" d="M-650 1156v8q4 8 6 16.5t8 15.5q17 18 45 27t60 9q31 2 64 -3t60 -17q-2 15 1.5 30t14.5 29q16 18 41 24.5t49 2t43.5 -20t25.5 -40.5q6 -27 -5.5 -49.5t-31.5 -37t-44 -19.5t-44 3q-6 -5 -12.5 -0.5t-14.5 9.5q-8 -5 -12.5 -1.5t-13.5 11.5q-5 9 -17 15t-28.5 10 t-35 6.5t-34.5 2.5q-28 -3 -46.5 -12.5t-26.5 -28.5q-7 -10 -16.5 -13.5t-18.5 -2t-14 8t-3 17.5zM-358 1223l5 -23q0 2 -2 5q0 2 1 -0.5t2 -6.5q4 -3 6 -6q4 -8 14.5 -9t22 3t20.5 11t9 15q1 15 -10 24.5t-25.5 11.5t-27.5 -4t-15 -21z" />
<glyph unicode="&#xf703;" d="M-650 1156v8q4 8 6 16.5t8 15.5q17 18 45 27t60 9q31 2 64 -3t60 -17q-2 15 1.5 30t14.5 29q16 18 41 24.5t49 2t43.5 -20t25.5 -40.5q6 -27 -5.5 -49.5t-31.5 -37t-44 -19.5t-44 3q-6 -5 -12.5 -0.5t-14.5 9.5q-8 -5 -12.5 -1.5t-13.5 11.5q-5 9 -17 15t-28.5 10 t-35 6.5t-34.5 2.5q-28 -3 -46.5 -12.5t-26.5 -28.5q-7 -10 -16.5 -13.5t-18.5 -2t-14 8t-3 17.5zM-358 1223l5 -23q0 2 -2 5q0 2 1 -0.5t2 -6.5q4 -3 6 -6q4 -8 14.5 -9t22 3t20.5 11t9 15q1 15 -10 24.5t-25.5 11.5t-27.5 -4t-15 -21z" />
<glyph unicode="&#x2c6;" d="M-530 1206.5q-1 21.5 0 43t6 42t17 39.5q10 7 18 7q15 -1 24.5 -9.5t15.5 -20.5t10.5 -25.5l8.5 -25.5q2 8 4.5 16t6.5 15q7 11 10.5 15.5t11.5 12.5q15 14 37 17q14 2 23 -3.5t15 -17t9 -26t5 -30.5q11 42 17 85t-6 84q-4 6 -5 12q-2 9 1.5 15t9.5 8.5t13 0t13 -9.5 q19 -48 19.5 -104.5t-10.5 -105.5q-2 -9 -6 -23.5t-11.5 -28.5t-18 -25t-24.5 -14q-6 2 -9.5 3t-8.5 6q-9 14 -10 30t-1.5 32.5t-2.5 34.5t-12 37q-13 -8 -19.5 -18.5t-11 -22t-8.5 -24t-12 -23.5q-9 -12 -23 -9q-10 3 -17.5 12.5t-14 23t-11.5 28t-10 27.5q-5 -11 -6 -26 t0 -31.5t2.5 -32.5t1.5 -27q5 -10 -1 -19.5t-22 -7.5h-3q-8 4 -10 8t-4 12q0 22 -1 43.5z" />
<glyph unicode="&#xf707;" d="M-530 1206.5q-1 21.5 0 43t6 42t17 39.5q10 7 18 7q15 -1 24.5 -9.5t15.5 -20.5t10.5 -25.5l8.5 -25.5q2 8 4.5 16t6.5 15q7 11 10.5 15.5t11.5 12.5q15 14 37 17q14 2 23 -3.5t15 -17t9 -26t5 -30.5q11 42 17 85t-6 84q-4 6 -5 12q-2 9 1.5 15t9.5 8.5t13 0t13 -9.5 q19 -48 19.5 -104.5t-10.5 -105.5q-2 -9 -6 -23.5t-11.5 -28.5t-18 -25t-24.5 -14q-6 2 -9.5 3t-8.5 6q-9 14 -10 30t-1.5 32.5t-2.5 34.5t-12 37q-13 -8 -19.5 -18.5t-11 -22t-8.5 -24t-12 -23.5q-9 -12 -23 -9q-10 3 -17.5 12.5t-14 23t-11.5 28t-10 27.5q-5 -11 -6 -26 t0 -31.5t2.5 -32.5t1.5 -27q5 -10 -1 -19.5t-22 -7.5h-3q-8 4 -10 8t-4 12q0 22 -1 43.5z" />
<glyph unicode="&#x2dc;" d="M-516.5 1252.5q0.5 11.5 4.5 21t12 13.5q8 10 19.5 7.5t15.5 -16.5q4 -45 14 -60l2 -2q5 -5 13 -7t18 -3q14 2 31.5 9.5t38.5 11.5q18 3 38 3.5t37 5.5q11 1 17 -4.5t6 -12.5q8 -8 4.5 -19t-17.5 -14q-25 -2 -62.5 -10t-74.5 -10q-4 -1 -7.5 -1.5t-8.5 -0.5h-4 q-5 -9 -15 -10q-35 0 -54 9.5t-21 45.5q-3 9 -5 20.5t-1.5 23z" />
<glyph unicode="&#xf710;" d="M-516.5 1252.5q0.5 11.5 4.5 21t12 13.5q8 10 19.5 7.5t15.5 -16.5q4 -45 14 -60l2 -2q5 -5 13 -7t18 -3q14 2 31.5 9.5t38.5 11.5q18 3 38 3.5t37 5.5q11 1 17 -4.5t6 -12.5q8 -8 4.5 -19t-17.5 -14q-25 -2 -62.5 -10t-74.5 -10q-4 -1 -7.5 -1.5t-8.5 -0.5h-4 q-5 -9 -15 -10q-35 0 -54 9.5t-21 45.5q-3 9 -5 20.5t-1.5 23z" />
<glyph unicode="&#xe01;" horiz-adv-x="611" d="M71.5 864q-4.5 15 1 35t15.5 39t14 27q28 55 67.5 79.5t77.5 32t68.5 3t42.5 -7.5q13 -4 32 -9t38 -12.5t35 -18t22 -24.5q17 -37 24 -77.5t9 -82t0.5 -83t-2.5 -81.5q-2 -121 -7.5 -241t1.5 -242q2 -41 5 -73t8 -69l-5 -23q0 -6 -1 -13.5t-3.5 -14.5t-6 -12t-9.5 -4 q-27 11 -35 14t-8 15t1 37.5t2.5 54t2.5 54.5t0 38q-3 57 -3.5 117.5t0 122t2 122t2.5 117.5q1 33 4 59.5t4.5 51.5t0 51t-8.5 58q-5 38 -28.5 62.5t-57.5 37.5t-73 14.5t-74 -7.5t-61 -27.5t-33 -46.5l-3 -6q-4 -10 -7.5 -15t-6 -9t-4 -7.5t-2.5 -10.5q20 1 42 -0.5 t42 -9.5q5 -4 7 -7t4 -9l10 -220v-53v-81.5v-96t-0.5 -96.5t-0.5 -82v-53q-2 -12 -2 -14t0.5 -12t2 -37.5t1.5 -91.5q-1 -11 -9.5 -16.5t-18.5 -6t-19 4t-10 15.5q-1 203 3 410.5t3 410.5q-15 -2 -32.5 1.5t-33.5 3.5q-25 0 -29.5 15z" />
<glyph unicode="&#xe02;" horiz-adv-x="468" d="M26 1058.5q3 13.5 21 15.5h7q10 9 20 11q26 6 51 -6t41 -35l3 -5l4 -6q0 -1 1 -1q2 -4 3.5 -7.5t2.5 -7.5v-1q1 -1 1 -4l1 -2q1 -5 2 -9.5t1 -9.5v-1v-4q5 -39 2.5 -94.5t-8 -111.5t-11 -107t-7.5 -81q0 -37 -2 -82t-4 -91.5t-3.5 -91.5t-0.5 -82q0 -2 1.5 -16.5t4 -35 t5 -44t5.5 -43.5t5 -34.5t3 -16.5q8 -16 35 -19.5t64 -5.5l4 3q8 7 12 12t6 10.5t3 11.5t3 16q1 2 0 9.5t-2 16t-1.5 15t1.5 6.5q6 28 9 43.5t4.5 27.5t2 26.5t0.5 42.5q0 91 -2 190t-5 199.5t-7 199.5t-7 190q2 9 11 12.5t19.5 2.5t20 -6t12.5 -14q7 -220 8.5 -433.5 t-3.5 -434.5q0 -16 -0.5 -46.5t-7.5 -61.5t-22 -54t-44 -24h-4q-25 -6 -50.5 -4.5t-46.5 5.5t-35 6t-17 -2q-7 -11 -12 -5t-8.5 22.5t-5 39.5t-3 46.5t-2 43.5t-0.5 30q-1 50 -2 96t-1 91.5t2 91t8 95.5q2 15 4 51t4.5 81.5t4.5 94.5t4 89.5t4.5 67t5.5 27.5v2q6 22 3.5 41 t-20.5 27q-11 5 -25.5 6t-28.5 1q-2 -2 -3 -2q-9 -5 -17 -3t-12 8q-13 8 -10 21.5z" />
<glyph unicode="&#xe03;" horiz-adv-x="558" d="M34 1032q2 9 7.5 13.5t12 4.5t12 -4t8.5 -13q1 -18 4.5 -39t10 -40t16 -31.5t22.5 -13.5q11 -1 25 -2.5t25 6.5q8 6 14 23t12.5 38t13.5 42.5t16.5 37t22.5 21t30 -5.5q12 -7 24 -18.5t18 -24.5q8 -15 8 -44.5t-4.5 -60.5t-12 -59t-13.5 -40q-11 -21 -23.5 -46.5t-24 -52 t-20 -53.5t-11.5 -52q-6 -67 -0.5 -135t9.5 -136q2 -41 3 -73t1 -62.5v-62.5t2 -73q18 -4 36 -11.5t35.5 -12.5t32 -5.5t25.5 9.5q22 21 32 54t12.5 69t1 71.5t-2.5 62.5q-2 88 -10.5 176t-10.5 176q-2 96 2.5 189.5t4.5 189.5v3q0 2 2 6q3 6 8 10q1 0 2 0.5t2 0.5q1 1 2 1 q4 1 9 0q1 -1 3 -1l2 -2h1l3 -3q2 -2 2 -3q2 -3 4 -7v-23l4 -8q2 -220 8.5 -438t9.5 -438l4 -8q0 -27 -1.5 -48t-9 -37t-22.5 -28.5t-43 -22.5q-17 -6 -34.5 -7t-36 1.5t-37.5 7t-37 7.5q-3 -8 -8.5 -11t-12 -2.5t-11.5 6t-6 14.5v6q-4 5 -9 10t-2 10q-4 85 -4.5 168.5 t-5.5 167.5q-4 70 -8 140.5t3 139.5q3 33 15.5 59.5t28.5 51.5q2 14 7.5 27t12 25.5t13.5 25t11 25.5q0 26 2 52.5t3 53.5l-26 13q-9 -28 -16 -56t-29 -51q-14 -14 -37 -14.5t-40 1.5q-27 2 -44.5 20t-28 42.5t-14.5 52t-5 48.5z" />
<glyph unicode="&#xe04;" horiz-adv-x="604" d="M75 37q0 12 4 20q-1 137 -2 267.5t1 269.5q0 20 -1 56t-1 79.5t1.5 90.5t6.5 89t14.5 76t26.5 51q15 15 36 23.5t44.5 12.5t46.5 5.5t43 2.5q16 1 26 0.5t17 -1.5t12 -2.5t12 -2.5q6 3 13 3q4 -2 7.5 -3t7.5 -3l1 1q27 7 53 -7.5t37 -39.5q4 -4 5 -9q1 -9 4.5 -18 t6.5 -18.5t3 -19t-7 -17.5q3 -28 4.5 -66.5t2 -75.5t0 -66t-0.5 -38q1 -60 3.5 -129.5t4.5 -141t3.5 -141t1.5 -129.5q0 -20 3.5 -36.5t8 -33t10 -35t9.5 -40.5q1 -2 -4.5 -2.5t-13 -0.5t-14.5 -0.5t-8 -3.5l-1 -1q-8 -11 -19.5 -9.5t-16.5 13.5q-6 21 -6.5 41t0.5 39 t2.5 37.5t1.5 35.5q0 60 -0.5 128.5t-1 139t-1.5 139t-2 128.5q0 26 0.5 61t-0.5 72t-3.5 72.5t-8.5 62.5l-2 4q-3 4 -8.5 11.5l-11 15t-10.5 14t-8 8.5t-11.5 5.5t-18 7t-18.5 6.5t-13 3q-13 3 -40.5 3.5t-56 -2.5t-53 -10t-31.5 -20q-18 -32 -28.5 -80t-14 -98.5t-0.5 -97 t12 -75.5q5 12 8.5 14.5t9 2t14 -1.5t23.5 3q1 1 6 3t10.5 3.5l11 3t7.5 2.5q10 1 23.5 2t26 -1t22.5 -7t14 -15q5 -15 5.5 -28t-3 -22.5t-12 -14t-21.5 -2.5q1 4 -7 10t-21 10.5t-29 6.5t-30.5 -1t-25.5 -13t-13 -28q0 -1 -0.5 -1t-0.5 -1l2 -4q-2 -21 -8 -41.5t-12 -41.5 v-7q-1 -10 -6 -16l-3 -14q-4 -10 -4 -33t2 -53t4.5 -64t4.5 -64t2 -54t-3 -35q1 -23 1 -36v-21v-13.5t-0.5 -13.5t-0.5 -21v-36q0 -6 -4 -6.5t-9.5 1t-11 4t-9.5 2.5q-8 -1 -14 4.5t-8 16.5z" />
<glyph unicode="&#xe05;" horiz-adv-x="659" d="M76 6q1 165 2.5 329t3.5 329q1 37 -1 85.5t-0.5 98t11 95t32.5 76.5q25 34 55.5 47.5t59.5 8.5t53.5 -26.5t39.5 -55.5q18 33 46.5 55.5t60.5 25.5q2 2 4.5 2t5.5 1q33 -5 53 -20t32 -39q14 -12 15 -28q3 -20 3 -39l6 -654v-245l15 -38l-12 -23l-23 1q-15 1 -20.5 20.5 t-6 50t1.5 67.5t1 73q-1 46 -0.5 107t1.5 124.5t1.5 124t-0.5 105.5l-4 108t1 107v5q0 18 -1.5 36t-5.5 33.5t-11 26.5t-17 16q-10 4 -12 17q-4 4 -7.5 7t-8.5 5q-6 -4 -17 -8t-13 2q-25 -6 -38.5 -31t-19.5 -49q0 -28 -4.5 -56.5t-4.5 -56.5q-1 -16 -12 -24t-19 0 q-10 4 -14 11t-4.5 16.5t0.5 20.5t0 23q-2 33 -6 57.5t-24 46.5q-20 21 -41.5 26t-41 -3.5t-35.5 -28t-24 -46.5t-10 -61t-1.5 -69t2 -70t1.5 -64q0 -16 -0.5 -25.5t-0.5 -17.5t0.5 -17.5t0.5 -24.5q23 51 62.5 66t89.5 -2q2 -1 5 -1q8 6 17 0q1 0 3.5 -2.5t4.5 -3.5 q3 -2 5 -3.5t5 -4.5q6 -6 12 -16.5t4 -21.5q-2 -21 0 -32.5t1 -16t-6.5 -4t-22.5 3.5q-10 3 -17.5 17.5t-15.5 28t-19.5 20.5t-30.5 -4q-19 -8 -34 -27.5t-26.5 -44t-19 -51t-10.5 -48.5q-4 -8 -4.5 -52t0.5 -106t2 -133t0 -133q-1 -11 -8.5 -16t-17 -4.5t-18 5.5t-9.5 16z " />
<glyph unicode="&#xe06;" horiz-adv-x="671" d="M26 92q-8 25 0.5 56.5t27.5 60t44.5 50.5t52.5 28q11 3 21.5 0t20.5 -5l1 -1q-2 53 -6 105t-6 106q-2 44 1.5 88.5t6.5 87.5q3 42 10.5 61t19.5 31t28 24t36 40q18 25 25.5 57.5t12.5 60.5q5 26 6 47.5t-17 42.5q-7 -18 -16 -39.5t-20.5 -40t-24.5 -31.5t-28 -16 q-11 -8 -19.5 -14t-21.5 1t-23.5 14t-19.5 15q-5 0 -8 1q-22 8 -32.5 29t-14.5 43q-4 5 -5 11q-6 5 -7 16q-1 5 -1.5 11t-0.5 11q2 8 7 12.5t11 5.5q8 9 19 6.5t16 -16.5q7 -7 8 -26t4.5 -38.5t12.5 -34t31 -14.5q27 0 41 18.5t26 42t26.5 45.5t41.5 31q7 1 10 0t8 -6 q21 -23 30 -39t10.5 -31t-1.5 -33t-7 -46q-4 -31 -16.5 -61.5t-30.5 -57.5q-11 -17 -29 -36.5t-32 -39.5q1 -3 1 -9q-6 -20 -8.5 -37.5t-3 -36t0 -39.5t0.5 -47l-3 -36q-2 -26 -2 -46t1.5 -37.5t3 -33.5t2.5 -34q1 -9 1 -24t-0.5 -31t-0.5 -30.5v-22.5q27 -17 48 -40.5 t45 -49.5l39 -39t41 -37q6 -5 7 -10t3 -10.5t6.5 -10.5t17.5 -9q6 10 18 10q6 6 17 14t13 10q-2 -7 -1 -4.5t3 9t4 13.5t3 10l5 3v244q0 168 -1.5 332.5t-1.5 332.5q1 8 8 13v9q2 9 10 14.5t18 7t18.5 -2t11.5 -12.5q0 -86 -3.5 -173.5t-6.5 -175t-4.5 -175t2.5 -173.5 q1 -20 -1 -37t0 -38q6 -56 8.5 -113.5t-5.5 -114.5q-1 -8 -1 -15t-4 -14q-11 -18 -27 -23t-34 -1.5t-35.5 11.5t-29.5 16q-20 12 -41.5 29.5t-42.5 36.5t-41 38t-37 34q-8 -3 -15 1t-9 12l-4 6q-7 -3 -12 -2q-1 -15 -3 -24.5t-3 -28.5q-1 -14 -4.5 -33t-11 -38.5t-19 -35.5 t-28.5 -22q-14 -5 -30.5 -6.5t-32.5 1.5t-29 10t-21 18q-3 5 -7 13.5t-8 18t-7.5 18.5t-5.5 14zM67.5 111q1.5 -21 12.5 -37.5t34 -23.5q9 -3 18.5 -3t18.5 -2q31 34 37.5 71.5t6.5 80.5q-1 0 -1 1q-1 27 -10 37t-26 12q-20 -2 -37.5 -15.5t-30 -33.5t-18.5 -43t-4.5 -44z " />
<glyph unicode="&#xe07;" horiz-adv-x="461" d="M29.5 691.5q2.5 7.5 8.5 11t14 2t14 -9.5l12 -24q6 -1 15 -10q6 -10 10.5 -21t8.5 -23l3 -8q14 -23 25 -48t16 -54l-3 -11q4 -15 8.5 -42.5t10 -61t10.5 -70.5t10 -71.5t8.5 -63t5.5 -45.5l53 -108q12 -4 15 -13q2 1 5 1.5t5 2.5l4 2v81q1 8 9 14q1 211 7 419.5t7 419.5 q2 7 4 9q-6 17 -15 31t-23 24q-8 6 -19 7t-21 4q-8 -14 -21 -11t-16 20q4 18 15.5 25t26 6.5t30 -5.5t26.5 -11q14 -7 25.5 -21.5t19.5 -32t13 -35.5t7 -32q6 -47 6.5 -94t-1 -93.5t-4 -93.5t-3.5 -95q-2 -81 -1 -162t-10 -162q0 -23 1.5 -56.5t1 -67.5t-6 -62.5 t-19.5 -42.5q-13 -13 -31.5 -24t-39.5 -5q-15 5 -27 10t-19 19q-11 23 -18.5 41.5t-13 35.5t-10.5 35t-12 40q-6 17 -12.5 47t-12.5 67t-11.5 76.5t-10.5 75t-9.5 63.5t-8.5 42q-11 5 -12 19q-2 23 -8.5 43t-17.5 38q-5 7 -9.5 14t-9.5 14q0 1 -0.5 1t-0.5 1q-2 6 -2 10v1 q-4 10 -1.5 17.5z" />
<glyph unicode="&#xe08;" horiz-adv-x="496" d="M21 878q2 14 3.5 25.5t4.5 22t8.5 20t14.5 20.5q27 33 50 52.5t47.5 27.5t52.5 6t65 -12q12 -3 30.5 -11t36.5 -18.5t33.5 -23.5t21.5 -26q10 -21 13.5 -53t3 -66.5t-3 -66.5t-2.5 -53q1 -179 1 -353t-1 -353q0 -11 -8.5 -17.5t-18.5 -8.5t-19 1.5t-10 14.5q0 78 2 147 t4.5 135.5t4.5 135.5t2 147q-2 1 -3.5 12t-2.5 13q-15 23 -45 34t-61.5 12.5t-58.5 -5t-37 -17.5q-8 1 -15 7t-10.5 13.5t-2.5 14.5t9 10q16 15 44 21t59.5 5t63 -6.5t54.5 -12.5q0 11 1 24t0 24v48.5t-2 61t-6.5 61t-13.5 50.5q-5 12 -16 22t-24.5 17.5t-27.5 12t-25 6.5 q-29 6 -48.5 8t-35.5 -4t-32 -20t-37 -39q-15 -18 -18.5 -33t-8.5 -38q-6 -17 -19.5 -15t-16.5 20z" />
<glyph unicode="&#xe09;" horiz-adv-x="515" d="M32 930q0 1 1 6.5t2.5 12.5t3.5 13.5t4 9.5q22 33 59 55t80 33t86.5 10t77.5 -15t53.5 -41.5t15.5 -68.5v-74q4 -98 7.5 -195.5t5.5 -195.5q1 -35 0.5 -80.5t-7.5 -83.5l-15 -89v-46q22 9 41 8.5t32.5 -9.5t20 -28t3.5 -48q-4 -41 -23 -64t-42 -26t-44 15t-29 59l-2 5 q-14 -7 -27 -14t-27 -13q-11 -5 -17 -8t-11.5 -5t-10.5 -3.5t-12 -3.5q-41 -9 -69 -4t-45 18.5t-23 35t-3 45.5l5 301q0 8 -1.5 27t-3 44.5t-3 54.5t-1.5 56t2 49.5t8 35.5q2 6 10 10q-5 7 -15.5 7.5t-30.5 -7.5q-4 -10 -11 -13t-14 -1t-11 8.5t-2 16.5q4 16 23.5 26.5 t42 10t41 -15t21.5 -48.5q1 -14 2.5 -38t2 -51t0 -51.5t-2.5 -37.5v-1q-2 -38 -0.5 -71t3.5 -65.5t1.5 -65.5t-6.5 -71q-2 -10 -6 -23q0 -41 3 -77t11 -61q0 -2 0.5 -3t0.5 -2q15 -1 37.5 3t46.5 11.5t46.5 16.5t37.5 18q0 2 2 4q-1 22 1.5 44t7.5 44q0 67 1 128.5 t2.5 121.5t3 121.5t1.5 128.5q0 18 -0.5 44t-1 54l-1 56t1.5 50q4 16 -1.5 33.5t-19 32t-33.5 24t-45 9.5q-33 0 -64.5 -5.5t-58 -15.5t-46 -24.5t-28.5 -33.5q-3 -6 -3.5 -12.5t-2.5 -12.5q-7 -17 -21.5 -15t-17.5 20zM403 98q2 -5 4 -6q11 -27 23 -33t22 0.5t16.5 21 t6 29.5t-10 27t-30.5 12h-5l1.5 -0.5t1.5 -1.5t-6 -2q-11 -3 -20 -8v-28z" />
<glyph unicode="&#xe0a;" horiz-adv-x="492" d="M40.5 1023.5q3.5 7.5 11.5 10.5q-2 2 -2 3q-7 11 1 21l1 1q0 2 2 2q1 1 6 4l7 2h83q3 -1 9 -5q19 5 34.5 -4t23.5 -23q6 -11 6.5 -24.5t-1.5 -28.5t-4.5 -30.5t-3.5 -28.5q48 7 83 30.5t63 72.5q7 12 11.5 18.5t7 12.5t2.5 13t-2 20q6 5 10.5 11.5t9.5 12.5q9 6 17.5 6.5 t13.5 -7.5q5 -3 8 -8t1 -13q-6 -29 -12.5 -54.5t-18.5 -48t-31.5 -43.5t-50.5 -42q15 -14 30.5 -32t28 -37.5t21 -38.5t8.5 -35l-28 -577q8 -27 10.5 -61t-6 -62.5t-31 -46t-64.5 -9.5q-31 -9 -48 -7.5t-27 3.5q-16 5 -26.5 14t-17.5 21q-14 9 -20 23t-8.5 32.5t-2.5 40 t-1 44.5v20v11v11v20q-2 267 9 533q2 26 4.5 50.5t2.5 49.5q1 29 -3 57.5t-7 57.5q-3 9 -19 10.5t-35 1.5t-35 0.5t-19 6.5q-5 11 -1.5 18.5zM200 201q-1 -21 0.5 -43t9.5 -45l17 -49q17 -6 17 -20q11 2 21.5 5t18.5 4v2q3 14 13.5 17t18.5 -3q1 3 6 4t11 1.5t11.5 1 t5.5 3.5q2 20 2.5 32t0 23t-1 23t-0.5 32v554q3 22 -3.5 44.5t-19 41.5t-29 32.5t-33.5 17.5q-8 2 -23 1t-20 0q-5 -5 -9 -6q-9 -85 -11.5 -161.5t-2 -148.5t2.5 -141.5t2 -140.5q0 -19 -2 -39.5t-3 -41.5z" />
<glyph unicode="&#xe0b;" horiz-adv-x="495" d="M8 1032q2 11 9 15t15 2q6 6 15 6t17 -10q10 -17 9 -37.5t3 -38.5q6 4 14 2.5t15 -9.5q0 -1 0.5 -1.5t0.5 -1.5h1h5q8 13 21 9q2 5 4 8t4 5q9 11 18.5 28t21 32t26 23t33.5 2q27 -9 41 -31q14 -24 19 -48q7 6 19 11.5t24.5 10t24.5 9t20 9.5l9 6l12 15q13 17 26.5 34 t30.5 30q4 8 5 13q4 8 11 11t13 1t10.5 -8t3.5 -15q-1 -1 -1 -4q3 -10 -5 -22l-6 -4q-3 -6 -6.5 -11.5t-7.5 -10.5q-6 -22 -18.5 -37.5t-26 -28.5t-25.5 -24.5t-16 -24.5q0 -1 -1 -1q2 -9 -0.5 -18.5t-5.5 -19t-4 -18t4 -15.5q4 -17 -7 -25q3 -8 6 -16.5t4 -14.5q1 -9 1 -21 t-0.5 -23.5t-1 -21.5t-0.5 -16q2 -55 3 -109.5t1 -110.5q1 -32 1 -65v-66q0 -26 0.5 -56.5t0 -62.5t-1 -63t-1.5 -58q-2 -54 -4.5 -86t-16 -47.5t-42.5 -17.5t-84 5q-20 1 -36 6q-5 -7 -13.5 -7.5t-14.5 4.5q-6 2 -10.5 6.5t-5.5 14.5q-11 195 -3.5 389.5t17.5 389.5 q1 19 10.5 36.5t21.5 34t24.5 32.5t19 33t5 35.5t-16.5 39.5q-10 14 -19.5 10.5t-19.5 -17t-21 -33t-24 -37.5t-28 -30t-32 -10q-21 2 -34 11q-8 -2 -14 -1q-17 7 -26 21.5t-13.5 32t-5 36.5t-1.5 35zM217 101q8 -12 16 -18q2 0 2.5 -0.5t2.5 -0.5q26 -19 47 -26t52 -8 q3 -1 9 -5q10 52 10.5 106.5t0.5 106.5q2 140 -1 278.5t-3 278.5l-3 6q-5 15 -9 30t-8 31q-1 2 -3 7.5t-6 13.5q-14 -2 -27 0q-9 2 -12 4q-7 -14 -16 -27.5t-19 -26.5q-8 -9 -14.5 -17.5t-10.5 -19.5q1 -1 1 -2t1 -3q-1 -179 -5 -354t-5 -354z" />
<glyph unicode="&#xe0c;" horiz-adv-x="800" d="M30 894q2 18 13.5 36.5t28.5 31.5q8 16 21 28t27 22q34 23 70.5 41t73.5 23.5t74 -5.5t72 -45q16 -15 29 -33t26 -35q13 -18 18.5 -30.5t6 -25.5t-1.5 -30t-3 -42q-1 -40 -2 -69.5t-2.5 -59.5t-3.5 -65t-5 -85q-2 -54 -4 -107t-2 -107q0 -26 1 -58.5t2 -67.5 q38 -17 72.5 -44.5t64.5 -53.5l39 -35q1 37 -5.5 74t-6.5 75q2 91 4.5 180.5t4.5 180.5q-2 6 -2 10v50q-1 5 -1.5 9t-0.5 9q-3 49 0 96.5t5 95.5q2 42 1.5 85t-0.5 82q3 14 13.5 17.5t18.5 -4.5q8 7 18.5 4.5t14.5 -16.5q-1 -114 -6 -226t-8 -227q2 -13 0 -27v-2 q-1 -17 -1 -33.5v-33.5q-1 -3 -1 -5t-1 -4q0 -38 1 -75.5t1 -75.5v-150q0 -16 3.5 -34.5t6.5 -37.5t2 -37t-10 -33q-5 -8 -16 -10q-16 2 -29 9.5t-25 17t-23 20.5t-23 21q-24 20 -52 43t-59 40q0 -40 -2 -79t-7 -73q-3 -6 -6 -9q-5 -11 -14 -13.5t-17 4.5q-41 6 -68 26 t-40 62q-8 25 -3.5 51.5t19 47.5t37 33.5t49.5 9.5q2 174 5.5 346t3.5 346q2 9 8 14q-14 16 -25.5 32t-24 29.5t-29.5 24.5t-41 17q-17 4 -40.5 0.5t-49.5 -12.5t-51.5 -22.5t-44.5 -30.5q4 -7 2 -15t-12 -13q-5 -2 -10.5 -5t-11.5 -8q-3 -8 -4 -16.5t1 -17.5q7 -2 13 -3.5 t12 -3.5q11 -3 14.5 -10.5t1.5 -15.5q8 -7 5 -19q2 -2 -0.5 -9t-3.5 -12q0 -14 0.5 -27.5t0.5 -27.5q1 -38 -0.5 -78.5t-3.5 -79.5q-3 -91 -6.5 -181t-5.5 -181q-2 -50 -3 -101t4 -101q0 -1 5 -3q8 4 24 11.5t23 12.5l3 8q3 14 14 17t19 -4q8 0 12.5 -8t5 -18.5t-3 -21 t-11.5 -14.5q-4 -2 -7 -3t-6 -3l-6 -8q-1 -2 -1.5 -3.5t-2.5 -3.5l-10 -6q-4 -3 -10 -3t-13 1.5t-13.5 3t-10.5 0.5q-5 -2 -8 -6q-14 -7 -24 0t-8 19q-3 3 -7 9q-6 9 -7.5 27t-1.5 37t1 34.5t1 20.5q2 141 7.5 280t9.5 280q0 9 -1 28t-1.5 41t0.5 43.5t6 35.5q-3 -5 -9 -8 t-14 -1q-27 6 -37.5 21t-8.5 33zM352.5 126.5q-2.5 -16.5 0.5 -31.5q5 -27 22.5 -40t40.5 -18v73.5t1 73.5l-4 1q-18 3 -31 -5.5t-20 -22.5t-9.5 -30.5z" />
<glyph unicode="&#xe0e;" horiz-adv-x="575" d="M14 48q5 11 20 13q18 -4 36 -11.5t36 -7.5q9 42 11.5 86t4.5 87q5 108 5 214t-3 213q-1 33 5.5 65t5.5 64q0 15 -8 21.5t-20 9.5t-25.5 3.5t-25.5 3.5t-20 10t-9 23q-2 45 18.5 88t61.5 76t102.5 51t142.5 12q17 -2 32.5 -10t31.5 -15q10 -4 16.5 -12t12 -17.5t10 -20 t9.5 -19.5q15 -24 15 -53t2 -58q6 -110 1 -222t-7 -223q-5 -187 -8 -372t-5 -373q-2 -14 -10.5 -19t-17.5 -1q-9 -2 -17 1q-22 15 -41 31t-39 33q-6 -5 -15 -3q-20 6 -30 17q-11 -7 -23 -12.5t-23 -10.5q-21 -9 -49 -19.5t-57 -14.5t-55.5 2.5t-43.5 31.5q-8 11 -9.5 24.5 t-4.5 26.5q-2 14 6 20.5t18 4.5q3 6 7 10q17 35 53.5 48t80.5 5q25 -4 53.5 -17t57.5 -32l38 26q1 5 8 8q7 11 14.5 18.5t9.5 17.5q4 8 11 11t13 1t10.5 -8t3.5 -15q-2 -11 -9 -18t-13 -15q0 -7 -6 -17l-3 -2h-1v-3q-4 -8 -11 -13l-4 -8l-13 -11l4 -5q6 -8 19 -12h2h9.5 t9.5 -1q3 4 6.5 8t7.5 9l2 4v-1q0 1 1 2h-1l1 1q5 7 10 8q1 106 2.5 208.5t4.5 206.5q-5 4 -7 15q1 165 4.5 328.5t4.5 328.5q2 9 8 14q-1 18 -2.5 36t-8.5 35q-13 35 -38.5 52t-57 20.5t-65 -3t-63.5 -19t-52.5 -28.5t-30.5 -30q-10 -17 -16 -30.5t-10 -25.5t-7 -23.5 t-6 -24.5q2 0 10 -1t17 -2.5t17 -3t11 -2.5q16 -8 24 -19q6 -1 11.5 -5t7.5 -12q3 -136 9 -270t4 -271q0 -27 -0.5 -54.5t-1.5 -55.5q-1 -23 -2.5 -44.5t-5.5 -44.5q-7 -41 -31.5 -60.5t-65.5 -6.5q-13 5 -24 11t-25 8q-9 1 -13.5 5.5t-6.5 10.5q-8 9 -3 20zM86 -248 q0 -2 0.5 -3t0.5 -2q16 -7 37.5 -6.5t44.5 6t46.5 14t44.5 17.5q-17 11 -36 19t-41 13q-20 6 -43.5 1t-38.5 -21q0 -13 -11 -18q-4 -8 -4 -20z" />
<glyph unicode="&#xe0f;" horiz-adv-x="575" d="M-34 -238q3 32 17.5 60.5t40.5 42.5q14 8 28.5 6t28.5 -10.5t27 -21.5t24 -26q17 32 34.5 62.5t46.5 49.5l1 1h1q1 1 2 1q2 2 5 2q17 5 22 -11q0 -1 0.5 -1.5t0.5 -2.5q1 -2 0.5 -4.5t-0.5 -5.5l-5 -10q-26 -31 -41 -66t-33 -68q5 -8 9.5 -17t11.5 -17l8 -9q0 1 0.5 1 t0.5 1q2 5 10 16l2 2q9 17 18.5 37.5t21 40t26 35t33.5 23.5q13 7 24 -3l1 -1q8 -1 12.5 -7t3.5 -14q5 -8 8.5 -16t7.5 -16q8 -9 15.5 -17.5t12.5 -15.5l16 -24t15 -26l3 256q2 164 6 325t6 325q1 41 1.5 81.5t0.5 81.5v106q-8 5 -10 14t-2 19t-0.5 20.5t-4.5 18.5l-9 15 l-9 8l-16 12t-17 11q-17 7 -36 8.5t-39 0.5q-4 -1 -6.5 -0.5t-4.5 0.5q-6 -11 -16 -11.5t-16 6.5q-30 -11 -58.5 -29t-44.5 -39t-27.5 -44t-27.5 -44q15 -1 35.5 4t41.5 0q8 6 18 3t14 -16q1 -42 1.5 -83t0.5 -83q1 -32 1.5 -64t0.5 -64q0 -35 0.5 -69t0.5 -69v-130.5 t-5 -130.5q-1 -12 -1.5 -29.5t-2.5 -36.5t-6 -37t-11 -31q-9 -17 -29 -18.5t-41.5 4t-41.5 15.5t-30 16q-13 14 -5 27t26 8q23 -16 41.5 -22t45.5 -6q16 56 17 116.5t2 117.5q2 136 0 270t-4 270q-8 1 -22 1h-29.5t-30.5 1t-25 6q-4 5 -5.5 8t-2.5 9q1 22 12.5 34.5 t22.5 29.5q5 7 6 17t9 10q7 13 14 25.5t18 23.5q33 33 81.5 54t92.5 28q26 4 50.5 -5t45.5 -23q11 -7 21.5 -14.5t18.5 -17.5l11 -10q5 -5 16.5 -15t12.5 -21q5 -43 2 -86.5t-4 -87.5q0 -25 -0.5 -69.5t-1.5 -93t-1.5 -93t-1.5 -69.5q-4 -204 -7 -406t-5 -406 q-1 -10 -6.5 -15t-11.5 -6q-5 -6 -14 -6.5t-17 7.5q-29 38 -48.5 74t-37.5 79l-6 8q-6 -6 -16 -16.5t-21 -22t-22 -24t-19 -22.5v-2q-6 -11 -12 -25t-17 -22q-11 -7 -21 -4.5t-19 11t-17.5 20.5t-15.5 24q-14 -18 -33 -32.5t-46 -25.5q-29 -11 -49 -4.5t-32 23.5 q-12 14 -16 34.5t0 40.5v2zM6 -253q2 -19 10 -34q13 -10 36 4q18 11 32 26t25 32l-17 22l-7 -3q-16 2 -30 8q-11 -2 -18.5 -7t-18.5 -18q-10 -12 -12 -30z" />
<glyph unicode="&#xe10;" horiz-adv-x="461" d="M-44 -257q2 11 2.5 22.5t4.5 21.5q8 19 23.5 34t34 23.5t39 9t38.5 -8.5q6 -4 11.5 -7.5t10.5 -8.5q12 12 21.5 24.5t16.5 23.5q5 8 12 9.5t12 -2t7 -10.5t-2 -15q-6 -11 -16.5 -24.5t-25.5 -28.5q14 -10 27.5 -17.5t26.5 -17.5l12 -14q6 9 11 23t9.5 28.5t9 27.5t9.5 21 q7 3 11.5 4t11.5 -2q23 -17 37 -42t31 -48l5 67q-7 -2 -14 3t-8 16q3 9 11 14.5t17.5 7.5t18.5 -0.5t14 -11.5q3 -5 3.5 -24t0.5 -40.5t-0.5 -41.5t-0.5 -27q-2 -11 -9.5 -15.5t-15.5 -0.5q0 -1 -0.5 -1t-0.5 -1q-6 -3 -10 -3t-11 4q-11 10 -20 23t-17.5 26.5t-17 26.5 t-18.5 24q-5 -13 -8.5 -28t-8.5 -29t-12.5 -25.5t-19.5 -17.5q-14 -8 -26 5q-8 10 -15.5 17t-15 12.5t-16 10.5t-18.5 12l-8 8q-32 -29 -68 -50t-63 -21q-8 1 -14.5 7.5t-11.5 9.5q-6 7 -7 17zM-7 -252l1 -1q18 5 38.5 15.5t40.5 24.5q0 1 -1 2l2 22q0 1 0.5 2t0.5 2 q-16 6 -30 2t-25 -14t-18 -24.5t-9 -30.5zM30 846q8 32 15.5 58t21.5 49q12 35 38 57.5t59 31.5q1 0 1 0.5t1 0.5q13 6 43 5t63.5 -4t64.5 -6t46 0q11 9 22.5 21t25.5 17q9 1 15 -3.5t8 -10.5t-1 -13t-11 -11l-4 -2q0 -2 -2 -10q-9 -13 -21 -19t-26 -8q-10 -6 -20 -9 q-8 -2 -19 -1.5t-22 2t-22 3.5t-19 2t-24.5 2t-34 3.5t-33.5 2.5t-22 -1q-1 0 -1 -0.5t-1 -0.5q-12 -9 -28.5 -22.5t-30.5 -28.5q-8 -17 -12 -37q-4 -17 -5 -33.5t-2 -33.5q19 2 50.5 3.5t64.5 1.5t62 -3t44 -10q13 -6 21.5 -25.5t13 -46.5t6.5 -57t2 -57t-0.5 -48t-0.5 -28 q1 -136 -5 -270t-9 -271q5 -9 1 -20l-2 -4v-15q-2 -18 -17 -20.5t-22 12.5q7 -32 8 -39t-1.5 2t-6 28.5t-5 40.5t1 37.5t12.5 19.5q0 1 -1.5 15.5t-3 36t-3.5 46.5t-4 46.5t-3 35.5t0 15q1 41 4 74.5t6 65.5t5.5 65.5t3.5 75.5l-3 5q-2 7 -16.5 15.5t-35.5 17.5t-44.5 16.5 t-45 11.5t-37.5 3.5t-20 -7.5q-6 -9 -15.5 -8.5t-17 5.5t-11 14t1.5 18q2 4 4.5 7.5t5.5 5.5l2 3q8 9 26 12.5t41 2.5t48.5 -5.5t49 -11t41.5 -14.5t27 -16v50q0 28 0.5 41t-1 22.5t-6 22t-14.5 39.5q-13 2 -34.5 4t-45.5 3.5t-46 1.5t-35 -2q-5 -9 -15 -10h-73z" />
<glyph unicode="&#xe11;" horiz-adv-x="587" d="M-20 1044q2 9 8 14q8 11 20 9t17 -17q0 -2 0.5 -4.5t0.5 -4.5q7 -17 16.5 -36t20.5 -37t24 -34.5t27 -26.5q11 19 17.5 42.5t14 47t17.5 44t28 35.5q19 14 33 -4q18 -26 23.5 -62t2.5 -74t-11.5 -74.5t-18.5 -64.5q-5 -12 -10.5 -21t-10.5 -17t-9.5 -17.5t-6.5 -23.5 q-5 -38 -7 -76.5t-2 -76.5l5 -2h2q1 -1 3 -1q20 72 46.5 142t53.5 143q12 32 22.5 65t24.5 64q9 18 18.5 38t22.5 35t30 21.5t40 -2.5q8 -2 17 -7.5t14 -13.5q13 -25 19 -68.5t7.5 -90.5t1 -91t-0.5 -69q1 -90 -0.5 -170.5t-4.5 -159t-6.5 -159t-4.5 -170.5v-20 q-1 -11 -6.5 -16t-12.5 -5.5t-13.5 4.5t-7.5 16v242t-0.5 226.5t-1 228.5t-1.5 249q-22 -5 -36.5 -11t-24.5 -15t-17 -22t-13 -32q-24 -68 -50 -134.5t-49 -134t-40 -137t-21 -142.5v-78q-1 -15 -12 -20l1 -219q-1 -11 -6.5 -16t-12.5 -5.5t-13.5 4.5t-7.5 16 q-2 92 -4 174.5t-2.5 163.5t1.5 163.5t10 174.5q1 17 5 27.5t9 19t11.5 18t13.5 23.5q16 35 22 76t4 81l-13 -27q-5 -11 -12 -26.5t-16 -30.5t-21 -26t-28 -12q-18 0 -43 24t-47 57t-36.5 66t-12.5 50z" />
<glyph unicode="&#xe12;" horiz-adv-x="909" d="M94 321q2 8 5 11q-2 31 -1.5 62t0.5 63l1 64q-1 23 -2 50t-1 50q0 22 1 51.5t3 61t6 62.5t10 57q2 18 5.5 36t8.5 35q-1 6 0 14q3 11 5.5 19t5.5 14.5t8 12.5t13 15l11 10q20 35 49.5 46t71.5 8q32 -2 56 -15t32 -44q11 22 34 45q22 21 49 20t52 -15.5t44 -38.5t24 -50 q10 -53 13 -107.5t2.5 -109.5t-3.5 -109.5t-4 -108.5q-2 -81 -5 -161t-6 -161q2 -1 3.5 -2t3.5 -2q21 -14 43 -34t43.5 -42t41 -43.5t36.5 -39.5q0 12 1 69t2.5 137.5t3.5 172t3.5 172t2.5 137.5t1 69q0 25 -1.5 31.5t-3.5 8.5l-4.5 4.5t-5 19.5t-4 53.5t-2.5 106.5 q3 14 15 17.5t20 -7.5q8 2 15.5 -1.5t10.5 -14.5q2 -255 0.5 -510.5t0.5 -511.5q-2 -14 -10.5 -19t-16.5 -1q-8 -3 -16 0q-1 1 -3 1q-23 15 -45.5 38t-45.5 47t-45.5 47t-44.5 40v-17v-10.5t-1 -10.5q-1 -22 -1.5 -43t-0.5 -43q-1 -13 -9 -18t-16 -3q-3 -4 -7 -7q5 -8 1 -17 t-16 -12q-3 1 -8 1q-13 -5 -28.5 -2t-26.5 11l-13 11l-4 2q-12 15 -17 30t-7 29.5t-2.5 27t-3.5 22.5q-2 7 -3 13.5t-1 13.5q-1 17 0 40.5t15 36.5q13 13 24.5 20t23.5 8.5t25.5 -1t31.5 -6.5q-3 23 -5.5 45.5t-0.5 45.5q2 65 8 130.5t11 130.5t5.5 130.5t-8.5 130.5 q-2 16 -6 36.5t-11 41t-16.5 39t-23.5 30.5q-29 26 -51 16.5t-29 -47.5q-2 -3 -2.5 -5t-2.5 -4q-2 -12 -2 -24.5v-24.5v-5q-2 -11 -6 -15q0 -2 -2 -2q0 -4 0.5 -7t0.5 -6q-1 -11 -6.5 -16t-12.5 -5.5t-13.5 4.5t-7.5 16q-1 13 -0.5 30t-0.5 35t-3.5 36t-8.5 34 q-8 -1 -14 2.5t-13 7t-16.5 6t-24.5 -0.5l-30 -18q-20 -15 -37 -31.5t-27 -26.5q-8 -21 -13 -40.5t-8 -32.5q-2 -5 -2.5 -9t-1.5 -9q-8 -65 -10.5 -130t-4.5 -130l-4 -100q2 -41 4.5 -81t5.5 -79q0 -2 1 -3v-18q4 -57 8 -111t6 -105q22 -11 46 -11v1q5 10 13 12t15 -2 q21 49 36 91.5t25 84.5t14.5 86.5t4.5 97.5q1 46 -3 92q-2 24 -7.5 29t-14 2.5t-20 -6.5t-24.5 2q-9 1 -12 10t-1.5 19.5t7 20.5t14.5 13q24 4 41 5.5t28.5 -6.5t18.5 -27.5t10 -56.5q5 -48 3 -97q0 -49 -6 -101t-17 -103t-27.5 -98.5t-38.5 -86.5q-5 -8 -10 -14.5 t-11 -13.5q1 -6 -1.5 -12t-10.5 -10l-33 -18q-6 -1 -10 -0.5t-9 2.5q-8 5 -17 8.5t-14 11.5l-2 3l-5 3q-3 1 -7 5q-5 2 -9.5 6.5t-5.5 13.5v4q-5 14 -7 29t-1 32q-13 52 -15.5 106t-4.5 106zM457 120q12 -47 39 -72q5 -3 6 -8.5t1 -11t1.5 -10t7.5 -5.5l5 3q0 6 3 11 q6 20 11.5 48t8.5 53q0 12 0.5 23.5t0.5 22.5l-10 4q-36 11 -54 -5t-20 -53z" />
<glyph unicode="&#xe13;" horiz-adv-x="785" d="M25 807q-11 45 4 94t51 88.5t90 64.5t122 22q28 -1 48 -4t34 -10t24.5 -18.5t20.5 -29.5q7 -14 11 -28.5t6 -29.5q4 -26 5 -52.5t2 -52.5q2 -35 2 -70.5v-71.5q1 -81 0 -171t-3 -172q-1 -38 -1 -70.5t0.5 -63.5t0.5 -63.5t-1 -70.5q4 -1 1.5 -11t2.5 -12h1q3 -1 9 2.5 t11.5 8t9.5 7.5t5 1q40 26 78 50t57 62v136q0 30 -0.5 77.5t-0.5 98.5t-0.5 98.5t-0.5 76.5v373q2 9 9.5 11.5t16.5 1t17 -7.5t11 -15q-3 -112 -4.5 -201t-3 -161.5t-2.5 -133t-1.5 -116.5t-1 -111.5t-0.5 -117.5l22 -21q13 4 25 -7t23 -18q10 -6 20.5 -12t18.5 -14 q4 -4 10 -15t10.5 -23.5t7.5 -25t1 -19.5q-6 -24 -26.5 -40.5t-46 -23t-50.5 -1t-40 26.5q-8 13 -14 28.5t-8 51.5q-41 -20 -79 -43.5t-78 -43.5q-17 -8 -33.5 2t-36.5 34q1 188 4 374t4 374q4 11 3.5 33t-2.5 45.5t-4.5 42.5t-2.5 24q0 11 2.5 25t-2.5 25q-9 18 -38.5 28 t-66 11t-72.5 -9t-57 -31q-5 -4 -21 -19.5t-31 -37.5t-23 -46t5 -44q0 -2 6.5 -2t5.5 -2h10t8 0.5t11 1.5t19 2q11 -3 21 -15t8 -19q-3 -22 -8 -33.5t2 -18.5q-3 -67 -7 -134t-7 -134t-3 -134t6 -134q2 -31 6.5 -62t13.5 -61q5 -13 14.5 -22t17.5 -20q16 8 31.5 15.5 t31.5 15.5q9 4 16.5 1t10.5 -9.5t1 -14.5t-11 -13l-6 -3q-1 -2 -2 -5t-3 -6q-12 -11 -26.5 -19t-30 -11t-31 -0.5t-30.5 13.5q-8 6 -17 18.5t-15.5 27t-8.5 29t4 25.5q-5 24 -5.5 50t-0.5 50q-4 136 1 268t10 267q0 8 -1 19.5t-3 27.5q-14 -1 -25 -1.5t-21 0.5 q-3 -2 -9.5 -2.5t-14 0t-14.5 2t-9 3.5zM660 127q0 -11 0.5 -21.5t1.5 -21.5q1 -15 2 -26t5.5 -17.5t13 -8.5t24.5 3q15 5 26.5 14t20.5 20q0 4 -2 6q-2 4 -4.5 10t-4.5 12t-4 11t-4 6q-6 5 -11.5 10t-13.5 7q-11 3 -23.5 1.5t-26.5 -5.5z" />
<glyph unicode="&#xe14;" horiz-adv-x="664" d="M83 425q-2 113 3 225t17 224q2 17 5.5 41.5t11.5 50t21 49t34 37.5q42 29 91 35.5t98 8.5q31 2 63.5 -8.5t62.5 -18.5q24 -6 38 -31.5t21 -57t9 -61.5l3 -45q10 -107 12.5 -215t0.5 -216t-6 -215.5t-6 -215.5q-1 -11 -6.5 -16t-12.5 -5.5t-13.5 4.5t-7.5 16q1 69 2 134 t1 129v128.5v133.5q0 36 1 79.5t1 88.5t-1 88.5t-5 79.5q-3 31 -5.5 50t-6.5 35t-10 32l-15 40q-4 10 -25.5 15t-53 5.5t-67.5 -2.5t-68 -10t-55.5 -16.5t-29.5 -21.5q-14 -26 -22 -56t-12.5 -61t-6.5 -62t-4 -59q-9 -126 -6 -251t4 -252q0 -24 2 -56.5t5 -63t7.5 -55.5 t9.5 -34t21 -12.5t33.5 -2.5t32 5t16.5 10q7 17 13 33t8 33q6 50 11.5 120t8.5 140.5t1 133.5t-11 99q-5 0 -9.5 4.5t-10.5 7.5t-15 1.5t-23 -13.5q-4 -10 -7.5 -6.5t-5.5 13t-2.5 23t1.5 23.5q5 11 20 18.5t32.5 10.5t34 1t24.5 -10q6 -6 8.5 -16.5t4 -22.5t2 -23.5 t0.5 -18.5q1 -23 1 -52.5t-1.5 -59.5t-3 -58t-2.5 -49q-1 -23 3 -50.5t2 -50.5l-5 -87q-1 -11 -1 -25.5t-0.5 -30t-1 -30t-1.5 -25.5q-4 -37 -12.5 -54t-24 -23t-40.5 -6t-62 -4q-2 0 -3.5 -0.5t-3.5 -0.5q-5 -5 -12 -6.5t-15 1.5q-13 8 -22.5 10t-16 1t-10.5 -3l-6 -3 q-16 -3 -23.5 7.5t0.5 24.5q9 7 10.5 11t1.5 6t0.5 3t6.5 3q-5 44 -12 92t-7 91q0 48 -2.5 95.5t-3.5 97.5z" />
<glyph unicode="&#xe15;" horiz-adv-x="665" d="M92.5 32q-0.5 7 5 12.5t16.5 7.5q4 7 13 10q-3 79 -8.5 158.5t-10.5 159t-8 159t-1 159.5v33v49t1 57t3 57.5t6 50t11 34.5q11 18 19 31t24 27q21 17 37.5 28.5t34 16.5t38.5 1.5t50 -16.5q20 -10 35 -35q21 33 58 48.5t73 9.5t63 -35.5t30 -87.5q4 -87 2.5 -174.5 t-5 -174.5t-7.5 -174.5t-6 -174.5v-56t1 -59t3 -55t5 -44l10 -35v-21q-1 -9 -9.5 -15t-19 -8.5t-21 0t-14.5 11.5q-7 20 -8.5 47t-1 56t3 56t2.5 47q3 71 5.5 137t4.5 130.5t3.5 130t2.5 136.5q1 24 3 60t2.5 75t-1 75t-7.5 59q-6 24 -27.5 34t-46 8t-46.5 -16.5t-28 -39.5 q10 -28 10 -53.5t-17 -35.5q-9 -5 -18 -3t-14 7t-5.5 12.5t5.5 13.5v15q-2 12 -3 25.5t-5 26t-11.5 23t-22.5 17.5q-37 19 -61.5 7.5t-45.5 -37.5q-24 -29 -34 -67t-13.5 -78.5t-2.5 -81t0 -74.5q-2 -161 10 -319.5t19 -318.5q12 -1 22 -1.5t18 -0.5q11 2 19.5 2.5t16.5 2.5 q18 8 24.5 32t13.5 78q3 27 5.5 52.5t4.5 51.5q3 52 6 115.5t3 115.5q1 41 2.5 89t-6.5 90q-3 2 -8 2.5t-11 1.5q-5 -2 -11 -3.5t-11 -1.5q-10 1 -17 7q-10 2 -15 8t-4 13t7 12t18 6q8 0 15.5 -0.5t15.5 -0.5l13 3q22 4 34 -3.5t18 -21.5q17 -17 18.5 -45.5t1.5 -73.5 q-1 -54 -2.5 -105t-5.5 -105q-2 -57 -6 -112q-2 -24 -4 -48.5t-4 -50.5q-1 -12 -2 -27t-3 -31t-6 -31t-11 -27q-10 -16 -37.5 -24.5t-60 -12.5t-63 -4.5t-45.5 -0.5q-12 1 -17.5 7t-6 13z" />
<glyph unicode="&#xe16;" horiz-adv-x="528" d="M28 869q1 27 26 60.5t60.5 63t75.5 50.5t71 24q29 7 55.5 2.5t47.5 -24.5q23 -23 36.5 -51.5t21 -59.5t10 -63t3.5 -63q4 -71 -0.5 -140.5t-8.5 -140.5q-2 -54 -2 -107.5t1 -107.5q2 -51 2.5 -101t1.5 -101q0 -5 0.5 -16.5t1 -25t0 -26.5t-2.5 -21q-5 -11 -10 -13 q-8 -9 -20 -6t-14 20q0 161 -1 320.5t-4 320.5q0 25 1 60.5t1 72.5t-2.5 72t-9.5 61q-1 3 -5.5 10t-10 14t-10.5 12.5t-6 7.5q-2 3 -5.5 9t-8.5 12.5t-10 12t-9 7.5q-29 13 -59 7q-26 -9 -51.5 -25.5t-47.5 -36t-37.5 -39.5t-20.5 -37l4 -8l29 -6q14 -4 16 -17q4 -4 7 -11 q2 -14 0 -31.5t-4 -32.5v3q-2 -26 -1.5 -50.5t-0.5 -50.5q-2 -114 -4 -226.5t3 -225.5q1 -31 1.5 -61.5t5.5 -59.5q6 2 8 2q27 -8 54 -6q4 7 12 9q1 1 2 1l3 24q2 9 7.5 13.5t12 4.5t12 -4t8.5 -13v-4q8 1 14.5 -5t5.5 -18q-4 -23 -22 -35.5t-41 -19.5q-17 -15 -38.5 -22.5 t-37.5 3.5q-11 7 -19 20l-1 1q-8 8 -8 19q-6 18 -8 26t-4 24q-8 115 -9 228t1 227l3 161q0 14 2 30l4 32q-5 0 -7 1l-46 12q-6 3 -8.5 5.5t-5.5 8.5q-2 10 -6 19t-4 19z" />
<glyph unicode="&#xe17;" horiz-adv-x="629" d="M12 1016.5q-3 12.5 7 20.5q0 1 2 5q10 12 31.5 15.5t44 0t42 -13.5t25.5 -25q12 -28 15 -57t1 -58q14 18 31 34.5t36 31.5q9 9 23.5 19t30 19t30 17t23.5 14q25 17 55 18t56.5 -12t45 -39t21.5 -63q9 -113 11 -226t0.5 -228t-4.5 -233.5t-5 -241.5q-1 -12 -10 -19 q-4 -5 -9.5 -7t-11 -0.5t-10 6.5t-5.5 13q0 46 1 116t2 146.5t1.5 152t0.5 134.5q0 52 0.5 90t0 74t-3 74t-8.5 90q0 5 -1.5 16.5t-3 23.5t-3.5 23t-4 16q-3 9 -17 16t-30.5 11.5t-31.5 5.5t-19 -2l-16 -12t-26 -20t-26.5 -20.5t-16.5 -13.5q-16 -15 -31.5 -28.5t-29.5 -28 t-25 -31t-17 -37.5l2 -550q0 -3 0.5 -31t-0.5 -64.5t-6 -73.5t-15 -58q-6 -8 -13 -9.5t-12.5 1.5t-9 9.5t-1.5 15.5q-12 5 -13 19q0 93 1 171t2 153.5t2 153.5t1 171q1 63 2.5 132.5t1.5 132.5q0 20 -4 26.5t-11 6.5t-16 -3.5t-19 -4.5q-11 -2 -22 -1.5t-22 2.5 q-17 2 -20 14.5z" />
<glyph unicode="&#x2219;" horiz-adv-x="629" d="M12 1016.5q-3 12.5 7 20.5q0 1 2 5q10 12 31.5 15.5t44 0t42 -13.5t25.5 -25q12 -28 15 -57t1 -58q14 18 31 34.5t36 31.5q9 9 23.5 19t30 19t30 17t23.5 14q25 17 55 18t56.5 -12t45 -39t21.5 -63q9 -113 11 -226t0.5 -228t-4.5 -233.5t-5 -241.5q-1 -12 -10 -19 q-4 -5 -9.5 -7t-11 -0.5t-10 6.5t-5.5 13q0 46 1 116t2 146.5t1.5 152t0.5 134.5q0 52 0.5 90t0 74t-3 74t-8.5 90q0 5 -1.5 16.5t-3 23.5t-3.5 23t-4 16q-3 9 -17 16t-30.5 11.5t-31.5 5.5t-19 -2l-16 -12t-26 -20t-26.5 -20.5t-16.5 -13.5q-16 -15 -31.5 -28.5t-29.5 -28 t-25 -31t-17 -37.5l2 -550q0 -3 0.5 -31t-0.5 -64.5t-6 -73.5t-15 -58q-6 -8 -13 -9.5t-12.5 1.5t-9 9.5t-1.5 15.5q-12 5 -13 19q0 93 1 171t2 153.5t2 153.5t1 171q1 63 2.5 132.5t1.5 132.5q0 20 -4 26.5t-11 6.5t-16 -3.5t-19 -4.5q-11 -2 -22 -1.5t-22 2.5 q-17 2 -20 14.5z" />
<glyph unicode="&#xe18;" horiz-adv-x="467" d="M25 868q-3 15 1.5 35t13.5 39.5t21 37t23 27.5q28 26 56 41t65 21q40 6 80 1.5t69 -14t42.5 -21.5t2.5 -19.5t-51.5 -8t-119.5 11.5q-22 3 -52.5 -11.5t-57 -38.5t-43 -52t-9.5 -51q17 0 23 -0.5t10 -0.5t11 1t27 4q14 2 28.5 5t28.5 3q35 -1 69 -3t68 -3q14 -5 16 -16 t-6 -19q0 -2 1 -3q4 -18 6 -47.5t2 -61.5v-62v-49q2 -78 4.5 -155.5t3.5 -155.5q0 -27 2 -64t0.5 -76t-7 -76t-20.5 -65q5 -8 0.5 -17t-16.5 -12q-38 -1 -77.5 -1t-72.5 9.5t-56.5 34t-28.5 73.5q-2 20 -4 39t-4 39q-1 25 -5 44.5t-4 43.5q1 116 8.5 230.5t11.5 230.5 q2 9 7.5 13.5t12 4.5t12 -4t8.5 -13q-2 -57 -4 -122t-3.5 -132t-3 -132t-1.5 -123q0 -16 3 -41t9.5 -51.5t16.5 -50t25 -36.5q11 -10 26 -14.5t32 -5.5t34 0t33 2q0 1 0.5 1t0.5 1q15 21 21 56.5t6.5 74.5t-1 76.5t-1.5 61.5q-1 133 -6 265t-10 266q-29 0 -57 3l-32 2 t-33 -1q-11 -1 -32.5 -5t-44.5 -6t-43 0t-28 14q-4 6 -4.5 13.5t-2.5 14.5z" />
<glyph unicode="&#xe19;" horiz-adv-x="584" d="M-5 1017q3 12 16 23.5t31 19t38 10.5t37 -1.5t28.5 -18.5t12.5 -39q1 -84 -0.5 -163.5t-4 -157.5t-5.5 -157.5t-4 -164.5q-1 -66 -2 -126t17 -121q3 -2 9 -9t13 -14.5t13.5 -13.5t9.5 -7q31 -8 68.5 -4t79.5 25q2 12 15 18q2 4 2.5 7.5t2.5 7.5q8 20 19 30.5t27 22.5v2 q1 27 2.5 54.5t3.5 55.5q-2 100 1 194.5t7.5 188t8 188t3.5 195.5q2 9 8.5 12.5t14 2.5t14 -6t9.5 -14q0 -96 -3 -187.5t-7 -181.5t-7 -181.5t-1 -187.5q0 -1 -4 3.5t-3 3.5q0 -3 1 -11t2.5 -17t2.5 -17t1 -11v-11.5t-0.5 -5.5t-2 -5.5t-2.5 -11.5t4 -15t5 -16q11 3 15 2.5 t16 -1.5q12 0 24 -6t20 -16q9 -12 14 -18.5t7 -12.5t3 -14.5t3 -24.5q4 -29 -6.5 -50.5t-28.5 -34.5t-40.5 -17t-42.5 2t-34.5 22.5t-16.5 45.5q-7 -4 -13 -5q-29 -19 -61 -35.5t-63.5 -25.5t-60.5 -8t-52 18q-6 4 -14.5 7.5t-16.5 7t-15 9t-9 13.5q-5 16 -6.5 39.5t-2 48.5 t0 47t0.5 36q0 58 1.5 109.5t3.5 102t4.5 102t3.5 109.5l4 138l4 138q1 30 -0.5 47.5t-10.5 24.5t-27.5 5.5t-49.5 -7.5v-1q-7 -17 -19 -10t-15 25zM450 116.5q-1 -19.5 15 -38.5q10 -12 16 -19t11.5 -9t12 0.5t17.5 10.5q13 9 17 25.5t0.5 33.5t-13.5 30.5t-25 15.5 q-14 2 -23 -3t-17 -8q-10 -19 -11 -38.5z" />
<glyph unicode="&#xe1a;" horiz-adv-x="639" d="M15 1037q7 16 29.5 26t48 12.5t48.5 -3t31 -20.5q6 -11 8.5 -30t4 -39t1.5 -37v-25q4 -156 -1.5 -310.5t-9.5 -310.5q-1 -42 -4.5 -64.5t-5.5 -40t-1.5 -36.5t8.5 -53l15 -43q3 -5 12 -11.5t13 -10.5q6 -6 26.5 -6.5t44.5 1t45.5 4t29.5 2.5l-2 1h1h-1h3q2 0 4 0.5t4 0.5 q-2 0 -5 -0.5t-5 -0.5l26 2h-6t-9 -1q32 4 64.5 4.5t64.5 2.5q6 64 5 131t-3 131q-2 186 -8 368.5t-9 368.5q2 9 10 12.5t17.5 2.5t18 -6.5t11.5 -14.5q3 -184 8 -363.5t7 -363.5q1 -49 1 -78t-0.5 -53.5t-1.5 -51.5t-2 -71q0 -7 -0.5 -18t-3 -22t-7.5 -19.5t-13 -9.5 q-6 -1 -20.5 0.5t-33 3t-39.5 2.5t-39 -1q-22 -3 -47 -6.5t-51.5 -5.5t-55 0t-56.5 10q-26 4 -33 16t-11 32q-13 28 -18.5 68t-7.5 80.5t-1 75t1 51.5q2 136 8.5 269t4.5 268q0 38 1.5 79t-6.5 78l-1 1q-11 2 -20.5 2.5t-20.5 3.5q-3 1 -6.5 2t-8.5 1q-5 -7 -16 -5 q-6 -7 -12.5 -8.5t-12.5 1.5t-9 9.5t-1 15.5z" />
<glyph unicode="&#xe1b;" horiz-adv-x="618" d="M15 1052.5q-2 14.5 15 21.5q56 11 87 1t46 -35.5t17.5 -64.5t1.5 -85q-1 -48 -3.5 -77t-5 -55t-4.5 -56.5t-3 -82.5q-2 -111 -2 -221t8 -221q0 -6 1.5 -25t4.5 -40.5t7.5 -42.5t12.5 -32q6 -8 23 -13t37 -8.5t38 -5t25 -2.5q33 -2 44 1.5t17 9t17 10.5t44 6q10 11 15 20 t6.5 17.5t1 17.5t-0.5 20v71.5t-0.5 99l-1 105t-1.5 89.5q-4 216 -6.5 441.5t-4.5 442.5q2 9 11 12.5t19.5 2.5t19.5 -6.5t12 -14.5q1 -215 1 -426t4 -426q1 -50 -1 -117t-2.5 -135t1.5 -129.5t11 -100.5q6 -7 1 -21q0 -1 -0.5 -1t-0.5 -1q-6 -6 -10 -7q-4 -4 -11 -6 q-44 -1 -71 -4.5t-51.5 -5.5t-52 -2.5t-70.5 4.5q-9 1 -22.5 3.5t-28 7t-27 10.5t-18.5 15q-10 15 -16 37t-9.5 46t-5 45.5t-2.5 35.5q-1 17 -2 29t-2 23t-1.5 22.5t-0.5 28.5q-1 38 -9.5 82t-8.5 82q0 53 4 109.5t9 113t8.5 113t2.5 109.5q-1 34 -0.5 60.5t-7 45 t-27.5 29.5t-62 13q-18 3 -20 17.5z" />
<glyph unicode="&#xe1c;" horiz-adv-x="704" d="M84 261q2 8 5 11q3 174 10 346t9 346q-8 6 -9 16q4 27 20.5 51.5t47.5 31.5q9 0 14 -3q11 4 24 5.5t25.5 0t22 -5.5t14.5 -12q2 -9 -1 -16t-9 -10q-5 -5 -14 -7q-14 0 -28.5 -1t-28.5 0q-12 -18 -16.5 -49.5t-4.5 -66t1.5 -67.5t1.5 -54q-2 -74 -8 -149.5t-10.5 -150.5 t-4 -150.5t12.5 -149.5q3 -20 7.5 -39t12.5 -38q12 -30 27 -49t31 -22.5t32.5 9t30.5 44.5q9 20 12 41.5t3 43.5t-1.5 44t-1.5 43q2 91 3.5 182t1.5 182q3 15 17.5 17.5t22.5 -9.5q9 -4 14 -16q1 -98 7.5 -194.5t7.5 -195.5v-2q-1 -16 -1.5 -36.5t2.5 -38.5l6 -17q0 -1 1 -1 v-2q8 -20 18 -37t23 -26q8 -7 23.5 -8.5t26.5 -6.5h2q15 -4 25 -4t16.5 5.5t11 17.5t8.5 32l6 28q-2 176 -5 349.5t-5 349.5v18l-2 24q0 8 -0.5 17.5t-0.5 19.5q-3 37 -4.5 73.5t-2.5 73.5q3 16 18 18t22 -11q10 -5 13 -15q2 -42 5.5 -83.5t4.5 -83.5q-1 -7 -3 -14.5 t-7 -30.5q7 -121 13 -241.5t6 -242.5v-47t-1 -57t-3 -60t-5 -57v-57q-1 -10 -6.5 -15t-11.5 -7q-17 -36 -45.5 -41t-77.5 9q-11 4 -23.5 5.5t-23.5 8.5q-18 11 -31 31.5t-23 46.5q-1 1 -1 3q-4 -21 -11.5 -40t-21.5 -35q-13 -15 -32 -27.5t-39.5 -17.5t-40 1t-34.5 28 q-24 14 -40.5 45t-27 67t-15.5 72t-7 60z" />
<glyph unicode="&#xe1d;" horiz-adv-x="713" d="M90 270.5v35.5q-1 123 4.5 244t11.5 243q2 32 3.5 62.5t3.5 62.5v19.5v29.5t1 32t3 27q4 18 24 29.5t44.5 12t46.5 -10.5t29 -36q-2 -17 -16.5 -21t-22.5 13q-1 2 -1.5 3.5t-2.5 3.5q-3 -3 -7 -3q-7 -1 -13.5 -1.5t-13.5 -2.5q-4 -11 -17 -14h-11v-4l-3 -76 q-2 -31 -3.5 -61.5t-3.5 -62.5q-6 -122 -11.5 -243.5t-4.5 -243.5v-71.5t3.5 -72.5t12 -71.5t25.5 -66.5q13 -2 25 -6.5t24 -6.5l4 2q10 2 19.5 2.5t18.5 3.5q27 9 40 39t17.5 66t3 72t-1.5 57q1 7 7 13v4q-4 52 -2 103t3 102q0 10 -1 26.5t-1 33.5t2 31.5t9 21.5l6 3 q3 12 14.5 15.5t22.5 -9.5q7 -12 9.5 -34t3 -46.5t0 -47t-0.5 -34.5q2 -61 0.5 -119.5t-9.5 -116.5q7 -3 12 -15q0 -34 2 -53t11 -31.5t26 -21t47 -21.5q2 -1 8.5 -3.5t15 -5.5t17.5 -5t17 -2q3 2 6 4.5t8 4.5q1 0 1.5 0.5t1.5 0.5q11 30 15.5 63.5t5.5 67.5t-0.5 67.5 t-1.5 64.5q-1 158 -11.5 313t-11.5 312q-1 70 -0.5 140t0.5 140q0 29 1 61t-4 62q-1 6 0 14q1 1 1 2q8 14 21 11.5t17 -16.5q3 -13 5 -33.5t3 -40.5t1 -37v-23q0 -24 1 -73t2.5 -105.5t3 -112.5t3.5 -95q3 -68 4.5 -131.5t2 -126.5t1 -126.5t0.5 -132.5q0 -24 0.5 -53.5 t-0.5 -61t-2.5 -61.5t-5.5 -55l-2 -8q14 -5 12 -22q-3 -18 -13 -28.5t-20.5 -17t-19 -11t-10.5 -10.5q-7 -8 -15 -9t-14 4q-25 -9 -51 -6.5t-48.5 14t-38.5 32t-21 47.5q-6 7 -6 15v1l-4 -15q-9 -32 -32 -56.5t-53 -36.5t-63 -10t-63 22q-17 11 -27 36t-16.5 56t-9 65.5 t-3 65.5t-0.5 55.5z" />
<glyph unicode="&#xe1e;" horiz-adv-x="661" d="M19 1035.5q3 13.5 23 15.5q8 0 16 1q7 0 13.5 0.5t11.5 0.5q11 1 18.5 1.5t13.5 0t12 -4t15 -11.5q16 -15 20 -45.5t1.5 -63.5t-7 -63t-4.5 -43q-2 -82 -5 -166.5t-5.5 -168t-4.5 -164t-2 -153.5q0 -25 2.5 -52t14 -47.5t33.5 -29t61 3.5q20 30 32 69.5t18 81.5t8 83.5 t1.5 75.5t-2.5 57t-2 28q-3 25 -1 44.5t4 36t3 31t-3 30.5q-12 9 -8 23l3 7q11 16 27 9q8 12 22.5 10t19.5 -16q1 -72 1 -112.5t-0.5 -64.5t-1 -40t-0.5 -40.5v-65t1 -112.5q8 -30 22.5 -50t40.5 -46q20 -20 35.5 -15t31.5 50q1 2 3 2.5t4.5 4.5t5.5 12.5t5 26.5 q-1 24 -0.5 47t-0.5 46v14q-4 146 -2.5 286t-2.5 285q0 4 -1.5 19t-3 36.5t-2 46t0.5 47t4.5 39.5t11.5 24q12 8 22 5q20 8 30 -15q4 -33 8 -68t-2 -68q-5 -32 -10 -60.5t-4 -60.5q7 -176 1 -349.5t-6 -350.5q-1 -13 -11 -19q-2 -15 -8 -26q-19 -30 -36 -42.5t-34.5 -11 t-35.5 16t-38 38.5q-24 30 -39 52.5t-23 45.5q-3 -28 -10 -59.5t-19.5 -57.5t-31 -43.5t-42.5 -17.5q-55 -20 -87 4.5t-47.5 81t-18 138.5t1 176.5t10.5 195t10 194.5q1 17 3 41t2.5 50t0.5 50.5t-3 43.5q-3 30 -1.5 43.5t-1 17.5t-12.5 2t-36 -3q-9 1 -14 5t-8 9 q-14 7 -11 20.5z" />
<glyph unicode="&#xe1f;" horiz-adv-x="766" d="M25.5 1018q-2.5 8 3.5 17q5 8 16.5 12.5t25.5 6.5q2 2 4.5 2t6.5 1q4 -1 7.5 -1h6.5q26 0 49 -5.5t33 -14.5q6 -5 18.5 -12.5t13.5 -12.5q4 -25 5 -39t0.5 -26t-2 -26t-2.5 -38q0 -9 -1.5 -32t-3 -49t-3 -50t-2.5 -34q-2 -50 -2.5 -92t-1.5 -81.5t-2.5 -81.5t-5.5 -92 q-2 -30 -3 -66t1.5 -72.5t10 -72t23.5 -64.5q13 -23 33 -31.5t41 -5.5t40.5 16t33.5 33q4 8 7.5 14.5t6.5 14.5q7 27 10 55t5 56q0 18 -2 35.5t-3 34.5q-1 19 -2.5 49.5t-2.5 66t-2 74.5t-2 75t-2 66.5t-2 49.5q3 13 14.5 17t20.5 -3q6 -1 12 -5t8 -12q1 -24 3 -64t4 -89 t3.5 -102.5t1.5 -104t-1.5 -94.5t-6.5 -73q15 -20 34 -44.5t30 -47.5q2 -5 6 -9.5t7 -9.5h2q8 1 16 3t14 4l10 4q5 11 11.5 22.5t11.5 25.5q7 23 10.5 45t6.5 45q4 32 6 63t4 63q2 35 2.5 71.5t2.5 71.5q2 131 -3 261t-3 261q1 40 2.5 90.5t2 100.5t-1 94.5t-7.5 73.5 q-2 10 7 16.5t20 7.5t22 -3.5t14 -14.5q-1 -57 -1 -106.5v-96.5t1 -92.5t1 -94.5q1 -79 3 -154t3 -149.5t0 -149.5t-6 -154q0 -5 -1 -25.5t-2 -48t-2.5 -58.5t-4 -57t-5.5 -43t-6 -17q10 0 5 -10t-16.5 -23t-25 -26t-20.5 -19t-23.5 -10.5t-35.5 -6.5t-36.5 -0.5t-26.5 7.5 q-20 12 -29 32.5t-17 41.5q-2 -6 -5 -11.5t-6 -10.5q-24 -39 -61 -58.5t-74 -18t-68 25.5t-41 73q-2 11 -4 21t-3 20q-9 31 -14 66t-7 70.5t-1 70t3 66.5q6 80 5.5 154.5t1.5 155.5q2 21 2 42.5t1 42.5q2 51 5 99t-11 98q-5 -2 -17 -0.5t-25 3.5t-24 3t-12 -2 q-7 -9 -16 -9.5t-15.5 3.5t-9 12z" />
<glyph unicode="&#xe20;" horiz-adv-x="606" d="M18 89q2 9 10 14.5t17.5 7.5t17.5 -1t11 -12q4 -16 11 -24t14.5 -7t14 12t8.5 33q2 17 2.5 34.5t1.5 34.5q3 58 6.5 112.5t6 108t3 107.5t-2.5 112q-1 18 -2 28t-1 18.5t1 18.5t3 28q1 8 -1 26t-5 38.5t-4.5 38.5t0.5 25q-14 4 -32 2t-33 -4q-2 -8 -7 -3t-16 10 q-11 7 -12 24t4 37t13 39t15 30q23 36 57 56t71.5 29t73.5 10t64 0q21 -1 45 -5.5t46.5 -15.5t42.5 -28.5t32 -44.5q9 -18 12.5 -41.5t4 -47.5t0 -47t0.5 -40q3 -57 4 -134t1 -159t-1 -159.5t-2 -134.5q0 -26 -0.5 -48t-0.5 -43v-43.5v-48.5q0 -10 -0.5 -15t-1.5 -9t-4 -9 t-7 -15q-5 -8 -16 -10q-1 1 -3 1q-17 2 -20 14t6 20q1 7 -0.5 10l-3 6l-3 6t-1.5 10q0 26 2 56t3.5 61t2 61t-1.5 56q-4 46 -3.5 103t2.5 118.5t4.5 125t2.5 124t-4.5 114.5t-15.5 97q-5 19 -22 30.5t-34 22.5q-21 15 -55 17.5t-71 -3.5t-72.5 -18.5t-60.5 -28.5 q-26 -28 -38 -51.5t-17 -29.5q-3 -4 -2.5 -7.5t2.5 -7.5q7 0 13 0.5t13 0.5q40 1 56 -12.5t20 -35.5t1 -49.5t-1 -52.5q7 -86 8 -156t-1 -133t-6.5 -122.5t-8.5 -124.5q-2 -25 -2.5 -43t-1.5 -34.5t-3 -35t-7 -43.5q-3 -14 -14.5 -28.5t-27 -22.5t-32.5 -5.5t-30 21.5 q-14 20 -25.5 40t-12.5 44z" />
<glyph unicode="&#xe21;" horiz-adv-x="617" d="M29.5 91q-0.5 29 6.5 51q6 16 17.5 27t25.5 17.5t30 10t30 5.5q15 1 28 0q3 163 2 325t-6 325q-1 34 -1 68t-5 67q-6 2 -17 4.5t-23 4.5t-23 2t-17 -2q-7 -13 -20 -13q-11 -2 -19 8.5t0 24.5q2 4 4 5q2 9 5.5 16t11.5 16q10 11 30 14t41 -1.5t38.5 -15t22.5 -25.5 q4 -2 11.5 -7t9.5 -10q2 -210 10 -416t10 -417v-1q18 -13 34 -29.5t31 -33t30 -31.5t31 -25l1 -1q1 1 4 1q41 2 66 12t36 39q3 30 3.5 66.5t-1 71t-3.5 65t-2 48.5q-5 175 -1 347t1 348q3 16 17 18t21 -12q7 -5 12 -15q6 -28 4 -53.5t0 -53.5q1 -21 4.5 -41.5t3.5 -42.5 q2 -51 -0.5 -101t-0.5 -101q5 -128 0.5 -252.5t-0.5 -252.5q9 -13 9 -34.5t-6.5 -44t-18.5 -41t-26 -24.5q-11 -2 -16 2q-14 -9 -30 -11t-33.5 1t-34 10.5t-30.5 16.5q-29 20 -52 48.5t-49 51.5l-4 -3l-1 -1q-1 0 -1 -0.5t-1 -0.5l-1 -1q-10 -8 -20 -11q-1 -24 -4.5 -48 t-13.5 -43t-27.5 -30t-45.5 -11q-30 1 -49 19.5t-28.5 45t-10 55.5zM67 103.5q-3 -20.5 2 -40t18 -34.5t32 -18q15 -3 24 5.5t14.5 25t7.5 38t2 44.5q-8 2 -13 13q0 3 -10 5q-8 1 -7.5 1t-7.5 0h-4q-9 0 -17.5 -2.5t-17.5 -2.5q-2 0 -3 0.5t-3 0.5q-14 -15 -17 -35.5z" />
<glyph unicode="&#xe22;" horiz-adv-x="608" d="M66.5 802.5q-2.5 47.5 0 95.5t10.5 88t22 58q8 10 25 17.5t35.5 10t34 -2t21.5 -18.5q2 -8 -2.5 -15.5t-12.5 -12.5t-16.5 -6t-13.5 3q-6 1 -14.5 1t-12.5 -2q-7 -4 -11 -12.5t-6 -19t-3 -20.5t-2 -17q-3 -30 -5.5 -68.5t-1 -78.5t8.5 -77t23 -64q33 -11 59.5 1t52.5 31 q9 4 18.5 0t15 -11.5t5.5 -16.5t-9 -14q-19 -17 -31.5 -26t-21.5 -12.5t-15 -3.5h-12q-2 -5 -9 -8t-12 -4q-5 -24 -7.5 -37.5t-3.5 -24.5t-1.5 -22.5t-1.5 -31.5q-3 -58 -4 -110.5t-1.5 -103.5t0 -103.5t1.5 -110.5l12 -19q6 -2 16 -4t5 -5q22 -6 36.5 -9.5t42.5 -6.5 q22 -2 39.5 -1t33.5 7t32 18t37 33l13 13t5.5 10t1 17.5t-1 35t-0.5 62.5t3 101q4 88 6 183t2 191t-0.5 190.5t-0.5 182.5q2 9 9 12.5t15 3t15 -5.5t10 -14q1 -177 0 -350t3 -350q1 -29 0.5 -54t-1 -49t-0.5 -49v-54q0 -17 2 -41t-8 -51l-4 -9q-18 -32 -51.5 -50t-72.5 -25 t-79 -5t-70 10q-8 2 -19 6.5t-23 8.5t-24 7t-21 3q-18 3 -27 12t-10.5 19t4.5 19t19 12q-1 60 -2 113.5t-1.5 106t0.5 106.5t4 114q1 21 0 35.5t0 28t4.5 28t13.5 33.5q-14 4 -23.5 14t-16.5 23.5t-11.5 29.5t-8.5 31q-8 33 -10.5 80.5z" />
<glyph unicode="&#xe23;" horiz-adv-x="487" d="M25 888q3 13 3 26t0.5 26t2 26.5t7.5 27.5q1 4 8.5 12.5t16.5 17.5l17 17l11 11q23 25 45 30t45 1t47 -12t51 -9q21 -1 38 -2.5t31 -4.5l28 8t28 6q11 1 17 -4t6 -13q12 -8 9.5 -21t-17.5 -16q-7 0 -14 -1.5t-13 -1.5q-12 -6 -32 -9t-48 5q-26 7 -40 11.5t-26 6.5 t-26.5 2t-41.5 -1q-23 -1 -36.5 -1t-22.5 -3.5t-16 -12.5t-16 -28q-6 -5 -11 -20t-6.5 -31t0.5 -29t9 -13q20 0 44.5 -2.5t50.5 -6t51.5 -8.5t48.5 -10q7 -2 21 -4.5t28 -7.5t25 -12t14 -17q10 -34 15.5 -71.5t8.5 -75.5t4.5 -74.5t1.5 -67.5q1 -69 -0.5 -132t-3.5 -124.5 t-4.5 -124t-3.5 -131.5q5 -5 5 -13t-6 -16q-17 -12 -30.5 -15.5t-27.5 -1.5q-14 -8 -27 -8q-16 0 -31 9t-30 9q-11 1 -16 7.5t-4.5 13.5t5.5 12.5t16 6.5q1 0 1.5 -0.5t2.5 -0.5q3 2 12 4q18 -2 32.5 -7.5t26.5 -8.5q5 4 10 13t9 18.5t7.5 17t6.5 7.5q1 67 2 125.5t1.5 115 t0.5 114.5t-1 126q0 13 -1.5 41t-4 59t-6 60t-7.5 46q-5 19 -18 33t-28.5 23t-31 13.5t-25.5 5.5q-17 2 -45 1.5t-56.5 3t-52 13.5t-29.5 33q-1 3 -3 2.5t-4 -1.5t-4 0t-4 7z" />
<glyph unicode="&#xe24;" horiz-adv-x="575" d="M15 836q2 11 9 24q1 23 6 47t15 46.5t24.5 42.5t34.5 35q21 23 51.5 31.5t64.5 16.5q45 10 77.5 8.5t59 -12.5t50 -30.5t49.5 -44.5q6 -6 7.5 -17.5t2 -25t0.5 -27t2 -21.5l-2 -9q2 -14 2.5 -35t0 -41.5t-0.5 -37v-21.5q1 -42 2.5 -77t2.5 -69.5t1.5 -70t0.5 -77.5 v-198.5t-1 -198.5v-32q0 -66 1 -130.5t-4 -129.5v-187q-1 -11 -6.5 -16t-12.5 -5.5t-13.5 4.5t-7.5 16l-8 13q-2 1 -2 14.5v29.5t0.5 30t0.5 17q4 23 6 46.5t4 47.5q0 47 0.5 93t1.5 93v62q-1 99 -2.5 190t-3 180t-3 180t-3.5 190q0 2 0.5 10.5t1 18t1 17.5t2.5 9 q1 19 0.5 38t-3.5 35q-10 12 0 24q-2 6 -3 12t-4 11q-9 16 -16 30.5t-16.5 25t-24 17.5t-39.5 10q-4 -6 -11.5 -8.5t-16.5 1.5q-6 0 -30 -3.5t-51 -9.5t-49.5 -14t-23.5 -16q-21 -25 -31.5 -58.5t-29.5 -67.5l-6 -10q12 3 24 7.5t23 5.5q14 1 21 -10h4q0 -8 0.5 -18 t-0.5 -12q2 -134 1 -267t2 -267q1 -45 5.5 -85t4.5 -86q0 -16 -3 -31.5t-1 -31.5q13 -6 22 -6.5t15 2.5t11 8.5t10 11.5q3 6 7.5 6t10 -3t10 -8t7.5 -9q1 -1 2 -1q4 -6 3.5 -14t-4.5 -16t-10 -13.5t-11 -6.5q-8 -8 -22.5 -10t-30.5 -0.5t-30 7t-20 13.5q-8 10 -12.5 40.5 t-6.5 62.5t-2.5 58.5t-0.5 29.5q-2 152 0.5 303t-5.5 307q-19 -5 -38 -8.5t-35 7.5q-10 7 -8 18z" />
<glyph unicode="&#xe25;" horiz-adv-x="602" d="M70 897q2 15 2 30.5t6 29.5q23 47 42 73t42.5 38.5t54 14.5t75.5 1q17 0 44 -5t55 -14t51 -22.5t32 -30.5q7 -13 11.5 -37.5t7 -55.5t4 -64.5t2 -64t1 -55t0.5 -36.5l4 -202q0 -8 -0.5 -16.5t-1.5 -16.5q1 -113 0 -225.5t-1 -225.5q-2 -12 -7 -16q2 -6 -2.5 -10t-12 -6 t-16.5 -2t-16 3q0 54 -1.5 100.5t-2 93t0.5 97t5 112.5q-2 50 -3.5 99t-2.5 99h-1q-11 2 -16 8t-5 13q-31 6 -53 11.5t-40 7t-36 -1.5t-41 -13q-45 -15 -65 -32t-27 -40.5t-6 -56.5t-2 -79q-2 -42 -4.5 -80t-4 -75t-3 -75t-2.5 -80q4 -12 3 -22.5t2 -16.5t13.5 -4.5 t37.5 14.5q13 1 20 -9q7 -2 10.5 -7t3.5 -11t-4.5 -12t-13.5 -8l-14 -8q-6 -3 -13 -5.5t-12 -2.5q-17 -4 -27 -3t-21 4q-9 2 -14.5 14t-13.5 23q-6 13 -7.5 22.5t-1.5 18.5t1.5 19t2.5 24q3 51 3 104.5t0.5 107.5t4 107.5t13.5 104.5q3 10 11.5 23.5t20 27t24 24t23.5 15.5 q28 13 45 20t28.5 9.5t20.5 1.5t21.5 -3t30.5 -5t48 -4q5 -1 22 -4t36 -8l1 2q3 11 3.5 23.5t1.5 23.5v2q-1 5 -1.5 10.5t-0.5 11.5q-3 28 -4 52t-1 47t0.5 47t0.5 53q-8 38 -28 61t-43.5 35.5t-45.5 16.5t-34 5q-25 0 -46 -2.5t-40.5 -11t-37 -23.5t-34.5 -39 q-11 -16 -13 -32t-5 -36q-5 -14 -16.5 -15.5t-18.5 8.5q-8 6 -9 17z" />
<glyph unicode="&#xe26;" horiz-adv-x="592" d="M32 57.5q-2 11.5 0 22t7.5 17.5t14.5 4q9 -5 14.5 -12t9.5 -15t8.5 -16t11.5 -14q4 -4 11.5 -4t12.5 2q10 13 14.5 38t5.5 52t0 52t-1 39q-2 66 -5 132t-5.5 131.5t-3.5 130.5t3 131q1 12 1.5 25.5t0.5 26.5q-20 -2 -43 -1.5t-37 10.5q-15 10 -17 27.5t4 37.5t18 41.5 t24.5 39.5t23.5 31t16 18q8 8 16 14l16 12q14 11 34.5 19t43.5 13t47.5 7.5t47.5 3.5q22 1 44 -3t41 -13q28 -14 45.5 -38.5t26.5 -56.5t12 -69.5t2.5 -77t-2 -78t-1.5 -72.5v-68t-4 -67q0 -119 -1 -223.5t-1.5 -206.5t-1.5 -206.5t-1 -223.5q-1 -5 -2 -8t-3 -6v-30 q-1 -11 -6.5 -16t-12.5 -5.5t-13.5 4.5t-7.5 16q0 71 1 127.5t1.5 110.5t1.5 111t1 128q2 77 -1 153t-2 153q-1 1 -1 5q0 125 -2.5 247.5t-2.5 247.5q2 6 4 10q-10 21 -18 42.5t-28 35.5q-8 -3 -15 0q-8 -3 -15.5 1t-10.5 15q-11 8 -22 12q-16 4 -37 1t-43 -11t-42.5 -18.5 t-34.5 -20.5q-15 -13 -25.5 -25t-19 -25t-15.5 -26.5t-15 -28.5q35 0 50 -9.5t20 -30.5q2 -6 2 -10l1 -2q2 -182 9.5 -361t9.5 -362q-1 -10 -5.5 -15t-10.5 -6q-3 -17 -9 -32.5t-16 -26.5t-24.5 -15t-34.5 1q-12 4 -18 8.5t-10 9.5t-8.5 10t-14.5 10q-6 7 -8 18.5z" />
<glyph unicode="&#xe27;" horiz-adv-x="426" d="M29 875q3 72 36 133q10 25 27 42l9 11q7 8 17 10.5t19 7.5q14 6 30.5 5t32.5 -8q21 1 38.5 -2.5t31 -13t22.5 -28t14 -47.5l6 -47q5 -26 6.5 -51t1.5 -51q3 -71 2 -140.5t-1 -138.5v-17q2 -132 3 -262t1 -262v-2q-2 -6 -4 -10q0 -1 -2 -3q-3 -4 -9 -6h-1 q-4 -12 -15.5 -13.5t-18.5 8.5q-19 -12 -42 -11t-46 18q-5 5 -6 10l-10 2q-17 8 -13 22.5t21 16.5q20 -3 37.5 -11.5t36.5 -11.5q3 5 3 9.5t1 9.5q3 14 15 17q2 125 5 247.5t4 246.5q0 34 0.5 68t0.5 69l-3 169q-2 17 -3 33t-3 33q-4 14 -12 30.5t-18.5 31.5t-23 27.5 t-25.5 20.5q-22 -1 -41 -3.5t-24 -5.5q-8 -5 -15 -16q-11 -14 -16.5 -29t-8.5 -31.5t-5.5 -33.5t-5.5 -33l-2 -52q-1 -11 -6.5 -16t-12.5 -5.5t-13.5 4.5t-7.5 16v12.5t1 14.5q-7 5 -8 16z" />
<glyph unicode="&#xe28;" horiz-adv-x="569" d="M71 24q2 240 11.5 476.5t11.5 476.5q1 11 11 16q13 22 34 38.5t44 22.5h5q23 13 50 16.5t54.5 0t55.5 -13.5t52 -24q13 -9 26 -20q11 9 27 23t31.5 30.5t27 33.5t13.5 32q3 16 17 18q10 7 21.5 2t9.5 -21q-1 -2 -1 -6q8 -5 10 -15.5t-9 -18.5q-1 -1 -1 -2 q-4 -10 -14.5 -19t-15.5 -19q-5 -8 -16 -19.5t-22.5 -23.5t-21.5 -24t-11 -21q-3 -7 -8 -12l11 -150v-39v-53t-0.5 -60t-0.5 -59.5t-0.5 -51.5t-0.5 -36q-2 -128 -4.5 -254.5t-4.5 -254.5q-1 -11 -6.5 -16t-12.5 -5.5t-13.5 4.5t-7.5 16q2 128 4.5 254t4.5 254q0 20 0.5 61 t1 87t0.5 88v64q0 35 2.5 71.5t-8.5 69.5q-8 24 -28 43.5t-46 31.5t-55 16t-55.5 -1t-47.5 -21.5t-31 -44.5q-16 -47 -19 -112.5t-2 -130.5q9 10 22 20t27.5 16.5t29.5 8t28 -5.5l10 -3q19 2 33.5 -4.5t22.5 -30.5q0 -3 -1 -4q7 -6 8.5 -13.5t-2.5 -13.5t-11.5 -8.5 t-16.5 1.5l-4 2q-7 -6 -16.5 -5t-14.5 14q-5 15 -19.5 15.5t-30.5 -8t-30 -22.5t-18 -28l-3 -6q0 -6 -0.5 -12t-1.5 -14q-5 -11 -12 -14v-5q-6 -146 -13.5 -290.5t-9.5 -291.5q-2 -16 -13 -20t-20 3q-14 2 -17 21z" />
<glyph unicode="&#xe29;" horiz-adv-x="587" d="M19.5 1010q0.5 7 0.5 24q7 15 26.5 22.5t42 9t43.5 -2.5t30 -14q15 -14 21.5 -33t9 -40t1 -42t-2.5 -40q-12 -160 -17.5 -319.5t-7.5 -320.5q0 -26 -1.5 -50.5t-1 -48.5t4 -48.5t13.5 -49.5q3 -7 13.5 -12.5t23.5 -9.5t24.5 -6.5t17.5 -3.5q27 -2 49.5 -3.5t43.5 0 t42.5 7.5t47.5 18q-1 111 2 214.5t2 214.5q-6 -2 -15 3.5t-16 7.5q-29 10 -46.5 20.5t-28 23t-16 28t-9.5 34.5q1 6 7 12q3 12 13 15t18 -4q6 0 9 -1q13 -7 22 -22t14 -32h46q-2 123 -3 245t-1 246q0 1 0.5 2t0.5 3v2q-2 8 3 17h1q11 8 21 6t14 -16q11 -43 10.5 -89t1.5 -91 q0 -18 1 -39.5t2 -44.5t1.5 -46t0.5 -43v-143q12 4 25.5 4.5t24.5 2.5h5q2 0 3 0.5t3 0.5q6 -1 11.5 -2t10.5 -3q2 0 3.5 -0.5t3.5 -0.5q11 -4 15 -12.5t0 -16.5q4 -9 0 -18q-8 -12 -25 -17q-2 -2 -9 -4q-17 -3 -34.5 -3t-34.5 -5q-1 0 -2 -1v-452q5 -5 5 -12.5t-5 -14.5 l1 -16q-2 -3 -8 -5.5t-13.5 -4.5t-13.5 -3l-6 -1v7q-27 -11 -55.5 -15.5t-58.5 -6.5q-21 0 -49 -4t-56 -5t-53 5.5t-39 26.5q-7 11 -11 31.5t-6 42.5t-2.5 41t-0.5 27q-1 29 -1 58.5v58.5q0 51 -0.5 92t-0.5 80t0.5 80t2.5 92q-2 1 -2.5 13t0 27t1 28t0.5 17q1 15 5 41 t8 56.5t7 63t2.5 61t-5 51t-15.5 32.5q-5 4 -18.5 3t-29.5 -4t-30 -6.5t-18 -3.5q-7 11 -9.5 15.5t-3.5 8t-0.5 10.5z" />
<glyph unicode="&#xe2a;" horiz-adv-x="565" d="M52.5 956q-1.5 10 1.5 21.5t9 21.5t12 15q10 10 23 18t25 14q36 19 77 24.5t80.5 -2t74 -28t57.5 -54.5q-2 -6 11.5 3t34.5 28.5t46 46.5t47 57q7 10 7.5 16t-1 10.5t-0.5 10t10 14.5q11 8 25 2.5t17 -14.5q5 -2 10 -8t2 -14q-5 -15 -17.5 -33t-29 -37.5t-36 -38.5 t-37.5 -35t-33 -28.5t-24 -18.5q20 -63 20 -129t-3 -132q6 -3 9 -11.5t2.5 -18t-4 -18t-10.5 -11.5v-28q-5 -107 -6.5 -184.5t-0.5 -131.5t3 -89.5t5 -59t6.5 -38.5t6 -29.5t4.5 -32.5t2 -46q0 -12 -6 -16.5t-14.5 -3.5t-18.5 6.5t-19 13.5q-5 1 -6 12t-3 16q-2 4 -2 8v5 q0 143 3 284t6 284q0 8 0.5 11t1.5 13q-2 1 -5.5 -0.5t-4.5 0.5q-13 9 -24 20.5t-29 12.5q-9 1 -13.5 5.5t-6.5 9.5q-14 -2 -27 -5t-23 -5q-7 -1 -15.5 -0.5t-16.5 -0.5q-23 -9 -36 -16q-1 -1 -2 -1q-17 -11 -26.5 -21.5t-21.5 -31.5q-23 -39 -32.5 -102.5t-11.5 -133.5 t-1 -139t0 -120q4 -6 5 -9q2 -20 18.5 -29t31.5 -8q9 -3 13.5 -10.5t4.5 -15.5t-4.5 -15t-13.5 -9h-13q-5 -8 -15 -11q-24 2 -44.5 15t-25.5 38q-1 1 -1 5v2q1 31 0 79.5t-1.5 105t0.5 116.5t6 114.5t15 99t28 69.5q17 24 37.5 33t46.5 23l10 4t10 3q21 9 47 16.5t52 11 t49.5 1.5t41.5 -13q2 62 -5.5 115.5t-30.5 101.5q-13 27 -34 49.5t-47 37t-55 19t-58 -2.5q-8 -2 -22.5 -7t-29.5 -12t-28.5 -16.5t-17.5 -19.5q3 -6 3 -14q0 -3 -1 -6t-3 -7q-11 -14 -29 -6q-10 5 -11.5 15z" />
<glyph unicode="&#xe2b;" horiz-adv-x="644" d="M16 1063q1 9 10 14q9 12 25 8q26 0 48 -8q23 -3 42 -11t25 -21q10 -20 13.5 -42t3.5 -44.5t-2 -45.5t-3 -45q-1 -16 -13 -21v-13q19 4 44.5 10.5t51.5 14.5t51 16t43 16q-13 16 -16 32q-8 35 -2 68t20.5 58t36 39t44.5 12q10 1 22.5 -1t25.5 -6.5t24 -10.5t18 -13 q5 -5 9.5 -14t8 -18.5t5.5 -18.5t2 -15q5 -11 2 -21.5t-10.5 -20.5t-17 -18.5t-17.5 -15.5q-4 -5 -8 -9.5t-9 -9.5q-7 -7 -13.5 -11.5t-13.5 -8.5q19 -8 31 -15t19 -18t10 -27t5 -41q6 -97 8 -184t2 -172t-1.5 -172.5t-1.5 -184.5q0 -3 5.5 -12t12 -18.5t11.5 -17.5t3 -9 l-13 -12q-1 -11 -10.5 -14.5t-21.5 -1t-22.5 9t-11.5 17.5q1 33 0 60t-2.5 52.5t-2.5 52.5t0 60v433q-4 26 -3.5 52.5t-7.5 49.5q-8 20 -23.5 36.5t-49.5 39.5q-20 -12 -43 -21q-10 -4 -19.5 -5.5t-19.5 -3.5q0 -3 -9 -6t-20.5 -5.5t-22 -4t-14.5 -2.5q-8 -1 -19.5 -4.5 t-17.5 -5.5q3 -6 1 -13.5t-11 -12.5q-13 -3 -23 -13.5t-12 -24.5l-6 -10v-5q0 -91 -1 -176t-2.5 -168.5t-2.5 -168.5t-2 -176q-2 -16 -13.5 -20t-19.5 4q-7 3 -12 13q-8 37 -8 74t2.5 74.5t6 75t3.5 76.5v467q-1 1 -1 4q0 6 1 8v181q0 5 -0.5 9.5t-0.5 8.5q-6 12 -16.5 21 t-27.5 14h-1q-3 0 -11 -2q-2 0 -3 -1q-11 -13 -23.5 -6.5t-11.5 20.5q-7 7 -6 16zM383.5 957q3.5 -17 18.5 -28q3 -5 7.5 -9t9.5 -7l26 18q6 4 13 7.5t14 8.5q8 11 20 28t13 28q-8 13 -24.5 24t-35.5 12q-23 -5 -38 -18.5t-21 -30t-2.5 -33.5z" />
<glyph unicode="&#xe2c;" horiz-adv-x="711" d="M23.5 1020q1.5 7 9.5 13l8 4q8 14 30.5 17.5t38.5 3.5l32 16q10 4 16 2t12 -10q5 -11 14 -18t17 -13.5t14.5 -14t6.5 -19.5v-23q4 -19 2.5 -37t-4.5 -34t-6 -28.5t-3 -19.5q3 -74 2 -152t-4 -156.5t-7 -157t-8 -151.5q-1 -27 -1 -53.5t-2 -54.5v-6q5 -17 12.5 -34 t13.5 -34h70l35 34q7 14 10 32.5t7 41.5q5 31 8.5 78t6 102t3.5 114.5t1.5 114.5t0 102.5t-0.5 78.5q3 15 15.5 17.5t20.5 -8.5q7 -5 10 -14l-10 -402v-34q-1 -17 -1 -34v-34q-1 -35 -1 -58.5t-2 -41.5q11 -9 20 -20t20 -21q9 -7 23.5 -16.5t31.5 -16.5t33.5 -8.5t28.5 7.5 q2 3 3.5 7t3.5 9q-5 14 -5.5 31.5t0 36t2 35.5t1.5 30v201.5t1 201.5q-5 106 -9.5 211t-6.5 211q0 10 1 36t0 59q-5 -1 -10 -1.5t-10 -0.5q-11 1 -16 7l-49 9q-6 0 -12 0.5t-12 2.5t-8 2l-42 7q-16 2 -20 13t4 19q-5 13 -5 26v6q1 30 16 64t38.5 57t51 29.5t53.5 -18.5 q31 -7 52.5 -30t22.5 -61v-57q21 5 38.5 10.5t31.5 8.5q6 5 11 7.5t12 3.5q15 2 20.5 -9t-0.5 -21q5 -8 2 -18t-17 -13q-14 -2 -27 -7t-25 -11.5t-23.5 -12.5t-21.5 -9v-506q5 -106 9 -210.5t6 -210.5q7 -24 8.5 -38.5t0 -23.5t-4.5 -14t-5 -11q-4 -12 -5.5 -23t-4.5 -20 q0 -5 -4 -13q-4 -12 -11.5 -25t-18.5 -18q-29 -14 -52 -12.5t-44.5 11t-43 24.5t-46.5 27q-5 4 -6 9l-17 -22q-5 -11 -10.5 -20t-12.5 -15q-4 -3 -7.5 -5.5t-7.5 -4.5t-8.5 -4t-9.5 -3l-8 -4q-7 -2 -16 1q-19 0 -38 2.5t-32 2.5q-8 2 -12 4t-8 10q-2 5 -3.5 9.5t-3.5 9.5 q-7 0 -11 2q-10 7 -13 29.5t-4 50.5l-5 17q-6 17 -7.5 51.5t-0.5 77.5t3.5 89.5t6 88.5t6 74.5t3.5 46.5q2 27 5 63.5t5.5 77.5t4.5 83.5t2 81.5q-3 3 -5 13q-1 14 -1.5 30t-3.5 31q-1 2 -1 3t-1 2q-5 17 -13.5 34t-27.5 19l-48 -11q-8 -14 -21 -10q-9 -2 -15.5 1.5t-9.5 9 t-1.5 12.5zM398 1233q0 -18 10 -25q2 -2 6 -4l43 -9q33 -1 77 8q-4 38 -12 72t-24 54q-12 1 -24.5 -1.5t-23.5 -9.5q-28 -17 -37.5 -36.5t-14.5 -48.5z" />
<glyph unicode="&#xe2d;" horiz-adv-x="565" d="M59 933q2 9 3.5 18t5.5 18q12 28 35 45t52.5 26.5t61 14.5t59.5 9q12 2 37.5 0t53 -8.5t53 -19t37.5 -31.5q5 -8 8 -29t3.5 -48.5t0.5 -57.5t-1 -57t-1.5 -47.5t-0.5 -27.5q2 -88 2 -169.5t-0.5 -161.5t-1.5 -161.5t-1 -170.5q-10 -12 -14.5 -23.5t-18.5 -20.5 q-11 -8 -22 -15t-23 -12q-36 -12 -82 -14t-88.5 7t-75 29.5t-42.5 53.5q-4 13 -4.5 35t0 46.5t1 48t0.5 38.5q0 102 -3.5 202.5t0.5 203.5q1 36 8 53.5t22 25t39 7.5h59q10 -3 15 -9.5t5 -14t-5 -14t-14 -8.5q-15 0 -25.5 -8.5t-25.5 -10.5q-1 0 -4.5 2.5t-6.5 5t-5.5 5 t-1.5 2.5q-10 -41 -7.5 -82t2.5 -82q0 -42 -1 -78.5t-2.5 -72.5t-3 -72.5t-0.5 -78.5v-26t1.5 -42.5t3.5 -41.5t7 -23q3 -3 5 -9q0 -15 12.5 -24.5t32.5 -13.5t45 -3t49.5 6.5t45.5 15t34 22.5q9 9 12 16t4.5 13t2.5 12.5t6 15.5q0 84 3 151.5t6.5 132t6 132t0.5 152.5 q-2 61 -0.5 106.5t0 78.5t-7.5 55t-22.5 35t-45.5 18.5t-75 6.5q-27 0 -54 -2.5t-49.5 -11t-38.5 -25t-23 -43.5q-4 -9 -10.5 -13t-13.5 -3t-12.5 6.5t-6.5 14.5z" />
<glyph unicode="&#xe2e;" horiz-adv-x="552" d="M27 974q0 14 3 24.5t16 18.5q3 1 6 1q3 4 6 7.5t8 8.5q24 25 61.5 41t79.5 22t83.5 1.5t73.5 -20.5q2 -2 4 -2q20 18 39 34t37 27l8 2q0 2 1 3t2 3q5 8 12.5 11t15 1t12 -8t3.5 -15q-14 -38 -38 -62.5t-53 -43.5l3 -27q11 -13 2 -24q2 -24 5.5 -51.5t6.5 -52t5.5 -44 t3.5 -27.5q11 -153 13.5 -303t4.5 -304q0 -17 2.5 -45.5t0.5 -58.5t-10.5 -56t-30.5 -39q-8 -4 -23 -4.5t-33 0.5t-37 3t-34 3q-6 -6 -21 -5q-9 2 -19 3t-18 6q-12 -5 -24 -1l-12 6q-14 -7 -29 5q-14 23 -25 45t-19 58q-4 16 -9.5 31t-9.5 31q-10 43 -12.5 85t-1.5 83t4 81 t4 80q0 5 0.5 29t2 55t4.5 62.5t9 51.5q3 13 8 27t13.5 24.5t21 15.5t29.5 0q3 1 12.5 1t20 -1t19.5 -2.5t11 -3.5q3 -1 5.5 -2t4.5 -2q9 -1 14.5 -5.5t7 -10.5t-1.5 -12t-12 -10q-5 -1 -16.5 -1.5t-24 0t-24 1.5t-15.5 3q-15 -32 -24.5 -85t-13.5 -112.5t-2 -118t10 -102.5 q3 0 4.5 -13t2.5 -29t1.5 -30.5t1.5 -18.5q1 -25 3.5 -47.5t10 -43.5t22.5 -40.5t41 -38.5q17 -6 40.5 -8t45 2t38 14t20.5 27q7 32 7.5 68t-2.5 73t-7 73.5t-5 69.5q-3 65 -2.5 131l1 132t0.5 132t-5 131q-2 11 -1.5 35t-1.5 48q-10 -4 -20.5 -5t-21.5 -2q-3 0 -6.5 1 t-5.5 2q-16 -10 -30 -21.5t-27 -25.5q-16 -7 -28 0q-21 -13 -41.5 -21t-40.5 -8q-24 0 -45.5 4t-38 13t-26.5 24t-10 38zM94 995q8 -6 17.5 -11.5t19.5 -8.5q27 -10 52.5 -8t51.5 13q25 16 49.5 33t47.5 31l3 3q-12 5 -24.5 6.5t-19.5 2.5q-24 2 -53.5 0.5t-57.5 -8 t-51.5 -19.5t-34.5 -34zM358.5 986q3.5 -4 9.5 -6v1q-13 9 -9.5 5z" />
<glyph unicode="&#xe2f;" horiz-adv-x="516" d="M30.5 868.5q4.5 28.5 21 54.5t47.5 46q10 6 24 8.5t26.5 0.5t20.5 -11t5 -25q-6 -15 -18 -15.5t-18 10.5q-2 1 -3.5 3t-3.5 2q-5 -2 -9 -6q-4 -3 -8.5 -6.5t-6.5 -5.5l-13 -14q0 -9 -4 -14q1 -2 -0.5 -9t-3.5 -5q-2 -35 -2 -66.5t12 -55.5q14 -16 31 -28t35 -18l19 -3 l6 -3q36 -7 65.5 0t53 25t41.5 45.5t30 60.5l7 20l2 74l-2 1q-13 14 -5 27t26 8l7 -5q10 -3 14 -16q4 -6 5 -9q5 -15 4 -33t-5 -35q-4 -217 -12.5 -432t-10.5 -432q0 -2 -0.5 -3t-0.5 -3q1 -10 -8 -16.5t-23 -1.5q-13 9 -17 42t-4 70.5t2 69.5t2 39q2 140 10 278t13 278 q-18 -28 -41 -49t-50.5 -33t-61 -13.5t-72.5 9.5q-8 2 -15 5t-15 6q-50 23 -71 68q-16 28 -23 57.5t-2.5 58z" />
<glyph unicode="&#xe30;" horiz-adv-x="347" d="M26 957q3 14 14 17.5t19 -4.5q7 11 19.5 10t17.5 -17q1 -1 1 -5l1 -64q1 -3 8 -4.5t15.5 -3t15 -2.5t7.5 -1q23 -2 39 -2h30.5t30.5 0.5t39 1.5q9 -3 16.5 -7t9.5 -10.5t-3.5 -16t-22.5 -22.5q-7 2 -24 5.5t-25 5.5q-36 9 -70 5.5t-60 -4.5t-42 7.5t-15 43.5 q-5 19 -12 33.5t-9 33.5zM33.5 162q0.5 0 3 6.5t5.5 14.5t5 9q3 16 17 18q8 7 18 4.5t15 -16.5q0 -14 -2 -28.5t6 -25.5q11 -13 32.5 -17.5t46 -4.5t48.5 2.5t39 3.5q10 1 16 -4t7 -12t-3.5 -14t-14.5 -9l-24 -4q0 -3 -4.5 -4t-11.5 -1h-14.5t-12.5 -1q-19 -1 -39.5 2.5 t-40.5 3.5q-29 0 -47 4.5t-27.5 15t-12 28t-2.5 43.5q-3 -14 -2.5 -14z" />
<glyph unicode="&#xe31;" d="M-368 1245.5q-8 22.5 1 59.5q5 9 12.5 11.5t13.5 -0.5q8 3 15.5 -1t10.5 -15q1 -14 4 -28t5 -29v-4q23 -11 61 -11t76 4q2 7 9 13q7 3 22 6.5t31.5 6.5t31.5 5t22 2q15 -5 17 -16q8 -5 9.5 -14t-6.5 -19q-7 -8 -20 -12t-27.5 -5t-28 -1t-22.5 -1q-21 -1 -49.5 -4 t-57.5 -3t-56.5 4.5t-46.5 16.5t-27 34.5z" />
<glyph unicode="&#xe32;" horiz-adv-x="397" d="M22 893q4 48 25.5 92.5t63.5 70.5q30 19 63 17.5t61 -19.5t47.5 -49t23.5 -70q6 -52 6 -100t-2.5 -95.5t-5 -96t-2.5 -100.5q2 -132 1.5 -262.5t-1.5 -262.5q-1 -10 -6 -14.5t-11 -6.5q-7 -11 -20 -8t-15 20q0 120 1 236t2.5 230.5t2.5 230.5t1 236v2q-5 22 -18.5 39.5 t-32 27t-39 9.5t-39.5 -14q-17 -12 -29 -24.5t-20 -26t-12 -30t-6 -37.5q-7 -17 -21.5 -15t-17.5 20z" />
<glyph unicode="&#xe33;" horiz-adv-x="459" d="M-274 1242q-5 26 8 46q11 34 34 47.5t49.5 11.5t53 -16.5t43.5 -36.5t22 -49.5t-10 -54.5q-17 -30 -38.5 -41.5t-45 -10t-45.5 13.5t-39 30q-14 9 -23 24t-9 36zM-234 1261q1 -8 2 -14.5t4 -13.5q7 -12 19 -20t26 -10.5t29 2.5t27 20q4 4 4.5 11.5t-1 15.5t-3.5 16t-3 14 q-10 9 -26 16q-3 -11 -18 -14q-11 -2 -23 -2.5t-23 -5.5q-5 -2 -7.5 -6.5t-6.5 -8.5zM34 1015q5 12 15.5 20t23.5 13t27 7t25 2q14 0 28 -1t28 -3q17 1 33 -0.5t33 -6.5q11 5 27 -2t30 -18q8 2 15.5 -1.5t10.5 -14.5q0 -47 3.5 -92.5t6.5 -92.5l3 -22q9 -88 9.5 -176.5 t1.5 -176.5q2 -112 1.5 -221.5t-0.5 -221.5q-1 -10 -6 -15t-11 -6q-8 -8 -19.5 -4t-13.5 19q1 134 1 266.5t-2 266.5q-2 75 -2.5 152.5t-8.5 153.5q-2 7 -4 13.5t-4 13.5q-5 17 -5.5 37.5t-3.5 40.5q-11 36 -37 50.5t-61 18.5q-29 -2 -57.5 -7t-48.5 -5l-1 -1 q-4 -8 -11 -10.5t-13.5 -0.5t-10.5 8.5t-2 16.5z" />
<glyph unicode="&#xe34;" d="M-508 1198q-1 7 4 15q23 30 63 48.5t89 24t101 -2t99 -28.5q16 -7 33 -21t22 -32q-1 -9 -6 -15t-12 -7.5t-14 2t-11 12.5q-2 7 -14 14.5t-21 10.5q-44 16 -88 21.5t-83 1t-72 -19t-54 -38.5q-9 -5 -16.5 -3.5t-13 6t-6.5 11.5z" />
<glyph unicode="&#xe35;" d="M-566.5 1207q1.5 8 12.5 13q8 8 28 18.5t51 35.5q35 29 83.5 36t100.5 -19q24 -12 54 -21t51 -28q9 -8 18.5 -17.5l18.5 -18.5q1 -1 5 -2t9 -3q1 30 2.5 59.5t1.5 59.5q2 11 8.5 17t14 6t14 -5t9.5 -17q0 -36 -3 -73t-3 -75q-1 -19 -12 -25t-21 1q-10 -7 -22.5 -1.5 t-25 16t-24 22t-19.5 17.5q-20 15 -42.5 24t-46.5 14q-41 9 -66.5 10.5t-42 -3t-27 -13t-22 -18.5t-26 -20t-39.5 -17q-12 -3 -21.5 1t-14.5 11t-3.5 15z" />
<glyph unicode="&#xe36;" d="M-521 1190q10 26 27.5 42t43.5 26q39 15 67.5 21.5t54 4.5t50 -12t56.5 -29q1 21 13.5 42.5t32.5 35t45.5 16t51.5 -15.5q37 -26 42.5 -58.5t-10 -60t-45.5 -43t-63 -7.5q-9 -3 -16 1t-10 12l-32 24q-18 10 -35.5 21.5t-36.5 22.5t-49 12t-60.5 -6.5t-55.5 -22.5t-33 -37 q-4 -10 -11 -13t-14 -1t-11 8.5t-2 16.5zM-181.5 1246q-0.5 -14 11.5 -20q13 -10 9 -24q5 -3 8.5 -5.5t8.5 -4.5q18 -7 35.5 3.5t26.5 27t7 35t-23 27.5q-26 12 -44.5 6t-28.5 -18.5t-10.5 -26.5z" />
<glyph unicode="&#xe37;" d="M-535 1195q8 20 22.5 28.5t32.5 19.5q39 23 71 32t62.5 6t61.5 -16.5t67 -35.5q0 12 -2 27t-4.5 29t-4 27t-1.5 22q2 10 9.5 17.5t16.5 10.5t17.5 0.5t11.5 -12.5q0 -10 -1 -32t-1 -46t1.5 -45t7.5 -27q3 -10 0.5 -18t-8.5 -11.5t-13.5 -3t-14.5 7.5q-10 -3 -20 1 q-26 20 -43 33.5t-35.5 20.5t-42 8t-61.5 -3q-12 -2 -28.5 -19t-31.5 -32q1 -5 -4 -9.5t-12.5 -7.5t-17 -4.5t-16.5 -0.5q-2 2 -8 5.5t-4 1.5q-10 11 -7 26zM-126 1255.5q0 20.5 1 41t1 37.5q1 2 1.5 5t2.5 5q10 14 24 9l6 -2l2 -2l4 -6t3 -8v-2v-2q3 -15 5 -35.5t2.5 -40.5 t1.5 -37t3 -25q-9 -16 -14 -22.5t-9 -7t-8.5 4.5t-11.5 12q-8 15 -11 35t-3 40.5z" />
<glyph unicode="&#xe38;" d="M-226 -105q-2 8 4 14.5t17 7.5q29 -1 48.5 -4.5t32.5 -10.5t19.5 -19.5t9.5 -31.5q5 -20 4.5 -47t-2.5 -62v-84q0 -3 -2 -7q0 -1 -0.5 -1.5t-0.5 -1.5q-9 -12 -20 -9q-2 0 -2.5 0.5t-1.5 0.5q-3 1 -7 5q-2 2 -4 6q0 2 -1 3q0 1 -0.5 2t-0.5 2v139q1 16 1.5 27.5 t-1.5 19.5q-5 9 -13 15q-4 -2 -10 -4h-14t-14 -1h-2q-5 -7 -11.5 -8.5t-12.5 1t-9.5 9t-1.5 15.5l3 6q-5 3 -7 8t-1 10z" />
<glyph unicode="&#xe39;" d="M-297 -173q0 9 4.5 17.5t13.5 11.5q30 5 48 3t27.5 -14t13 -34.5t5.5 -58.5q1 -21 0.5 -27.5t-1.5 -10t-2.5 -10t-1.5 -27.5q1 -6 10.5 -9.5t22 -3t26 6t21.5 18.5q6 9 6.5 29.5t-1 44t-3.5 45t-2 33.5q0 1 0.5 2t0.5 2q6 17 22 14q4 0 5 -1l6 -4l3 -4l1 -1q2 -4 2 -7 q0 -20 2.5 -46t3 -53t-2.5 -52t-13 -43q-11 -20 -34.5 -31t-48 -11t-44.5 12.5t-23 40.5q0 21 0.5 30t0 16t-1 16t-1.5 30q-1 12 0.5 19t-1.5 19q0 2 -3 10.5t-4 9.5q-9 -1 -18.5 -3.5t-20.5 -4.5q-9 1 -13.5 9t-4.5 17z" />
<glyph unicode="&#xe3a;" d="M-189.5 -171.5q-2.5 11.5 0.5 22.5t14 17q4 9 11 16q16 16 39 16q14 5 26.5 2t20.5 -18q4 -8 4.5 -16.5t2.5 -16.5q1 -3 1 -7q0 -18 -10 -32q-4 -6 -7 -9l-5 -3q-1 -1 -8 -6t-17.5 -8.5t-22.5 -4.5t-24 7q-9 7 -16 18t-9.5 22.5zM-94 -200h1h-1z" />
<glyph unicode="&#xe3b;" />
<glyph unicode="&#xe3c;" />
<glyph unicode="&#xe3d;" />
<glyph unicode="&#xe3e;" />
<glyph unicode="&#xe3f;" horiz-adv-x="532" d="M-21 -25q13 40 59 54q0 272 -2.5 541t-3.5 542q-8 2 -13.5 6.5t-6.5 13.5q0 19 -0.5 39t-4.5 38q-3 13 5.5 19.5t19.5 5.5q5 12 18.5 15t24.5 -5q8 0 15 -4h81q11 -3 16 -7l35 4l-4 54q-14 5 -15 19v63q2 8 7.5 12.5t13.5 5.5q7 8 16.5 9.5t17 -2t11.5 -10.5t-1 -16 q-4 -6 -4.5 -15.5t1 -20t3 -20.5t2.5 -16l5 -60q50 2 97.5 -10t93.5 -48q23 -18 32.5 -43.5t10.5 -53.5t-4 -55.5t-11 -49.5q-8 -29 -23 -65t-36.5 -71.5t-48.5 -66t-59 -48.5q-11 -7 -26 -12l9 -2q22 -3 41.5 -11t40.5 -13q26 -7 46 -28.5t30 -41.5q54 -100 73.5 -204 t-2.5 -213q-4 -23 -9.5 -47.5t-20.5 -45.5q-11 -16 -20.5 -33.5t-27.5 -30.5q-18 -12 -39.5 -19t-44.5 -11q-16 -3 -36 -6.5t-44 -7.5q2 -34 2 -68v-69q-1 -11 -8.5 -16t-16.5 -5.5t-16.5 4.5t-9.5 16v66t-1 66q-39 -4 -77 -5t-66 4q-4 -6 -13 -10q-6 -8 -20 -11 q-8 1 -16.5 1h-16.5q-7 -7 -12 -9q-10 -14 -26.5 -11.5t-20.5 19.5zM94 533.5q1 -64.5 1 -128.5q0 -63 2.5 -126t3.5 -127v-87q15 -3 19 -14q9 -2 23 -2.5t31 -0.5t36 0.5t37 1.5q-2 158 -5.5 313.5t-5.5 313.5q-18 0 -37 -1t-35.5 -2t-28.5 -3.5t-16 -5.5q-12 -5 -24 -2 q-2 -65 -1 -129.5zM96 718q4 2 15 4q10 -2 19 -2t20 -1q6 1 11.5 1.5t11.5 0.5l9 2q10 6 23.5 10t28.5 7q-2 73 -2.5 146t-2.5 146q0 43 -1.5 84t-3.5 83q-32 -3 -63 -7t-60 -8q-1 -117 -2 -232.5t-3 -233.5zM276 1201q2 -41 3 -81.5t1 -85.5l3 -281q16 7 23 14 q52 48 87 104.5t53 117.5q5 19 9.5 41t4 44.5t-7.5 43t-23 37.5q-26 27 -66 37t-87 9zM285 676q4 -157 7 -312t5 -312h10q11 1 27 1t32 2l2 1q22 10 38 24.5t28 31.5q32 42 42.5 93t7 104t-18 104t-32.5 95q-8 20 -19 43.5t-26 46t-34.5 42t-43.5 31.5l-8 3q-6 0 -12 2h-5z " />
<glyph unicode="&#xe40;" horiz-adv-x="284" d="M89 394q0 88 1 177q2 209 7 465q1 8 8 13q0 5 0.5 10.5t1.5 10.5q2 10 8.5 14.5t13.5 3.5q16 0 22 -17q0 -42 1.5 -83t2.5 -83l1 -1q-3 -85 -4.5 -184.5t-2 -200t-1 -195.5t-1.5 -170v-46t1.5 -30t5.5 -20.5t12 -17.5l26 -2q8 1 17.5 2.5t18.5 2.5q10 1 17 -5.5 t8.5 -15.5t-2.5 -17.5t-14 -10.5q-22 -8 -33.5 -7t-20.5 3q-17 2 -31 4.5t-25 7.5t-18.5 15.5t-11.5 28.5q-3 15 -5 65t-2.5 122.5t-0.5 160.5z" />
<glyph unicode="&#xe41;" horiz-adv-x="505" d="M95 992.5q-1 21.5 4 39.5v21q2 9 7.5 13.5t12 4.5t12 -4t8.5 -13v-6q6 -7 1 -21q-1 -1 -1 -2l8 -27q1 -10 1.5 -27t0 -34.5t-0.5 -32v-18.5q2 -110 5 -219t4 -221q2 -2 6 -9q1 -69 3.5 -137.5t4.5 -137.5q0 -9 -0.5 -23.5t-1 -31t0 -32t3.5 -27.5q8 3 15 6.5t15 4.5 q12 2 18 -6t5 -16q11 -6 10 -21q-2 -11 -10 -16.5t-19 -6.5t-23 2.5t-23 9.5q-30 -3 -41.5 19t-13 52t2 58.5t3.5 38.5v62t-1 62q-3 164 -6.5 325.5t-5.5 326.5q-3 22 -4 43.5zM304 720q3 79 13 159.5t9 159.5q6 6 11 13.5t9.5 11.5t10 2.5t12.5 -13.5q-5 -137 -5.5 -276 t-3.5 -277q5 -89 10.5 -177t7.5 -178q5 -19 10.5 -37.5t13.5 -37.5q7 -2 10 -6q16 -1 30 -11q7 -2 13.5 -4.5t13.5 -6.5q10 -8 10.5 -19t-12.5 -18q-2 0 -3 -1h-1q-5 -8 -15 -11q-31 1 -51.5 6.5t-33 18.5t-18.5 33.5t-7 51.5q1 6 5 11l-3 15q-2 4 -2 8v2q-12 56 -14.5 113 t-3.5 117q-1 64 0 130q-3 51 -5.5 102.5t-4.5 104.5q-4 4 -6 14z" />
<glyph unicode="&#xe42;" horiz-adv-x="311" d="M-178.5 1608.5q-0.5 4.5 4.5 17.5q14 33 37.5 49t52.5 21.5t60 3.5t60 -3q37 -1 73 -3.5t72 -3.5q11 0 30.5 0.5t39.5 4t37.5 11.5t25.5 22q-2 11 6.5 18t22.5 3l3 -2q11 -8 10 -22q-9 -27 -32 -43t-54 -24t-67 -9.5t-71 0.5t-65.5 5t-51.5 4q-25 2 -55 4.5t-54 -8.5 q-38 -18 -42.5 -41t36.5 -43q29 -14 61.5 -17t63.5 -5q13 -2 26 -2h26q5 10 16 11t20 -10q0 -3 1 -4h2q9 0 17 -1t14 -5q1 0 1.5 0.5t1.5 0.5q15 0 25.5 -8.5t12.5 -23.5q-2 -12 -8 -17l3 -7q-2 -11 -7 -15q0 -15 -1 -41.5t-1.5 -55.5t-1.5 -55t-1 -39v-39q4 -4 5 -9 q-1 -37 -2 -73.5t-3 -72.5q1 -351 0 -701q0 -20 -3.5 -55.5t-5.5 -76t-0.5 -81.5t10.5 -71q2 -3 4 -7v-4q11 -26 29 -34q8 -4 17 -5t17 -3q5 2 9 5t6 7q4 8 11 11t13 1t10.5 -8t3.5 -15q-8 -26 -30 -36q0 -14 -18 -19q-50 1 -78.5 11t-40.5 44q-11 3 -13 19q-8 50 -8 99.5 v99.5q-1 110 0 219t3 219v127q2 28 7 55.5t9 55.5l3 210q1 6 5 11v115q0 10 1 33.5t2 49.5t2 50t0 36q-4 3 -7 10q-2 13 -12 23.5t-23 12.5q-12 5 -14 16q-32 -1 -69.5 0t-73 8.5t-64.5 25.5t-45 51q-6 13 -6.5 17.5z" />
<glyph unicode="&#xe43;" horiz-adv-x="290" d="M-11.5 1466q-0.5 36 0 70t2.5 56q2 11 6.5 19.5t7.5 18.5q4 12 6.5 25t11.5 22q16 16 43.5 24.5t57.5 11t59 -2t48 -14.5q27 -14 43.5 -45t20.5 -59q3 -24 5.5 -36t3.5 -21t1 -21t-1 -37q0 -14 -0.5 -35.5t-1.5 -44.5t-2 -44.5t-2 -36.5q-1 -11 -4.5 -20t-3.5 -20 q-1 -8 -4.5 -13t-8.5 -7q-10 -39 -32 -71t-45 -64q-1 -1 -4.5 -6t-7.5 -11t-7.5 -11.5t-3.5 -7.5q-9 -39 -13 -81.5t-5.5 -85.5t-1.5 -85.5t-1 -82.5q-1 -44 -0.5 -96.5t1.5 -107t1.5 -107t0.5 -96.5q0 -22 -1.5 -51t-3.5 -60t-3 -62t-1 -58q4 -2 7 -11q2 -17 13.5 -27 t22.5 -21q5 0 9 -0.5t9 -0.5q10 13 23.5 7t12.5 -22q-1 -1 -0.5 -1.5t-0.5 -1.5q9 -11 4 -23q-6 -14 -18 -18.5t-26.5 -3.5t-29.5 6.5t-28 11.5q-5 -2 -12 -1t-12 7q2 -2 -2 7.5t-5 17.5q-2 14 -3.5 27t-2.5 27q-1 27 -1.5 66t-0.5 79.5v77.5v61v23q-4 6 -4 12 q0 135 2 268.5t2 268.5q3 14 15 17q2 32 5.5 64t8.5 64q3 20 18 40.5t32.5 43t32.5 46.5t20 52q1 10 10 15q2 36 6.5 71.5t7 70.5t1.5 70t-9 70q-5 23 -13.5 38.5t-31.5 27.5q-14 8 -34.5 11t-41.5 1.5t-40.5 -8t-32.5 -16.5q-9 -7 -15.5 -14t-15.5 -18q-3 -23 -3.5 -58 t0.5 -72.5t2.5 -73t2.5 -58.5q11 3 31.5 4.5t30.5 -0.5q9 6 11.5 18.5t1.5 27t-2 28.5t1 24q8 14 21 11.5t18 -16.5q2 -11 4 -25.5t2.5 -29.5t-2 -28.5t-10.5 -22.5q-12 -12 -19 -17.5t-13.5 -7.5t-16 -2.5t-27.5 -2.5q-7 1 -13 5q-8 -1 -17.5 -4t-18 -1t-15 12t-8.5 35 q-2 22 -3 56t-1.5 70z" />
<glyph unicode="&#xe44;" horiz-adv-x="267" d="M-76.5 1622.5q-2.5 14.5 2.5 25.5q5 9 13 11t14.5 -1t9.5 -10.5t-1 -16.5q6 -19 12 -37q5 -15 10.5 -31t10.5 -25q8 -18 12 -36t12.5 -32.5t24 -22t46.5 -2.5q11 1 17.5 8t10 16.5t6.5 20.5t6 21q6 16 13.5 39t17 46t22 42.5t28.5 28.5q8 5 16 4t15 -1q6 -2 9 -4t7 -7 q13 -21 20 -44.5t8.5 -61.5t-1.5 -97.5t-9 -152.5q-2 -22 -18 -44t-35.5 -44.5t-37.5 -44.5t-23 -44q-8 -33 -10 -63.5t-1.5 -60t2.5 -60t2 -63.5q0 -48 1 -115t2 -143t1.5 -157.5t0 -157.5t-2 -142t-4.5 -113l44 -4q9 -3 13 -8.5t4 -12t-4.5 -12t-13.5 -7.5 q-55 -17 -74.5 4.5t-11.5 70.5q5 25 2 49t-3 48v387q1 49 0 82.5t-2.5 64.5t-2.5 64.5t0 82.5q1 36 0 64.5t-1 55.5t1 55t7 64q1 7 5.5 20.5t10 28.5t11 29t7.5 20q15 40 43 81.5t54 74.5q5 6 6.5 23t1.5 36t-0.5 36t-0.5 24q1 24 3.5 45t1.5 37.5t-8 27t-25 13.5 q-12 -14 -18 -24.5t-9.5 -21.5t-6.5 -23.5t-9 -29.5q-2 -6 -7 -16.5t-11 -22t-12.5 -21.5t-12.5 -16q-12 -11 -30 -13.5t-34 -2.5q-36 2 -54.5 13.5t-28 29.5t-15.5 41.5t-17 49.5q-5 10 -11.5 25t-12.5 30t-8.5 29.5z" />
<glyph unicode="&#xe45;" horiz-adv-x="410" d="M20 1018q-1 10 10 18q17 12 37.5 14t40.5 1l12 6q8 4 18.5 6t19.5 0q22 -4 41 -17q19 -2 34 -9t25.5 -22t18 -38.5t13.5 -59.5t8 -73l4 -74q7 -143 6 -286t-5.5 -286.5t-10.5 -287t-9 -286.5q-1 -11 -6.5 -16t-12.5 -5.5t-13.5 4.5t-7.5 16v7q-4 4 -5 6q0 1 -0.5 1.5 t-0.5 1.5q-2 4 -2 7q0 130 3.5 260t7 260.5t5.5 260.5t-1 260q-1 35 -2 68.5t-4 68.5q-2 25 -3.5 50t-6.5 49q-6 30 -13 46q-7 10 -14.5 19t-16.5 17q-13 6 -34 8q-23 -1 -44.5 -4.5t-34.5 -5.5l-10 -3q-6 -8 -14.5 -8.5t-14.5 4.5q-7 3 -9 7q-8 5 -9 15z" />
<glyph unicode="&#xe46;" horiz-adv-x="635" d="M51 547q0 42 10 83t33 77t66 60q25 14 49.5 12.5t44.5 -13.5t34.5 -31t20.5 -39v-2q3 7 6.5 13.5t8.5 12.5q16 21 39.5 36.5t49.5 21t51.5 -1t46.5 -30.5q30 -19 43 -49t16.5 -65.5t1 -73.5t-4.5 -74q3 -31 -1.5 -55t-14 -45.5t-24.5 -42.5t-34 -45q-10 -12 -19 -24.5 t-20 -24.5q-17 -18 -36.5 -33.5t-27.5 -39.5q-4 -12 -9.5 -28t-10.5 -32.5t-9 -32.5t-6 -29q-9 -63 -10 -131t2 -137t7.5 -137.5t5.5 -132.5q-1 -11 -6.5 -16t-12.5 -5.5t-13.5 4.5t-7.5 16q-1 68 -4.5 136t-5.5 136.5t-1.5 136t6.5 135.5q2 17 -0.5 37.5t2.5 35.5l9 22.5 t5.5 14t5.5 15t9 24.5q5 15 14 23.5t20 15t22.5 13t22.5 18.5q41 45 61.5 96.5t29.5 111.5q3 17 6.5 45.5t4.5 59t-2.5 57t-14.5 40.5q-20 25 -45.5 39.5t-49.5 13.5t-44 -19t-29 -57q-2 -12 -3 -24.5t-3 -24.5q-3 -8 -9 -12v-55t-4 -54q-3 -20 -1.5 -42t1.5 -42v-4 q0 -2 -0.5 -2.5t-0.5 -1.5q-1 -5 -5 -9q-3 -4 -9 -6q-3 -1 -7 -1q-2 0 -6 2q-1 0 -1 0.5t-1 0.5q-2 2 -3 2q-6 5 -7 16v2q0 20 -1.5 40t0.5 40q2 18 1.5 42t1.5 41q5 28 1 58t-15 56q-5 12 -22 17.5t-37 6t-38.5 -2.5t-26.5 -8q-12 -8 -22 -31.5t-17 -55t-11 -66t-5 -63.5 t1 -47.5t7 -17.5q1 -2 11.5 -1.5t23 2t23.5 3.5t14 2q9 -3 13 -8.5t4 -12t-4.5 -12t-13.5 -7.5q-12 -1 -24.5 -3.5t-25 -3.5t-25 0.5t-23.5 9.5q-8 6 -12 17t-5 23t-1 24t-1 20q-3 35 -3 77z" />
<glyph unicode="&#xe47;" d="M-501.5 1288.5q2.5 13.5 9.5 26.5t16 25t17 23q11 14 36.5 20.5t58 9.5t68 4t67 3.5t55.5 9t34 20.5q2 8 9.5 14t9.5 13q3 10 11 14.5t16.5 3.5t14.5 -7t5 -16q-1 -8 -7 -15t-11 -15q-6 -24 -29.5 -36t-56 -18t-70.5 -7t-73 -3t-62.5 -6.5t-38.5 -16.5q-9 -9 -16.5 -19.5 t-11 -22t-1.5 -23t12 -22.5q8 -9 20 -14t24.5 -5.5t23.5 4t17 16.5q5 8 6 16.5t3 16.5q3 9 11 14q8 10 20.5 6.5t23.5 -14.5q5 -26 16 -41.5t24.5 -21t27 -1t24.5 19.5l-3 7q-2 11 -8 20.5t-14 18.5q-9 18 4.5 24t33 4t36 -11t15.5 -19q-7 -43 -28.5 -68.5t-48.5 -33.5 t-55 1.5t-47 35.5q-20 -25 -48 -31.5t-56 0t-50.5 25t-31.5 43.5q-5 15 -2.5 28.5z" />
<glyph unicode="&#xe48;" d="M-134 1583q4 16 19 18q6 12 19 11t18 -17v-130q0 -3 -1 -5.5t-2 -4.5q-5 -8 -13 -10h-3q-8 -8 -19.5 -4t-13.5 20q0 31 -2 61t-2 61z" />
<glyph unicode="&#xe49;" d="M-356 1557l7 19q4 5 7 7.5t8 4.5q20 3 41.5 -3t38.5 -20q8 2 15 -2t9 -15q0 -4 1 -6q6 -8 7 -20t0 -25t-1.5 -23.5t2.5 -14.5q9 -10 10 -10.5t1 2.5t3 7t17 3q25 -1 42 3.5t42 5.5q3 3 1 3t3 1q4 0 9.5 6t10 14.5t7.5 16.5t4 12q3 10 9 10t12 -6.5t10 -17t3 -20.5 q-2 -17 -3 -27.5t-15 -15.5q-2 -5 -2.5 -13t-7.5 -10l-11 1q-5 -9 -15 -10q-22 1 -47.5 3t-52.5 4q-8 0 -2.5 -2t14 -4t14 -3t-3.5 -1q-8 0 -17 0.5t-18 1.5q-29 -2 -56.5 -6t-52.5 -13q-2 -9 -7 -13.5t-11 -5t-12 3.5t-8 13q-12 10 -2 24q-5 8 -1.5 16.5t14.5 13.5 q14 3 28.5 4.5t28.5 2.5q-2 5 1 10q3 6 3.5 16.5t-0.5 21t-3.5 18.5t-3.5 8q-15 0 -17 4.5t-8 3.5q-5 -9 -13.5 -9.5t-15.5 5.5q-8 1 -13.5 7.5t-2.5 18.5z" />
<glyph unicode="&#xe4a;" d="M-342 1460.5q1 18.5 5.5 36t15.5 30.5q7 5 12 6.5t13 -1.5q15 -9 23 -21t17 -26q11 20 18.5 42t24.5 36q8 6 15 7t15 -6q13 -12 18.5 -26.5t7 -30.5t2 -33t3.5 -32q9 11 13.5 25.5t7.5 30t4 30.5t2 26q2 11 4 22.5t3 22.5q2 6 2 8q-5 7 -5.5 13.5t3 12t10 7.5t15.5 0 q11 -7 14 -18t2.5 -24t-4 -26t-4.5 -23q-3 -20 -6 -43.5t-9.5 -46t-19 -41t-33.5 -27.5q-14 -3 -24 7q-8 12 -10 27t-3 31l-2 32t-5 28q-10 -17 -18.5 -38.5t-19.5 -33t-26.5 -6.5t-37.5 40q-1 -23 -1 -44.5v-44.5q-1 -11 -6.5 -16t-12.5 -5.5t-13.5 4.5t-7.5 16 q0 16 -1.5 35t-0.5 37.5z" />
<glyph unicode="&#xe4b;" d="M-238.5 1459q-0.5 6 3 12t11.5 8q6 4 15 6h58v53q2 7 8 13v7q2 9 7.5 13.5t12 4.5t12 -4t8.5 -13v-74h57q9 -3 13 -8.5t4 -12t-4.5 -12t-13.5 -7.5q-14 0 -28 -0.5t-28 -0.5v-77v-2q0 -3 -1 -5.5t-2 -4.5l-4 -5q-3 -3 -11 -5h-4q-2 0 -3 1q-1 0 -2 1q-1 0 -1.5 0.5 t-1.5 0.5l-2 2q-4 4 -5 7q-4 2 -7 6.5t-4 11.5v67q-17 -1 -33.5 -1h-33.5q-9 1 -14.5 6.5t-6 11.5z" />
<glyph unicode="&#xe4c;" d="M-205 1356q1 8 2 16.5t3 16.5q1 17 4 26t7.5 13.5t10 6t11.5 1.5l10 3l18 2q2 2 4.5 3t4.5 3q14 9 24 4q7 6 10 12q6 11 5 27t-1 27l2 6q1 4 5 6l3 3q8 4 13 3q2 0 3 -1h1q1 0 1 -1q1 0 1.5 -0.5t1.5 -0.5l2 -2q1 -1 2 -1.5t2 -2.5l3 -6v-6q1 -22 -1 -47t-21 -41 q-13 -11 -24.5 -14.5t-20.5 -5.5q-8 -4 -15.5 -6.5t-16.5 -1.5q-6 -6 -10 -17q-1 -8 -1 -16v-16q-1 -10 -6.5 -15.5t-12 -6t-12.5 4t-8 13.5q-2 3 -4 11z" />
<glyph unicode="&#xe4d;" d="M-239 1259q-2 10 1 18q4 8 6 18t9 15q9 7 20.5 16.5t24.5 14.5q3 3 13 5q6 1 12.5 0.5t12.5 -2.5q23 -3 43 -12.5t32 -32.5q9 -16 12 -39t-2.5 -44t-20 -36.5t-39.5 -16.5q-18 -1 -38 3t-37.5 14t-30 25t-15.5 36q-1 8 -3 18zM-200.5 1253.5q4.5 -15.5 18 -28t31 -19.5 t30.5 -3q15 4 23 16.5t8.5 27t-6.5 28.5t-21 22q-8 5 -20 7q-8 -3 -18 1h-7h-2q-7 -5 -14.5 -10t-13.5 -12q-13 -14 -8.5 -29.5z" />
<glyph unicode="&#xe4e;" d="M-399.5 1251q-5.5 25 5.5 54q8 20 21 37.5t30 29.5q6 4 14.5 9t17.5 8.5t18 4t15 -5.5h17q-6 5 -13 15q-11 18 -8.5 36t13 33t27 26t32.5 15q12 3 25 0.5t25.5 -8.5t24.5 -13t23 -12q13 -4 26 -6q3 0 7 2q13 4 24 12.5t22 18.5l22 20t23 17q20 15 33 19q9 1 15 -3.5 t8 -10.5t-1 -13t-11 -11q-4 -2 -5 -2q-3 -5 -10 -9l-14 -6q-21 -17 -39.5 -38t-44.5 -32q-12 -6 -26 -4q-13 -1 -24.5 3.5t-22.5 10.5q-6 2 -12 3.5t-12 3.5q-10 3 -22.5 2.5t-23.5 -0.5q-20 0 -27 -17q-2 -8 -2 -14q9 -10 6 -20q10 -11 21 -22t17 -15q7 -6 9.5 -13t0 -13 t-8.5 -9.5t-15 -1.5q-21 4 -40 11.5t-39 5.5q-7 -3 -14 -2l-8 -3q-23 -9 -34 -24.5t-12.5 -33t4.5 -34.5t18.5 -30t29.5 -19.5t36 -2.5q11 8 22 2l8 15q7 5 14.5 5.5t13 -3t7.5 -10t-2 -15.5q-4 -7 -7 -14t-9 -12q-13 -12 -34.5 -14t-45.5 3.5t-47 18t-39.5 31.5t-22 44z " />
<glyph unicode="&#xe4f;" horiz-adv-x="778" d="M105 501q0 21 5 53.5t15 66.5t26.5 64.5t40.5 47.5q18 27 62 41.5t94 17.5t94.5 -3.5t64.5 -20.5q12 -8 26 -15.5t26.5 -15.5t23.5 -17.5t19 -22.5q13 -22 25 -43.5t24 -44.5q17 -32 21 -84.5t-3.5 -109t-26 -106.5t-48.5 -77q-11 -10 -25.5 -15t-28.5 -12q-9 -2 -14 1 q-28 -18 -60.5 -24.5t-66.5 -2.5q-23 2 -46.5 4t-46.5 8q-52 15 -90.5 46t-63.5 73t-37 91t-10 100zM145 501q-1 -44 8.5 -87.5t31 -80t54.5 -64t79 -40.5q20 -5 41 -6.5t41 -3.5q19 -2 38 1.5t38 9t38 12t38 11.5q8 3 14 9q13 12 23 29.5t17.5 36.5t12 38t7.5 35q7 46 5 96 t-17.5 95.5t-45.5 82.5t-79 57q-28 11 -58 14t-60 8q-8 1 -23.5 -0.5t-33.5 -5t-36 -9t-31 -12.5q0 -6 -4.5 -12t-13.5 -8q-6 -2 -10 -4t-5 -2q-18 -12 -31 -41t-21 -61.5t-12.5 -60.5t-4.5 -37zM218.5 499q-2.5 40 11.5 76t49 59q43 21 80 30t71 2.5t66.5 -30.5t65.5 -68 q10 -17 8.5 -36.5t0.5 -38.5q2 -25 -5 -50.5t-20 -46.5q-17 -27 -30.5 -45.5t-29.5 -30.5t-36.5 -19t-51.5 -12q-33 -5 -64 12t-56 48t-41 70.5t-18.5 79.5z" />
<glyph unicode="&#xe50;" horiz-adv-x="627" d="M86 445q1 71 2 143q0 34 1 67l2 66v46q-1 2 -2 5t-1 6q0 8 1 15.5t3 15.5v5q0 5 4 9q6 18 15.5 34t21.5 30q15 28 45.5 48.5t67 31.5t75 11t69.5 -13q17 -6 35 -11.5t30 -17.5q12 -11 24 -21.5t20 -24.5q7 -10 12 -26q13 -4 17 -16v-380v-19.5t1 -19.5q2 -42 1.5 -82.5 t-2.5 -81.5v-50q4 -3 6 -9q-5 -51 -18.5 -90t-39.5 -67l-2 -4q-2 -3 -5 -4.5t-5 -3.5q-34 -31 -86 -43.5t-125 -4.5q-12 1 -31 4.5t-38 9.5t-35 14.5t-23 20.5q-17 29 -24.5 62t-10.5 67.5t-3 68.5t-1 66q-2 72 -1 143zM133 303q1 -53 3 -108t16 -108q7 -25 38.5 -39.5 t70 -19.5t76.5 -2t58 14q26 14 47 38q6 10 12 19t10 20q8 22 12 53.5t6 63.5v239q-2 44 -3.5 78t-3 66.5t-3 66t-2.5 77.5q0 3 -0.5 14.5t-1 25t-0.5 24.5t2 12q-3 13 -7 23t-4 11q-13 23 -37.5 37t-49.5 21q-39 10 -84.5 5t-77.5 -27q-1 -2 -2.5 -3.5t-2.5 -3.5 q-8 -9 -16.5 -16.5t-15.5 -15.5l-2 -6q-8 -15 -9.5 -32t-5.5 -33q-8 -14 -18 -15q-1 -121 -4.5 -240t-0.5 -239z" />
<glyph unicode="&#xe51;" horiz-adv-x="656" d="M59 440.5q1 25.5 3.5 50.5t3.5 44l12 163q2 22 1.5 45t7.5 43q11 27 33.5 58t51 56.5t62 40t67.5 6.5l17 -4q38 2 74.5 -2.5t69.5 -23.5q23 -13 38 -25.5t24.5 -26.5t14.5 -31.5t9 -40.5q7 -29 10.5 -63.5t5.5 -73.5q7 -108 4 -218t-33 -215l-6 -10q-23 -75 -59 -115.5 t-84.5 -59t-109.5 -20.5t-133 0q-10 2 -15 7t-6 11l-8 8l-9 9q-1 1 -1 1.5t-1 1.5l-1 1q-17 8 -13 22.5t21 16.5q8 -2 14 -7t11.5 -10.5t11 -10.5t13.5 -6q5 -1 9 -5q25 -2 51 -3t51.5 -0.5t50 5t47.5 15.5q42 19 69.5 53t45 76.5t26.5 91t12.5 97.5t3.5 95t-1 84v18t-1 18 q-6 5 -7 16q0 28 -0.5 62t-6 67.5t-19 63t-39.5 48.5q-16 12 -28.5 15t-28.5 5q-10 -4 -17 2q-2 0 -2.5 0.5t-1.5 0.5q-11 1 -16 7q-14 2 -27 5.5t-27 5.5q-42 -6 -79.5 -25t-58.5 -51q-25 -38 -33 -86t-11 -93q-5 -59 -6 -120t4 -121q2 -17 4.5 -34.5t9.5 -33.5 q1 -2 2 -2.5t2 -1.5q9 -11 23 -20h21.5t21.5 1h-7q11 3 21 5.5t18 6.5q17 24 20 56v44q-2 19 -4.5 38.5t-4.5 38t-1 36.5t7 35q5 8 11.5 11t12.5 1q6 -1 11.5 -5t7.5 -12q0 -8 1.5 -27.5t3.5 -44.5t2 -53.5t-2 -55.5t-8.5 -49.5t-18.5 -34.5l-14 -12q-21 -24 -54 -30.5 t-62 14.5q-13 5 -23 12t-17 19l-6 11q-5 5 -9.5 12t-10.5 15q-12 18 -16 42t-3 49.5z" />
<glyph unicode="&#xe52;" horiz-adv-x="821" d="M0 1095q-1 10 2 18.5t10 14t16 2.5q9 -5 16 -8t13 -5.5t12.5 -6.5t13.5 -11q11 -11 21.5 -33t19 -49.5t15.5 -57t12 -57t7.5 -49.5t3.5 -33q1 -35 -2 -84t-7 -101t-8 -101t-5 -83v-69t1.5 -80t5 -81t10.5 -71q5 -20 10 -41t19 -37q21 -23 59 -31t81.5 -8t87.5 4.5t76 6.5 q45 2 80 5t71 13q5 30 10.5 56.5t10.5 53t9.5 55t8.5 61.5q8 138 13 269t-2 270q-1 19 -7.5 38.5t-17.5 33t-27 17t-36 -9.5q-34 -21 -46.5 -43.5t-17.5 -59.5l-10 -150q0 -16 1.5 -35t2 -38t-1.5 -37.5t-9 -33.5q-6 -8 -14.5 -7t-16.5 7t-13 14.5t-3 17.5q-2 40 4 87t9 94 t-4 92.5t-35 83.5q-10 7 -23.5 13t-28 8.5t-29.5 1.5t-27 -7q-10 -5 -17 -14.5t-12 -20.5l-1 -1q-1 -103 -3.5 -205t-4.5 -205q0 -40 -3.5 -84.5t3.5 -85.5q1 -6 14.5 -3.5t30 7t31.5 8t20 0.5q15 -11 20.5 -12.5t7 -1.5t0.5 -2t1 -13q1 -10 -9 -18t-27 -12t-37.5 -4.5 t-39 3.5t-32.5 13t-18 23q-6 20 -7 43t0 47t3 47t2 43v90t-0.5 72.5t-0.5 77t1 103.5q1 6 3 26t5 41t7 37t8 13l27 17q18 12 38 15t41 0.5t41 -9.5t37 -16q15 -8 25 -21.5t18 -30.5q9 23 24.5 41.5t38.5 32.5q15 9 32.5 13t34.5 2.5t32.5 -10t27.5 -23.5q1 0 6 -5t11 -12.5 t11 -15.5t6 -15q10 -57 8 -115t-5 -115q-2 -41 -4 -90.5t-5 -99t-6 -96.5t-5 -84q-1 -26 -2 -45t-2 -36.5t-2 -36t-1 -42.5q-1 -26 0 -54t-6 -54q-2 -5 -4.5 -8.5t-7.5 -6.5q-2 0 -4 -1q-1 0 -2 -1q-18 -13 -44.5 -17t-55.5 -3t-56.5 4t-46.5 5q-41 3 -85 -1t-87.5 -5 t-84 6.5t-74.5 34.5q-5 11 -10 25.5t-9.5 29.5t-9 29t-7.5 26q-8 30 -11.5 71.5t-4.5 85t0 84.5t1 69q1 35 2.5 82t2.5 96t1.5 96t-0.5 82q-1 19 -2.5 51.5t-5.5 67t-12.5 67t-22.5 52.5q-10 14 -27.5 20.5t-32.5 15.5q-6 7 -7 17z" />
<glyph unicode="&#xe53;" horiz-adv-x="685" d="M78 440q0 92 4 184v5v28.5t0.5 49.5t2.5 60t5.5 61t9 51.5t13.5 31.5q9 10 21 18.5t23 14.5q66 39 113.5 31.5t73.5 -53.5q6 -4 9 -11q2 -4 2 -7q6 8 10 12q16 17 41.5 32t53.5 22.5t55 4t47 -22.5q11 -11 18.5 -27t12 -33.5t7 -35t4.5 -30.5q6 -58 6 -116.5t-3 -117.5 t-8 -117.5t-8 -116.5q-2 -55 -4 -109.5t-4 -109.5q-1 -31 0.5 -64.5t-5.5 -64.5q-5 -11 -13.5 -14t-15.5 2q-7 -2 -13 1q-3 1 -9 7q-1 2 -2 5t-1 6q0 92 4 184t9.5 184.5t10 184.5t5.5 184q0 26 0.5 59.5t-6.5 62.5q-2 8 -10.5 15t-15.5 12q-24 16 -44 18t-38 -6 t-33.5 -24.5t-28.5 -37.5q0 -2 -0.5 -3t-0.5 -3q-3 -8 -8 -11l2 -9q6 -82 -2.5 -168.5t-16.5 -174.5q1 -35 2.5 -72t-6.5 -70q-7 -17 -21 -16t-17 15q-5 5 -5 13q0 40 2.5 80.5t6.5 82.5q3 66 6.5 130.5t5.5 130.5q0 18 1 39t-1 41q-5 22 -12 39q-8 7 -21.5 12t-29 7 t-29.5 1.5t-22 -3.5q-15 -10 -32 -19.5t-29 -24.5q-7 -9 -11.5 -30.5t-7 -44.5t-3.5 -42.5t-1 -24.5q-7 -111 -9 -223q0 -101 5 -200.5t18 -193.5q1 -4 2.5 -14.5t4.5 -22t8.5 -21t14.5 -11.5q8 -2 20 -2.5t21 1.5q5 16 17.5 26.5t30.5 2.5q8 -5 11 -15q0 -20 -14 -34 q0 -6 -4.5 -11.5t-13.5 -7.5q-11 -1 -21.5 -4.5t-21 -6.5t-21.5 -4t-22 2q-18 5 -30.5 24t-20.5 45t-12.5 56t-6.5 58t-2.5 50.5t-0.5 32.5q-2 93 -2 185z" />
<glyph unicode="&#xe54;" horiz-adv-x="708" d="M82.5 215q-3.5 48 0 93t2.5 74q0 20 -1 55.5t-1 78.5t1.5 89t6 87.5t12 73.5t19.5 48q17 22 32.5 41t32.5 34t36.5 26.5t45.5 20.5q15 5 31 4t32.5 -4.5t33 -8t30.5 -6.5q34 -5 65 -2t63 15q37 15 64.5 44t44.5 67q6 14 5.5 31.5t10.5 28.5q9 6 21.5 4.5t23 -8.5 t15.5 -16t-1 -18q-3 -26 -12 -37t-18 -24q-15 -23 -34.5 -45.5t-43 -42t-49.5 -33t-53 -16.5q-13 -2 -25.5 -4t-25.5 -2q-24 0 -50 6t-51.5 11t-51 4t-48.5 -15q-24 -14 -50.5 -34.5t-40.5 -43.5q-11 -21 -17 -53.5t-8.5 -71.5t-2.5 -81.5t1.5 -82t3 -74t1.5 -57.5 q0 -45 -2.5 -87t2.5 -79.5t22.5 -69t58.5 -56.5q35 -21 63 -27.5t55.5 -6t58 3.5t71.5 0q2 0 4 -0.5t4 -0.5q-21 10 -36.5 20t-26 31.5t-15.5 60.5t-5 107v33.5t1 16t3.5 15.5t6.5 32q5 25 21.5 39t38.5 20.5t46.5 6.5t45.5 -3q9 -3 13 -8.5t4 -12t-4.5 -12t-13.5 -7.5 q-11 2 -29 2t-36 -4t-32 -13t-17 -24q-4 -20 -6.5 -27.5t-3.5 -12t-0.5 -12t2.5 -28.5q3 -36 6 -67t11 -56.5t25 -45t49 -33.5q7 -3 21 -6t30 -5t30.5 -4.5t21.5 -3.5q5 -2 7.5 -4t4.5 -4q11 8 26 -2l5 -5q15 -20 -7 -33q-20 -5 -41.5 -5t-43 2t-43 4.5t-42.5 2.5 q-46 2 -94 2t-92.5 2.5t-82.5 11t-63 28.5q-38 30 -53.5 75t-19 93z" />
<glyph unicode="&#xe55;" horiz-adv-x="773" d="M100 203v541q4 47 31 80.5t67 56t89.5 34.5t98.5 17l-12 43q-9 23 -3 42t15 39q8 15 21.5 26t30 18t34.5 9t33 -2q22 -5 40.5 -24.5t28.5 -44t10 -50.5t-14 -44q44 6 82 31q25 18 41 39t24.5 45t12 50t3.5 54q-8 10 -1 25l3 2q7 5 11.5 6t12.5 -1q23 -7 30.5 -20.5 t6.5 -28t-6.5 -27t-8.5 -18.5q0 -7 -2 -11t-4 -7.5t-4.5 -7.5t-3.5 -11q-6 -36 -30 -71.5t-53 -58.5q-21 -17 -50.5 -21t-56.5 -8q-44 -6 -101.5 -10.5t-115 -15.5t-108 -33t-81.5 -64l-12 -38q1 0 1 -2q-1 -1 -4 -34t-6 -84t-5.5 -113t-3.5 -123t0 -113t6 -82 q15 -60 43.5 -91.5t66 -46t82 -17t90.5 -4.5q10 -1 22 0.5t24 3.5t23.5 3t20.5 -1q-20 11 -46 25t-44 31q-17 17 -25 33.5t-11 34t-2.5 35t2.5 37.5q1 11 1 32.5t1.5 45t5 44.5t11.5 30q1 1 4 3l6 4l8 4q15 8 30.5 9.5t31 0t30.5 -5t29 -4.5q10 -3 14 -10t2.5 -14t-8 -12 t-16.5 -3q-36 6 -58.5 8.5t-39.5 -6.5q-5 -32 -8.5 -60t-3.5 -55t5 -53t17 -54q12 -20 35 -37t50.5 -30.5t55.5 -22t50 -10.5q12 -4 16 -15q10 -1 20 -1h20q9 -3 13 -8.5t4 -12t-4.5 -12t-13.5 -7.5q-38 1 -76.5 3t-76.5 8q-37 6 -72 3.5t-73 -6.5q-24 -4 -53.5 -4t-61 5 t-62.5 17t-57 32q-12 10 -24 31t-21.5 45.5t-16 47.5t-7.5 37zM412.5 1011q-2.5 -16 2.5 -31.5t17 -24.5q20 0 39.5 1t38.5 9q28 13 35 34t-3 38.5t-34.5 25.5t-58.5 -4q-15 -5 -24.5 -18.5t-12 -29.5z" />
</font>
</defs>
</svg>
