<?xml version="1.0" standalone="no"?>
<!DOCTYPE svg PUBLIC "-//W3C//DTD SVG 1.1//EN" "http://www.w3.org/Graphics/SVG/1.1/DTD/svg11.dtd" >
<svg xmlns="http://www.w3.org/2000/svg" xmlns:xlink="http://www.w3.org/1999/xlink" version="1.1">
<metadata></metadata>
<defs>
<font id="layiji_mahaniyom_bao_1.2Rg" horiz-adv-x="0" >
<font-face units-per-em="2048" ascent="1638" descent="-410" />
<missing-glyph horiz-adv-x="576" />
<glyph unicode="&#x3b;&#x3b;For&#x20;Education&#x20;Used&#x20;Only&#x3b;&#x3b;" horiz-adv-x="1264" d="M106 514q0 112 42.5 211t116.5 172.5t172.5 116.5t211.5 43q112 0 211 -43t173 -116.5t117 -172.5t43 -211q0 -113 -43 -211.5t-117 -172.5t-173 -116.5t-211 -42.5q-113 0 -211.5 42.5t-172.5 116.5t-116.5 172.5t-42.5 211.5zM199 514q0 -94 35 -176t96 -143t143 -96 t176 -35q93 0 175.5 35t143.5 96t96.5 143t35.5 176q0 93 -35.5 175t-96.5 143t-143.5 96.5t-175.5 35.5q-94 0 -176 -35.5t-143 -96.5t-96 -143t-35 -175zM416 457q-5 63 15.5 117t56 94t82.5 62.5t95 22.5q46 0 85.5 -17t71.5 -71q8 -10 14 -25t6 -21t-5.5 -11.5t-12.5 -9 t-15 -4.5t-12 2q-12 6 -22.5 20t-23.5 28t-30.5 24.5t-42.5 10.5q-36 0 -70 -20t-60 -51.5t-41 -71t-14 -78.5q1 -36 14.5 -60.5t33.5 -39.5t45 -22t50 -9q47 -4 81 19t57 61q8 12 19.5 14t19.5 2q10 0 18 -10.5t10 -27.5q-31 -60 -84.5 -95t-114.5 -35q-40 0 -79.5 14 t-71 40t-52 63.5t-23.5 84.5z" />
<glyph unicode="&#x3b;&#x3b;Registered&#x3b;&#x3b;" horiz-adv-x="1286" d="M98 533q0 117 44.5 219.5t121 179.5t179 121.5t219.5 44.5t219.5 -44.5t179 -121.5t121 -179.5t44.5 -219.5t-44.5 -219.5t-121 -179t-179 -120.5t-219.5 -44t-219.5 44t-179 120.5t-121 179t-44.5 219.5zM194 533q0 -97 36.5 -182t100 -148.5t149 -100t182.5 -36.5 t182.5 36.5t149 100t100 148.5t36.5 182t-36.5 182.5t-100 149t-149 100.5t-182.5 37t-182.5 -37t-149 -100.5t-100 -149t-36.5 -182.5zM470.5 511.5q1.5 111.5 17.5 220.5q28 45 71.5 63.5t91 17t94 -21.5t80.5 -53t49.5 -76.5t2.5 -91.5q-7 -34 -46 -63.5t-96 -54.5 q19 -15 48 -31.5t77 -54.5q12 -9 17 -20.5t5 -19.5q0 -11 -9 -21.5t-22 -5.5q-29 11 -57.5 36t-63.5 52t-80.5 49.5t-107.5 28.5q4 -50 3 -85.5t9 -64.5q6 -22 -7 -36.5t-28 -14.5q-8 0 -20 11.5t-18 23.5q-12 101 -10.5 212.5zM542 545q26 -14 60 -21.5t68 -7.5 q24 0 46.5 4t42 12.5t33.5 22.5t20 35v-1q10 31 -1 59.5t-34 49.5t-55 33.5t-64 12.5q-35 0 -66 -16t-45 -52q-3 -32 -3.5 -49.5t-0.5 -29.5v-23t-1 -29z" />
<glyph unicode="&#x3b;&#x3b;Trademark&#x3b;&#x3b;" horiz-adv-x="1110" d="M124.5 1028q0.5 8 9.5 14q12 8 38 11t59 3t70.5 -2t72.5 -4.5t64 -5t45 -2.5q9 -3 13 -8.5t4 -12t-4.5 -12t-13.5 -7.5q-39 1 -78 3t-79 4h-4q2 -51 -2 -101.5t-4 -101.5q-1 -11 -6.5 -16t-12.5 -5.5t-13.5 4.5t-7.5 16q0 51 4 102.5t2 102.5v2q-31 3 -62.5 4t-60.5 -6 l-1 -1q-9 -5 -17 -3t-12 8t-3.5 14zM489 786q2 46 10.5 91t17.5 93q8 41 21.5 53.5t30 7t34 -25t33 -43t28 -46t18.5 -35.5q10 31 23 61.5t36 57.5q30 35 52.5 38t38 -14.5t24.5 -49.5t13 -66.5t3 -66.5t-5 -49q-1 -11 -6.5 -16t-12.5 -5.5t-13.5 4.5t-7.5 16q0 8 0.5 26 t0 41t-2 47t-5 43.5t-9 32t-13.5 12.5q-18 -1 -32.5 -21.5t-26.5 -49t-23 -60t-22 -55.5q-16 -9 -30 4q-19 45 -41.5 93.5t-57.5 86.5q-8 -12 -14.5 -39t-11 -58.5t-7 -61t-3.5 -45.5q-1 -11 -6.5 -16t-12.5 -5.5t-13.5 4.5t-7.5 16z" />
<glyph unicode="&#x3b;&#x3b;Multiply&#x3b;&#x3b;" horiz-adv-x="687" d="M73 648q0 11 8 19t21 8q14 0 29 -11q27 -21 59 -47.5t65 -54.5t64 -55.5t56 -50.5q25 24 44 48t38.5 50.5t42.5 54.5t58 60q4 4 13 7t17.5 4t15 -0.5t6.5 -7.5q0 -8 -1 -20.5t-8 -20.5q-23 -30 -44 -53.5l-42 -47t-43.5 -50t-48.5 -60.5q25 -31 54.5 -56.5t59 -50t58 -52 t52.5 -63.5q5 -15 1.5 -24t-11.5 -12.5t-18.5 -2t-19.5 7.5q-36 24 -63.5 48t-53 48t-51 49t-55.5 50q-23 -18 -50 -41.5t-56 -52t-58.5 -60t-55.5 -64.5q-16 -19 -33 -19q-11 0 -19.5 8.5t-8.5 21.5q0 6 2.5 13t6.5 14q25 31 52.5 59t56 55.5t57 56t55.5 60.5 q-62 57 -122.5 108.5t-116.5 96.5q-8 8 -10.5 15t-2.5 15z" />
<glyph unicode="&#x3b;&#x3b;Divide&#x3b;&#x3b;" horiz-adv-x="836" d="M96 413q0 19 26 32q39 5 102 6.5t136 0.5t148 -2.5t139 -2.5q17 0 35 0.5t40 0.5q29 -11 29 -31q0 -9 -8 -17.5t-22 -13.5q-17 0 -32.5 -0.5t-29.5 -0.5l-528 -2q-17 3 -26 11.5t-9 18.5zM128 383h5h-2h-3zM341 194q0 25 6 39.5t16 22t22.5 9t25.5 1.5q10 0 23 -5.5 t25 -14.5t20 -21.5t8 -26.5t-6.5 -27.5t-18 -24t-25.5 -16.5t-29 -6q-12 0 -24 6.5t-21.5 17t-15.5 23t-6 23.5zM341 674q0 11 5 22t13 19.5t18.5 14t22.5 5.5q11 0 25.5 -3t28 -9.5t22.5 -16.5t9 -24q0 -15 -8 -28.5t-20 -24.5t-27.5 -17.5t-30.5 -6.5q-12 0 -22.5 6.5 t-18.5 16.5t-12.5 22t-4.5 24z" />
<glyph unicode="&#x2018;&#x2018;" horiz-adv-x="719" d="M93 979q0 43 12.5 80.5t36 68t58 52t79.5 31.5q18 1 25 -3.5t9 -10.5q2 -5 3.5 -10.5t-1.5 -11t-12 -11.5t-28 -11q-9 -3 -22.5 -7t-27.5 -13t-27 -23.5t-22 -36.5q44 18 72 11.5t44 -25t22 -42.5t6 -42t-8 -36t-21.5 -32t-33 -23t-41.5 -9q-35 0 -59 8.5t-38 22.5 t-20 33t-6 40zM145 963q5 -16 17 -26.5t29.5 -15t34.5 -1.5q26 5 37 21.5t11 33.5q0 29 -18.5 46t-48.5 17q-19 0 -32 -7t-27 -32q-8 -20 -3 -36zM389 979q0 43 12.5 80.5t36 68t58 52t79.5 31.5q18 1 25 -3.5t9 -10.5q2 -5 3.5 -10.5t-1.5 -11t-12 -11.5t-28 -11 q-9 -3 -22.5 -7t-27.5 -13t-27 -23.5t-22 -36.5q44 18 72 11.5t44 -25t22 -42.5t6 -42t-8 -36t-21.5 -32t-33 -23t-41.5 -9q-35 0 -59 8.5t-38 22.5t-20 33t-6 40zM441 963q5 -16 17 -26.5t29.5 -15t34.5 -1.5q26 5 37 21.5t11 33.5q0 29 -18.5 46t-48.5 17q-19 0 -32 -7 t-27 -32q-8 -20 -3 -36z" />
<glyph unicode="&#x2019;&#x2019;" horiz-adv-x="690" d="M98 1111q0 18 8 36t21.5 32t32.5 23t42 9q35 0 58.5 -8.5t38 -22.5t20.5 -33t6 -40q0 -43 -12.5 -80.5t-36 -68t-58 -52t-79.5 -31.5q-18 -1 -25 3.5t-9 10.5q-2 5 -3.5 10.5t1.5 11t12 11.5t28 11q9 3 22.5 7t27.5 13t27 23t22 37q-44 -18 -72 -11.5t-44 25t-22 42.5 t-6 42zM144 1111q0 -29 18.5 -46t48.5 -17q19 0 32 7t27 32q7 20 2.5 35.5t-16.5 26t-29.5 15.5t-34.5 2q-26 -5 -37 -21.5t-11 -33.5zM394 1111q0 18 8 36t21.5 32t32.5 23t42 9q35 0 58.5 -8.5t38 -22.5t20.5 -33t6 -40q0 -43 -12.5 -80.5t-36 -68t-58 -52t-79.5 -31.5 q-18 -1 -25 3.5t-9 10.5q-2 5 -3.5 10.5t1.5 11t12 11.5t28 11q9 3 22.5 7t27.5 13t27 23t22 37q-44 -18 -72 -11.5t-44 25t-22 42.5t-6 42zM440 1111q0 -29 18.5 -46t48.5 -17q19 0 32 7t27 32q7 20 2.5 35.5t-16.5 26t-29.5 15.5t-34.5 2q-26 -5 -37 -21.5t-11 -33.5z" />
<glyph unicode="&#xe24;&#xe32;" horiz-adv-x="1426" d="M65 495.5q0 17.5 12 47.5q20 48 66 91t106.5 75.5t130.5 51t138 18.5t115.5 -34.5t78.5 -94t47.5 -139t22.5 -169t4 -185t-8.5 -186.5t-15.5 -174t-16 -147q-1 -21 -10.5 -31.5t-21.5 -10.5q-10 0 -19 10.5t-13 25.5q0 23 5.5 81.5t12.5 138.5t12.5 174.5t5 189.5 t-10 183.5t-32.5 156.5t-61.5 108.5t-98.5 39.5q-50 -1 -106.5 -16t-108 -41t-92.5 -62.5t-61 -81.5q30 1 56.5 4t45.5 0.5t29 -15t7 -43.5q-5 -53 -16 -103t-17 -90q49 16 86.5 7.5t62.5 -31t37.5 -54t12.5 -59.5q0 -31 -13.5 -57t-35 -44.5t-50 -29t-58.5 -10.5 q-44 0 -75.5 17.5t-41.5 55.5q-10 43 -9 91t7.5 99t16.5 103.5t18 104.5q-18 1 -38 -0.5t-39 -2.5t-34.5 1t-24.5 10.5t-9 26zM236.5 118.5q2.5 -20.5 12 -35t25.5 -22t36 -7.5q10 0 22 4t23.5 12.5t19.5 20t11 26.5q3 19 -1.5 36.5t-15 30t-26.5 20t-35 7.5t-39.5 -9.5 t-27.5 -35.5q-7 -27 -4.5 -47.5zM813.5 601q-3.5 16 9.5 39q16 29 44.5 53.5t61 42.5t65.5 28t59 10q83 -2 135.5 -37.5t82.5 -103t40 -164.5t8.5 -221t-12 -272.5t-21.5 -319.5q-2 -21 -15 -32.5t-29 -11.5q-12 0 -19.5 9.5t-11.5 24.5q1 71 8 154.5t15.5 172.5t15 178.5 t6.5 171.5t-9.5 153.5t-33.5 123.5t-65 80.5t-104 26.5q-37 -2 -75.5 -27t-75.5 -76q-14 -20 -29 -29t-32 1q-15 9 -18.5 25z" />
<glyph unicode="&#xe26;&#xe32;" horiz-adv-x="1423" d="M52 127q-2 33 7 55t23.5 36.5t31 22.5t31.5 13q10 3 26.5 4t34.5 -4.5t35 -17.5t28 -34q0 12 1 35.5t2 51.5t2 58.5t1 57t-1.5 47t-3.5 28.5q-11 6 -32.5 6t-44 0.5t-43 4t-29.5 15.5q-7 8 -15 20.5t-8 22.5q0 31 16 60t42 54t60.5 46.5t70.5 37t72 25.5t66 12 q129 10 200 -42.5t91 -173.5q12 -72 15 -157.5t1.5 -174.5t-6.5 -176t-10 -162t-8 -132.5t0 -86.5q-1 -22 -9.5 -37t-21.5 -15q-6 0 -13 5t-13 13t-11 17t-7 17q0 42 3.5 104.5t8 136.5t9 156t6.5 164t0 159.5t-9 142.5q-11 99 -68.5 138.5t-154.5 30.5q-95 -9 -154.5 -48.5 t-95.5 -104.5q19 -3 40 -4.5t40 -2t33 -2t18 -4.5q11 -7 18 -44t9 -90t0.5 -114t-7.5 -116t-16 -96t-24 -53q-33 -30 -73.5 -38.5t-76 3.5t-60 44.5t-27.5 85.5zM113 127q0 -39 22 -58.5t48.5 -21t48.5 15.5t22 50q0 42 -22 63t-48.5 22t-48.5 -17t-22 -54zM813.5 601 q-3.5 16 9.5 39q16 29 44.5 53.5t61 42.5t65.5 28t59 10q83 -2 135.5 -37.5t82.5 -103t40 -164.5t8.5 -221t-12 -272.5t-21.5 -319.5q-2 -21 -15 -32.5t-29 -11.5q-12 0 -19.5 9.5t-11.5 24.5q1 71 8 154.5t15.5 172.5t15 178.5t6.5 171.5t-9.5 153.5t-33.5 123.5t-65 80.5 t-104 26.5q-37 -2 -75.5 -27t-75.5 -76q-14 -20 -29 -29t-32 1q-15 9 -18.5 25z" />
<glyph unicode="&#xd;" horiz-adv-x="579" />
<glyph unicode=" "  horiz-adv-x="576" />
<glyph unicode="&#x09;" horiz-adv-x="576" />
<glyph unicode="&#xa0;" horiz-adv-x="576" />
<glyph unicode="!" horiz-adv-x="485" d="M171 -237q0 38 24 58t53 18.5t52.5 -25t23.5 -71.5q0 -18 -11.5 -32t-28.5 -22t-37 -8.5t-36.5 7.5t-28 26.5t-11.5 48.5zM175 985q0 4 6 16t17 25t25 23t31 10q11 0 23 -7t23 -16t19.5 -19t12.5 -16q-1 -67 -4 -153t-6.5 -179t-7.5 -188.5t-7.5 -181.5t-6 -157 t-2.5 -115q-3 -4 -10.5 -7.5t-15 -6.5t-14.5 -4.5t-10 -1.5q-4 0 -10 4.5t-12 11t-11 14t-8 12.5q-2 76 -6 183t-9 230.5t-9.5 257.5t-7.5 265z" />
<glyph unicode="&#x22;" horiz-adv-x="553" d="M127 851.5q1 25.5 3 51.5t4.5 47.5t4.5 35t3 13.5l-1 -1q4 21 13.5 32t20.5 11q4 0 10.5 -2t12.5 -6.5t10 -11.5t3 -18q0 -6 -2 -35t-3.5 -65t-1.5 -71t5 -51q-2 -17 -12 -33t-21 -16q-13 0 -24.5 10t-16.5 30v1q-5 11 -7 32t-1 46.5zM382 887q1 60 1 131q0 13 8 18.5 t18 5.5q14 0 26 -5t14 -14q7 -55 10 -120.5t0 -124.5q-1 -21 -11 -31t-21 -10t-20.5 9t-11.5 28v-2q-14 55 -13 115z" />
<glyph unicode="#" horiz-adv-x="1188" d="M0.5 320.5q-1.5 11.5 5.5 23t23 17.5q29 4 61 6.5t63 2.5t59.5 -1.5t51.5 -4.5q21 75 44 149t47 149q-141 -3 -283 -3q-19 2 -28 13.5t-8.5 25t10.5 24t30 11.5q75 0 150.5 1t150.5 2q12 10 19 40t12.5 66.5t12.5 72t21 56.5q7 10 18.5 12t22.5 -2.5t19 -14.5t8 -23 q0 -23 -5 -50t-13 -54.5t-18 -53.5t-19 -47h74.5h100t108 0.5t98.5 2.5q10 45 19.5 95t12.5 96q4 19 16 27.5t25 7t23 -12.5t9 -30q-2 -44 -11.5 -91t-18.5 -89q34 0 61.5 0.5t53.5 0.5t53 -1t62 -3q16 -5 24 -15.5t8 -22t-8 -22t-24 -14.5h-7q-4 0 -5 1q-34 1 -55.5 2.5 t-44 2.5t-53 1t-82.5 -1q-17 -78 -41.5 -155.5t-46.5 -155.5q63 -1 125.5 -2t125.5 -1q16 -5 24 -15.5t7.5 -22.5t-9.5 -22t-25 -13q-65 0 -126.5 -0.5t-126.5 0.5q-14 -42 -20.5 -79t-12 -68t-13.5 -56t-25 -44q-15 -9 -28.5 -10.5t-23.5 4.5t-15 19.5t-1 36.5 q3 17 10.5 39.5t15.5 49t16 55t11 58.5q-100 2 -196 5t-198 -2q-14 -60 -26 -121t-31 -118q-7 -18 -20 -24t-26 -2.5t-21 16t-5 31.5q17 53 27 106t24 106q-51 -5 -107 -2.5t-99 2.5q-17 2 -26 11.5t-10.5 21zM342 368l389 -4q9 28 20.5 66.5t23 80.5t22.5 83t20 76 q-98 -7 -192 -6t-192 -1q-23 -74 -46.5 -147t-44.5 -148z" />
<glyph unicode="$" horiz-adv-x="777" d="M93 200.5q-8 55.5 25 116.5q32 4 41 1t7.5 -14.5t-7.5 -32t-3 -51.5q4 -44 26 -76t51.5 -52.5t63 -30t60.5 -7.5v430q-94 16 -153.5 59.5t-86.5 100.5t-23.5 120t35 119t89.5 96.5t141 52.5v60q0 20 11 29.5t24.5 9t25 -10.5t11.5 -30v-50q43 -2 80 -16.5t66.5 -36.5 t50.5 -49.5t31 -56t8.5 -55t-16.5 -47.5q-45 -27 -45 27q0 34 -14 64t-38 52.5t-56 36t-67 15.5l-10 -446q94 -20 155 -64t90 -98.5t27.5 -114t-32 -110.5t-89 -88.5t-143.5 -47.5v-47q0 -20 -12.5 -30t-27.5 -10t-27.5 10t-12.5 30v42q-63 5 -119.5 32t-92.5 70t-44 98.5z M164 791q-12 -49 2.5 -96.5t60.5 -88t133 -62.5l5 430q-46 -1 -88.5 -27t-71.5 -66.5t-41 -89.5zM421 62q59 0 104 25t71.5 63.5t32 85.5t-14 92.5t-67 83.5t-126.5 58v-408z" />
<glyph unicode="%" horiz-adv-x="926" d="M52 878q-1 36 15 66t42 52t59.5 34.5t66.5 12.5q37 0 72.5 -11t63.5 -33.5t44.5 -56t16.5 -78.5q0 -42 -19.5 -79.5t-51.5 -64t-74 -37t-87 1.5q-35 10 -61.5 25t-45.5 37.5t-29.5 54t-11.5 76.5zM70 51q65 88 115.5 156t93 123.5t80 102t75 92t79 93.5t92.5 106t114 130 t145 166q6 7 16.5 10.5t20 3.5t16.5 -3t7 -9q0 -4 4 -11.5t6.5 -16.5t1 -19t-11.5 -19q-87 -119 -182 -230.5t-192 -225t-192 -233t-182 -253.5q-15 -15 -33 -20.5t-33.5 -1t-26.5 19.5t-13 39zM129 875q0 -24 12.5 -43.5t32.5 -33t44.5 -20.5t47.5 -7q47 0 64 24t17 59 q0 21 -8.5 42t-23 38.5t-34.5 28t-43 10.5q-19 0 -38.5 -7.5t-35 -20.5t-25.5 -31t-10 -39zM502 204q-1 36 15 66t42 52t59.5 34.5t66.5 12.5q37 0 72.5 -11t63.5 -33.5t44.5 -56t16.5 -78.5q0 -42 -19.5 -79.5t-51.5 -64t-74 -37t-87 1.5q-35 10 -61.5 25t-45.5 37.5 t-29.5 54t-11.5 76.5zM579 201q0 -24 12.5 -43.5t32.5 -33t44.5 -20.5t47.5 -7q47 0 64 24t17 59q0 21 -8.5 42t-23 38.5t-34.5 28t-43 10.5q-19 0 -38.5 -7.5t-35 -20.5t-25.5 -31t-10 -39z" />
<glyph unicode="&#x26;" horiz-adv-x="1156" d="M174 276q-4 44 10.5 84.5t39.5 76t57.5 65.5t66.5 53.5t65.5 39t54.5 22.5q-36 24 -66.5 46.5t-52.5 46.5t-34.5 52.5t-12.5 64.5q0 37 20 71t51.5 60t70 42t74.5 16q98 0 155 -53t57 -152q0 -51 -26 -104.5t-72 -96.5q48 -94 104 -181.5t110 -180.5q15 38 22 80t17 84 q16 22 32 22q6 0 12 -5t11 -12.5t8.5 -17.5t3.5 -19q-6 -23 -11 -43t-10.5 -40.5t-12.5 -42.5t-16 -49q18 -26 30 -42t23 -29.5t23 -27t29 -32.5l-1 1q11 -19 11 -29q0 -13 -8 -21t-19 -8q-4 0 -11 1t-14.5 3t-14.5 5t-11 7q-22 28 -38.5 49.5t-40.5 53.5q-54 -59 -124 -93 t-144.5 -44t-146.5 3t-130.5 48t-96.5 92t-44 134zM243 274q0 -62 35 -105.5t89 -68.5t120.5 -31.5t128.5 4.5t113 39.5t75 73.5q-40 72 -103.5 171t-141.5 210q-48 0 -103.5 -26t-102.5 -68t-78.5 -94.5t-31.5 -104.5zM366 834q-2 -20 7 -42.5t26 -44.5t39.5 -41.5 t46 -31.5t46.5 -15.5t42 6.5q33 17 54.5 46.5t29 64.5t0 72t-32.5 69q-16 20 -40 28t-51.5 6.5t-55 -12t-51 -26t-40 -36.5t-20.5 -43z" />
<glyph unicode="'" horiz-adv-x="301" d="M111 995l1 7v-3q-1 -1 -1 -4zM112 999q5 16 14 24.5t19 8.5q22 0 31 -32q2 -63 4.5 -124t2.5 -125q-2 -20 -11.5 -29.5t-20.5 -9.5q-10 0 -19 10t-13 26z" />
<glyph unicode="(" horiz-adv-x="473" d="M58 432q0 76 7.5 159t24 165.5t43.5 161.5t66.5 145.5t92 117.5t121.5 79h1q6 3 11.5 4t10.5 1q14 0 21.5 -7.5t7.5 -18.5q0 -8 -2.5 -14t-7.5 -14q-75 -36 -133 -114t-98 -182.5t-60.5 -227t-20.5 -247.5q0 -115 18 -225.5t57 -202t99.5 -156t144.5 -86.5q19 -16 19 -32 q0 -13 -12 -21.5t-35 -5.5q-70 6 -124.5 46t-95.5 100t-69.5 135.5t-47 153.5t-28 152.5t-11.5 133.5z" />
<glyph unicode=")" horiz-adv-x="518" d="M20 1234q0 13 12 21.5t35 5.5q70 -6 124.5 -46t95.5 -100t69.5 -135.5t47 -153.5t28 -152.5t11.5 -133.5q0 -76 -7.5 -159t-24 -165.5t-43.5 -161.5t-66.5 -145.5t-92.5 -117.5t-121 -79h-1q-6 -3 -11.5 -4t-10.5 -1q-14 0 -21.5 7.5t-7.5 18.5q0 8 2.5 14t7.5 14 q75 36 133 114t98 182.5t60.5 227t20.5 247.5q0 115 -18 225.5t-57 202t-99.5 156t-144.5 86.5q-19 16 -19 32z" />
<glyph unicode="*" horiz-adv-x="739" d="M137.5 986.5q1.5 10.5 10.5 17.5t25 8q24 -9 41.5 -20.5t35 -22.5t37 -21.5t47.5 -17.5l4 135q3 16 12.5 24t20.5 8.5t21.5 -7.5t15.5 -23v-142q28 10 41 17t24 15.5t26.5 20t48.5 31.5q16 1 25.5 -7t11.5 -19.5t-2.5 -24.5t-17.5 -22l-119 -70q23 -19 33 -29.5t17.5 -19 t18.5 -18t35 -26.5q14 -11 16.5 -24.5t-3.5 -24t-19.5 -15t-29.5 3.5q-30 21 -47 34.5t-30 25l-26 23t-34 29.5q-46 -48 -87 -74t-68 -47q-14 -8 -26 -6.5t-20 9.5t-9.5 20t6.5 26q16 16 34 29.5t35.5 26t35 26t33.5 30.5q-46 17 -82.5 35.5t-69.5 42.5q-13 9 -18 21 t-3.5 22.5z" />
<glyph unicode="+" horiz-adv-x="940" d="M154 454q0 8 6.5 17t20.5 15q66 10 135.5 10t143.5 5q-3 34 -3 62.5t-0.5 55.5t-2.5 55.5t-7 62.5q0 18 9 32t21 14q10 0 19 -8.5t14 -25.5q5 -37 6.5 -66.5t2 -58t1.5 -58t4 -65.5q10 2 40.5 2.5t67.5 0t73.5 -1t59.5 -0.5q27 0 47 -4.5t21 -27.5q-7 -25 -28.5 -29 t-50.5 -3h-24h-37h-63.5h-102.5q1 -33 2.5 -71.5t2 -78t1.5 -78t1 -71.5q-2 -21 -11 -30.5t-20 -9.5q-10 0 -19.5 10t-13.5 25q0 34 -1 72.5t-1.5 78.5t-1.5 78.5t-2 71.5q-81 -4 -149.5 -4t-126.5 -8q-17 3 -25.5 12t-8.5 19z" />
<glyph unicode="," horiz-adv-x="404" d="M79 35q0 25 7.5 49.5t22.5 44t37 32t52 12.5q53 0 85.5 -20.5t48.5 -53.5t16 -75t-12 -85q-9 -33 -23.5 -63.5t-34.5 -55.5t-45 -42t-56 -23q-17 3 -26 11t-9 16t8.5 15.5t20.5 12.5q35 7 68.5 41t49.5 94q-33 -20 -69.5 -22.5t-68 10.5t-52 39t-20.5 63zM131 51 q0 -36 21.5 -56.5t56.5 -20.5q37 0 59.5 22t22.5 57q0 20 -8 38t-36 29q-21 9 -41.5 7.5t-37 -11t-27 -26.5t-10.5 -39z" />
<glyph unicode="-" horiz-adv-x="827" d="M109 415q0 11 7 23t21 17q75 10 140.5 14.5t128.5 5.5t126 -0.5t134 -2.5q32 -11 32 -38q0 -13 -9.5 -25t-21.5 -18l-521 -19q-18 4 -27.5 16.5t-9.5 26.5z" />
<glyph unicode="." horiz-adv-x="316" d="M106 60q0 26 19.5 45.5t45.5 19.5q12 0 24 -5t21 -14t14.5 -21t5.5 -25q0 -26 -19 -45.5t-46 -19.5q-26 0 -45.5 19.5t-19.5 45.5z" />
<glyph unicode="/" horiz-adv-x="668" d="M58 -81q142 313 281.5 626.5t291.5 620.5q8 11 17.5 16.5t17.5 5.5q11 0 19 -8.5t8 -21.5q0 -14 -7 -25q-75 -151 -147 -305.5t-141.5 -310.5t-138.5 -311t-139 -308v1q-6 -14 -15.5 -21t-18.5 -7q-15 0 -24 14.5t-2 37.5z" />
<glyph unicode="0" horiz-adv-x="905" d="M79 593.5q2 78.5 17 152t46 138.5t82 112q27 24 58 38.5t64.5 22t67 9.5t65.5 2q70 0 133.5 -24t112 -68.5t78 -106.5t31.5 -137q3 -74 8 -154t3 -160t-17 -155t-54 -138q-22 -31 -56 -55.5t-74.5 -41.5t-85 -26t-87.5 -9q-55 0 -109 12.5t-100 37t-80 61.5t-49 85 t-28.5 113t-20.5 139t-5 152.5zM153.5 549.5q0.5 -67.5 7.5 -130.5t19.5 -117.5t27.5 -93.5q10 -28 37 -55t63 -48t77 -34t80 -13q70 0 133 25.5t120 88.5q20 22 33 59.5t20.5 83t9.5 97.5t1 104.5t-4.5 103t-7.5 92.5q-6 66 -31.5 119t-65.5 90.5t-91.5 58t-110.5 20.5 q-74 0 -127.5 -25.5t-90.5 -69t-58.5 -101.5t-31.5 -122.5t-9.5 -132z" />
<glyph unicode="1" horiz-adv-x="575" d="M112 880q0 11 7 24q22 15 45 35.5t47 41.5t49 40t50 30q14 6 27.5 -8.5t20.5 -34.5q1 -122 3.5 -237.5t4.5 -230t4 -230.5t3 -238h101q31 -10 31 -32t-32 -32l-287 -6q-19 2 -28 12t-9 21t10 20.5t31 10.5l120 7q-1 116 -3.5 228l-5 224t-5 224.5t-3.5 230.5 q-5 -6 -19.5 -22t-33 -34.5t-38.5 -36.5t-36 -29q-14 -9 -27 -9q-11 0 -19 9t-8 22z" />
<glyph unicode="2" horiz-adv-x="794" d="M57 739q7 54 36.5 107t76 95t105.5 67.5t125 25.5q53 0 102 -23t86 -61.5t59 -90t22 -108.5q0 -77 -26.5 -139.5t-68.5 -116.5t-96 -102.5t-108 -98.5t-104.5 -104.5t-86.5 -119.5q67 8 130 11.5t127 4.5t131 -0.5t141 -3.5q30 -9 30 -31t-31 -33q-8 1 -36.5 0.5t-71 -1 t-93.5 -1.5t-104 -2t-102.5 -2t-88.5 -1.5t-63 -1t-25 -0.5q-24 4 -32.5 11.5t-8.5 18t5 23t10 26.5q28 57 76.5 108.5t104 101.5t112.5 100.5t103.5 106t75.5 117t29 133.5q0 39 -12.5 76t-38 65.5t-64 45t-90.5 13.5q-65 -3 -106 -20t-67 -45.5t-41 -66.5t-28 -84 q-5 -20 -12 -32t-14.5 -19t-15 -9.5t-12.5 -2.5q-9 0 -17 6t-14 15.5t-8.5 20.5t-0.5 21z" />
<glyph unicode="3" horiz-adv-x="732" d="M76 818q2 55 26 97.5t63 72t88 45t100 17.5q66 3 121.5 -21.5t94 -65.5t58.5 -94t16.5 -108t-33.5 -106.5t-91 -89.5q48 -20 79.5 -52.5t48.5 -73t22.5 -87.5t2.5 -95v1q-4 -47 -30.5 -91t-68.5 -79t-97 -56t-116 -21q-132 0 -201.5 71.5t-76.5 205.5q5 17 14 24.5 t19 7.5q9 0 17.5 -8.5t13.5 -22.5q2 -50 19.5 -88.5t46.5 -65t67 -40t81 -13.5q63 0 111.5 20.5t80 54.5t44.5 78.5t4.5 92.5t-39 96.5t-85.5 90.5h-1q-16 5 -33.5 3.5t-34.5 -4.5t-33 -3.5t-29 6.5q-10 3 -14.5 14.5t-5 23.5t3 21.5t11.5 9.5q73 -4 124 25t78 74t30 98 t-20.5 98.5t-74 75t-130.5 27.5q-43 -1 -77.5 -14.5t-60.5 -36.5t-43.5 -54t-25.5 -67q-6 -29 -14.5 -39t-16.5 -10q-20 5 -29 17t-4 38z" />
<glyph unicode="4" horiz-adv-x="769" d="M44 472q3 47 27.5 99.5t65.5 110.5t88.5 118t96.5 121.5t90 121.5q5 3 15 6t15 3q23 0 27.5 -15.5t0.5 -35.5q-29 -34 -62.5 -74t-67.5 -83t-67 -88.5t-61.5 -91t-51 -90t-35.5 -85.5q-6 -34 8.5 -56t41 -34.5t62 -18t73 -7t73 -0.5t61.5 1q-2 54 -1 130.5t1 170.5 q5 17 15.5 25.5t22.5 8.5q10 0 20.5 -8.5t16.5 -21.5q2 -72 2 -151t2 -154q48 0 103 0.5t102 1.5q31 -9 31 -31t-32 -33h-201q1 -26 1.5 -60.5t1 -71t1 -72.5t1.5 -64q-2 -20 -13 -28.5t-25 -8.5t-27 10t-17 29v48.5t1 57t1 70v87.5q-49 1 -106.5 1t-111 6.5t-97.5 22.5 t-66 48q-29 38 -26 85z" />
<glyph unicode="5" horiz-adv-x="846" d="M90 227q0 19 8 32.5t26 13.5q6 0 10.5 -0.5t8.5 -3.5t7.5 -10.5t7.5 -21.5q12 -43 31.5 -72.5t48 -48t68 -26.5t92.5 -8q57 0 119.5 19t113.5 55t82 88t25 118q-7 77 -38.5 128.5t-78.5 82.5t-104 43.5t-114 12.5t-109.5 -10t-89.5 -25q-10 -5 -20.5 -11t-17.5 -6 q-19 0 -30.5 30t-16.5 76t-3.5 101t8 103.5t17 84t25.5 43.5q19 10 56 16.5t84 9.5t100.5 3.5t105.5 -0.5t98 -2.5t79 -2.5q13 -4 18 -12t5 -17q0 -12 -10.5 -25.5t-27.5 -18.5q-30 4 -61.5 8t-80 5t-122 -3t-187.5 -16q-20 -20 -29 -52.5t-11 -72t2.5 -85t12.5 -92.5 q59 27 128 38t137 4t130.5 -32.5t109.5 -69.5t74.5 -107.5t25.5 -147.5q-2 -76 -39.5 -137t-96 -103.5t-130.5 -65.5t-144 -23q-45 0 -97.5 11.5t-98.5 37t-76.5 66t-30.5 98.5z" />
<glyph unicode="6" horiz-adv-x="838" d="M78 422q0 79 14 157.5t40 150t63.5 133.5t83.5 107t101 71t116 26q14 0 29 -2.5t32 -5.5l-1 1q12 -3 18 -12t6 -20q0 -14 -8 -23t-15 -7q-39 11 -82 2t-85 -35.5t-80.5 -68.5t-69.5 -97t-51.5 -121t-25.5 -140q43 72 108.5 109t138 42.5t144 -18.5t127 -72t87.5 -119 t26 -159q-5 -78 -36 -138.5t-78.5 -102t-107 -62.5t-122.5 -21q-66 0 -130 27.5t-116 81t-86 133t-40 183.5zM160 403q-2 -63 19 -123.5t59 -107t90.5 -75t115.5 -28.5q53 0 103.5 22t90.5 58t64 81.5t23 92.5q-1 87 -36 149.5t-89 98t-119.5 44t-127.5 -12t-114 -70 t-79 -129.5z" />
<glyph unicode="7" horiz-adv-x="843" d="M69 975q-13 18 5 32t55.5 23.5t90.5 16t111 9.5t116 3.5t106 -1t81.5 -5t42.5 -7.5t28 -10t36 -16.5t27 -26.5t1 -40q-43 -117 -85 -228.5t-85.5 -221t-89 -219t-95.5 -221.5q-3 -7 -8.5 -15.5t-12.5 -16t-15 -13t-16 -5.5q-20 0 -26 16.5t2 33.5q37 85 80 183.5 t85 197.5t80.5 191.5t67 166t44.5 120.5t13 56q-73 19 -142 25.5t-137.5 4.5t-139.5 -9.5t-147 -15.5q13 -15 27.5 -36.5t27 -42.5t21 -38.5t10.5 -23.5q3 -12 -0.5 -25t-11 -21.5t-18.5 -8t-21 15.5z" />
<glyph unicode="8" horiz-adv-x="825" d="M62 297q0 38 13 83.5t40 88.5t67.5 77.5t96.5 51.5q-91 25 -133 77t-42 110q0 60 23 111t62.5 87.5t93 57.5t115.5 21q56 0 111.5 -16t100.5 -47.5t75.5 -77.5t35.5 -106q4 -43 -4.5 -75t-27.5 -58.5t-46.5 -50t-62.5 -48.5q58 -12 100.5 -41t70.5 -66.5t41 -80.5t13 -83 q0 -72 -31 -132.5t-82.5 -103.5t-118 -67t-136.5 -24q-67 0 -134 21t-120.5 61t-87 98t-33.5 132zM140 290q0 -55 24.5 -98t64.5 -73t89 -46t99 -16q56 0 115 16.5t106.5 50t75 84.5t19.5 120q-6 48 -39.5 93t-81.5 78.5t-102.5 51.5t-101.5 13t-94.5 -25.5t-86 -56t-63 -84 t-24.5 -108.5zM178 768q9 -27 32 -52.5t54.5 -45t68 -31t72.5 -11.5q89 0 143 27t78 67.5t19 87.5t-34.5 87.5t-82 67t-123.5 26.5q-41 0 -83.5 -11t-76.5 -36.5t-53.5 -68t-13.5 -107.5z" />
<glyph unicode="9" horiz-adv-x="804" d="M63 713q-2 43 12.5 87t42 83.5t65.5 74t83 58.5q47 25 111.5 27.5t127.5 -13t115 -47t75 -74.5q14 -36 19.5 -99.5t5.5 -141t-3 -163t-7 -165.5t-6 -148t1 -111q-1 -24 -7 -42t-16 -18q-14 0 -28.5 12.5t-19.5 34.5q2 128 9 255.5t7 259.5q-20 -30 -48.5 -56t-65.5 -44.5 t-81 -27.5t-96 -3q-146 16 -218 77t-78 184zM128 719q0 -41 20 -79.5t54.5 -68t80 -46t96.5 -12.5q47 3 89 17t76.5 35.5t61 50.5t41.5 63q8 54 3 103.5t-16 97.5q-70 72 -154 97.5t-176 -13.5q-38 -17 -70.5 -46t-56 -63t-36.5 -70t-13 -66z" />
<glyph unicode=":" horiz-adv-x="300" d="M97 61q0 26 17.5 43.5t43.5 17.5t43.5 -17.5t17.5 -43.5t-17.5 -43.5t-43.5 -17.5t-43.5 17.5t-17.5 43.5zM97 713q0 26 17.5 43.5t43.5 17.5t43.5 -17.5t17.5 -43.5t-17.5 -43.5t-43.5 -17.5t-43.5 17.5t-17.5 43.5z" />
<glyph unicode=";" horiz-adv-x="300" d="M82 -148.5q1 15.5 16 31.5q25 17 39 42t16 53t-7.5 55t-32.5 48q-15 15 -15.5 28t9.5 21t26.5 9t35.5 -7q31 -33 44.5 -78t9.5 -90.5t-24 -85.5t-57 -62q-16 -9 -30.5 -5.5t-22.5 14.5t-7 26.5zM97 713q0 26 17.5 43.5t43.5 17.5t43.5 -17.5t17.5 -43.5t-17.5 -43.5 t-43.5 -17.5t-43.5 17.5t-17.5 43.5z" />
<glyph unicode="&#x3c;" horiz-adv-x="758" d="M119 472q43 75 101.5 137.5t124 113.5t132.5 92t127 75q18 10 31.5 3.5t18.5 -19t0 -27.5t-23 -22q-27 -11 -67 -35t-85 -56.5t-90.5 -70t-84.5 -74.5t-66.5 -70t-36.5 -57q3 -12 20 -39.5t44.5 -63t65 -76.5t83.5 -78.5t99 -68.5t112 -48q20 -5 29 -18.5t9 -28.5 q0 -14 -10.5 -24.5t-39.5 -2.5q-53 15 -109.5 45.5t-110 70t-102 85t-85.5 91t-60.5 88.5t-26.5 78z" />
<glyph unicode="=" horiz-adv-x="1052" d="M99 552q0 11 10 20.5t31 10.5q174 3 347 9.5t348 7.5q30 -9 30 -31t-31 -32q-174 -1 -341 -7t-341 -10q-17 0 -27.5 3t-16 7.5t-7.5 10.5t-2 11zM107 233q0 11 10 20.5t31 10.5q101 1 183.5 2.5t161 3t161.5 2.5t184 2q30 -10 30 -32t-31 -32q-101 -1 -204 -2t-196 -2 t-169 -2.5t-122 -2.5q-21 -1 -30 10t-9 22z" />
<glyph unicode="&#x3e;" horiz-adv-x="720" d="M128 876q0 14 10.5 25t40.5 3q53 -16 110 -46.5t111.5 -70.5t103.5 -86.5t87 -93t61.5 -90.5t26.5 -79q-44 -77 -103 -140t-125 -114.5t-134 -94t-129 -76.5q-19 -10 -32.5 -3.5t-18.5 19.5t0.5 28t23.5 22q27 11 67.5 35.5t86 57.5t92 71.5t85.5 76t67 71t37 57.5 q-4 12 -20.5 40t-44.5 64.5t-66 78t-84.5 80t-100.5 70t-113 48.5q-20 5 -29.5 18.5t-9.5 28.5z" />
<glyph unicode="?" horiz-adv-x="776" d="M77 771q0 54 24.5 103t64.5 86.5t91.5 59.5t105.5 22q73 0 139.5 -25t117 -70.5t80 -109t29.5 -140.5q0 -46 -15.5 -84t-40 -71t-56.5 -62.5t-65 -58.5t-65 -59t-56 -64q-9 -12 -11.5 -45.5t-2 -73.5t2.5 -79t1 -61q-2 -21 -11.5 -30.5t-20.5 -9.5q-10 0 -19 10t-13 26 q0 10 -1.5 38t-2 64t0.5 76t6 75t15 60t28 32q18 19 44.5 39.5t55 43.5t56.5 47.5t51 51t37.5 55.5t16.5 60q2 63 -22.5 117.5t-66 95t-94.5 63.5t-108 23q-17 0 -43.5 -2t-56 -13.5t-57 -36t-46.5 -69.5q62 37 128 31.5t117 -57.5q16 -16 31 -42.5t19 -58t-8 -65t-51 -64.5 q-58 -47 -116.5 -50.5t-106 24t-77 80t-29.5 118.5zM155 716q1 -24 12.5 -42t29.5 -30.5t39 -18.5t42 -6q23 0 44.5 6.5t38.5 19t27.5 30.5t10.5 41q0 22 -11 41t-28.5 32.5t-39.5 21t-45 7.5q-25 0 -47.5 -3.5t-39 -14t-26 -30.5t-7.5 -54zM341.5 -247.5 q-1.5 12.5 4.5 26.5q4 15 18 23.5t31 8.5q19 0 34 -11.5t15 -33.5q0 -18 -15 -37t-37 -19q-13 0 -24 5.5t-18 15t-8.5 22z" />
<glyph unicode="@" horiz-adv-x="1317" d="M80 398q0 117 47.5 219.5t132.5 177.5t202 117t256 38q56 -2 113.5 -11t111 -27t100.5 -46.5t81.5 -70t54.5 -97t20 -127.5q0 -47 -8.5 -96.5t-24.5 -96t-39 -88t-53 -72t-66 -48.5t-77 -18q-31 0 -68 13t-84 42q-46 -39 -99 -63.5t-98 -24.5q-53 0 -100 23t-82 61.5 t-55.5 88.5t-20.5 105q0 46 18.5 94t57.5 86.5t98.5 61.5t141.5 20q37 -2 78.5 -17t81.5 -59q14 28 19.5 38t7.5 14q6 6 10 13.5t8.5 15t10.5 12.5t17 5q22 0 26.5 -16.5t0 -38t-13 -41.5t-11.5 -27q-16 -34 -29 -67.5t-19.5 -67.5t-5 -70t15.5 -74q25 -67 85 -67 q31 0 57.5 17.5t48 46.5t38 67.5t28 80.5t17 84.5t5.5 80.5q0 54 -19 96t-50.5 72.5t-73 51t-87.5 33t-93.5 18t-89.5 5.5q-104 0 -200.5 -32.5t-170.5 -94.5t-118 -151.5t-44 -203.5q0 -113 42 -196t113 -137.5t164 -81t195 -26.5q69 0 127.5 10t111 31t101 52.5t96.5 73.5 q15 9 28.5 6.5t21.5 -11.5t9.5 -22.5t-6.5 -27.5q-43 -47 -102.5 -83.5t-129 -61.5t-146.5 -38.5t-155 -13.5q-120 0 -222.5 40t-177.5 112t-117.5 171t-42.5 218zM405 405q0 -39 13 -75.5t36.5 -65t56 -46t71.5 -17.5q45 4 76.5 15t51.5 23q24 14 39 30q-8 34 -11 63 t-2.5 57.5t5 57.5t11.5 64q-7 13 -10.5 23t-14.5 18.5t-34.5 16t-69.5 13.5q-49 7 -89 -6t-68.5 -38.5t-44.5 -60.5t-16 -72z" />
<glyph unicode="A" horiz-adv-x="883" d="M65 28q9 43 19.5 82t21.5 78t22.5 80.5t21.5 89.5q16 73 33.5 150.5t37.5 151t43.5 139t51 114.5t60 78t71.5 29q25 0 51.5 -34.5t54 -93t55.5 -134.5t55 -159t52 -167t47.5 -158t41.5 -132.5t33 -90.5q3 -24 -5.5 -35.5t-22 -12t-29 8.5t-25.5 25q-15 41 -26 81 t-20.5 76.5t-19 69.5t-22.5 59q-57 0 -111.5 1.5t-108.5 3t-109.5 2.5t-115.5 2q-5 -18 -12.5 -49.5t-16.5 -73.5t-19.5 -92.5t-20.5 -106.5q-4 -20 -18 -28t-29.5 -5t-28 16t-12.5 35zM237 404q55 -1 106 -2.5t101.5 -3t101 -3.5t106.5 -3q-15 60 -32.5 124t-35.5 124.5 t-37 114t-37 94.5t-34.5 65.5t-29.5 25.5q-27 3 -51.5 -30t-46.5 -85t-40.5 -116.5t-32.5 -125t-24 -109t-14 -70.5z" />
<glyph unicode="B" horiz-adv-x="876" d="M101.5 993.5q-0.5 13.5 29.5 26.5q37 8 94 13q38 3 79 4q21 1 42 -1q64 -2 128.5 -15t116 -39t83.5 -68q30 -39 29 -98v-7q-2 -54 -24 -95t-59 -70.5t-86.5 -47.5t-104.5 -24q103 -11 169.5 -43t105 -75.5t52.5 -95.5q13 -49 13 -96v-7q-3 -70 -33 -117.5t-77 -77.5 t-106.5 -46.5t-121 -23.5t-120.5 -7.5t-105 -0.5q-9 -9 -21.5 -12t-23 1t-17.5 14t-5 27q-10 119 -18 232.5t-11 229.5q-2 58 -2 117t2 119q3 121 16 255q-24 15 -24.5 28.5zM179 394q2 -62 6.5 -123t11 -117t14.5 -102q43 -4 89 -5q9 0 19 1q56 1 110.5 10t103.5 26t85 45 q36 29 58 67q21 37 21 85q0 63 -28 107q-27 42 -69.5 69.5t-97.5 42.5q-54 14 -111 20q-39 4 -77 4h-35q-55 -2 -99 -10q-2 -35 -2 -71q0 -24 1 -49zM180 589q30 3 75.5 7t97 13t103.5 23.5t93.5 39t67.5 60t26 85.5q0 42 -34 73.5t-94 50.5t-142 26q-44 4 -92 4 q-41 0 -86 -3q-10 -91 -12.5 -183.5t-2.5 -195.5z" />
<glyph unicode="C" horiz-adv-x="989" d="M53 509q4 98 38 191.5t98 166.5t158 116q90 41 207 41h11q29 -1 66 -12t74.5 -31t72.5 -49t59 -65q-1 21 -1 49.5t5 51t17 32.5t36 -6q5 -35 5 -67q0 -15 -1 -31q-4 -46 -4 -98q-2 -22 -15.5 -32.5t-28.5 -10.5q-10 0 -18 12t-12 26q-27 43 -59.5 72.5t-67.5 48.5 t-71.5 28t-70.5 10h-15q-88 0 -158 -33q-76 -36 -129 -97.5t-83 -141t-36 -163.5q-1 -18 -1 -36q0 -65 16 -129q20 -81 67.5 -146t123.5 -107t181 -46h11q46 1 96 15q56 16 104.5 45.5t86.5 69t55 82.5q7 17 20 25.5t24.5 7.5t18 -12.5t0.5 -35.5q-17 -65 -57.5 -114.5 t-97 -83t-126.5 -51t-146 -17.5q-117 0 -204 45t-143.5 119t-82.5 168q-23 82 -24 167q0 13 1 26z" />
<glyph unicode="D" horiz-adv-x="863" d="M103 398q0 45 -0.5 89.5t0.5 90.5q1 91 3.5 168.5t6.5 134.5t8 78q4 20 22 36t43 27.5t52 18t50 6.5q118 0 214 -35.5t164 -100.5t105.5 -158.5t37.5 -208.5q0 -146 -49 -250.5t-131.5 -171t-192.5 -97.5t-231 -31q-13 0 -26.5 3t-25.5 13.5t-21 30t-13 52.5 q-7 55 -11 135t-5 170zM175 622v-51q0 -63 1 -125q2 -86 7.5 -161t12 -132t13.5 -88q64 1 128.5 15t124.5 41t112 67t90 91t60 114q20 58 19 124v13q-3 116 -48 207.5t-119.5 149.5t-171.5 79q-45 10 -92 10q-54 0 -110 -13q-13 -76 -19.5 -163.5t-7.5 -177.5z" />
<glyph unicode="E" horiz-adv-x="787" d="M124 726.5q0 118.5 4 227.5q0 9 6 18.5t14 17t18.5 13t19.5 5.5q61 2 126.5 3t130.5 1t127 -0.5t116 -0.5q17 -5 25 -16.5t8 -23.5q0 -11 -5 -22.5t-18 -16.5q-67 0 -126 2t-117 2q-12 0 -23 1q-46 0 -94 -2q-60 -2 -128 -9q-1 -37 -4 -84q-2 -46 -3 -98q0 -26 -0.5 -52 t0.5 -53q1 -53 7 -101q46 7 92 9.5t92 2.5h46h48h98q17 -6 26 -10.5t9 -18.5q0 -11 -8.5 -25t-19.5 -20q-7 -1 -31.5 -1t-59 0.5t-75.5 0.5t-81 -1t-74.5 -3t-56.5 -7q0 -14 -0.5 -42t-1 -64.5t-1 -77.5t-1 -80.5t-0.5 -75t1 -59.5q134 10 260 13t242 4q23 -7 23 -32 q0 -15 -10.5 -29.5t-27.5 -20.5q-62 -1 -126 -1t-129 -1.5t-129 -5.5t-124 -12q-17 3 -33.5 13.5t-17.5 29.5q-3 108 -6 226t-5.5 238t-2.5 238.5z" />
<glyph unicode="F" horiz-adv-x="790" d="M130 496q0 230 8 464q0 11 7 20.5t15 17t15 12.5l7 4q137 2 262 4q75 1 149 0h98q17 -5 28.5 -20t11.5 -27q0 -11 -7.5 -20.5t-19.5 -14.5q-12 0 -60 3.5t-113 7.5t-136 6q-24 1 -46 1q-44 0 -83 -3q-16 -1 -27 -3.5t-17.5 -8.5t-9.5 -18t-3 -32q-1 -26 -1 -54v-29 q0 -44 1.5 -90t2.5 -90.5t1 -81.5q94 14 189 17t196 3q17 -6 25 -17.5t8 -25.5q0 -11 -8.5 -21.5t-19.5 -16.5q-7 -1 -32.5 0t-61 2.5t-76.5 2.5q-41 2 -81 2h-26q-25 0 -48 -1q-34 -1 -54 -5q-4 -8 -6 -34q-1 -28 -2 -64q-1 -24 -1 -51q1 -13 1 -27q0 -42 0.5 -81 t0.5 -71.5v-49.5q0 -45 -3 -75t-11 -32h-1q-8 -2 -16.5 -1t-16 5t-13.5 9.5t-7 11.5q-20 236 -20 461q1 5 1 11z" />
<glyph unicode="G" horiz-adv-x="957" d="M70 475v27q0 104 26 192q31 100 86 173t130 114t161 43h6q83 0 172 -42q92 -43 182 -139q5 -23 -3.5 -44.5t-26.5 -21.5q-9 0 -19.5 12t-20.5 23q-83 84 -162 116q-65 27 -124 27q-12 0 -25 -1q-69 -7 -127 -48.5t-99.5 -106.5t-64.5 -146.5t-23 -169.5q0 -95 30 -167.5 t80.5 -121t116.5 -72.5q63 -24 132 -24h6q42 1 85 12.5t82.5 35.5t73.5 60t58 86q-2 34 -3.5 62t-1.5 64h-234q-18 2 -30.5 11.5t-12.5 19.5q0 11 7 25t27 16q47 1 76 1h54h53t73 1q1 -3 7 -2.5t13.5 -3t14.5 -13.5t9 -34q5 -58 5 -121t-1.5 -117.5t-3.5 -94.5t0 -52 q-1 -20 -1.5 -36.5t-11.5 -16.5q-10 0 -22.5 3t-16.5 17l2 161q-32 -45 -66.5 -74t-72 -45t-78 -22t-84.5 -6q-95 0 -173 31t-135 88t-89.5 138.5t-35.5 182.5z" />
<glyph unicode="H" horiz-adv-x="937" d="M130 993q4 14 17.5 26t24.5 12q14 0 19 -8.5t10 -25.5l8 -434q21 9 58.5 14t84.5 7q31 1 66 1h34q54 -1 107.5 -4t102.5 -8t88 -11l6 452q5 15 12.5 21t21.5 6q11 0 20.5 -12t14.5 -27q4 -110 4 -217q-1 -13 -1 -27q0 -120 -2 -239t-4 -238.5t-2 -243.5q-1 -19 -10 -31 t-26 -12q-18 0 -24 8t-10 26q0 17 0.5 49t0.5 72.5v87.5v93.5v90v77.5q-4 5 -40 10.5t-89.5 8.5t-116.5 5q-32 1 -62.5 1t-59.5 -1q-59 -2 -106.5 -7t-68.5 -14q-1 -52 -1.5 -109t-0.5 -115v-115t-1 -109q-1 -19 -8 -25.5t-21 -6.5q-13 0 -24.5 9t-15.5 26z" />
<glyph unicode="I" horiz-adv-x="469" d="M61 971q0 8 6 17t19 14q72 4 144 4t146 -4q15 -5 22 -14t7 -18q0 -11 -8 -15.5t-22 -9.5q-17 -1 -27 -1t-20.5 1t-25.5 1.5t-40 0.5l6 -880q6 0 22.5 0.5t35 1.5t36.5 1.5t27 1.5q28 -8 28 -30q0 -11 -8 -19.5t-22 -13.5l-286 -6q-16 3 -24.5 13t-8.5 21q0 8 5.5 12.5 t16.5 10.5q10 1 25 1.5t30.5 0.5t30.5 -1t26 1l-2 883q-36 0 -62.5 2.5t-44.5 -0.5q-16 5 -24 9t-8 15zM98 3h7h-4h-3z" />
<glyph unicode="J" horiz-adv-x="753" d="M81 335q4 15 15 21t25 6t19 -6t11 -23q-1 -14 -1 -28q0 -32 6 -64q10 -45 36 -80.5t69 -57t105 -21.5q38 0 66 17t47 45t30.5 64t17.5 75t8 77.5t2 71.5q0 130 -12 260t-23 259l-146 -4q-17 3 -26 11t-9 19q0 8 9.5 20.5t20.5 17.5q68 4 143 4h30q91 -1 181 -6 q25 -20 25 -43q0 -11 -6 -19.5t-17 -8.5q-18 0 -30.5 2t-26 4t-32.5 3t-51 0q5 -67 12 -136.5t13.5 -140t11 -140.5t4.5 -138q0 -71 -10 -138t-36 -119t-71.5 -84t-116.5 -33h-6q-72 0 -130 22q-62 23 -97 69q-15 20 -26 40.5t-18.5 46t-11.5 58.5t-4 77z" />
<glyph unicode="K" horiz-adv-x="907" d="M128 30v983q5 17 17.5 24t27.5 7q14 0 20.5 -6t11.5 -21l-5 -521q121 123 234.5 248.5t233.5 245.5q14 11 30 11q9 0 17.5 -3.5t15 -8.5t9.5 -11.5t0 -13.5q-6 -14 -34.5 -45t-68 -71t-84 -84t-83 -83t-64.5 -68t-28 -39q29 -40 70.5 -87t88.5 -97t95.5 -100t91.5 -95 t77 -82.5t52 -62.5q5 -7 2 -14.5t-10 -14t-17 -10.5t-18 -4q-6 0 -16 6.5t-16 13.5q-35 40 -87 97t-112 122.5t-124 136t-122 138.5l-138 -127l6 -357q-2 -41 -32 -41q-14 0 -25 8.5t-16 25.5z" />
<glyph unicode="L" horiz-adv-x="807" d="M117 984q4 14 12.5 25t22.5 11q29 0 43 -30q-1 -80 -1 -156v-76q0 -112 1.5 -222t1.5 -222t-1 -233q49 -1 114 -2.5t136.5 -2t146.5 -0.5t144 2q17 0 27 -4t15 -9.5t6.5 -11.5t1.5 -11t-1.5 -12.5t-5.5 -15t-11.5 -12t-18.5 -2.5h-29t-42 -0.5t-65.5 -0.5h-100.5h-147 t-204 1q-14 -3 -27 6t-17 28z" />
<glyph unicode="M" horiz-adv-x="1213" d="M127 72q13 115 24.5 226.5t25 223t30.5 223.5t41 228q4 20 18.5 30t32 11.5t33 -3.5t21.5 -15q35 -57 66 -134.5t57.5 -163t49.5 -171.5t42 -160t34.5 -130t28.5 -81q16 56 38.5 133t47 160.5t49.5 167.5t45.5 154t34.5 119.5t18 64.5q3 15 19 30.5t35 22t36.5 -0.5 t24.5 -37q20 -85 42 -182t42 -209t36 -241.5t25 -280.5q1 -18 -7.5 -35t-20.5 -17q-23 0 -30.5 15t-11.5 47q-20 173 -41 324t-39 264.5t-31 180.5t-19 73q-6 -8 -19 -51.5t-32 -110.5t-41.5 -151t-47.5 -172t-51 -173.5t-50 -156.5q-7 -21 -20.5 -31t-28.5 -10.5t-29 8 t-23 25.5h1q-36 93 -63 194t-55.5 209t-65.5 222t-92 233q-22 -129 -36 -241t-24.5 -216t-20.5 -206t-23 -212q-3 -23 -12 -38.5t-21 -15.5q-6 0 -14.5 1.5t-15.5 7t-11 17t-2 31.5z" />
<glyph unicode="N" horiz-adv-x="970" d="M118 705v192q0 47 8 71.5t22 30.5t34 -5t43 -34q39 -41 92.5 -110t113 -151.5t120.5 -172.5t117 -172.5t101.5 -151t74.5 -109.5l-38 881q5 17 9 23.5t19 6.5q13 0 25.5 -7.5t17.5 -22.5l24 -919q1 -40 -15.5 -45t-40 10t-48 41t-39.5 48q-28 42 -70 102t-92 130 l-105 147t-109.5 153t-106 147.5t-93.5 131.5q1 -60 2 -133t2 -152t2.5 -161.5t2 -160.5t1 -148.5t0.5 -126.5q-1 -19 -6 -29.5t-18 -10.5q-14 0 -26.5 9.5t-16.5 27.5q-1 74 -2 136.5t-1.5 123t-1.5 122t-1.5 132.5t-0.5 156z" />
<glyph unicode="O" horiz-adv-x="944" d="M54 538q1 42 8 95t23.5 108.5t45 108t73.5 92.5q45 42 109 66q59 23 138 22h13h17q105 0 182 -34q83 -37 137 -101.5t80.5 -152t28.5 -186.5v-16q0 -104 -24 -194q-26 -98 -81.5 -170t-141 -114t-201.5 -43h-6q-101 0 -177 35q-78 36 -129 104t-75 164q-21 83 -21 182 q0 17 1 34zM133 540q0 -83 15 -164t52 -145q38 -63 102 -103q61 -38 153 -38h9q94 1 164 38.5t115.5 100t68.5 145t24 175.5v6q0 85 -27 159q-28 76 -78 132q-51 55 -119 86q-64 29 -138 29h-10q-98 -2 -162 -40t-101.5 -97.5t-52.5 -134t-15 -149.5z" />
<glyph unicode="P" horiz-adv-x="817" d="M101 52v241.5v227v222.5v227q0 22 9 34.5t21 12.5q13 0 23 -1t16.5 -6t9 -15t0.5 -28q50 31 112 45q46 10 92 11q17 0 35 -2q65 -5 127.5 -28t111 -61.5t78 -93t29.5 -122.5q0 -95 -32.5 -165.5t-84.5 -116.5t-116 -68q-61 -21 -122 -21h-5q-46 1 -81.5 10t-63 22.5 t-48 31t-36.5 34.5q-2 -10 -3 -35.5t-1 -60.5t1 -76.5t1.5 -83t1 -80t0.5 -68.5q-2 -20 -13.5 -26t-22.5 -6q-15 0 -22 4t-10 11t-4 14.5t-3 15.5zM166 508q18 -14 43.5 -31.5t55 -33.5t61.5 -27t65 -12h4q50 0 102 22q54 24 97 66q44 42 72 96q30 56 30 119q0 56 -25 102 q-26 47 -70 79t-101 50q-56 16 -115 18q-5 0 -10 1q-53 0 -105 -15q-56 -16 -101 -50q2 -45 2 -92q-1 -12 -1 -24q0 -60 -1 -113t-2 -94.5t-1 -60.5z" />
<glyph unicode="Q" horiz-adv-x="976" d="M58 499q2 123 26.5 210.5t62 147t83 94t90.5 53t85 23.5t66 6h11q100 0 178 -33q83 -35 139 -99.5t85 -154t29 -195.5q0 -62 -8.5 -116t-24.5 -103t-40.5 -95t-55.5 -92q33 -29 61.5 -58.5t44.5 -54.5q6 -20 -2 -33t-22 -13t-30 13q-10 14 -19.5 25t-20.5 22t-25.5 23.5 t-34.5 29.5q-26 -17 -46.5 -34t-48 -30.5t-68.5 -22t-108 -9.5h-7q-68 0 -124 19q-59 19 -104.5 53.5t-78.5 82.5t-54 103.5t-31 116.5q-8 54 -8 109v12zM137 546q-1 -18 -1 -35q0 -68 10 -133q11 -82 48 -146.5t104.5 -106t177.5 -46.5q21 -1 47.5 0t53.5 8t53.5 21.5 t47.5 40.5q-42 34 -78.5 63t-58.5 51q-16 15 -16 32q0 11 8 18.5t19 7.5q21 0 45.5 -16t48 -37.5t45 -43.5t37.5 -35q58 83 85.5 179t27.5 185q0 77 -24 151.5t-69.5 132.5t-112.5 93q-65 34 -148 34h-5q-64 -1 -114 -18.5t-88 -47.5t-64.5 -70.5t-43 -86.5t-25 -96 t-10.5 -99z" />
<glyph unicode="R" horiz-adv-x="848" d="M102 636v36q0 52 2 98q2 62 4.5 110t8 77t13.5 32q50 20 119 31q56 9 116 9q13 -1 27 -1q74 -2 148 -19t132 -52.5t94 -91.5t36 -136q0 -60 -24.5 -108.5t-65.5 -85.5t-94 -63t-110 -40q40 -46 77 -88.5t70.5 -87t65.5 -95t63 -113.5q8 -15 2 -27t-23 -12q-9 0 -18.5 9.5 t-16.5 18.5q-33 46 -63.5 93t-64.5 94.5t-75.5 95.5t-95.5 98l-253 -5q0 -54 2.5 -100t5.5 -89.5t5.5 -89t4.5 -99.5q-2 -17 -15.5 -22.5t-24.5 -5.5q-14 0 -22.5 14t-13.5 33q-3 61 -5.5 132.5t-5 147.5t-4 153t-1.5 149zM168 710.5q0 -57.5 3 -114.5t5 -112q44 -2 102 -4 q13 0 27 -1q45 0 93 4q62 5 121 19.5t106 43.5q47 30 77 76q31 48 30 119q0 55 -28 95q-30 42 -78 68.5t-108 41t-121 18.5q-22 1 -44 1q-37 0 -73 -4q-56 -6 -93 -20q-11 -57 -15 -115t-4 -115.5z" />
<glyph unicode="S" horiz-adv-x="753" d="M61 277q0 29 7 45t31 21q21 -1 29.5 -22.5t8.5 -49.5q0 -48 27.5 -85.5t65.5 -63.5t79.5 -39.5t68.5 -13.5q55 1 104.5 14.5t85.5 38.5q36 24 56 60q18 32 18 72v8q-2 41 -29 77t-67 64.5t-85.5 49t-85.5 31.5q-51 14 -100.5 34.5t-89 51.5t-64.5 76t-26 108v5 q0 61 23 109q24 50 63 85t87.5 54.5t96.5 19.5h7q63 -1 114 -17q54 -18 95 -50t68 -77.5t40 -100.5q3 -14 2 -23t-6 -14t-13 -6.5t-17 -1.5q-12 0 -25 10t-15 23q-6 46 -28.5 81.5t-55.5 59.5q-33 25 -73 37q-37 12 -74 11h-6q-45 -2 -82.5 -18t-65 -44t-42.5 -65 q-14 -35 -14 -75v-5q1 -31 16.5 -61t40.5 -55.5t57.5 -45.5t67.5 -30q33 -10 72.5 -21t79.5 -26.5t77.5 -38t66.5 -55t46.5 -76.5t17.5 -104q0 -59 -28 -103.5t-73.5 -74.5t-104.5 -45t-120 -15t-120 18.5t-105 53.5t-74.5 86.5t-29.5 117.5z" />
<glyph unicode="T" horiz-adv-x="854" d="M55 976q0 8 6.5 16.5t18.5 13.5q101 5 191 5.5t176.5 0.5t174 1t183.5 6q29 -11 29 -31q0 -9 -8.5 -21.5t-22.5 -17.5l-297 -5v-75q0 -75 -1 -147q-2 -110 -3 -220v-73q0 -73 1 -146q2 -110 11 -223q-1 -11 -7 -20t-15 -16.5t-19 -11.5t-19 -4q-5 0 -8 5t-5 12t-3.5 14 t-4.5 11q-7 20 -9 80q-4 61 -4 145v57q0 58 1 124q1 98 3 191.5t3 173t1 127.5l-342 -2q-17 3 -24 11.5t-7 18.5z" />
<glyph unicode="U" horiz-adv-x="999" d="M100 584q0 20 -1 39q0 40 1 79q2 136 10 293q5 14 19 21t30 7q17 0 23 -10.5l14 -24.5q-2 -24 -4.5 -65.5t-4.5 -93.5t-3 -110t-1 -116t1 -112t5 -97q6 -74 35 -134t74 -103t103 -66.5t122 -23.5q60 0 119 21t105 61q46 41 74 99q27 56 27 129v5q-1 69 -2 148.5 t-1.5 161.5t-2 161t-2.5 146q5 17 10.5 23.5t22.5 6.5q16 0 24.5 -6.5t13.5 -20.5q1 -17 3 -55t3.5 -91t2.5 -118t2 -134q1 -46 1 -93q-1 -23 -1 -47q0 -71 -1 -137q-1 -65 -35 -126t-88.5 -108t-125 -75.5t-143.5 -28.5q-60 0 -122 18t-117.5 55.5t-99.5 96t-68 140.5 q-8 28 -13 72.5t-7 98.5t-2 114zM109 990v4v-4zM109 994q0 1 1 1v1z" />
<glyph unicode="V" horiz-adv-x="911" d="M73 964q0 17 6 25.5t24 8.5q14 0 21 -3.5t15 -14.5q30 -81 57.5 -149t54.5 -130t53 -122.5t52.5 -128t53 -145.5t54.5 -175q39 116 82 228t85 219.5t82 211.5t74 205q5 8 18 12t21 4q19 0 25 -13t5 -37l-370 -954q-14 -13 -26 -13q-9 0 -17.5 7t-15.5 17 q-85 244 -173 476t-181 471zM484 0q1 2 1 3t1 3q1 1 2 1.5t2 2.5z" />
<glyph unicode="W" horiz-adv-x="1162" d="M71 1003q8 32 29 32h11.5t14 -3.5t11.5 -12.5t8 -27q9 -110 25 -223t38.5 -224t53 -217t68.5 -202q16 52 34 117.5t37 139t38.5 151t38 154t35 148.5t29.5 134q7 17 19 25.5t26 8.5q19 0 30 -11.5t21 -40.5q21 -66 44 -143t47 -156.5t47.5 -158.5t44.5 -149.5 t39.5 -128.5t32.5 -96q49 100 78 204.5t46.5 212.5t27 220.5t18.5 228.5q-2 16 2 25.5t10.5 14.5t14 6t12.5 1q12 0 21 -11t7 -32q-2 -160 -24 -325q-9 -70 -23.5 -148t-36 -157.5t-50.5 -158.5t-68 -151q0 -2 -8.5 -4t-19 -2t-21 2.5t-14.5 10.5q-39 65 -74.5 166 t-69.5 218.5t-66 241t-64 232.5q-13 -72 -30.5 -157t-38 -173t-42 -174.5t-43 -160t-40.5 -129t-33 -83.5q-16 -29 -31 -29q-10 0 -19.5 6.5t-18 17t-15.5 23.5t-12 25q-32 81 -66 189.5t-62.5 230.5t-48 250.5t-20.5 251.5z" />
<glyph unicode="X" horiz-adv-x="860" d="M75 998q0 29 10 35.5t39 -7.5q40 -57 71.5 -110t63 -106.5t68 -109.5t86.5 -119q39 58 77.5 114.5t77.5 113t81 113t89 115.5q4 6 12 2.5t15 -11t11 -17.5t1 -18q-6 -14 -31 -50t-59 -82.5t-72 -98.5t-71 -98.5t-56 -82.5t-27 -49q83 -115 171 -234.5t170 -245.5 q6 -29 -2 -40.5t-21 -11t-27 10.5t-21 24q-75 111 -153 222.5t-165 225.5l-257 -445q-7 -13 -16.5 -19.5t-18.5 -9.5t-15 -3h-7q-12 7 -17 11.5t-6 9.5t1 13t4 23q37 66 75.5 129t76 122t71 113.5t59.5 104.5q-43 63 -81 118t-73 110t-68 112.5t-66 125.5z" />
<glyph unicode="Y" horiz-adv-x="885" d="M70 987q-2 20 9 30t26 10q9 0 19.5 -5.5t19.5 -16.5q14 -32 35 -74t47 -87t57 -90t65 -83.5t71 -67.5t76 -42q4 2 9.5 4.5t16.5 14t29.5 36t49 72t74.5 122.5t106 186q7 11 14 21t18 10q15 0 27.5 -10.5t14.5 -30.5q-22 -45 -52 -107.5t-69 -130.5t-87.5 -136.5 t-106.5 -123.5q-3 -43 -4.5 -84t-2.5 -93v-56v-65q1 -68 1 -165q-2 -20 -14 -29.5t-26 -9.5t-25 9t-16 26l-2 476q-71 38 -128.5 93.5t-103.5 120t-82 135.5t-66 141z" />
<glyph unicode="Z" horiz-adv-x="879" d="M91.5 23q3.5 13 12 28.5t17.5 28.5q179 222 319 401q60 76 116.5 150t101 134t71 99.5t25.5 47.5q-6 8 -43.5 13t-93.5 7q-45 2 -97 2h-26q-67 0 -131.5 -2.5t-119 -5t-85.5 -4.5q-26 -2 -35 10t-9 24v9.5t4 13.5t15 12.5t34 5.5q10 0 43 1.5t80 3.5t104 2h29q43 0 87 -2 q58 -2 113.5 -6t99.5 -12.5t73 -22.5t34 -34q3 -12 -17.5 -49t-56.5 -90.5t-85 -119.5t-103 -136.5t-110 -141t-106 -133.5t-91 -114t-65 -82q94 3 163.5 4.5t131 2.5t124.5 1t146 1q17 -5 30.5 -15.5t13.5 -23.5q0 -9 -6.5 -18.5t-20.5 -13.5q-151 4 -294 4q-18 -1 -36 -1 q-160 0 -329 -4q-20 -3 -25.5 4.5t-2 20.5z" />
<glyph unicode="[" horiz-adv-x="494" d="M97 1177q8 6 33 10t60 6t75 3t78 0.5t69.5 -2.5t49.5 -4q32 -9 32 -31t-32 -33q-11 0 -49.5 1.5t-85.5 2.5t-93.5 1t-73.5 -2q1 -85 2.5 -184t3 -205t3.5 -215.5t4 -215.5t4 -205t3 -184q9 -4 34.5 -6t63 -3t84.5 0.5t98 5.5q16 -5 23 -15.5t7 -23.5q0 -12 -8 -23.5 t-22 -17.5q-14 -2 -41 -3t-60.5 -1.5t-70 0t-70.5 3t-62 6.5t-43 11z" />
<glyph unicode="\" horiz-adv-x="743" d="M56 1158q0 13 8 21.5t20 8.5q7 0 16.5 -5.5t17.5 -16.5q76 -153 148.5 -309t143.5 -313t141 -314t141 -311l-3 4q7 -23 -2 -37.5t-24 -14.5q-8 0 -18 7t-16 21v-1q-140 309 -277.5 619.5t-288.5 615.5q-7 16 -7 25z" />
<glyph unicode="]" horiz-adv-x="483" d="M-7 1159q0 22 32 31q17 2 49 4t70 2.5t78 -0.5t75 -3t60 -6t33 -10l-16 -1324q-16 -6 -43.5 -10.5t-61.5 -7t-70.5 -3t-70 0t-60.5 1.5t-41 3q-14 6 -22 17.5t-8 23.5q0 13 7 23.5t23 15.5q51 -4 98 -5.5t84.5 -0.5t63 3t34.5 6q1 85 3 184t4 205t4 215.5t3.5 215.5 t3 205t2.5 184q-27 2 -73.5 2t-93.5 -1t-85.5 -2.5t-49.5 -1.5q-32 11 -32 33z" />
<glyph unicode="^" horiz-adv-x="697" d="M104 789q-3 12 8 37.5t30.5 56.5t44.5 65.5t51.5 65.5t51.5 55t44 36q1 0 1.5 0.5t-0.5 0.5q43 19 80 -1.5t70.5 -66.5t67 -109.5t70.5 -128.5q5 -21 -3 -34.5t-22 -13.5t-29 12q-14 25 -29 55.5t-30.5 61.5t-32 60.5t-34.5 53t-38 37.5t-42 15q-12 0 -26.5 -11.5 t-30.5 -31t-32.5 -44t-32.5 -50.5q-37 -61 -76 -138v1q-6 -17 -15 -23.5t-18 -6.5q-14 0 -23.5 13t-4.5 37v-4z" />
<glyph unicode="_" horiz-adv-x="863" d="M-1 -81q0 10 9.5 21t24.5 13q39 -3 96.5 -4.5t127 -1.5h147h156.5t155 -1t143 -4q16 -5 23 -15t7 -20q0 -22 -31 -32l-836 12q-22 13 -22 32z" />
<glyph unicode="`" horiz-adv-x="454" d="M117 1084q0 8 2 15.5t6.5 14t9.5 8.5q17 8 27.5 -0.5t18.5 -19.5q22 -42 49 -84t54.5 -83.5t52.5 -81t43 -75.5q-2 -17 -10.5 -27t-19.5 -10q-8 0 -22.5 13t-21.5 24q-33 42 -62 85t-52.5 82.5t-41.5 72t-30 52.5q-3 6 -3 14z" />
<glyph unicode="a" horiz-adv-x="727" d="M79 641q0 13 10 23q58 43 127.5 69t137.5 26q96 0 155 -30.5t92 -82.5q33 -54 44 -124q11 -67 11 -144q0 -2 -1 -6q0 -80 -6.5 -166t-8.5 -169q0 -10 -5 -16t-12.5 -9t-15 -4t-13.5 -1q-5 0 -11.5 3t-12 10.5t-7.5 20t2 31.5q-20 -20 -47 -33t-57 -21t-61 -11.5t-58 -3.5 q-121 0 -184.5 58t-63.5 171q0 66 24 123t64.5 98.5t93.5 65.5t110 23q69 0 199 -73q0 60 -21.5 104t-54.5 71.5t-73 39.5q-35 11 -68 11h-10q-50 -3 -92 -18t-73.5 -31.5t-50 -30.5t-19.5 -14q-10 -3 -18 -0.5t-14 9t-9 15t-3 16.5zM163 233q0 -53 24.5 -88.5t63 -54.5 t86.5 -23q13 -1 26 -1q33 0 67 8q46 10 84 34t58 60q4 39 6 69t3 54.5t0 44.5t-4 39q-32 45 -75 69q-42 23 -88 26h-16q-38 0 -75 -12q-45 -15 -80 -46t-57.5 -76.5t-22.5 -102.5z" />
<glyph unicode="b" horiz-adv-x="808" d="M121 1005q4 15 10.5 28.5t16.5 13.5q9 0 21.5 -12t17.5 -26q1 -99 2 -200.5t3 -200.5q58 66 122 94q59 26 117 26h11q64 -2 122.5 -32t103 -80.5t71.5 -117.5t28 -144q0 -77 -25.5 -141t-69.5 -111.5t-102 -77.5q-57 -28 -121 -36q-20 -2 -41 -3q-44 0 -88 11 q-66 16 -126 59q-3 -23 -2.5 -38t-1 -24t-8.5 -13t-26 -4q-15 0 -24 6.5t-9 17.5zM189 136q49 -43 107 -64q56 -21 113 -21l3 1q58 0 110 20t92.5 57.5t65 92t24.5 123.5q0 77 -27.5 138.5t-72 102.5t-100.5 59q-35 11 -70 11q-21 0 -43 -4q-57 -11 -109 -52.5t-89 -119.5z " />
<glyph unicode="c" horiz-adv-x="747" d="M71 348q0 76 22 146.5t65.5 124t106.5 84.5q57 28 132 28h14q45 -2 80 -11.5t65 -25.5t57 -38.5t56 -49.5q7 -7 13 -17.5t7.5 -20.5t-4.5 -17.5t-22 -7.5q-8 0 -17 3.5t-19 13.5q-51 48 -105 76t-114 28q-77 0 -126.5 -29.5t-79 -75.5t-41 -101t-12.5 -107v-7 q-1 -49 13 -96q14 -50 43 -91t72 -68t100 -33q27 -4 61 -4q1 0 3 1q31 0 65 10q34 11 67.5 38t61.5 79q4 13 17.5 20.5t24.5 7.5q16 0 22 -6t5 -30q-42 -88 -114 -135q-69 -45 -178 -45h-9q-74 1 -135.5 29t-105 76t-67.5 112.5t-24 138.5z" />
<glyph unicode="d" horiz-adv-x="837" d="M68 369q0 70 31 134t82 113.5t115.5 79t131.5 30.5h4q65 0 127 -32q64 -32 113 -107q2 44 2 86v21v50v48q0 47 2.5 90t10.5 81q5 17 15.5 24t22.5 7q13 0 23.5 -13t10.5 -32q-9 -35 -12.5 -99t-3.5 -145.5t3 -174t6 -184.5q2 -92 4 -176q1 -56 1 -104q0 -24 1 -46 q-2 -20 -12 -30t-21 -10q-9 0 -16.5 4.5t-13 17.5t-8.5 36t-3 60q-58 -47 -126 -67q-57 -17 -114 -17q-10 0 -22 1q-68 4 -132.5 30.5t-113.5 72t-78.5 109.5t-29.5 142zM147 356q0 -66 22.5 -118t62 -89t93.5 -56.5t118 -19.5q88 0 146 29t95 79q4 36 4 74t-1.5 77t-3.5 78 t-2 75q-43 78 -99.5 117.5t-115.5 48.5q-19 3 -37 3q-39 0 -79 -14q-58 -20 -103 -59.5t-72.5 -97.5t-27.5 -127z" />
<glyph unicode="e" horiz-adv-x="790" d="M78 392q1 74 28.5 146t83.5 132q48 51 114 73q55 19 112 19q10 0 22 -1q68 -4 131.5 -33t108.5 -79.5t63 -120.5q8 -32 8 -66q0 -42 -12 -90q-19 -2 -61 -2t-96.5 1.5t-117.5 3t-122.5 2.5t-111.5 1t-86 -1q-1 -12 -1 -24q1 -39 15 -79q20 -52 62 -96t106 -72t148 -29h4 q49 -1 96 23q49 24 93 67q18 28 37 28q11 0 19 -7.5t8 -21.5q0 -10 -3 -22q-17 -33 -43 -57.5t-58 -41t-69 -25t-76 -8.5h-6q-96 0 -170 30q-76 32 -126.5 85t-75.5 122q-24 66 -24 137v6zM140 436h77h96t104.5 0.5t103.5 0.5t92.5 -0.5t71.5 -1.5q1 14 1 27q0 40 -14 75 q-18 46 -53 80t-82 54t-97 24q-12 1 -25 1q-37 0 -75 -10q-50 -12 -90 -44q-22 -18 -39 -41.5t-30 -50t-23 -55.5t-18 -59z" />
<glyph unicode="f" horiz-adv-x="451" d="M73 729q0 9 7 18t17 14q14 2 33.5 3t37.5 2q3 29 3 64t1.5 71t7.5 69.5t21.5 60.5t42.5 44t72 19h12q45 0 75 -14q34 -15 55 -39t32.5 -51.5t19.5 -49.5q9 -24 0.5 -34t-22.5 -13q-3 -1 -8.5 -2t-11.5 0.5t-12.5 8t-10.5 21.5q-14 46 -38 76t-73 30q-41 0 -62.5 -24.5 t-30.5 -62t-9 -83t2 -87.5q9 1 27.5 1.5t40.5 0.5t44.5 -0.5t40.5 -0.5q30 -11 30 -32q0 -22 -31 -32h-150l10 -663q-1 -20 -11 -29.5t-21 -9.5q-10 0 -19 10.5t-13 25.5q-2 30 -4 74.5t-3 96t-1.5 108t-0.5 111v103.5t-0.5 86.5t-0.5 59.5t-1 22q1 0 0.5 0h-6t-19 -1 t-38.5 -3q-17 3 -26 12t-9 19z" />
<glyph unicode="g" horiz-adv-x="844" d="M79 357q0 65 22 127.5t61 113.5t91.5 86.5t112.5 46.5q24 4 48 4q38 0 79 -11q66 -17 131 -71q-1 6 -4 18.5t-5.5 26t-3.5 26t3 18.5q6 9 17 14.5t22 6t20.5 -4.5t12.5 -16q11 -52 25.5 -127.5t26 -163.5t16.5 -183q3 -45 3 -90q0 -49 -3 -96q-6 -91 -27 -173t-63 -143.5 t-107.5 -98t-161.5 -36.5q-70 0 -134 40.5t-109 130.5q-6 14 -9 27.5t16 30.5q4 3 11.5 5t16 0.5t16.5 -6.5t12 -15q29 -72 75 -111t109 -40h4q72 0 127 41q57 41 94 110t52 158q12 64 12 130q0 26 -2 52q-36 -57 -94.5 -87t-125.5 -35q-16 -2 -32 -2q-52 0 -104 14 q-69 18 -124.5 56t-91 95.5t-35.5 131.5zM141 363q0 -53 32.5 -99t83 -77.5t111.5 -46.5q39 -9 76 -9q23 0 44 3q59 9 107.5 44.5t72.5 104.5q2 12 2.5 35t-1 52t-4.5 60.5t-7.5 59.5t-10.5 50.5t-12 33.5q-19 21 -45 37.5t-54 28t-56.5 17.5t-52.5 6q-51 0 -102 -22 t-92 -61.5t-66.5 -94.5t-25.5 -122z" />
<glyph unicode="h" horiz-adv-x="815" d="M113 1008q4 12 14.5 16.5t23.5 4.5q15 0 21 -9.5t10 -17.5l-3 -470q15 43 44 83t68 70.5t87 48.5q45 17 94 17h6q63 -2 108 -27.5t75.5 -67.5t48 -97t26.5 -115q8 -60 10 -122q1 -38 2 -73q0 -25 -1 -47q-1 -56 -4 -103.5t-3 -78.5q-3 -10 -10.5 -15.5t-15.5 -5.5 q-12 0 -22.5 9.5t-11.5 26.5q-2 26 -2 59v17q0 43 2 95v26q0 38 -2 80q-2 54 -8 106.5t-19.5 99.5t-37 82.5t-58 56.5t-84.5 21q-42 0 -86.5 -22t-82.5 -58t-67.5 -82.5t-41.5 -95.5q1 -9 2 -35.5t0.5 -63t-1 -78t-1 -81t-1 -72t0.5 -50.5q-2 -21 -11 -30.5t-21 -9.5 q-5 0 -12.5 2.5t-13.5 7.5t-9.5 11.5t-1.5 15.5q-1 128 -2.5 248t-3 238t-3 237.5t-2.5 247.5z" />
<glyph unicode="i" horiz-adv-x="375" d="M95 990q8 53 64 53q25 0 41.5 -16t16.5 -42q0 -20 -11.5 -39.5t-35.5 -19.5q-13 0 -26 5t-23.5 13.5t-17.5 20t-8 25.5zM130 710q0 17 6.5 28t26.5 14q11 0 17.5 -8t11.5 -22q6 -55 10 -136t4 -172v-92v-92q0 -93 -2 -171q-2 -21 -14.5 -36t-23.5 -15q-10 0 -18.5 10 t-10.5 27q2 16 2 61t-0.5 106.5t-1.5 133t-2.5 140t-3 128t-1.5 96.5z" />
<glyph unicode="j" horiz-adv-x="343" d="M-232 -172v-1q-2 10 2.5 17t11 11.5t14 6.5t12.5 2q13 0 21.5 -11t6.5 -33q-2 -28 10.5 -51t31.5 -40t39.5 -27.5t34.5 -13.5q17 -3 47.5 1t61 19t54.5 42.5t29 72.5l-6 910q-2 5 0 11.5t7 12.5t11.5 10t13.5 4q12 0 23 -6.5t15 -21.5q-4 -127 -4 -245q-1 -39 -1 -77 q0 -77 1 -152q1 -112 2.5 -220.5t1.5 -216.5q0 -59 -23 -98.5t-58.5 -64t-79 -35t-83.5 -10.5q-12 0 -30.5 2.5t-39 10.5t-42 22t-39 37t-30 55t-15.5 77zM114 981q0 22 15 37t37 15t37 -15t15 -37t-15 -37t-37 -15t-37 15t-15 37z" />
<glyph unicode="k" horiz-adv-x="736" d="M112 1007q5 15 14 23.5t19 8.5q9 0 22.5 -8t18.5 -22q1 -83 1 -159.5t-1 -151.5t-1 -152t3 -161q64 51 111.5 97.5t91 90t88.5 85.5t102 84q10 7 21 7t20 -5t14.5 -12t5.5 -13q0 -5 -6 -13.5t-11 -10.5q-4 -4 -12 -10.5t-28.5 -24.5t-58 -52t-100.5 -93q29 -73 57.5 -132 t58.5 -112.5t61.5 -106t66.5 -111.5q5 -22 -3.5 -36t-22.5 -14q-10 0 -20 7t-16 21l-238 437q-48 -42 -90.5 -89t-85.5 -85q-2 -35 -4 -67.5t-3 -65t-1 -67t3 -73.5q2 -20 -6.5 -34.5t-26.5 -14.5q-8 0 -15 2t-12 8.5t-8.5 18t-3.5 30.5z" />
<glyph unicode="l" horiz-adv-x="362" d="M144 4l5 1000q4 16 14 24.5t21 8.5t20.5 -8t13.5 -23v-111q0 -195 -2 -387q-2 -157 -3 -316q0 -91 1 -182q-1 -21 -12 -31t-23 -10q-11 0 -21 9t-14 26z" />
<glyph unicode="m" horiz-adv-x="1179" d="M100 38q6 142 6 279v58q0 38 -1 76q0 127 4 254q-1 11 2.5 22.5t9.5 21t13.5 15.5t15.5 6q11 0 18.5 -10.5t13.5 -28.5q2 -17 -1 -33.5t-1 -35.5q28 24 53 44t51.5 34.5t55.5 22t65 7.5q24 0 50.5 -2.5t54.5 -17.5t59 -48.5t64 -95.5q20 58 54 90t71 47t71 17t54 1 q36 -3 69 -10t61 -20.5t48 -34.5t30 -52q11 -35 16 -87t6 -111v-34q1 -42 -1 -86q-2 -62 -5 -116t-4.5 -96t-0.5 -61q1 -11 -3 -20t-10 -16t-13.5 -11t-14.5 -4q-12 0 -18.5 17.5t-8.5 37.5q-2 11 -1.5 44.5t1.5 81.5t2.5 104.5t1.5 113.5t-2.5 109t-9.5 90q-5 27 -22 43.5 t-39.5 26.5t-47.5 13.5t-46 3.5q-164 0 -198 -142q4 -23 5.5 -60.5t1.5 -83t-1 -95.5t-2 -98q-1 -50 -2 -92q0 -21 -0.5 -39.5t0.5 -33.5q-1 -21 -13 -31t-25 -10q-11 0 -20.5 10t-13.5 27q1 15 2.5 47.5t2.5 76t2 94.5q1 34 1 68q-1 17 -1 33q0 50 -2 98t-7 85 q-4 28 -20 57t-40.5 52.5t-55.5 39t-65 15.5h-5q-41 0 -81 -17q-42 -18 -74.5 -44.5t-51.5 -56.5t-19 -53q0 -4 -1 -31.5t-3 -69.5t-3.5 -94.5t-2.5 -106.5q-1 -36 -1 -70v-34q0 -51 3 -89q2 -21 -7 -30.5t-23 -9.5q-6 0 -13.5 3t-15 8.5t-14 12.5t-8.5 15z" />
<glyph unicode="n" horiz-adv-x="788" d="M114 733q6 14 17 22.5t22 8.5q27 0 35 -29q0 -6 -0.5 -12t-1.5 -21.5t-2 -44t-1 -78.5q26 30 60 60.5t73 56t82 42.5q42 16 84 20q8 1 17 1q33 0 67 -11q42 -14 79 -51q23 -22 37 -65.5t22 -101t10 -124.5q2 -56 2 -112v-22q0 -68 -3 -132.5t-6 -116.5q-1 -11 -10 -21.5 t-14 -10.5q-10 0 -17 7t-14 18q-5 7 -7 32.5t-2 61.5t1 77.5t2.5 81t2.5 72.5t1 51v26q0 98 -20 159q-22 68 -62 97q-33 24 -75 24h-15q-50 -6 -103 -36.5t-102 -81t-85 -111.5l3 -428q-4 -39 -33 -39q-13 0 -24 9.5t-15 26.5q-1 18 -1.5 38t-1 51t-0.5 77.5t-0.5 118 t-1 171.5t-0.5 239z" />
<glyph unicode="o" horiz-adv-x="788" d="M66 377q1 71 23.5 138.5t64.5 120.5t102.5 86.5t137.5 36.5h12q28 1 60 -3q39 -4 77.5 -18.5t74.5 -39.5t64 -64q27 -40 43 -94q15 -51 15 -119v-9q-1 -70 -23.5 -142t-66 -130t-107 -95t-144.5 -37q-92 3 -156 33.5t-103 80.5q-40 50 -58 116q-17 62 -16 131v8zM137 379 q-1 -14 -1 -28q0 -55 16 -99q20 -55 57.5 -93t88.5 -57.5t109 -19.5q56 0 104 23.5t83 65.5t55 99t20 123q0 72 -15 122.5t-39 84t-53 52.5t-56 28.5t-49.5 11.5t-33.5 2q-61 0 -111.5 -23t-87.5 -64.5t-59.5 -99.5t-27.5 -128z" />
<glyph unicode="p" horiz-adv-x="801" d="M102 -270l2 1005q0 11 9 17.5t24 6.5q19 0 26 -4t8.5 -13t1 -24.5t2.5 -37.5q60 43 125 59q45 11 89 11q21 0 41 -2q64 -8 121.5 -37.5t101.5 -77t69.5 -111.5t25.5 -141t-27.5 -144t-72 -117.5t-103.5 -80t-123 -31.5q-5 -1 -10 -1q-58 0 -118 26q-64 28 -121 94 q-2 -99 -3 -200.5t-2 -200.5q-5 -14 -17.5 -26t-21.5 -12q-10 0 -16.5 13.5t-10.5 28.5zM170 599l4 -344q37 -78 89 -119.5t109 -52.5q22 -4 43 -4q35 0 70 11q56 18 100.5 59t72 102.5t27.5 138.5q0 69 -24.5 123.5t-65 92t-93 57.5t-110.5 21h-2l-112 -21 q-58 -21 -108 -64z" />
<glyph unicode="q" horiz-adv-x="793" d="M64 419q9 76 37 137.5t70.5 105.5t97.5 69.5t117 28.5q9 1 18 1q53 0 109 -17q66 -19 132 -64q3 22 2.5 37.5t1 24.5t8.5 13t26 4q15 0 24 -6.5t9 -17.5l2 -1005q-4 -15 -10.5 -28.5t-16.5 -13.5q-9 0 -21.5 12t-17.5 26q-1 99 -2 200.5t-3 200.5q-57 -66 -125 -95 q-63 -27 -126 -27q-5 0 -10 1q-69 2 -131.5 33t-108.5 85.5t-70 129.5q-16 51 -16 109q0 27 4 56zM127 428q-2 -25 -2 -48q0 -62 17 -114q24 -72 68.5 -120t103.5 -70q39 -14 79 -14q20 0 39 4q61 10 117.5 56t96.5 133l4 344q-46 48 -101 73t-111 29q-10 1 -21 1 q-44 0 -87 -14q-53 -16 -96 -51t-71.5 -87.5t-35.5 -121.5z" />
<glyph unicode="r" horiz-adv-x="614" d="M97 723q-2 23 7 35.5t22 12.5q20 0 33 -31q4 -24 4 -47.5t-0.5 -47t-1.5 -48.5t1 -52q16 35 38.5 69t50.5 62t62 47.5t73 24.5q11 1 23 1q29 0 61 -8q44 -12 93 -46q19 -13 23 -29t-1.5 -27t-18 -13.5t-27.5 11.5q-45 43 -91 47q-8 1 -17 1q-36 0 -70 -16 q-41 -20 -76.5 -57t-61 -76.5t-39.5 -74t-13 -48.5q0 -4 0.5 -33.5t1 -72t1 -91.5t1 -91t0.5 -71.5v-33.5q-6 -13 -14 -19t-16 -6q-17 0 -32 24q-6 37 -8.5 73.5t-4 79t-1.5 94v117.5t-0.5 149.5t-1.5 190.5z" />
<glyph unicode="s" horiz-adv-x="635" d="M93 186q0 18 9 32t20 14q10 0 21.5 -9.5t16.5 -26.5q8 -27 25 -50.5t40 -41t51.5 -27t58.5 -9.5q31 0 64.5 10t61.5 29t46 46t18 60q-9 41 -44 67t-82 45.5t-99 36.5t-96 41t-73 58.5t-29 89.5q0 54 16 93t46 64.5t72.5 38t93.5 14.5h6q38 -1 68 -13q32 -14 56 -38 t39 -58t21 -74q0 -19 -5 -35t-23 -16q-8 0 -19 6t-15 21q-4 28 -12.5 56t-23.5 50t-38.5 35.5t-57.5 13.5q-30 0 -60 -11.5t-53 -32.5t-37 -52q-11 -25 -11 -56q0 -7 1 -14q2 -22 15.5 -39.5t33 -31.5t42 -24t43 -17t36.5 -11.5t21 -6.5q41 -15 81 -31.5t72 -40.5 q32 -25 52 -59q22 -38 22 -88q0 -42 -24 -76q-24 -36 -63 -60.5t-87 -37t-94 -12.5q-39 0 -76 13t-67.5 36.5t-51.5 56.5t-28 72z" />
<glyph unicode="t" horiz-adv-x="458" d="M26 731q0 8 6.5 20.5t20.5 18.5q25 2 36 1.5t21 -1t25.5 -0.5t50.5 2q-3 27 -2.5 60l1 66t1 64t-2.5 55q5 15 16 22.5t23 7.5q13 0 19.5 -8t12.5 -24q2 -24 1.5 -54.5t-1 -63t-0.5 -65t2 -59.5q14 0 56 -0.5t96 -0.5q15 -5 21.5 -17.5t6.5 -22.5q0 -22 -31 -33l-144 2 q3 -55 5 -135t2 -172q0 -30 1 -61q0 -62 -1 -127q-1 -97 -2 -185q-1 -43 -30 -43q-14 0 -25 9.5t-15 26.5q0 15 0.5 62.5t1 113.5t0.5 142t-0.5 147.5t-2.5 130t-5 90.5l-129 -1q-17 3 -26 12.5t-9 19.5z" />
<glyph unicode="u" horiz-adv-x="813" d="M102 498q-1 43 -1 88q0 75 3 155q4 17 14.5 25t24.5 8q13 0 23.5 -8.5t10.5 -25.5q0 -29 -0.5 -74.5t-0.5 -97.5t1 -106.5t3.5 -103.5t8 -87.5t14.5 -57.5q18 -39 43 -65.5t54 -42.5t61 -22.5t65 -6.5q41 0 77 12.5t64 33t46.5 47.5t23.5 56q10 53 15 123t6 142v56v82 q-2 66 -6 113q-1 10 2.5 17t8.5 11.5t11.5 7t11.5 2.5q11 0 23 -8t13 -24q2 -56 4 -125q1 -52 0 -106v-36q0 -73 -4.5 -145t-15.5 -134q-7 -39 -27.5 -73.5t-53 -60.5t-75.5 -41t-94 -15q-46 0 -91.5 4.5t-86.5 20t-76 46t-59 82.5q-11 22 -18.5 59t-12 82t-7 95t-3.5 98z " />
<glyph unicode="v" horiz-adv-x="723" d="M63 719q-1 17 8 27.5t20 10.5q9 0 20 -6t20 -16q13 -48 31 -114t39 -136.5t44 -139.5t46 -123.5t44 -89t39 -36.5q15 -5 36.5 27.5t45 88t48.5 127t47 144.5t40 140.5t28 115.5q7 11 18 16t19 5q14 0 19 -12.5t6 -31.5q-4 -21 -14 -62t-24 -94t-32 -114.5t-39.5 -122 t-45.5 -116.5t-50 -99.5t-53.5 -69.5t-55.5 -27h-1q-24 -1 -53 35t-59.5 96.5t-60 136.5t-55 155t-45.5 153.5t-30 131.5z" />
<glyph unicode="w" horiz-adv-x="1000" d="M88.5 705q0.5 18 3.5 33t10 25t21 9q16 -1 23.5 -12.5t10.5 -28t2 -34.5t-1 -33q-1 -32 -1 -63q-1 -81 7 -155q10 -102 32 -176.5t52 -117.5q30 -42 65 -42h2q23 -2 44.5 23.5t40 68.5t33.5 99.5t24.5 116.5t12.5 118q1 25 1 48q0 31 -2 58q5 14 14.5 21.5t20.5 7.5 q14 0 28 -12.5t16 -37.5q5 -43 12.5 -97.5t18 -111t25 -110t34.5 -96.5t45.5 -71t57.5 -31q4 -1 9 -1q36 1 62 41q28 44 45 126t23 198q4 75 3 159q0 46 -1 95q-1 22 10 32.5t25 10.5q13 0 24 -12t10 -31q-1 -29 -1 -75t-2 -100.5t-6 -114.5t-13 -118t-23.5 -110.5 t-37 -92.5t-54 -63.5t-74.5 -23.5q-33 0 -67.5 27.5t-65.5 75t-56 110.5t-38 134q-9 -80 -32.5 -145.5t-52 -112t-56.5 -71.5t-46 -23q-57 6 -96 46t-65 100t-40.5 132.5t-21.5 143t-9.5 131.5t-4.5 99q-1 16 -0.5 34z" />
<glyph unicode="x" horiz-adv-x="679" d="M27 736q0 13 7.5 21t18.5 8q6 0 14 -2.5t14 -7.5q60 -60 125 -133.5t137 -164.5q8 10 21.5 26t29 33.5t30.5 34.5t26 29q35 38 70 77t58 68q14 18 29 26t29 8q11 0 18.5 -5.5t7.5 -13.5q0 -7 -5 -17.5t-16 -22.5q-27 -30 -61 -68.5t-69 -79t-68 -79.5t-58 -70 q6 -8 14 -18.5t17 -21.5t17 -22t14 -19q49 -65 99 -129.5t103 -125.5l-2 3q12 -15 12 -30q0 -12 -8 -20t-19 -8q-18 0 -33 16l2 -1q-50 57 -96 116t-93 119q-6 7 -15 19.5t-19.5 26t-19.5 25.5t-15 19q-44 -54 -74.5 -94t-56 -75.5t-49.5 -71.5t-53 -82q-17 -18 -32 -18 q-11 0 -19.5 8.5t-8.5 21.5q0 14 9 28l-1 -1q31 51 57 90.5t53 78t58 79t73 93.5q-67 87 -132.5 161t-134.5 144q-5 10 -5 22zM109 27q0 1 0.5 1t0.5 1l1 1z" />
<glyph unicode="y" horiz-adv-x="797" d="M94 -183q0 9 6.5 16t15.5 9.5t19 -0.5t17 -13q1 -1 12.5 -14t31.5 -32t46 -41t56.5 -41.5t62.5 -33t64 -14.5h14q43 0 77 11q41 12 69.5 35.5t44.5 54.5t18 66q2 36 2 76q1 14 1 28q0 27 -1 55q-1 42 -2.5 83t-2.5 78q-34 -30 -64 -53t-58 -38t-55.5 -23t-57.5 -9h-10 q-83 0 -138 32q-59 34 -93.5 91.5t-49 132t-15.5 153.5q-1 13 -1 26q0 65 7 128q7 77 16 139q5 17 15 25t23 8t24.5 -11t8.5 -32q-21 -139 -21 -245q0 -28 1 -53q7 -123 37 -199t78 -108q41 -27 88 -27q8 0 17 1q34 4 65.5 16.5t61 31.5t57.5 42t57 48q-2 68 -2.5 124.5 t-3 112.5t-8.5 117t-19 138q0 18 9 31.5t20 13.5q10 0 22 -8.5t17 -25.5q14 -129 25 -247t16.5 -230t5.5 -221t-7 -219q-4 -60 -28.5 -101.5t-64 -67t-90.5 -35.5q-37 -8 -77 -8q-15 0 -31 1q-56 4 -101 21t-80.5 41t-62.5 50.5t-45 48.5q-16 19 -24 30t-11.5 17.5t-3.5 10 v7.5zM125 715l1 5v-1q-1 -1 -1 -4z" />
<glyph unicode="z" horiz-adv-x="759" d="M81 42.5q-4 11.5 5 22.5q63 78 123 155t120.5 154.5t122.5 155t129 157.5q-86 -2 -172 -2h-59h-77q-78 0 -157 -1q-14 4 -24 11.5t-10 18.5q0 14 9.5 24t28.5 12q10 1 53.5 1t103.5 -0.5t127.5 -1.5t125 -2t95.5 -2.5t40 -3.5q6 -6 6.5 -17.5t-2.5 -24t-9 -26t-15 -23.5 q-51 -62 -108.5 -131.5t-117.5 -143.5t-121 -151t-118 -154q66 2 121 4t111 4t119 2h144q17 -5 24 -11.5t7 -20.5q0 -11 -9 -22t-20 -16l-525 -15q-14 1 -29.5 8t-26.5 17.5t-15 22z" />
<glyph unicode="{" horiz-adv-x="426" d="M41 455.5q-4 23.5 24 37.5q32 17 60 37.5t37 55.5q11 43 11 100.5t-0.5 121t4 128.5t23.5 123.5t58.5 106t110.5 76.5q6 3 14.5 1t15.5 -6t12 -10t5 -11q0 -8 -5 -22t-14 -21q-66 -26 -97 -74.5t-42 -109.5t-8.5 -129t3.5 -134t-6 -123.5t-37 -97.5q-9 -12 -17.5 -19.5 t-18 -13.5t-21 -11.5t-25.5 -12.5l8 -4.5t18.5 -10.5t21 -13.5t16.5 -13.5q24 -21 32 -69.5t8.5 -111t-2 -132t-0.5 -132.5t14 -112t41 -70q8 -6 15 -8.5t16 -3.5t21 1t31 5q17 3 28.5 -6t16.5 -21q6 -16 0 -28t-39 -17q-32 -5 -60.5 -4t-51.5 14q-38 22 -58.5 65t-29.5 98 t-10.5 117.5t-2 124.5t-4 118.5t-16.5 100.5q-10 32 -31 49.5t-39 29.5q-26 18 -30 41.5z" />
<glyph unicode="|" horiz-adv-x="311" d="M115 -88l12 1237q5 16 14 24t19 8q9 0 17.5 -8t13.5 -22q0 -135 -2 -293t-4 -321t-3.5 -322.5t-2.5 -297.5q-2 -21 -11 -31t-20 -10q-10 0 -19 10.5t-14 25.5zM126 1145q0 3 1 4v2z" />
<glyph unicode="}" horiz-adv-x="460" d="M17 1216q0 11 16.5 19.5t30.5 6.5q45 -5 87 -22t64 -47q29 -40 41.5 -89t16 -103t0 -109.5t-6.5 -107.5t-3.5 -98t8.5 -80q9 -35 37 -55.5t60 -37.5q28 -14 24 -37.5t-30 -41.5l-19.5 -13t-20.5 -16.5t-18 -21.5t-12 -28q-13 -56 -15.5 -118t-2 -123.5t0 -120.5 t-9.5 -110t-31 -90.5t-63 -61.5q-23 -12 -51.5 -13.5t-60.5 3.5q-33 5 -40 19t-1 30q10 26 44 20q19 -3 31 -4.5t21 -0.5t15.5 4t14.5 9q29 21 41.5 69.5t16 110t2 129.5t0 129.5t10 109t32.5 68.5q6 6 16 15.5t19.5 17.5t17 14.5l7.5 6.5q-14 7 -23.5 11.5t-16.5 8.5 t-14 10t-17 18q-24 29 -32.5 75.5t-8.5 102t4 117t4 121t-8.5 113.5t-33.5 95q-17 29 -49.5 39.5t-72.5 14.5q-9 7 -15 20.5t-6 21.5z" />
<glyph unicode="~" horiz-adv-x="914" d="M53 535q0 48 18.5 87t49.5 67.5t72.5 44t88.5 15.5q35 0 66 -14t59.5 -34.5t56 -44.5t56.5 -44.5t60 -33.5t67 -12q78 3 124.5 46t51.5 114q2 22 12.5 33t21.5 11q12 0 21.5 -12t7.5 -33q-3 -45 -24 -84t-54 -68.5t-75.5 -48t-87.5 -21.5q-40 0 -77.5 15.5t-73 38.5 t-69 48.5t-65 46t-61 31.5t-57.5 4q-37 -9 -59 -28t-34.5 -41.5t-18 -47t-9.5 -45.5q-3 -14 -14.5 -22t-20.5 -8q-14 0 -23.5 11t-9.5 29z" />
<glyph unicode="&#xad;" horiz-adv-x="827" d="M109 415q0 11 7 23t21 17q75 10 140.5 14.5t128.5 5.5t126 -0.5t134 -2.5q32 -11 32 -38q0 -13 -9.5 -25t-21.5 -18l-521 -19q-18 4 -27.5 16.5t-9.5 26.5z" />
<glyph unicode="&#xde;" horiz-adv-x="1178" d="M74.5 477.5q-0.5 17.5 3.5 35.5q17 83 57.5 134t94.5 79.5t117 38t125 9.5q77 0 122.5 -37t69.5 -96.5t30 -135t3 -153t-11 -149.5t-11 -125q-1 -12 10.5 -18.5t31 -9t45 -2.5t53.5 1q25 1 50 1.5t46 3t35 7.5t17 14q7 21 10 68.5t4 109t0 132t-2 138t-2 126t-1 97.5 q5 15 13.5 21t19.5 6t21.5 -8.5t16.5 -23.5q-1 -86 2 -170t4 -172.5t-2 -183.5t-16 -202q-1 -13 -31.5 -19.5t-76 -9t-97.5 -1t-97.5 4.5t-76.5 6.5t-33 5.5q-17 14 -20 35.5t-3 46.5q0 11 4.5 43.5t9.5 78.5t9 100.5t3 110t-9.5 107.5t-27.5 93t-51 66t-81 26 q-46 1 -94 -9.5t-89.5 -35t-72.5 -64t-41 -95.5q23 1 44 0t36 -9.5t22.5 -25t3.5 -45.5q-2 -17 -7.5 -33t-12 -39.5t-13 -58t-11.5 -88.5q36 26 72.5 30t66 -9t48.5 -41t20 -65q1 -25 -8 -52t-28 -49.5t-47.5 -37t-67.5 -13.5q-21 0 -46.5 6.5t-46.5 22.5t-34.5 44t-10.5 72 q1 27 8 71.5t16 91.5t18.5 90t15.5 67q-46 -8 -71 -3t-36.5 18t-12 30.5zM211 101q2 -38 25 -56.5t50 -18.5q31 0 55.5 23.5t21.5 68.5q-2 30 -23.5 45t-48.5 15q-16 0 -31 -5t-26.5 -15t-18 -24.5t-4.5 -32.5zM606 -204q0 21 4.5 40.5t17.5 34t35 23t58 9.5q65 2 96 -39 t15 -114q41 0 72.5 28t51.5 73q8 17 19.5 21t21.5 0q31 -13 11 -52q-39 -75 -104 -107.5t-165 -32.5q-24 0 -48 7.5t-42.5 22t-30.5 36t-12 50.5zM658.5 -198.5q1.5 -22.5 18.5 -41.5t46 -22q28 -2 47.5 14t19.5 50q0 31 -17.5 49.5t-49.5 15.5q-36 -3 -51 -23t-13.5 -42.5z " />
<glyph unicode="&#xe0d;" horiz-adv-x="1178" d="M74.5 477.5q-0.5 17.5 3.5 35.5q17 83 57.5 134t94.5 79.5t117 38t125 9.5q77 0 122.5 -37t69.5 -96.5t30 -135t3 -153t-11 -149.5t-11 -125q-1 -12 10.5 -18.5t31 -9t45 -2.5t53.5 1q25 1 50 1.5t46 3t35 7.5t17 14q7 21 10 68.5t4 109t0 132t-2 138t-2 126t-1 97.5 q5 15 13.5 21t19.5 6t21.5 -8.5t16.5 -23.5q-1 -86 2 -170t4 -172.5t-2 -183.5t-16 -202q-1 -13 -31.5 -19.5t-76 -9t-97.5 -1t-97.5 4.5t-76.5 6.5t-33 5.5q-17 14 -20 35.5t-3 46.5q0 11 4.5 43.5t9.5 78.5t9 100.5t3 110t-9.5 107.5t-27.5 93t-51 66t-81 26 q-46 1 -94 -9.5t-89.5 -35t-72.5 -64t-41 -95.5q23 1 44 0t36 -9.5t22.5 -25t3.5 -45.5q-2 -17 -7.5 -33t-12 -39.5t-13 -58t-11.5 -88.5q36 26 72.5 30t66 -9t48.5 -41t20 -65q1 -25 -8 -52t-28 -49.5t-47.5 -37t-67.5 -13.5q-21 0 -46.5 6.5t-46.5 22.5t-34.5 44t-10.5 72 q1 27 8 71.5t16 91.5t18.5 90t15.5 67q-46 -8 -71 -3t-36.5 18t-12 30.5zM211 101q2 -38 25 -56.5t50 -18.5q31 0 55.5 23.5t21.5 68.5q-2 30 -23.5 45t-48.5 15q-16 0 -31 -5t-26.5 -15t-18 -24.5t-4.5 -32.5zM606 -204q0 21 4.5 40.5t17.5 34t35 23t58 9.5q65 2 96 -39 t15 -114q41 0 72.5 28t51.5 73q8 17 19.5 21t21.5 0q31 -13 11 -52q-39 -75 -104 -107.5t-165 -32.5q-24 0 -48 7.5t-42.5 22t-30.5 36t-12 50.5zM658.5 -198.5q1.5 -22.5 18.5 -41.5t46 -22q28 -2 47.5 14t19.5 50q0 31 -17.5 49.5t-49.5 15.5q-36 -3 -51 -23t-13.5 -42.5z " />
<glyph unicode="&#xff;" horiz-adv-x="1087" d="M20 462q-2 26 3 50.5t19 45.5l10.5 17.5t16.5 17.5t17.5 10t18.5 7t24 0.5t25 -8.5q2 14 4.5 27t4.5 25q5 29 15.5 59t12.5 59q-11 14 -30.5 33.5t-39.5 41t-35.5 43t-19.5 39.5q-2 11 2 16t13 9q6 1 23.5 -6t41 -18.5t49.5 -24t49 -22.5q-5 8 -9.5 16t-7.5 16 q-16 38 -22.5 72t-9.5 73q4 16 16 18.5t22 -10.5q7 -14 20.5 -30.5t30 -32t34 -28t33.5 -19.5q20 12 45 19.5t40 12.5q46 15 101.5 17.5t110.5 -7.5t105 -32t86 -56q23 -22 42 -49t25 -58q3 -14 4.5 -27.5t9.5 -25.5q3 -11 -1 -18.5t-11 -9.5q5 -30 12 -60.5t9 -61.5v-1 q12 7 24 13.5t31 -0.5q10 -5 20 -9t20 -9t16 -14.5t14 -17.5q21 -24 20.5 -58.5t-13 -69t-33.5 -65.5t-40 -48q-7 -6 -19 -14t-26 -14.5t-29 -11t-28 -4.5q-24 -72 -58 -133q-14 -25 -36.5 -41t-48.5 -25t-54.5 -13.5t-54.5 -5.5q-49 -2 -84 0t-65.5 10t-61.5 21.5t-72 33.5 q-23 12 -45.5 24.5t-42.5 27t-37.5 32.5t-30.5 41q-18 32 -29 73q-17 -3 -35 -2t-34 6t-29 14.5t-20 23.5q-11 21 -18.5 45.5t-9.5 50.5zM63.5 491q-2.5 -30 2.5 -59t15 -43q11 -14 33.5 -22.5t42.5 -5.5q-8 46 -9.5 95t1.5 97q-8 2 -13 13q-6 2 -12 3.5t-12 0.5 q-23 -3 -34.5 -26t-14 -53zM131 888q20 -25 46.5 -46t45.5 -47q5 -6 8 -13q6 -11 9 -21q-1 -16 -15 -21q-3 -14 -7.5 -27t-7.5 -27q-5 -20 -8 -41l-6 -42q21 19 60.5 32t82 16.5t80.5 -4.5t57 -31q20 -24 29 -34.5t12.5 -19.5t5.5 -23.5t8 -46.5h20q3 3 5 3q2 14 4.5 28 t6.5 28q3 15 14.5 30.5t25.5 23.5t26.5 19t27.5 13q23 4 47 6.5t46.5 0t44 -11.5t39.5 -27q16 -16 24.5 -28t13 -24t6.5 -25.5t5 -31.5q2 28 2.5 54.5t-0.5 49.5q-1 24 -5.5 47t-9 45.5t-8.5 45.5t-5 47q2 6 4 10q0 8 -2 16t-8 18.5t-16.5 23.5t-28.5 31q-31 30 -76 49.5 t-95 28t-100.5 6t-91.5 -15.5q-14 -5 -27.5 -10t-27.5 -11q-7 -2 -15 -3.5t-10 -6.5q-9 -11 -19.5 -9.5t-15.5 11.5q-19 8 -43 25.5t-45 38.5q3 -18 10 -33q0 -1 3 -7.5t6.5 -15.5l7 -18t5.5 -13q4 -4 6 -8q8 -10 11 -20q0 -3 1 -4q16 -7 14.5 -21t-18.5 -18q-39 4 -80 21 t-79 38zM190 455l2 -2q2 -5 3.5 -10.5t5.5 -10.5q19 -19 57.5 -27.5t82 -8.5t84 6.5t62.5 17.5q9 5 13.5 17t9.5 23q-6 2 -6 9q0 10 7 17q-3 20 -5 35.5t-6 29t-12.5 25.5t-24.5 25q-24 19 -59.5 27t-72.5 5t-71 -15.5t-56 -34.5q-5 -5 -7 -12t-6 -13q0 -1 -1 -1 q-2 -51 0 -102zM193 413q1 -9 1.5 -18t2.5 -17q13 1 19 -10t-4 -25q-3 -3 -7 -5q8 -36 25 -66q25 -44 67 -72q10 -7 33 -20t49.5 -26.5t51 -25t38.5 -14.5q40 -9 82 -12t82 -1q23 1 46 4t44 10.5t39.5 20t32.5 32.5q19 27 33.5 60.5t25.5 71.5q-2 12 6 20q10 36 16 74t10 75 q-10 -4 -15 6q-1 2 -1 6q-3 -15 -10 -24q-19 -30 -59 -50t-85 -25.5t-87.5 5.5t-64.5 43q-6 9 -8.5 20t-4.5 22h-1q-4 0 -12 0.5t-14 -1.5v-1q5 -2 7 -7t-3 -10l-3 -7t-7.5 -16t-10 -17t-11.5 -11q-33 -15 -72.5 -22t-80 -6t-79.5 10.5t-71 28.5zM293 725q13 15 22.5 21 t18 7t17.5 -1t21 -3q8 -2 8.5 -10t-9.5 -10q-17 1 -25.5 2.5t-14 0.5t-10.5 -5.5t-14 -15.5q-8 -5 -13.5 0.5t-0.5 13.5zM344 525q-2 11 3 17v2q2 12 12 16t18 -1l2 -2q1 0 1 -1q2 -1 4 -5q1 -1 1 -1.5t1 -1.5q0 -2 1 -3v-32q1 -8 0.5 -16t-0.5 -16v-14q-1 -3 -1 -5t-1 -4 q-1 -1 -1 -1.5t-1 -1.5q0 -1 -2 -3q0 -2 -2 -2q-3 -3 -10 -5q-5 0 -7 1q-8 1 -12 9q0 1 -0.5 1.5t-0.5 1.5t-0.5 1t-0.5 1q0 2 -0.5 3t-0.5 3v46q-1 5 -3 13zM408 290q9 9 26 6.5t35.5 -9t36 -14.5t29.5 -9q31 -3 57 12.5t51 30.5q9 4 15.5 2t10 -7.5t3 -13t-5.5 -14.5 q-26 -15 -54 -32t-60 -19q-17 -1 -35 4t-34.5 11t-30 12t-21.5 8q-14 -4 -22.5 7t-0.5 25zM572 474q2 -9 3 -17t6 -16q17 -29 54 -37t78 -2t77.5 23.5t52.5 41.5q5 9 7 19t5 19q4 6 10 6q-3 23 -10 40t-31 40q-26 24 -61 32t-70 2t-64.5 -26.5t-42.5 -54.5 q-7 -16 -8.5 -33.5t-4.5 -34.5q-1 -1 -1 -2zM649 471q0 21 8 45v7q2 7 4 9q1 10 8 20q13 9 25 4.5t10 -21.5q-1 -5 -2 -9t-3 -9q0 -3 0.5 -5.5t0.5 -4.5q7 -9 2 -23q-1 -1 -1 -2q0 -5 -0.5 -10.5t-0.5 -10.5q-5 -13 -14.5 -15t-17.5 4q-16 2 -19 21zM671 722q5 12 18.5 21.5 t28.5 13.5t29.5 0.5t20.5 -18.5q3 -10 -5.5 -13.5t-13.5 6.5q-2 7 -10.5 7.5t-18.5 -3t-18.5 -9t-10.5 -10.5q-5 -9 -13.5 -7.5t-6.5 12.5zM898 320q24 5 48 22t43.5 41t31 52t11.5 55t-14.5 50t-48.5 37q-8 3 -18 -2.5t-21 -12.5q2 -122 -32 -242z" />
<glyph unicode="&#x152;" d="M-517 960q5 13 17.5 21t27.5 7q13 -2 21.5 -4t16 -4t15.5 -3t20 -1q24 1 57 49q-29 -11 -57 -12t-50 9t-35.5 32.5t-13.5 60.5q0 18 9.5 34t24 28.5t30.5 21t29 10.5q46 6 77.5 -4t49 -29.5t22.5 -47t-2 -56.5t-25.5 -58t-47.5 -52q53 5 91 18t66.5 33t51 45.5t44.5 55.5 q4 5 11 9.5t15.5 6.5t17 1t15.5 -6q18 -11 18.5 -26.5t-10.5 -28.5q-45 -60 -93.5 -98t-105.5 -56t-125 -17t-151 21q-15 3 -24.5 15.5t-6.5 24.5zM-450 1119q-2 -22 7.5 -36t24.5 -21t33 -7.5t34 5t27.5 16.5t13.5 26q3 36 -15 55t-43 21t-49 -13t-33 -46z" />
<glyph unicode="&#xf70b;" d="M-517 960q5 13 17.5 21t27.5 7q13 -2 21.5 -4t16 -4t15.5 -3t20 -1q24 1 57 49q-29 -11 -57 -12t-50 9t-35.5 32.5t-13.5 60.5q0 18 9.5 34t24 28.5t30.5 21t29 10.5q46 6 77.5 -4t49 -29.5t22.5 -47t-2 -56.5t-25.5 -58t-47.5 -52q53 5 91 18t66.5 33t51 45.5t44.5 55.5 q4 5 11 9.5t15.5 6.5t17 1t15.5 -6q18 -11 18.5 -26.5t-10.5 -28.5q-45 -60 -93.5 -98t-105.5 -56t-125 -17t-151 21q-15 3 -24.5 15.5t-6.5 24.5zM-450 1119q-2 -22 7.5 -36t24.5 -21t33 -7.5t34 5t27.5 16.5t13.5 26q3 36 -15 55t-43 21t-49 -13t-33 -46z" />
<glyph unicode="&#x153;" d="M-628 1358q4 12 15 19t24 6q12 -2 19.5 -3.5t14 -3t13.5 -2.5t18 -1q21 1 51 43q-26 -9 -51 -10.5t-44.5 7.5t-31.5 29.5t-12 53.5q0 15 8.5 29.5t21.5 26t27 18.5t25 9q61 8 93.5 -14t39 -57t-11 -76t-55.5 -72q47 4 80.5 16t59 29.5t45.5 40.5t39 49q8 10 24 14.5 t29 -4.5q16 -11 16 -24.5t-9 -24.5q-40 -53 -83 -87t-93.5 -50t-110.5 -14.5t-134 18.5q-14 3 -22 13.5t-5 21.5zM-569 1499q-3 -29 15.5 -42.5t41.5 -14t44 11t23 31.5q3 31 -13 48t-38.5 18.5t-44 -11.5t-28.5 -41z" />
<glyph unicode="&#xf714;" d="M-628 1358q4 12 15 19t24 6q12 -2 19.5 -3.5t14 -3t13.5 -2.5t18 -1q21 1 51 43q-26 -9 -51 -10.5t-44.5 7.5t-31.5 29.5t-12 53.5q0 15 8.5 29.5t21.5 26t27 18.5t25 9q61 8 93.5 -14t39 -57t-11 -76t-55.5 -72q47 4 80.5 16t59 29.5t45.5 40.5t39 49q8 10 24 14.5 t29 -4.5q16 -11 16 -24.5t-9 -24.5q-40 -53 -83 -87t-93.5 -50t-110.5 -14.5t-134 18.5q-14 3 -22 13.5t-5 21.5zM-569 1499q-3 -29 15.5 -42.5t41.5 -14t44 11t23 31.5q3 31 -13 48t-38.5 18.5t-44 -11.5t-28.5 -41z" />
<glyph unicode="&#x160;" d="M-603 987q0 38 12.5 63t33.5 41t48.5 25.5t57.5 16.5q26 6 53 13.5t51.5 20.5t44 32t29.5 49q8 22 12.5 34t15.5 12q13 0 26 -13.5t12 -33.5q-8 -59 -49 -98t-135 -58q31 -10 44.5 -25.5t17 -32t1.5 -31.5t-2 -24q0 -23 -10.5 -44t-29 -36.5t-43.5 -25t-55 -9.5 q-24 0 -48.5 6.5t-43.5 21.5t-31 38.5t-12 57.5zM-543 995q0 -63 68 -72q12 -2 28.5 0.5t31 10t25 20.5t11.5 33q1 10 -5.5 25t-20 28t-33.5 20t-45 1q-11 -2 -21.5 -9t-19 -16.5t-14 -20t-5.5 -20.5z" />
<glyph unicode="&#xf709;" d="M-603 987q0 38 12.5 63t33.5 41t48.5 25.5t57.5 16.5q26 6 53 13.5t51.5 20.5t44 32t29.5 49q8 22 12.5 34t15.5 12q13 0 26 -13.5t12 -33.5q-8 -59 -49 -98t-135 -58q31 -10 44.5 -25.5t17 -32t1.5 -31.5t-2 -24q0 -23 -10.5 -44t-29 -36.5t-43.5 -25t-55 -9.5 q-24 0 -48.5 6.5t-43.5 21.5t-31 38.5t-12 57.5zM-543 995q0 -63 68 -72q12 -2 28.5 0.5t31 10t25 20.5t11.5 33q1 10 -5.5 25t-20 28t-33.5 20t-45 1q-11 -2 -21.5 -9t-19 -16.5t-14 -20t-5.5 -20.5z" />
<glyph unicode="&#x161;" d="M-798 1039q0 88 51 136t144 48q40 0 78.5 -4t75.5 0t71 20t65 57q18 -1 29.5 -9t11.5 -20q0 -3 0.5 -7.5t-1 -11t-6.5 -14.5t-17 -16q-17 -12 -35 -24.5t-47.5 -21t-75.5 -10.5t-120 7q-68 8 -105.5 -17.5t-51.5 -82.5q-4 -16 -4.5 -34t5 -34.5t18 -28.5t35.5 -15 q3 12 6 27t9 28.5t17.5 24t30.5 14.5q12 3 17.5 -5.5t14 -22t25.5 -29.5t52 -28q-24 53 -17.5 89t32 56t63 25t75.5 -2q28 -6 45 -28t22 -52t-3 -62t-30 -56.5t-58.5 -37t-88.5 -2.5q-7 1 -22 4t-35 11t-43 22.5t-45 39.5q-12 -19 -16.5 -35.5t-10 -28t-17 -17.5t-36.5 -3 q-18 2 -37 9.5t-34.5 24.5t-26 45t-10.5 71zM-476 1015q2 -22 19 -40t48 -18q29 0 48 19.5t19 48.5q0 -11 0.5 -2t-6 23t-23.5 26t-52 8q-29 -3 -42 -23t-11 -42z" />
<glyph unicode="&#xf712;" d="M-798 1039q0 88 51 136t144 48q40 0 78.5 -4t75.5 0t71 20t65 57q18 -1 29.5 -9t11.5 -20q0 -3 0.5 -7.5t-1 -11t-6.5 -14.5t-17 -16q-17 -12 -35 -24.5t-47.5 -21t-75.5 -10.5t-120 7q-68 8 -105.5 -17.5t-51.5 -82.5q-4 -16 -4.5 -34t5 -34.5t18 -28.5t35.5 -15 q3 12 6 27t9 28.5t17.5 24t30.5 14.5q12 3 17.5 -5.5t14 -22t25.5 -29.5t52 -28q-24 53 -17.5 89t32 56t63 25t75.5 -2q28 -6 45 -28t22 -52t-3 -62t-30 -56.5t-58.5 -37t-88.5 -2.5q-7 1 -22 4t-35 11t-43 22.5t-45 39.5q-12 -19 -16.5 -35.5t-10 -28t-17 -17.5t-36.5 -3 q-18 2 -37 9.5t-34.5 24.5t-26 45t-10.5 71zM-476 1015q2 -22 19 -40t48 -18q29 0 48 19.5t19 48.5q0 -11 0.5 -2t-6 23t-23.5 26t-52 8q-29 -3 -42 -23t-11 -42z" />
<glyph unicode="&#x178;" d="M-513 1343q0 38 12.5 63t33.5 41t48.5 25.5t57.5 16.5q26 6 53 13.5t51.5 20.5t44 32t29.5 49q8 22 12.5 34t15.5 12q13 0 22 -10.5t8 -30.5q-8 -59 -49 -103.5t-135 -63.5q31 -10 45.5 -25t20 -30.5t4.5 -29.5t-1 -23q0 -23 -10.5 -44t-29 -36.5t-43.5 -25t-55 -9.5 q-24 0 -48.5 6.5t-43.5 21.5t-31 38.5t-12 57.5zM-445 1348q0 -32 12.5 -48t47.5 -21q12 -2 26 0t26 8t20 18t9 32q1 10 -2.5 24.5t-13 26t-26.5 17.5t-42 0q-21 -5 -39 -21t-18 -36z" />
<glyph unicode="&#xf717;" d="M-513 1343q0 38 12.5 63t33.5 41t48.5 25.5t57.5 16.5q26 6 53 13.5t51.5 20.5t44 32t29.5 49q8 22 12.5 34t15.5 12q13 0 22 -10.5t8 -30.5q-8 -59 -49 -103.5t-135 -63.5q31 -10 45.5 -25t20 -30.5t4.5 -29.5t-1 -23q0 -23 -10.5 -44t-29 -36.5t-43.5 -25t-55 -9.5 q-24 0 -48.5 6.5t-43.5 21.5t-31 38.5t-12 57.5zM-445 1348q0 -32 12.5 -48t47.5 -21q12 -2 26 0t26 8t20 18t9 32q1 10 -2.5 24.5t-13 26t-26.5 17.5t-42 0q-21 -5 -39 -21t-18 -36z" />
<glyph unicode="&#x17d;" d="M-363 1051q0 9 7 17.5t21 13.5q4 4 17 5.5t28 2t28.5 -0.5t19.5 -1q0 6 -0.5 18t-1 26t-1 27.5t-0.5 22.5q4 16 13 23t18 7t17 -8t13 -21v-10t0.5 -15t0.5 -28v-48q25 0 36 -0.5t18 -1t15 -1.5t27 -1q30 -9 30 -30q0 -9 -8.5 -17.5t-22.5 -13.5q-16 0 -22.5 0.5t-12.5 1 t-17.5 1t-36.5 0.5q-1 -8 -1.5 -20t-1 -25t-0.5 -25.5v-20.5q-5 -12 -16.5 -19.5t-19.5 -7.5q-9 0 -18 10t-12 25q0 20 -2 37.5t3 40.5l-84 6q-17 3 -25.5 11.5t-8.5 18.5zM-331 1021h2h2h-4z" />
<glyph unicode="&#xf70d;" d="M-363 1051q0 9 7 17.5t21 13.5q4 4 17 5.5t28 2t28.5 -0.5t19.5 -1q0 6 -0.5 18t-1 26t-1 27.5t-0.5 22.5q4 16 13 23t18 7t17 -8t13 -21v-10t0.5 -15t0.5 -28v-48q25 0 36 -0.5t18 -1t15 -1.5t27 -1q30 -9 30 -30q0 -9 -8.5 -17.5t-22.5 -13.5q-16 0 -22.5 0.5t-12.5 1 t-17.5 1t-36.5 0.5q-1 -8 -1.5 -20t-1 -25t-0.5 -25.5v-20.5q-5 -12 -16.5 -19.5t-19.5 -7.5q-9 0 -18 10t-12 25q0 20 -2 37.5t3 40.5l-84 6q-17 3 -25.5 11.5t-8.5 18.5zM-331 1021h2h2h-4z" />
<glyph unicode="&#x17e;" d="M-491 1497q0 9 7.5 18t22.5 14q5 4 18.5 5.5t29 2t29 -0.5t19.5 -1q0 7 -0.5 19t-1 26.5t-1 28t-0.5 23.5q4 17 13 24.5t19 7.5q9 0 18 -8.5t14 -22.5v-10t0.5 -15.5t0.5 -29v-49.5q26 0 37.5 -0.5t18.5 -1t15.5 -1.5t28.5 -1q30 -9 30 -31t-32 -33q-17 0 -23.5 0.5 l-13 1t-18 1t-38.5 0.5q-1 -8 -2 -21t-2.5 -27t-2.5 -27.5t-1 -21.5q-13 -25 -32 -25q-10 0 -19 10t-12 27q1 20 2 41.5t6 44.5q-25 2 -46.5 4.5t-47.5 -4.5q-17 4 -26.5 12.5t-9.5 19.5zM-457 1465h4h-2h-2z" />
<glyph unicode="&#xf716;" d="M-491 1497q0 9 7.5 18t22.5 14q5 4 18.5 5.5t29 2t29 -0.5t19.5 -1q0 7 -0.5 19t-1 26.5t-1 28t-0.5 23.5q4 17 13 24.5t19 7.5q9 0 18 -8.5t14 -22.5v-10t0.5 -15.5t0.5 -29v-49.5q26 0 37.5 -0.5t18.5 -1t15.5 -1.5t28.5 -1q30 -9 30 -31t-32 -33q-17 0 -23.5 0.5 l-13 1t-18 1t-38.5 0.5q-1 -8 -2 -21t-2.5 -27t-2.5 -27.5t-1 -21.5q-13 -25 -32 -25q-10 0 -19 10t-12 27q1 20 2 41.5t6 44.5q-25 2 -46.5 4.5t-47.5 -4.5q-17 4 -26.5 12.5t-9.5 19.5zM-457 1465h4h-2h-2z" />
<glyph unicode="&#x192;" d="M-934 952.5q-2 19.5 9 44.5t34 51.5t57 48.5t79.5 36.5t101.5 15.5h28.5t43 -3t48 -11t44.5 -24q-6 37 10.5 60.5t44.5 35t61 12.5t60 -8q23 -7 40 -27t27 -44.5t12 -50.5t-5 -46q-11 -31 -31.5 -44.5t-69.5 -11.5q0 -14 7.5 -25.5t9.5 -31.5q1 -6 -22.5 -11t-62 -8 t-89 -4.5t-104 -1.5t-106 1t-96.5 4t-74.5 6.5t-39.5 8.5q-15 8 -17 27.5zM-831 981q-2 -8 26.5 -11.5t72 -4.5t95.5 0.5t97 4t76 5t33 4.5q-15 37 -51.5 59.5t-75 33.5t-67.5 13.5t-29 -1.5q-18 -1 -40.5 -4.5t-46 -14t-47 -30.5t-43.5 -54zM-436 1104q2 -21 17.5 -41 t41.5 -32q40 -4 61.5 7t29 29.5t2 40t-19 38t-35 25t-45.5 1.5q-29 -9 -41.5 -28t-10.5 -40z" />
<glyph unicode="&#xf703;" d="M-934 952.5q-2 19.5 9 44.5t34 51.5t57 48.5t79.5 36.5t101.5 15.5h28.5t43 -3t48 -11t44.5 -24q-6 37 10.5 60.5t44.5 35t61 12.5t60 -8q23 -7 40 -27t27 -44.5t12 -50.5t-5 -46q-11 -31 -31.5 -44.5t-69.5 -11.5q0 -14 7.5 -25.5t9.5 -31.5q1 -6 -22.5 -11t-62 -8 t-89 -4.5t-104 -1.5t-106 1t-96.5 4t-74.5 6.5t-39.5 8.5q-15 8 -17 27.5zM-831 981q-2 -8 26.5 -11.5t72 -4.5t95.5 0.5t97 4t76 5t33 4.5q-15 37 -51.5 59.5t-75 33.5t-67.5 13.5t-29 -1.5q-18 -1 -40.5 -4.5t-46 -14t-47 -30.5t-43.5 -54zM-436 1104q2 -21 17.5 -41 t41.5 -32q40 -4 61.5 7t29 29.5t2 40t-19 38t-35 25t-45.5 1.5q-29 -9 -41.5 -28t-10.5 -40z" />
<glyph unicode="&#x2c6;" d="M-823.5 1006.5q-0.5 32.5 9.5 65t34 58.5q38 41 85 53t97 -15q10 -5 19 -14t17 -20q5 11 10 21t13 18q12 12 27.5 15.5t31 -0.5t27.5 -15t16 -27q11 -44 6 -90.5t-8 -91.5q30 -1 55 10t41.5 33.5t22 57t-3.5 80.5q-2 12 -1 19.5t12 13.5q15 8 25 -1t14 -19 q16 -39 10.5 -79.5t-24 -76t-45.5 -62.5t-56 -39t-56 -5t-43 40q-9 17 -7.5 47.5t4.5 61.5t4 57t-9 34q-9 -10 -14 -24.5t-10 -29.5t-10.5 -29.5t-14.5 -24.5q-13 -8 -21 -10t-19 8q-2 35 -18 60.5t-39.5 35.5t-49.5 1.5t-47 -41.5q49 4 81 -18.5t41.5 -55.5t-4.5 -68 t-57 -57q-32 -16 -58.5 -11t-45.5 24t-30 48.5t-11.5 62zM-776.5 977q2.5 -16 13 -29.5t28.5 -18.5q28 -8 43.5 0.5t21 24.5t2 35t-15 33t-30 18.5t-41.5 -9.5q-14 -8 -19 -23t-2.5 -31z" />
<glyph unicode="&#xf707;" d="M-823.5 1006.5q-0.5 32.5 9.5 65t34 58.5q38 41 85 53t97 -15q10 -5 19 -14t17 -20q5 11 10 21t13 18q12 12 27.5 15.5t31 -0.5t27.5 -15t16 -27q11 -44 6 -90.5t-8 -91.5q30 -1 55 10t41.5 33.5t22 57t-3.5 80.5q-2 12 -1 19.5t12 13.5q15 8 25 -1t14 -19 q16 -39 10.5 -79.5t-24 -76t-45.5 -62.5t-56 -39t-56 -5t-43 40q-9 17 -7.5 47.5t4.5 61.5t4 57t-9 34q-9 -10 -14 -24.5t-10 -29.5t-10.5 -29.5t-14.5 -24.5q-13 -8 -21 -10t-19 8q-2 35 -18 60.5t-39.5 35.5t-49.5 1.5t-47 -41.5q49 4 81 -18.5t41.5 -55.5t-4.5 -68 t-57 -57q-32 -16 -58.5 -11t-45.5 24t-30 48.5t-11.5 62zM-776.5 977q2.5 -16 13 -29.5t28.5 -18.5q28 -8 43.5 0.5t21 24.5t2 35t-15 33t-30 18.5t-41.5 -9.5q-14 -8 -19 -23t-2.5 -31z" />
<glyph unicode="&#x2dc;" d="M-781 1014q-2 37 9 64.5t30.5 46.5t45.5 29t54 12q44 3 76 -13.5t49.5 -45t18 -66t-18.5 -78.5q17 -3 44.5 2.5t58 23.5t62 50.5t55.5 84.5q7 15 15.5 22t16 8.5t13.5 0.5t9 -2q10 -7 15.5 -11.5t7 -10.5t-1.5 -14.5t-9 -22.5q-25 -58 -63 -98.5t-84.5 -65t-100 -35 t-110.5 -8.5q-33 1 -66.5 7t-60.5 20.5t-45 39t-20 60.5zM-718 1040.5q-3 -29.5 15.5 -55t60.5 -29.5q25 -2 42 9t26.5 29.5t10.5 40.5t-6.5 40.5t-23.5 31t-41 12.5q-38 -1 -59.5 -25t-24.5 -53.5z" />
<glyph unicode="&#xf710;" d="M-781 1014q-2 37 9 64.5t30.5 46.5t45.5 29t54 12q44 3 76 -13.5t49.5 -45t18 -66t-18.5 -78.5q17 -3 44.5 2.5t58 23.5t62 50.5t55.5 84.5q7 15 15.5 22t16 8.5t13.5 0.5t9 -2q10 -7 15.5 -11.5t7 -10.5t-1.5 -14.5t-9 -22.5q-25 -58 -63 -98.5t-84.5 -65t-100 -35 t-110.5 -8.5q-33 1 -66.5 7t-60.5 20.5t-45 39t-20 60.5zM-718 1040.5q-3 -29.5 15.5 -55t60.5 -29.5q25 -2 42 9t26.5 29.5t10.5 40.5t-6.5 40.5t-23.5 31t-41 12.5q-38 -1 -59.5 -25t-24.5 -53.5z" />
<glyph unicode="&#xe01;" horiz-adv-x="825" d="M56 475q-2 40 16 79t50 73.5t74.5 64t88.5 52t92.5 35.5t87.5 16q72 4 122 -18.5t83.5 -64t52 -98t27 -121.5t8.5 -133.5t-3 -133.5t-8 -123t-6 -101q-5 -14 -11 -20t-20 -7q-8 0 -16.5 1t-15.5 5.5t-11 13t-3 21.5q2 37 6.5 88t7.5 109t3 119t-6.5 118.5t-20.5 108 t-40 87.5t-65.5 56.5t-95.5 15.5q-61 -5 -112 -23t-90 -44.5t-65.5 -59.5t-37.5 -68q27 -5 50.5 -5.5t41.5 -6.5t29 -23t13 -54q3 -50 2 -104.5t-4 -110t-7.5 -108.5t-8.5 -98q-2 -28 -15 -36.5t-32 -9.5q-12 -1 -25 7.5t-13 19.5q4 48 10 100t10.5 104t7 103.5t-0.5 99.5 q-2 22 -10.5 34.5t-22 18t-31 6t-35.5 0.5q-19 0 -34.5 2t-16.5 13z" />
<glyph unicode="&#xe02;" horiz-adv-x="684" d="M69 543q0 35 15 74.5t41 73t61 55.5t75 22q36 0 55.5 -21.5t28.5 -53.5t11 -69t2 -68q0 -41 -3 -93t-5.5 -106.5t-3 -106.5t4 -92.5t16 -65.5t33.5 -25q36 -1 59 30t36 82.5t18.5 118.5t6 138.5t-1.5 143t-4 131.5q0 10 1.5 21.5t5 21t9.5 15.5t14 6q14 0 29 -7.5 t16 -22.5q1 -37 3.5 -90t3 -114.5t-1.5 -127.5t-9 -129t-21 -119.5t-37.5 -98t-57 -65t-80.5 -21.5q-30 1 -50.5 25.5t-33.5 62.5t-19.5 86t-8 97.5t0 96t4.5 82.5q-45 -29 -84 -30t-67.5 17.5t-45 51.5t-16.5 74zM134 553q0 -42 19 -62t44.5 -21t51.5 16t40 48q2 24 5.5 50 t0.5 47.5t-17.5 36t-47.5 17.5q-24 -2 -42 -13.5t-30 -29.5t-18 -41t-6 -48z" />
<glyph unicode="&#xe03;" horiz-adv-x="753" d="M97 493.5q-6 38.5 8.5 88t44.5 99.5q22 36 50.5 59.5t57.5 30t55.5 -5t44.5 -44.5q10 26 26.5 45t44.5 21q23 2 39.5 -17.5t26.5 -38.5q17 -32 17.5 -72.5t-7.5 -86.5t-22 -97t-27 -104.5t-22 -108.5t-6 -109q2 -38 15.5 -61.5t33.5 -31.5t43 0t42.5 32.5t33 66 t15.5 100.5q2 97 4 221.5t2 264.5q4 16 13 23.5t19 7.5q9 0 18 -8t14 -22q0 -153 -3 -270t-4 -212q-1 -50 -9 -99t-28 -88.5t-54 -64.5t-86 -26q-43 -1 -73 16t-48 45.5t-24.5 65t-1.5 75.5q5 44 17 97.5t26 108.5t27.5 107.5t21.5 95.5t8 73t-13 39q-15 11 -22 -0.5 t-10 -32.5t-3.5 -46.5t-2.5 -43.5q-4 -11 -11.5 -17t-16 -6.5t-17 4.5t-13.5 16q-8 15 -12.5 42.5t-12.5 51t-22 35.5t-41 -4q-14 -8 -22.5 -20t-18.5 -25q24 2 45.5 -16.5t36.5 -46.5t20.5 -61.5t-2 -62t-30.5 -48.5t-65 -20q-56 -1 -85 23t-35 62.5zM158 522 q-2 -22 8.5 -38t41.5 -18q17 -1 29 9t17.5 25.5t5.5 34t-7 35t-20.5 27t-34.5 11.5q-14 -17 -26 -40.5t-14 -45.5z" />
<glyph unicode="&#xe04;" horiz-adv-x="876" d="M96 260q-2 65 6 129.5t26.5 123t48 108.5t70.5 87t94 58.5t118 21.5q90 0 152 -23t102.5 -65.5t61 -102t28 -131.5t4.5 -155t-11 -172q-2 -25 -3 -42.5t-1 -31t-0.5 -26t-2.5 -27.5q-2 -22 -16 -26.5t-29 -4.5q-12 0 -22 10.5t-11 22.5q-2 23 -1.5 36.5t2 27t4 30 t5.5 45.5q6 61 11 126.5t2.5 128.5t-16 119t-43.5 98t-80.5 66t-127.5 24q-59 0 -105 -24.5t-80.5 -65t-58 -92.5t-37 -107t-18.5 -109t-2 -98.5t13 -75.5t26 -40q9 -4 19.5 22.5t23 69.5t27.5 96.5t32.5 103.5t38.5 89.5t45 54.5q37 24 74.5 26.5t67.5 -13.5t49 -50t19 -85 q0 -24 -8 -47t-22.5 -42t-33.5 -31.5t-41 -15.5q-21 -3 -42 -1.5t-39 10t-32.5 24t-22.5 40.5q-14 -34 -24 -79.5t-22.5 -92t-29 -89.5t-42.5 -72q-20 -22 -44.5 -16.5t-46 36t-37.5 86t-18 133.5zM395 401q2 -13 10.5 -27t22 -24t31.5 -12.5t41 7.5q24 12 35 38.5t9 53.5 t-17 48t-44 21q-15 0 -32.5 -8t-31 -22.5t-21 -33.5t-3.5 -41z" />
<glyph unicode="&#xe05;" horiz-adv-x="836" d="M73 322q0 64 7 127.5t21.5 122.5t39 104t60 72t83.5 27q25 0 42.5 -8t30 -20.5t21 -26.5t17 -26.5t17.5 -21t22 -9.5t21 7.5t15.5 22t16.5 29t25 28.5t41.5 21t64.5 7q50 -2 82 -29.5t51 -73t26 -104t7 -122.5t-6 -129t-13 -122.5t-13.5 -103t-8.5 -70.5 q-1 -13 -10 -20.5t-20 -7.5q-12 0 -23.5 5.5t-12.5 27.5q-1 34 5.5 93t14 128.5t12 143t0 136.5t-22 109t-54.5 62q-24 10 -41 4t-30 -20t-25 -33t-27 -35.5t-35.5 -26.5t-49.5 -7q-21 2 -39 17.5t-34 34.5t-31 37t-31.5 25t-34.5 -1.5t-39 -42.5q-26 -41 -41 -96 t-22.5 -113.5t-7.5 -116t4.5 -102.5t12.5 -73t17 -28q6 0 12 26.5t15 66.5t21 88t29.5 91t41.5 75.5t56 41.5q45 13 79 2t56 -36t31 -59.5t3.5 -68t-26.5 -62.5t-58 -43q-17 -7 -36.5 -7t-39 6.5t-36 18.5t-27.5 29q-18 -42 -28.5 -84.5t-19 -79t-17.5 -64.5t-23 -40 q-2 -2 -9.5 -6t-16 -7.5t-16.5 -6.5t-11 -3q-20 0 -31.5 9.5t-20.5 29.5q-9 21 -16.5 63.5t-12 98t-4.5 119.5zM328 361q3 -17 13.5 -28.5t26.5 -18t34 -6.5q32 0 50.5 22t18.5 57q0 10 -4 21.5t-11 22t-16 18t-18 10.5q-29 8 -54 -6t-37 -54q-6 -21 -3 -38z" />
<glyph unicode="&#xe06;" horiz-adv-x="936" d="M91.5 495q-8.5 39 4.5 89t43 100q22 36 52.5 59t61.5 29t59 -6t46 -45q10 26 32 42t50 18q22 1 38 -4.5t27 -16t17 -25t9 -30.5q12 -72 15 -127t1 -108.5t-7.5 -113.5t-10.5 -141q31 -18 70 -41.5t75 -44t64.5 -33.5t38.5 -9q12 5 17.5 39t6.5 86.5t-1 118.5t-6 135 t-8 136t-7 121q-1 14 3 23t9.5 13.5t12.5 6t12 1.5q15 0 27 -6t14 -34q2 -24 5 -83.5t4.5 -135.5t2 -159.5t-3 -155.5t-11 -123.5t-21.5 -63.5q-12 -11 -36.5 -8.5t-55.5 14t-65 29t-65.5 36.5t-58.5 36.5t-43 29.5q-11 -36 -21.5 -68t-27.5 -57t-45 -39.5t-73 -14.5 q-29 0 -57.5 4t-53 16.5t-42.5 34.5t-26 58q-9 42 2.5 78.5t37 62.5t62 41t77.5 15q38 0 65 -7t54 -23q0 20 3.5 65t6.5 100t4 112.5t-3 102t-15 68.5t-32 13q-10 -5 -14.5 -18t-6 -29.5t-2.5 -35t-3 -36.5q-4 -11 -11.5 -17t-16 -6.5t-17 4.5t-13.5 16q-8 15 -12.5 42.5 t-12.5 51t-22 35.5t-41 -4q-14 -8 -22.5 -20t-18.5 -25q24 2 45.5 -16.5t36.5 -46.5t20.5 -61.5t-2 -62t-30.5 -48.5t-65 -20q-56 -1 -86.5 23.5t-39 63.5zM151 527.5q0 -23.5 13 -41.5t44 -20q17 -1 28.5 9t16 26t3.5 35t-9 35t-22 27t-35 12q-18 -12 -28.5 -35.5 t-10.5 -47zM224.5 91q6.5 -20 23 -34t41 -21t50.5 -7q51 0 74 39t31 106q-23 12 -55 21t-64 8t-59 -15.5t-39 -49.5q-9 -27 -2.5 -47z" />
<glyph unicode="&#xe07;" horiz-adv-x="678" d="M64 424q-1 11 2.5 17.5t9 10.5t11 5t9.5 1t10 -0.5t11.5 -3.5t9.5 -9t6 -17q4 -27 16.5 -63.5t31.5 -74.5t43.5 -75t52.5 -65.5t57.5 -46.5t58.5 -18q39 1 65 27.5t41.5 68t23 92.5t9.5 99t0 87.5t-4 59.5q-17 -23 -38.5 -35t-43 -16.5t-40.5 -3t-30 5.5q-40 15 -61.5 39 t-29.5 52t-4.5 58.5t14.5 59.5q9 24 26 42t39 30t46.5 17.5t48.5 4.5q18 -1 37.5 -8.5t37 -24t31 -42.5t21.5 -64q13 -66 18.5 -139t2 -143.5t-17 -134.5t-37.5 -112.5t-59.5 -77t-83.5 -27.5q-43 0 -84 20t-78.5 53t-69 76t-55 89.5t-38 94.5t-16.5 91zM337 623 q-4 -18 1.5 -35t16.5 -30t27.5 -20.5t35.5 -7.5q12 0 29 5t33 13t28.5 19.5t15.5 24.5q0 23 -5 46t-15 40.5t-24 27.5t-33 7q-52 -8 -78 -35t-32 -55z" />
<glyph unicode="&#xe08;" horiz-adv-x="784" d="M66 506.5q-2 16.5 12 37.5q22 40 54 82.5t78 76.5t108.5 53.5t145.5 15.5q71 -4 119 -38.5t77.5 -89t43 -123t16 -139.5t-4 -140t-16.5 -123q-8 -39 -19 -63.5t-24 -37.5t-27 -17t-26 -3q-20 1 -33.5 20t-23 48.5t-16 65t-12 70t-11.5 63.5t-14 46q-24 -39 -65 -58 t-82.5 -16t-75.5 29t-44 77q-5 26 3 53t26 50.5t43 42t53.5 27.5t58.5 6.5t57 -21.5q30 -21 51 -57.5t35.5 -79t23 -87t15 -80t11.5 -58.5t11 -23q5 0 12.5 26.5t13.5 69t8.5 97t-2.5 111t-18.5 109.5t-40 92.5t-67 61.5t-99.5 16t-98 -20.5t-69 -39.5t-56 -60.5t-58 -83.5 q-12 -18 -30 -20t-29 6q-13 9 -15 25.5zM293.5 363.5q0.5 -19.5 11.5 -38.5q15 -21 40.5 -24.5t51 5.5t44 29.5t18.5 49.5q0 35 -26 56t-79 7q-18 -5 -32 -17.5t-21.5 -30t-7 -37z" />
<glyph unicode="&#xe09;" horiz-adv-x="876" d="M71.5 597q-0.5 13 8.5 27q20 32 51.5 60.5t73 50.5t93 34.5t113.5 12.5q105 0 175 -29t107 -88.5t43 -149t-16 -209.5q41 -1 71 -13.5t49.5 -32.5t29 -45t9.5 -52q0 -29 -8.5 -58t-24 -53.5t-37.5 -41.5t-50 -21q-50 -8 -80 10.5t-45 52.5t-15.5 79.5t10.5 92.5 q-50 -37 -91.5 -76.5t-78.5 -72.5t-71.5 -53t-68.5 -18q-23 2 -37.5 20t-12.5 37q1 9 3.5 29.5t7 47.5t10.5 58.5t14 61.5q-22 -30 -58.5 -36.5t-71 7.5t-60 46.5t-25.5 80.5q0 3 0.5 15t4.5 29t13.5 36.5t27 36t44 27t66.5 11.5q61 1 95.5 -29.5t45.5 -89.5q4 -21 1 -52 t-10 -65.5t-15.5 -68.5t-14.5 -61.5t-8 -45t4 -19.5q8 -2 26.5 13t42.5 39t53.5 53t60 54.5t61.5 44t59 22.5q6 61 10.5 115.5t1 99.5t-17 80.5t-43 59.5t-78 36t-121.5 10q-55 -1 -92 -11t-64.5 -26.5t-48 -39t-42.5 -47.5q-14 -17 -29.5 -21t-32.5 9t-17.5 26zM157 368 q4 -38 18 -57.5t39 -23.5q46 -7 76.5 15t30.5 58q0 29 -12 49t-29.5 29.5t-38.5 10t-39 -8.5t-31 -27t-14 -45zM685 115q3 -24 12.5 -39.5t26.5 -17.5q23 -3 41.5 5.5t30.5 22.5t18 32.5t5 36.5q-2 26 -13.5 44t-29 27.5t-38.5 11t-41 -5.5q-8 -32 -11.5 -62.5t-0.5 -54.5z " />
<glyph unicode="&#xe0a;" horiz-adv-x="604" d="M47 586q0 84 31 129.5t98 51.5q58 5 91.5 -21.5t49.5 -73.5t19 -109.5t0 -129t-8.5 -131t-5.5 -117t9 -86t34 -37.5q35 -6 56.5 25t31.5 82t8 113.5t-14 120t-33.5 101.5t-51.5 58q-16 7 -22.5 19.5t-5.5 25t9 24t22 16.5q12 12 40 33.5t59 51t58.5 65.5t38.5 78 q4 15 12 23t17 11.5t16.5 3.5t9.5 -1q20 -11 20 -27.5t-5 -31.5q-10 -29 -29.5 -58.5t-44 -57t-50 -52.5t-47 -43.5t-35 -29.5t-13.5 -12q25 -9 47 -40.5t37.5 -77.5t24.5 -101.5t9.5 -112t-9.5 -109t-31.5 -92.5t-56 -63.5t-84.5 -20.5q-38 2 -57.5 30t-27 71.5t-6.5 98.5 t4.5 110.5t6.5 106.5t0 88q-35 -36 -74 -42.5t-72 10t-54.5 51t-21.5 79.5zM114 604q-1 -44 15.5 -67t40.5 -27.5t52 9.5t49 45q4 34 -2 60t-19.5 43.5t-31 25.5t-35.5 7q-10 -1 -20 -3.5t-19.5 -11.5t-17.5 -28t-12 -53z" />
<glyph unicode="&#xe0b;" horiz-adv-x="771" d="M55 494q-9 39 3.5 88t42.5 99q22 36 53 59.5t62.5 30.5t60 -4.5t46.5 -44.5q10 26 34 44.5t52 19.5q35 1 53 -28.5t25 -78.5t6 -112.5t-5 -130t-7 -131t0.5 -116t16.5 -84.5t41 -36q27 -3 47 15t32.5 50t18.5 74.5t5.5 89t-7 92.5t-18.5 85t-30 67t-40 39q-16 7 -24 20 t-8.5 26t6 24.5t20.5 16.5q12 12 40 33.5t59 51t58.5 65.5t38.5 78q4 15 13.5 23t20.5 11t20 2.5t11 -1.5q10 -6 14 -13t4 -14.5t-2 -16t-5 -15.5q-9 -28 -29.5 -57.5t-45.5 -57.5t-51.5 -52.5t-48.5 -42.5t-36 -29t-14 -12q25 -9 47 -41.5t38 -79.5t25.5 -104t9 -115 t-11 -112t-34 -95t-61.5 -64t-92 -20q-30 2 -48.5 21t-29 49.5t-14.5 71t-4.5 84t1.5 88.5t4 86q4 66 8 126.5t3.5 105t-7 69.5t-21.5 21q-7 -5 -13 -20.5t-11.5 -35t-9 -39.5t-5.5 -34q-4 -11 -11.5 -16.5t-15.5 -5t-16 6t-13 16.5q-8 15 -12.5 42.5t-12.5 51t-22 35.5 t-41 -4q-14 -8 -22.5 -20t-18.5 -25q24 2 45.5 -16.5t36.5 -46.5t20.5 -61.5t-2 -62t-30.5 -48.5t-65 -20q-56 -1 -87 22.5t-40 62.5zM109.5 526q2.5 -23 17.5 -40t46 -19q19 -2 34 8t21 27q10 27 4.5 51t-20 40.5t-35.5 23t-41 -2.5q-14 -17 -21.5 -41t-5 -47z" />
<glyph unicode="&#xe0c;" horiz-adv-x="1094" d="M71 548q40 121 127.5 181.5t207.5 60.5q19 0 52.5 -3.5t72 -19.5t77 -49.5t67 -94t42.5 -151.5t4 -223q24 -9 55 -22t64 -29t65.5 -34.5t59.5 -39.5q0 5 -1 13.5t-2.5 29.5t-3 58t-2.5 98t-2 150t-1 215q0 16 1.5 31.5t5.5 27.5t11.5 19.5t19.5 8.5q6 0 13.5 -2.5t14 -8 t10.5 -14t4 -19.5v-132.5v-176.5v-197t1 -193q-1 -6 -8.5 -11t-16.5 -7.5t-18 -2.5t-14 5q-20 17 -40.5 40.5t-50 47t-71 45t-101.5 35.5q-2 -38 -8 -73.5t-19 -63t-35 -44t-55 -16.5q-20 0 -43 6.5t-44 18t-36.5 27t-19.5 33.5q-10 44 -4.5 84.5t29.5 68.5t66.5 39.5 t107.5 -2.5q1 41 0 92t-7.5 103.5t-20.5 102.5t-39.5 88.5t-64.5 62t-96 23.5q-35 0 -75 -10t-77.5 -30.5t-69 -51t-49.5 -71.5q3 -5 14.5 -4.5t25.5 2t27 0t20 -10.5q5 -7 3.5 -25t-7 -44.5t-13.5 -59.5t-15.5 -68t-13.5 -71.5t-7 -69.5q36 33 74.5 33t68.5 -22t46.5 -60.5 t7.5 -81.5q-5 -24 -19 -43.5t-33.5 -33.5t-44 -21.5t-49.5 -7.5q-49 0 -74 31t-34 79.5t-5.5 108.5t12.5 117.5t19.5 106t15.5 75.5q-19 -5 -38 -3t-34 9t-23.5 17.5t-6.5 23.5zM183 112q3 -22 6 -38t10.5 -25.5t19.5 -13.5t33 -3q15 1 28.5 8t24 18.5t17 26t6.5 31.5 q0 35 -11.5 54.5t-28.5 26.5t-36.5 2.5t-35.5 -17t-26 -31t-7 -39.5zM504 148.5q-3 -21.5 10.5 -46.5t51.5 -50q25 -11 41.5 -7t25.5 17t13.5 32t6 39t2 37.5t3.5 28.5q-21 16 -46.5 18t-48.5 -6t-39.5 -24.5t-19.5 -38z" />
<glyph unicode="&#xe0e;" horiz-adv-x="850" d="M56 -264q6 32 25 59.5t49 46t71 21.5q22 1 48.5 -1t55 -9.5t58 -21t56.5 -34.5q21 20 45 45.5t72 55.5q26 16 41.5 17t23 -7t7 -22t-6.5 -28q-19 -11 -37.5 -25t-34 -27t-26.5 -23t-15 -12q18 -11 37 -25t38 -26t36.5 -19.5t32 -5t25.5 17.5t16 48q4 29 12.5 87t15.5 132 t11 158.5t0.5 168t-16 160t-39.5 135t-70 92t-106 30.5q-37 -2 -84 -17t-93 -39.5t-85.5 -56.5t-61.5 -68q42 9 66.5 9.5t39 -5.5t21.5 -18t13 -27q8 -20 16 -66t11.5 -103t1 -117.5t-14.5 -111.5t-36 -84t-63 -34q-73 -2 -112 32.5t-39 83.5q0 25 13 55t38.5 52t62.5 28.5 t84 -15.5q2 23 2.5 56t-1 67t-6 66t-11.5 53q0 13 -10.5 16.5t-27 2t-35.5 -5t-36 -3t-28.5 6.5t-13.5 24q-4 35 11 69.5t44.5 66t70 58t87.5 46.5t98 32t100 14q80 3 133.5 -38.5t85 -114t45 -167t15 -196.5t-6 -204t-18.5 -188.5t-21.5 -150.5t-15.5 -90q-4 -21 -19.5 -27 t-35 -4.5t-38.5 7.5t-30 10t-35.5 16.5t-51.5 27t-51 27.5t-36 18q-30 -31 -61.5 -60t-65 -48.5t-70 -27.5t-76.5 3q-39 11 -62 35t-30.5 54.5t-1.5 62.5zM119 116q-6 -26 8 -45.5t57 -21.5q40 -2 57.5 26.5t17.5 79.5q0 4 -19 12.5t-43 9t-47 -12t-31 -48.5zM123 -294 q0 -32 19.5 -50t48.5 -18q21 0 44.5 7t47.5 21t47 34t42 47q-12 15 -35 28t-51 21t-56.5 9t-52.5 -8t-39 -31t-15 -60z" />
<glyph unicode="&#xe0f;" horiz-adv-x="896" d="M42 -322q0 36 14.5 78t39 76.5t56 56t66.5 16.5q23 -5 39 -13.5t29.5 -21t27.5 -30.5t32 -42q6 5 21.5 15.5t34.5 22t39.5 22t38.5 16.5q2 18 4 33t5 28t9 22.5t17 15.5q3 2 10.5 -4t15.5 -16t15 -21t9 -18q17 12 34.5 23.5t38.5 16.5q13 1 22 -4.5t12 -13.5t-0.5 -17 t-15.5 -16q-13 -3 -26.5 -10.5t-24.5 -13.5q29 -28 63.5 -69.5t76.5 -98.5q7 46 12 110t6.5 139t0 156.5t-7.5 162t-16 155t-25 136.5q-10 40 -32.5 65t-54 39t-70.5 19.5t-81 5.5q-78 0 -150 -38.5t-138 -125.5q31 -1 61 -2.5t54 -5t40.5 -11.5t22.5 -23q11 -29 16.5 -69.5 t6.5 -86t-3 -91.5t-10.5 -86.5t-15.5 -72t-20 -47.5q-13 -19 -35 -29t-47.5 -12t-52.5 5t-48.5 22.5t-36 40t-15.5 58.5q0 58 17 94.5t46 52t69 11.5t85 -26q2 31 2.5 65.5t-1 64t-5 49.5t-9.5 22q-15 5 -37.5 6t-46.5 1t-46 1t-35 7q-29 14 -32.5 38t10.5 52q30 51 73.5 90 t94 65.5t106 40t109.5 13.5q48 0 93.5 -11t83 -33.5t64.5 -57.5t38 -83q10 -47 18 -113.5t13 -143t7.5 -158.5t2 -160.5t-4 -148.5t-10 -123t-15.5 -84.5t-22 -31.5q-14 -1 -32 14t-38.5 38t-42 51t-43 55t-41.5 49.5t-36 34.5q-5 -35 -9.5 -79.5t-10 -83.5t-14.5 -65.5 t-23 -26.5q-15 0 -34.5 7.5t-39.5 21t-37.5 33.5t-29.5 45q-29 -23 -56 -44.5t-53.5 -39t-53 -27.5t-54.5 -10q-45 1 -64.5 24.5t-19.5 56.5zM108 -279q-4 -34 15 -56q15 -18 39.5 -11t51.5 25.5t52 42t42 38.5q-11 14 -21 29t-21 28t-23.5 22.5t-26.5 12.5q-22 5 -46.5 -15 t-41 -51t-20.5 -65zM167 148q-3 -22 3 -41t19 -31.5t30.5 -17t37.5 3.5q16 6 28 22t18.5 36.5t8 43t-3.5 43.5q-30 19 -56 19.5t-45 -10.5t-29.5 -29.5t-10.5 -38.5zM372 -235q-1 0 10 -17t26.5 -36t32.5 -31.5t28 -4.5q4 3 6.5 26.5t5 51t3.5 51t2 26.5q1 2 -7.5 -2.5 t-20.5 -11.5t-27 -16t-27.5 -17t-21.5 -13.5t-10 -5.5z" />
<glyph unicode="&#xe10;" horiz-adv-x="811" d="M60 543q-2 27 8 55t28 55t41.5 50.5t49 41t51 28t47.5 11.5q55 1 89.5 -9.5t63.5 -23t60 -23t78 -10.5q23 0 38 3.5t27 11t23 18.5t26 27q14 6 26.5 8t20.5 2q11 0 17 -9t6 -16q0 -21 -14.5 -39.5t-30.5 -27.5q-39 -23 -83 -29.5t-88 -3.5t-85 12.5t-74 20t-55 19 t-28 9.5q-34 3 -64.5 -14.5t-53.5 -44t-36 -57.5t-12 -56q33 -1 71.5 9t81 23t88.5 25.5t93 16t94.5 -5.5t94.5 -38q48 -30 65.5 -90t17 -133.5t-13 -151.5t-23.5 -145q-6 -35 -26.5 -51t-42.5 -16q-29 0 -46 27.5t-28.5 68t-20 87t-19.5 83.5q-41 -30 -90.5 -33t-93.5 14 t-73.5 51t-29.5 78q0 27 18.5 56t48 50t67 30t75.5 -5q34 -13 56 -31t36 -43.5t23.5 -59.5t19 -78.5t22 -100t32.5 -123.5q16 32 27.5 75t17 90t5.5 94t-6.5 89t-19 74.5t-31.5 50.5q-20 18 -57.5 22.5t-83.5 0t-96 -15t-94.5 -22t-79 -22t-50.5 -13.5q-21 -5 -39 -9 t-32 -0.5t-23 17.5t-11 46zM146.5 -259q2.5 22 9.5 37q39 91 98 93.5t121 -78.5q3 9 5 21.5l4 25t5 22.5t7 15q10 9 17.5 9.5t20.5 -3.5q5 -2 13.5 -12.5t13.5 -14.5l5 5l8.5 8.5l8.5 8.5t6 5q6 12 12.5 16t12.5 4t11 -3t8 -5q7 -4 6.5 -14t-9.5 -24q-5 -8 -14 -19t-17 -21 q2 -12 13.5 -34t29 -45t40 -42t45.5 -24.5t46 6.5t42 51l-68 -12q-54 9 -75 38.5t-17 64t28 65t60 41.5q38 11 66.5 0.5t47 -35t26 -59t4 -69.5t-19 -67.5t-43.5 -52.5q-37 -27 -67.5 -32.5t-57 3.5t-49.5 30.5t-43 47.5t-37.5 54.5t-34.5 52.5q-4 -2 -7 -3t-8 -3 q-2 -8 -2.5 -22t-0.5 -29t-0.5 -29t-2.5 -22q-10 -26 -19.5 -31t-22.5 19l-24 48q-11 -11 -25 -24.5t-31 -24.5t-38.5 -18.5t-47.5 -7.5q-25 0 -38.5 14t-18.5 33.5t-2.5 41.5zM208.5 -226.5q-12.5 -30.5 11.5 -65.5q3 1 2.5 1t8 4.5t30.5 17t69 38.5q-14 19 -30.5 35 t-41.5 10q-37 -10 -49.5 -40.5zM306 360q0 -15 13.5 -30t38.5 -24t60.5 -8.5t79.5 17.5q-5 26 -7 47.5t-9 38t-22.5 28t-45.5 18.5q-26 6 -46 -1t-33.5 -20.5t-21 -31t-7.5 -34.5zM615 -180q0 -20 10.5 -31t26.5 -15.5t33.5 -2.5t32.5 10q6 15 7.5 30t-2.5 28.5t-13 23.5 t-25 14q-21 5 -34.5 2.5t-21.5 -10.5t-11 -20.5t-3 -28.5z" />
<glyph unicode="&#xe11;" horiz-adv-x="1025" d="M44 504q-9 39 3.5 88.5t42.5 99.5q22 36 53 59t62.5 29.5t60.5 -5t47 -44.5q10 26 37.5 38.5t55.5 17.5q26 4 42.5 -8.5t26 -36t13.5 -55.5t3.5 -65.5t-3.5 -67t-6 -60.5q21 35 52.5 79t69 84.5t78.5 71.5t82 41q54 6 86.5 -18.5t49 -74t21 -120t2.5 -155.5t-7.5 -182 t-7.5 -199q0 -8 -5 -14.5t-11 -11t-12 -7t-9 -2.5q-14 0 -22.5 12t-7.5 37q4 170 10.5 294.5t3 204.5t-23 117t-65.5 33q-25 -3 -56.5 -26.5t-64 -59t-64 -76.5t-55.5 -78.5t-39 -65.5t-15 -37q-7 -61 -11 -114.5t-7 -96.5t-6 -74.5t-9 -48.5q-4 -12 -15.5 -20t-23.5 -8.5 t-21 9t-8 31.5q2 60 8.5 128.5t14 138t15.5 136t13 122.5t6 97.5t-5 61.5q-8 26 -18.5 26.5t-21 -13t-18.5 -35t-10 -39.5q-4 -11 -13 -18.5t-18.5 -10t-19 0.5t-14.5 14q-8 15 -12.5 37t-13 39t-22.5 24t-41 -9q-14 -8 -19 -20.5t-15 -25.5q24 1 45.5 -17t36.5 -46 t20.5 -61.5t-2 -62t-30.5 -48.5t-65 -20q-56 -1 -87.5 23t-40.5 63zM107.5 533.5q-0.5 -22.5 12 -39t43.5 -18.5q17 -1 28 9t15.5 26t3 35t-9.5 35t-22.5 27t-35.5 12q-14 -17 -24 -40.5t-10.5 -46z" />
<glyph unicode="&#xe12;" horiz-adv-x="1237" d="M63.5 390.5q4.5 71.5 25 140.5t54.5 122.5t82 86.5t109 33q17 0 36 -5t41.5 -19.5t49 -40.5t57.5 -67q17 36 32.5 63t32 45t36 27t43.5 9q53 0 91 -23.5t62.5 -62.5t38.5 -89.5t19 -104.5t3.5 -107.5t-7.5 -98.5q38 -15 74.5 -36.5t68 -48.5t57 -60t40.5 -72 q7 83 11.5 160t4.5 154t-7.5 156.5t-24.5 168.5q-4 22 8 36t24 14q14 0 25.5 -7.5t16.5 -23.5q5 -44 9.5 -101t7.5 -120t4 -129.5t-2 -131t-10.5 -123.5t-20.5 -107q-14 -18 -27.5 -23.5t-26.5 -2.5t-24 13.5t-19 26.5q-5 9 -19 33t-38.5 51.5t-59 54.5t-80.5 42 q-5 -53 -13 -95t-23 -71.5t-37 -45.5t-55 -16q-23 0 -54 1.5t-59 16t-47.5 49t-19.5 100.5q0 48 19.5 85.5t53 60t77.5 27t93 -13.5q8 63 8 127.5t-11 119t-34 94t-60 52.5q-23 8 -41.5 -4t-32.5 -32.5t-25.5 -45t-20.5 -42.5q-5 -9 -17 -18.5t-28 -13t-33.5 1.5t-33.5 25 q-14 18 -30 38t-31.5 35.5t-31 25.5t-29.5 9q-55 -5 -94.5 -33t-64.5 -71.5t-37.5 -97.5t-13 -109.5t9 -108.5t27.5 -94.5t43.5 -67t56.5 -25.5q40 0 69.5 14.5t49.5 38.5t31.5 53t15.5 58q-46 -22 -80.5 -25.5t-59 4.5t-40 24.5t-24 36t-12 38.5t-3.5 32q0 17 8.5 40 t26.5 43.5t45.5 35.5t66.5 16q77 2 111 -41.5t32 -146.5q-2 -63 -19 -118t-45.5 -95t-66 -63t-79.5 -23q-66 0 -112.5 33t-75.5 86.5t-40.5 122.5t-7 140.5zM285 359q0 -12 4.5 -25t13.5 -24t21.5 -18t27.5 -7q16 0 32.5 4.5t29.5 14t20.5 23.5t7.5 32q0 30 -12 47 t-29.5 22.5t-37.5 2t-37.5 -14t-29 -25.5t-11.5 -32zM617 172q-2 -30 6 -51.5t21 -35.5t30 -20.5t34 -6.5q19 0 35 15.5t26.5 42t14 60.5t-0.5 70q-26 15 -54 17t-52.5 -7.5t-41 -30.5t-18.5 -53z" />
<glyph unicode="&#xe13;" horiz-adv-x="1098" d="M75 535q3 54 33 96.5t75.5 72.5t101 47.5t110.5 21.5q79 5 128.5 -26.5t76.5 -86.5t36 -126.5t7.5 -146.5t-10 -147t-16.5 -127q15 46 47.5 79t68.5 54t69.5 31t52.5 9q0 58 3 113.5t7 111t8 112t6 115.5q4 17 13 24.5t19 7.5q9 0 18 -8.5t14 -22.5q-1 -66 -5 -116.5 t-8 -100t-7 -105.5t-2 -132q33 4 62.5 -5.5t52 -31t34.5 -53.5t11 -74q-1 -23 -12 -44.5t-29 -37.5t-41.5 -25.5t-49.5 -9.5q-41 0 -63 22.5t-31 55.5t-8.5 71.5t4.5 70.5q-50 -9 -83.5 -27t-57 -42t-40 -52.5t-32.5 -57.5q-14 -26 -31 -30.5t-30.5 5t-21 31t-2.5 48.5 q5 39 13.5 100.5t13 131t0.5 138.5t-23.5 123.5t-58.5 87t-105 28.5q-16 -1 -39 -5.5t-49.5 -13t-54 -22t-50.5 -32t-40.5 -43.5t-23.5 -57q37 15 61 19.5t37.5 1.5t18 -12t3.5 -21q-3 -23 -13 -62t-20.5 -83.5t-20 -87.5t-10.5 -74q9 15 21 23.5t25 12.5t26 5t23 1 q20 0 39.5 -10t35 -27.5t25.5 -40t12 -48.5q2 -31 -6.5 -59t-24 -50t-37.5 -35.5t-46 -14.5q-13 -1 -39.5 -0.5t-53 12t-46.5 39t-20 81.5q0 39 5 95.5t14.5 115t23 109.5t29.5 79q-62 -24 -93.5 -21t-29.5 52zM191 95q3 -37 27 -50t56 -11q39 3 54.5 27t13.5 61 q-2 29 -16.5 49.5t-43.5 20.5q-53 1 -73.5 -26.5t-17.5 -70.5zM913.5 154.5q0.5 -21.5 4 -41.5t13.5 -33t26.5 -16.5t43.5 7.5q24 32 23 63.5t-16.5 55.5t-40.5 36t-49 6q-2 -15 -3.5 -35.5t-1 -42z" />
<glyph unicode="&#xe14;" horiz-adv-x="856" d="M59 343q0 81 24.5 160.5t73.5 141.5t121.5 100.5t167.5 38.5q106 0 175.5 -37.5t110.5 -99.5t57.5 -142t16.5 -165t-12.5 -168t-29.5 -151q-6 -14 -16.5 -22.5t-21.5 -8.5q-13 0 -24.5 7t-15.5 24q14 65 26.5 142t15.5 154t-7.5 148.5t-44 126.5t-93.5 87.5t-156 31.5 q-68 -1 -122.5 -36t-93 -90.5t-58.5 -123t-17 -133.5q1 -36 6.5 -76t19 -77t37 -66t61.5 -42q28 -10 63.5 10.5t68.5 56t58.5 77.5t31.5 75q-46 -29 -86.5 -30t-70.5 17t-47 49.5t-17 67.5q0 29 13 57t34.5 49.5t49 34.5t56.5 12q35 -1 64 -15.5t50 -37.5t32.5 -51.5 t11.5 -58.5q0 -40 -11 -85t-31.5 -88.5t-49.5 -82.5t-64 -69t-75 -47.5t-84 -16.5q-34 0 -62 18.5t-50 48.5t-38 67.5t-27 76.5t-16 76t-5 65zM325 393q0 -32 21 -55t53 -23q8 0 20.5 1t26 4t25 8t16.5 14q16 30 15 54t-13.5 40.5t-33.5 25t-44 7.5q-17 -1 -32.5 -7 t-27.5 -16.5t-19 -24t-7 -28.5z" />
<glyph unicode="&#xe15;" horiz-adv-x="936" d="M71 382q0 70 14.5 139t42 123.5t68 87.5t93.5 32q37 -1 62 -7.5t43 -17t32 -25t29 -30.5q17 13 39.5 29t47.5 29.5t51.5 22.5t50.5 9q58 0 97.5 -24.5t63.5 -66t35 -96.5t13 -115.5t-2.5 -123.5t-11.5 -120.5t-15 -106t-12 -80.5q-3 -23 -17.5 -36t-31.5 -13q-10 0 -19 9 t-14 23q3 47 12.5 109.5t18.5 130.5t14 137t-0.5 128t-25 104t-58.5 65q-23 11 -45.5 8t-44.5 -14t-42.5 -27.5t-38.5 -31.5t-33 -25.5t-26 -9.5q-27 1 -43.5 18.5t-32.5 35.5t-38 30t-60 2q-44 -11 -73 -44t-45.5 -79.5t-21.5 -101.5t-0.5 -111t16.5 -108t29.5 -92.5 t39.5 -65t46 -24.5q20 0 50.5 18t60.5 46t54 60.5t30 61.5q-46 -20 -83 -14t-63 27t-39.5 52.5t-11.5 64.5q1 35 14.5 60.5t35.5 42t50 24.5t58 8t57 -11.5t47.5 -30.5t32.5 -43.5t12 -49.5q-1 -39 -12.5 -83.5t-31.5 -87.5t-48 -82t-61 -69t-71 -47.5t-78 -17.5t-71.5 18 t-55 48.5t-39.5 70.5t-25.5 84t-14 89t-4.5 85zM343 371q0 -15 3 -29t11 -25t22.5 -19t37.5 -10q55 1 76 26t21 60q0 38 -24 59t-67 19q-37 -4 -58.5 -25t-21.5 -56z" />
<glyph unicode="&#xe16;" horiz-adv-x="884" d="M82 495.5q0 17.5 12 47.5q20 48 66 91t106.5 75.5t130.5 51t138 18.5q78 0 131 -31.5t86.5 -85.5t49.5 -126.5t19.5 -155t-2 -171t-14.5 -174.5q-1 -21 -10.5 -31.5t-21.5 -10.5q-10 0 -19 10.5t-13 25.5q0 23 2.5 64.5t5 94t2.5 112.5t-6 118.5t-19.5 112.5t-38.5 95 t-63 65.5t-92 24.5q-50 0 -106.5 -14.5t-108 -41t-92.5 -63.5t-61 -82q30 1 56.5 4t45.5 0.5t29 -15t7 -43.5q-5 -53 -16 -103t-17 -90q49 16 86.5 7.5t62.5 -31t37.5 -54t12.5 -59.5q0 -31 -13.5 -57t-35 -44.5t-50 -29t-58.5 -10.5q-44 0 -75.5 17.5t-41.5 55.5 q-10 43 -9 91t7.5 99t16.5 103.5t18 104.5q-18 1 -38 -0.5t-39 -2.5t-34.5 1t-24.5 10.5t-9 26zM253.5 118.5q2.5 -20.5 12 -35t25.5 -22t36 -7.5q10 0 22 4t23.5 12.5t19.5 20t11 26.5q3 19 -1.5 36.5t-15 30t-26.5 20t-35 7.5t-39.5 -9.5t-27.5 -35.5q-7 -27 -4.5 -47.5z " />
<glyph unicode="&#xe17;" horiz-adv-x="953" d="M49 592q0 37 14.5 69.5t39.5 56.5t59.5 38t75.5 14q44 0 71 -28t41.5 -77t17.5 -114t-2 -140q13 35 28.5 75.5t34.5 80.5t42 77t50 65t58.5 44.5t68.5 16.5q64 -1 106 -33.5t66.5 -88t34.5 -128t11.5 -154t-3 -166.5t-8.5 -165q-5 -15 -18.5 -24.5t-28.5 -9.5 q-11 0 -16 6.5t-8 16.5q0 20 3.5 59.5t6.5 90.5t5.5 109t0 116t-11 111t-25.5 94t-45 65.5t-70 25.5q-29 0 -55.5 -20.5t-51 -55t-47.5 -79t-44.5 -91.5t-41.5 -92t-38 -81q-11 -26 -18.5 -89.5t-12.5 -151.5q-2 -25 -15.5 -32.5t-28.5 -9.5q-12 -1 -20 4t-12 12t-5 13.5 t-1 9.5q6 54 14 104t14 104t9.5 115.5t0.5 139.5q-27 -28 -55 -40t-73 -10q-27 1 -48.5 13.5t-37 32.5t-24 46t-8.5 55zM114 595q0 -30 13 -48.5t32.5 -27t42 -6t42 15.5t32.5 36t13 56q0 12 -2.5 25.5t-8.5 25t-15.5 20t-23.5 11.5q-27 5 -50 -3.5t-39.5 -25t-26 -37.5 t-9.5 -42z" />
<glyph unicode="&#x2219;" horiz-adv-x="953" d="M49 592q0 37 14.5 69.5t39.5 56.5t59.5 38t75.5 14q44 0 71 -28t41.5 -77t17.5 -114t-2 -140q13 35 28.5 75.5t34.5 80.5t42 77t50 65t58.5 44.5t68.5 16.5q64 -1 106 -33.5t66.5 -88t34.5 -128t11.5 -154t-3 -166.5t-8.5 -165q-5 -15 -18.5 -24.5t-28.5 -9.5 q-11 0 -16 6.5t-8 16.5q0 20 3.5 59.5t6.5 90.5t5.5 109t0 116t-11 111t-25.5 94t-45 65.5t-70 25.5q-29 0 -55.5 -20.5t-51 -55t-47.5 -79t-44.5 -91.5t-41.5 -92t-38 -81q-11 -26 -18.5 -89.5t-12.5 -151.5q-2 -25 -15.5 -32.5t-28.5 -9.5q-12 -1 -20 4t-12 12t-5 13.5 t-1 9.5q6 54 14 104t14 104t9.5 115.5t0.5 139.5q-27 -28 -55 -40t-73 -10q-27 1 -48.5 13.5t-37 32.5t-24 46t-8.5 55zM114 595q0 -30 13 -48.5t32.5 -27t42 -6t42 15.5t32.5 36t13 56q0 12 -2.5 25.5t-8.5 25t-15.5 20t-23.5 11.5q-27 5 -50 -3.5t-39.5 -25t-26 -37.5 t-9.5 -42z" />
<glyph unicode="&#xe18;" horiz-adv-x="741" d="M70 545q0 59 25.5 102t64 70.5t84.5 39.5t87 9q26 -2 51 -12.5t50.5 -22.5t51 -21.5t52.5 -9.5q29 0 58 22.5t58 47.5q5 1 9 1.5t8 0.5q14 0 22.5 -8t8.5 -19q0 -15 -12 -34t-31.5 -35.5t-45 -27.5t-51.5 -11q-27 0 -59.5 10t-64.5 22t-61.5 21.5t-51.5 9.5 q-30 0 -58.5 -5.5t-51 -19.5t-38.5 -39t-21 -65q-2 -15 -0.5 -22.5t8.5 -10.5t19 -3h31q8 0 35 1t64 2t79.5 1.5t81.5 -1.5t69.5 -6t44.5 -12q28 -10 45.5 -40t27 -73t12 -95t1.5 -103.5t-4.5 -99.5t-6.5 -83q-1 -15 -36 -25.5t-87.5 -15.5t-113.5 -4.5t-114.5 5.5t-90.5 15 t-42 25q-6 36 -9 76.5t-3.5 82.5t1.5 84t6 81q1 17 12.5 25.5t20.5 8.5q12 0 22.5 -6t14.5 -19q2 -9 -1 -40t-6 -71.5t-3 -85.5t8 -82q2 -11 30 -17.5t67.5 -8t85.5 0t85.5 6t65.5 10t27 12.5q4 35 6 83.5t0.5 98.5t-7.5 96t-19 75q-9 20 -42 28t-79.5 9.5t-100.5 -1.5 t-104.5 -5t-91.5 -1.5t-62 9.5q-10 4 -16 12.5t-9.5 18.5t-4.5 20.5t-1 18.5z" />
<glyph unicode="&#xe19;" horiz-adv-x="917" d="M42 630q0 18 6 41.5t22.5 45t47 37.5t78.5 18q60 3 93 -25t47 -75t13.5 -107.5t-7 -123.5t-15 -123t-10.5 -105q-1 -30 -2 -58t5 -44.5t23 -16.5t52 26q27 20 59 40.5t64 37t61 28.5t51 16q0 25 2.5 78.5t7 121t10.5 141.5t13 139q6 23 16 33t25 12q21 2 28.5 -14 t3.5 -30q-6 -60 -12.5 -116t-11 -112.5t-6.5 -114t2 -120.5q44 15 81 11t63.5 -23.5t40 -53t10.5 -76.5q-2 -30 -17 -54.5t-37.5 -42.5t-50.5 -27.5t-57 -9.5q-43 0 -65.5 15.5t-32 40t-11 56t-2.5 64.5q-32 -16 -67.5 -34.5t-71 -38t-68 -38.5t-59.5 -36q-20 -13 -41 -14.5 t-38.5 7.5t-29.5 28.5t-13 49.5q-2 32 0 72t6 82.5t8.5 84.5t9 79t7 66.5t2.5 46.5q-37 -33 -78 -39t-75.5 10.5t-57 53.5t-22.5 90zM109 609q4 -31 24 -53t56 -17q29 4 47.5 21t27 38.5t6.5 44.5t-14.5 40.5t-35.5 26t-57 0.5q-32 -10 -45 -40t-9 -61zM705 119q0 -28 7 -47 t22.5 -27.5t44.5 -0.5q22 6 38 19.5t24.5 31t8.5 36.5t-9 35q-12 21 -31.5 28t-39.5 6t-37.5 -7.5t-26.5 -12.5q-1 -33 -1 -61z" />
<glyph unicode="&#xe1a;" horiz-adv-x="899" d="M38 625q1 49 25.5 83t60 52t76.5 19t75.5 -16.5t56.5 -55t20 -95.5q0 -8 -1 -42t-2 -82t-2.5 -103t-2.5 -105.5t-1.5 -90t-0.5 -54.5q0 -28 5.5 -43t17.5 -22.5t31.5 -9t48.5 -2.5q25 -1 57 -1.5t65.5 0.5t65.5 3t56 7q13 3 25 5.5t20 12.5t13 29.5t5 56.5q0 57 -1.5 133 t-4 155.5t-4 154.5t-1.5 128q0 20 13.5 29t26.5 9q12 0 28 -11.5t16 -26.5q0 -23 0.5 -64t1 -93t1 -111t1 -117t1 -111.5t0.5 -94.5q0 -57 -13.5 -87.5t-32.5 -44.5t-38.5 -16.5t-32.5 -3.5q-41 -6 -102.5 -7.5t-158.5 -1.5q-36 0 -68.5 1.5t-57.5 10.5t-40.5 28.5 t-17.5 55.5q-3 51 -1.5 104.5t3.5 106.5t4.5 104t1.5 96q-15 -13 -39 -20t-50.5 -6.5t-53.5 9t-48.5 27t-34.5 47.5t-12 71zM107 621q-1 -23 8 -42t29.5 -31.5t53.5 -10.5q29 0 47.5 13.5t28 32.5t9.5 41.5t-8.5 41.5t-26 31.5t-43.5 12.5q-31 0 -52 -13t-33 -33t-13 -43z " />
<glyph unicode="&#xe1b;" horiz-adv-x="932" d="M36 621q1 28 13.5 56t33.5 49.5t49 35t58 13.5q80 0 121.5 -44t38.5 -127q0 -8 -1 -41.5t-2 -80.5t-2 -101.5t-1.5 -103.5t-1 -88t-0.5 -54q0 -28 5.5 -43t17.5 -22.5t31.5 -9t48.5 -2.5q25 -1 57 -1.5t65.5 0.5t65.5 3t56 7q13 3 25 5.5t20 12.5t13 29.5t5 56.5 q0 38 -1 104.5t-2 147t-3 168.5t-3 167.5t-2 144.5t-1 101q0 20 13.5 29t26.5 9q12 0 28 -11.5t16 -26.5q0 -17 0.5 -56t0.5 -92.5t0.5 -118t1.5 -132.5t1.5 -135.5t0.5 -128t0.5 -110t0.5 -80.5q0 -57 -13.5 -87.5t-32.5 -44.5t-38.5 -16.5t-32.5 -3.5q-41 -6 -102.5 -7.5 t-158.5 -1.5q-36 0 -68.5 1.5t-57.5 10.5t-40.5 28.5t-17.5 55.5q-3 51 -2.5 105t2.5 107t4 104t2 95q-24 -18 -64.5 -24t-79.5 6.5t-67 46.5t-27 95zM104.5 618.5q-1.5 -22.5 7.5 -41.5t29.5 -31t52.5 -11q28 1 46.5 14t27.5 32t9.5 40.5t-8.5 40t-26 31t-42 12.5 q-30 0 -51 -13t-32.5 -32t-13 -41.5z" />
<glyph unicode="&#xe1c;" horiz-adv-x="875" d="M84.5 340q-1.5 68 5.5 135t22 123.5t37 97.5t51 56q51 27 93 19.5t70.5 -35t41.5 -67.5t7 -79.5t-34 -71t-82 -41.5q-7 -1 -21 -2.5t-31.5 1.5t-37.5 13t-39 31q-5 -25 -9 -67t-5.5 -90.5t2 -98.5t15 -92.5t32.5 -71.5t54 -35q21 -4 42 11t40 41.5t36 61t30 70t21.5 67.5 t12.5 55q4 27 15.5 38.5t23.5 12t22 -8t12 -21.5q3 -25 8.5 -57.5t15.5 -67.5t23.5 -68.5t32.5 -59t42.5 -39.5t53.5 -10q15 2 24 26t14.5 63t7.5 89.5t1.5 105t-2 110.5t-3.5 105t-3.5 88.5t-1.5 61.5q4 17 18 24.5t24 7.5q9 0 22.5 -8.5t12.5 -23.5q-2 -28 -0.5 -74.5 t2.5 -103.5t1.5 -121t-1.5 -126.5t-9 -119t-19.5 -99.5t-33 -68.5t-50.5 -25.5q-27 0 -62.5 17t-68 49t-56.5 78.5t-29 107.5q-12 -55 -34 -103.5t-51 -84.5t-62.5 -56.5t-67.5 -20.5q-44 0 -76.5 29.5t-53.5 78.5t-32.5 112.5t-13 131.5zM194 618q0 -28 12.5 -46.5 t31.5 -27.5t40.5 -9.5t40.5 9t31.5 28t12.5 47.5q0 27 -12.5 46t-31.5 28.5t-40.5 10t-40.5 -9t-31.5 -28.5t-12.5 -48z" />
<glyph unicode="&#xe1d;" horiz-adv-x="899" d="M84.5 340q-1.5 68 5.5 135t22 123.5t37 97.5t51 56q51 27 93 19.5t70.5 -35t41.5 -67.5t7 -79.5t-34 -71t-82 -41.5q-7 -1 -21 -2.5t-31.5 1.5t-37.5 13t-39 31q-5 -25 -9 -67t-5.5 -90.5t2 -98.5t15 -92.5t32.5 -71.5t54 -35q21 -4 42 11t40 41.5t36 61t30 70t21.5 67.5 t12.5 55q4 27 15.5 38.5t23.5 12t22 -8t12 -21.5q3 -25 8.5 -57.5t15.5 -67.5t23.5 -68.5t32.5 -59t42.5 -39.5t53.5 -10q15 2 24.5 37.5t15 93.5t8 132.5t2 155t-2.5 160.5t-5 148.5t-6 120t-6 74.5q4 17 18 24.5t24 7.5q9 0 21 -8.5t14 -23.5q4 -30 9 -89.5t9.5 -136.5 t7 -165.5t0.5 -176t-9 -168t-22 -142t-39 -98t-59 -35.5q-27 1 -62.5 17.5t-68 48.5t-56.5 78.5t-29 107.5q-12 -55 -34 -103.5t-51 -84.5t-62.5 -56.5t-67.5 -20.5q-44 0 -76.5 29.5t-53.5 78.5t-32.5 112.5t-13 131.5zM190.5 627.5q-0.5 -30.5 18.5 -58t60 -33.5h-1 q29 -2 48.5 10t29.5 31t10.5 41.5t-9.5 42.5t-30.5 33t-51.5 13q-36 0 -55 -24.5t-19.5 -55z" />
<glyph unicode="&#xe1e;" horiz-adv-x="919" d="M43.5 567.5q-6.5 37.5 6.5 83.5q7 24 22.5 45.5t37 37t47 24.5t51.5 9q27 0 52 -10t45 -29.5t32.5 -50t14.5 -70.5q1 -30 -0.5 -63t-4 -84.5t-6 -130.5t-6.5 -200q25 67 44 118.5t36 94.5t34 80.5t38 77.5q5 10 13.5 22t18 22.5t18.5 17.5t17 6q19 -2 37 -18.5t33 -43.5 q19 -35 36.5 -79.5t36 -96t38 -107t43.5 -111.5l3 610q-3 19 0 29.5t9 15.5t14 6.5t16 1.5q17 0 26.5 -12t8.5 -32v-49.5v-90.5t0.5 -116.5t0.5 -127.5t-0.5 -123.5t-1.5 -104t-3.5 -69t-5.5 -19.5q-9 -23 -24.5 -28t-32.5 1.5t-32.5 21.5t-22.5 33q-35 84 -62.5 157 t-49.5 129t-39.5 91.5t-30.5 44.5q-15 -22 -31.5 -60t-38 -93t-49.5 -128t-65 -166h1q-6 -16 -20 -23.5t-29 -7.5q-19 0 -33 10.5t-13 30.5q-1 9 -0.5 36t1 65t1 83t1.5 91t2.5 88.5t2.5 75.5q-20 -26 -48.5 -36t-58.5 -7t-58 19.5t-47 43.5t-25.5 64.5zM108 612 q-2 -23 8 -51.5t32.5 -45.5t56.5 -12.5t79 48.5q2 46 -4.5 76t-18.5 47t-28.5 24t-34.5 7q-11 0 -26 -5.5t-28.5 -17t-23.5 -29t-12 -41.5z" />
<glyph unicode="&#xe1f;" horiz-adv-x="1003" d="M55.5 567.5q-6.5 37.5 6.5 83.5q7 24 22.5 45.5t37 37t47 24.5t51.5 9q27 0 52 -10t45 -29.5t32.5 -50t14.5 -70.5q1 -30 -0.5 -63t-4 -84.5t-6 -130.5t-6.5 -200q25 67 48.5 118.5t45.5 94.5t43 80.5t42 77.5q5 10 13.5 22t18 22.5t18.5 17.5t17 6q19 -2 37 -18.5 t33 -43.5q19 -35 40 -79.5t43.5 -96t45.5 -107t47 -111.5l10 893q-3 19 0 29.5t9 15.5t14 6.5t16 1.5q17 0 26.5 -12t8.5 -32q0 -12 -0.5 -61.5t-0.5 -122.5t-0.5 -162t-1 -179.5t-1.5 -175.5t-3 -149.5t-4.5 -101t-5.5 -31.5q-9 -23 -24.5 -28t-32.5 1.5t-32.5 21.5 t-22.5 33q-35 84 -66 157t-57 129t-47 91.5t-34 44.5q-29 -44 -83 -152.5t-128 -294.5h1q-6 -16 -20 -23.5t-29 -7.5q-19 0 -33 10.5t-13 30.5q-1 9 -0.5 36t1 65t1 83t1.5 91t2.5 88.5t2.5 75.5q-20 -26 -48.5 -36t-58.5 -7t-58 19.5t-47 43.5t-25.5 64.5zM120 612 q-2 -23 8 -51.5t32.5 -45.5t56.5 -12.5t79 48.5q2 46 -4.5 76t-18.5 47t-28.5 24t-34.5 7q-11 0 -26 -5.5t-28.5 -17t-23.5 -29t-12 -41.5z" />
<glyph unicode="&#xe20;" horiz-adv-x="843" d="M52 127q-2 33 7 55t23.5 36.5t31 22.5t31.5 13q10 3 26.5 4t34.5 -4.5t35 -17.5t28 -34q0 12 1 35.5t2 51.5t2 58.5t1 57t-1.5 47t-3.5 28.5q-11 6 -32.5 6t-44 0.5t-43 4t-29.5 15.5q-7 8 -15 20.5t-8 22.5q0 31 16 60.5t42 55.5t60.5 47.5t70.5 37.5t72 24.5t66 9.5 q82 2 138.5 -18.5t94 -57t58 -87t30 -109t9.5 -122.5t-3.5 -128t-8 -125t-4.5 -114q-1 -22 -13.5 -25.5t-25.5 -3.5q-12 0 -18 9.5t-11 25.5q1 61 8 137t9.5 153.5t-4.5 150.5t-34 128t-80 86.5t-142 26.5q-95 -5 -154.5 -46.5t-95.5 -106.5q19 -3 40 -4.5t40 -2t33 -2 t18 -4.5q11 -7 18 -44t9 -90t0.5 -114t-7.5 -116t-16 -96t-24 -53q-33 -30 -73.5 -38.5t-76 3.5t-60 44.5t-27.5 85.5zM113 127q0 -39 22 -58.5t48.5 -21t48.5 15.5t22 50q0 42 -22 63t-48.5 22t-48.5 -17t-22 -54z" />
<glyph unicode="&#xe21;" horiz-adv-x="865" d="M80 619q0 58 28 95.5t68 52.5t85 7t80 -39q24 -22 36 -70t15.5 -107t1 -122.5t-7.5 -117.5t-10 -90t-5 -41q18 -6 45.5 -18.5t58.5 -26.5t62.5 -27.5t57.5 -21.5t43.5 -9t21.5 10q4 27 6 74.5t2.5 106t-0.5 124t-2 128.5t-2.5 119.5t-1.5 98.5q4 11 12.5 19.5t19.5 8.5 q14 0 23 -6t11 -26q3 -48 6 -107t5 -123.5t2 -131t-2 -128t-6 -115t-11 -92.5q-5 -14 -20.5 -25t-29.5 -11q-39 0 -83 12.5t-86 29.5t-79.5 34.5t-62.5 27.5q-8 -42 -30.5 -70t-52.5 -43t-63 -16t-61.5 10t-48.5 35t-24 60q-6 56 7.5 95t43.5 57t74.5 13.5t100.5 -35.5 l14 313q-14 -18 -29.5 -27.5t-31.5 -13.5t-30.5 -4.5t-24.5 0.5q-21 1 -43.5 8.5t-40.5 23t-29.5 40t-11.5 61.5zM133 625q-2 -29 15.5 -46.5t46.5 -25.5q14 -4 34.5 -2t40 11t33.5 25.5t15 40.5q1 21 -7.5 37t-23 27t-32.5 17t-36 6q-27 0 -43.5 -9t-25.5 -22.5t-12.5 -29 t-4.5 -29.5zM137 114q1 -24 12 -41t27 -25t34.5 -6.5t35 14t28 36.5t13.5 62q-23 16 -50 27t-49.5 9.5t-37.5 -19t-13 -57.5z" />
<glyph unicode="&#xe22;" horiz-adv-x="837" d="M64 562q0 38 13 75.5t36.5 67t57 49t74.5 21.5q39 2 70 -13.5t50 -41.5t26 -58t-0.5 -63t-31 -56t-64.5 -37q-30 -9 -59 -4.5t-52 16.5t-38.5 29.5t-17.5 36.5q-9 -29 -2 -57.5t25.5 -53t46 -42.5t61.5 -26t71.5 -4t74.5 24q13 7 30.5 -0.5t20.5 -30.5q2 -17 -19 -35 t-66 -21q-58 -9 -97.5 -35t-62.5 -59t-29.5 -69t1.5 -65q7 -24 27.5 -35.5t46.5 -13.5q50 -3 111.5 -6t116.5 -0.5t96 13t50 35.5q6 15 10 55t7.5 95.5t5.5 120.5t2.5 128.5t-0.5 120t-3 94.5q-1 19 0 30.5t5 18t10.5 8.5t15.5 3q20 2 29 -8.5t11 -42.5q2 -28 3 -80.5 t1 -118t-2 -138.5t-6.5 -141.5t-11.5 -126.5t-18 -93q-4 -13 -33.5 -21.5t-74 -13t-98.5 -6t-108.5 0.5t-103 6t-81.5 10q-35 6 -53.5 34.5t-21.5 73.5q-2 24 1.5 55.5t16.5 64t38.5 63.5t68.5 56q-50 15 -84 39t-54.5 52.5t-29.5 59.5t-9 60zM158 656q-5 -21 3.5 -40 t25 -33.5t38.5 -22t43.5 -5t39.5 16t28 42.5q8 24 0 45t-25 36.5t-40 23.5t-45.5 4.5t-41 -19.5t-26.5 -48z" />
<glyph unicode="&#xe23;" horiz-adv-x="733" d="M71 532q2 51 22.5 93t53 72.5t74 47.5t84.5 17q28 0 54.5 -9.5t52 -21t51 -22t51 -11.5t52.5 10t57 42q12 11 26 11q15 0 27.5 -12t9.5 -27q-6 -30 -34.5 -51.5t-64 -33t-71.5 -12t-58 10.5q-121 62 -202 44t-102 -120q-7 -32 16 -32t78 20q31 11 77 16.5t93.5 2.5 t88.5 -15.5t62 -37.5q14 -17 22.5 -50.5t12 -75t3.5 -87.5t-3 -88t-7.5 -76t-8.5 -51q-7 -27 -22.5 -46.5t-36 -31.5t-45.5 -17t-50 -4q-26 1 -51.5 13t-44.5 33t-29.5 50.5t-5.5 65.5q6 40 34.5 63.5t66 31t75 -1.5t61.5 -33q3 17 4 42t0 53t-4 57t-7 53t-10.5 41t-13.5 22 q-41 28 -88.5 30t-96.5 -7.5t-98 -23.5t-92 -17q-10 -1 -21.5 6t-20.5 18.5t-15 24.5t-6 24zM365 119.5q1 -25.5 19.5 -47.5t51.5 -23q13 -1 27 2.5t26 12t20.5 22.5t8.5 35q0 16 -7.5 28.5t-19.5 21t-26 12.5t-27 4q-39 0 -56.5 -21t-16.5 -46.5z" />
<glyph unicode="&#xe24;" horiz-adv-x="863" d="M65 495.5q0 17.5 12 47.5q20 48 66 91t106.5 75.5t130.5 51t138 18.5t115.5 -34.5t78.5 -94t47.5 -139t22.5 -169t4 -185t-8.5 -186.5t-15.5 -174t-16 -147q-1 -21 -10.5 -31.5t-21.5 -10.5q-10 0 -19 10.5t-13 25.5q0 23 5.5 81.5t12.5 138.5t12.5 174.5t5 189.5 t-10 183.5t-32.5 156.5t-61.5 108.5t-98.5 39.5q-50 -1 -106.5 -16t-108 -41t-92.5 -62.5t-61 -81.5q30 1 56.5 4t45.5 0.5t29 -15t7 -43.5q-5 -53 -16 -103t-17 -90q49 16 86.5 7.5t62.5 -31t37.5 -54t12.5 -59.5q0 -31 -13.5 -57t-35 -44.5t-50 -29t-58.5 -10.5 q-44 0 -75.5 17.5t-41.5 55.5q-10 43 -9 91t7.5 99t16.5 103.5t18 104.5q-18 1 -38 -0.5t-39 -2.5t-34.5 1t-24.5 10.5t-9 26zM236.5 118.5q2.5 -20.5 12 -35t25.5 -22t36 -7.5q10 0 22 4t23.5 12.5t19.5 20t11 26.5q3 19 -1.5 36.5t-15 30t-26.5 20t-35 7.5t-39.5 -9.5 t-27.5 -35.5q-7 -27 -4.5 -47.5z" />
<glyph unicode="&#xe25;" horiz-adv-x="822" d="M79.5 613q-1.5 16 20.5 41q24 27 58.5 49.5t76 39t88 25t94.5 7.5q83 -2 140 -20t93 -55t54 -95t22 -140t-3.5 -190t-20.5 -244q-7 -16 -11 -27.5t-16 -11.5q-13 0 -28 8.5t-12 24.5q21 103 13.5 183.5t-40 134.5t-89 79.5t-133.5 19.5q-33 -3 -64.5 -17.5t-56 -40 t-39 -60.5t-13.5 -78q30 14 66 11t67.5 -19.5t53 -44.5t21.5 -65q0 -55 -27.5 -92.5t-87.5 -43.5q-54 -6 -87.5 9t-53 39t-26.5 52.5t-8 51.5q-2 72 8.5 126.5t30.5 95t48.5 68.5t63.5 46q25 13 61.5 21t75 9.5t75 -4.5t62.5 -19q23 -12 42 -30.5t33.5 -40t25.5 -43 t17 -39.5q-2 29 -1 68t-3 81t-16.5 83t-40.5 73.5t-75 53t-121 20.5q-41 0 -85 -9t-82.5 -24.5t-67.5 -38t-40 -49.5q-2 -6 -9.5 -8.5t-15.5 -3t-16 1t-11 5.5q-9 10 -10.5 26zM196 126q0 -23 18 -47t56 -29q24 -3 41.5 1.5t29 14.5t17 24t5.5 29q0 14 -7 28t-19 25 t-28.5 18t-35.5 8q-45 2 -61 -19t-16 -53z" />
<glyph unicode="&#xe26;" horiz-adv-x="828" d="M52 127q-2 33 7 55t23.5 36.5t31 22.5t31.5 13q10 3 26.5 4t34.5 -4.5t35 -17.5t28 -34q0 12 1 35.5t2 51.5t2 58.5t1 57t-1.5 47t-3.5 28.5q-11 6 -32.5 6t-44 0.5t-43 4t-29.5 15.5q-7 8 -15 20.5t-8 22.5q0 31 16 60t42 54t60.5 46.5t70.5 37t72 25.5t66 12 q129 10 200 -42.5t91 -173.5q12 -72 15 -157.5t1.5 -174.5t-6.5 -176t-10 -162t-8 -132.5t0 -86.5q-1 -22 -9.5 -37t-21.5 -15q-6 0 -13 5t-13 13t-11 17t-7 17q0 42 3.5 104.5t8 136.5t9 156t6.5 164t0 159.5t-9 142.5q-11 99 -68.5 138.5t-154.5 30.5q-95 -9 -154.5 -48.5 t-95.5 -104.5q19 -3 40 -4.5t40 -2t33 -2t18 -4.5q11 -7 18 -44t9 -90t0.5 -114t-7.5 -116t-16 -96t-24 -53q-33 -30 -73.5 -38.5t-76 3.5t-60 44.5t-27.5 85.5zM113 127q0 -39 22 -58.5t48.5 -21t48.5 15.5t22 50q0 42 -22 63t-48.5 22t-48.5 -17t-22 -54z" />
<glyph unicode="&#xe27;" horiz-adv-x="684" d="M58.5 607.5q1.5 20.5 18.5 37.5q25 26 57 49t69 40t78 27t84 10q79 0 126 -34.5t72 -91.5t32.5 -130.5t7.5 -151.5q0 -81 -10.5 -152.5t-33 -124t-58 -81.5t-84.5 -26q-32 2 -60 9.5t-49.5 23.5t-35.5 42.5t-18 65.5q-4 38 10 67.5t38.5 50t56 30t62 7.5t55.5 -17.5 t38 -44.5q6 3 10.5 19t7 37.5t3.5 45.5t1 44q-1 73 -9 136t-26.5 110t-49.5 74t-78 27q-33 0 -68 -11.5t-68 -29.5t-61.5 -41.5t-47.5 -47.5q-14 -18 -29 -14.5t-29 14.5q-13 11 -11.5 31.5zM317 127q0 -30 13.5 -49.5t33.5 -29t44 -10t45 8t35.5 25t16.5 40.5q3 34 -10 57 t-33.5 35.5t-46 14t-47 -8t-36.5 -30.5t-15 -53z" />
<glyph unicode="&#xe28;" horiz-adv-x="875" d="M96 250q-2 65 6 129.5t26.5 123t48 108.5t70.5 87t94 58.5t118 21.5q79 0 136 -17.5t97 -49.5q24 7 53 25.5t55 42t46.5 50t27.5 50.5q10 16 23.5 21.5t25.5 2t20.5 -15.5t7.5 -30q-10 -30 -31 -61.5t-48.5 -59.5t-59.5 -51.5t-64 -37.5q27 -44 40 -99.5t17 -120.5 t1 -137.5t-10 -150.5q-2 -25 -3 -42.5t-1 -31t-0.5 -26t-2.5 -27.5q-2 -22 -16 -26.5t-29 -4.5q-12 0 -22 10.5t-11 22.5q-2 23 -1.5 36.5t2 27t4 30t5.5 45.5q6 61 11 126t2.5 126.5t-16 116t-43.5 95.5t-80.5 64.5t-127.5 23.5q-59 0 -105 -24.5t-80.5 -64t-58 -90.5 t-37 -105t-18.5 -107t-2 -97t13 -74.5t26 -39.5q9 -4 19.5 21.5t23 68t27.5 94.5t32.5 100.5t38.5 87.5t45 54q37 24 74.5 26.5t67.5 -13.5t49 -50t19 -85q0 -24 -8 -47t-22.5 -42t-33.5 -31.5t-41 -15.5q-21 -3 -42 -1.5t-39 10t-32.5 24t-22.5 40.5q-14 -34 -24 -77.5 t-22.5 -88.5t-29 -86.5t-42.5 -70.5q-20 -22 -44.5 -18.5t-46 32.5t-37.5 83t-18 132zM395 391q2 -13 10.5 -27t22 -24t31.5 -12.5t41 7.5q24 12 35 38.5t9 53.5t-17 48t-44 21q-15 0 -32.5 -8t-31 -22.5t-21 -33.5t-3.5 -41z" />
<glyph unicode="&#xe29;" horiz-adv-x="973" d="M66 614q0 31 12 61.5t33.5 54.5t50.5 39t63 15q44 0 75.5 -16.5t51 -44t28.5 -62.5t9 -72q0 -22 -2.5 -58t-6.5 -79t-8.5 -90t-8.5 -91.5t-6.5 -83t-2.5 -64.5q0 -23 2.5 -36.5t10 -21.5t21 -10.5t34.5 -2.5q24 0 64.5 1.5t83.5 4t82.5 4t62.5 1.5q32 0 49.5 13.5 t19.5 56.5q1 21 0.5 43.5t-0.5 45t-0.5 43.5t0.5 37q-22 -18 -54.5 -33t-69 -22.5t-72 -5t-63.5 18.5t-44.5 48t-14.5 84q1 21 12.5 37.5t28.5 28.5t38 18.5t41 6.5q21 0 45.5 -8t43.5 -27t27 -50t-3 -77q8 5 19 8.5t22.5 8t23 11.5t20.5 21q2 39 1.5 90t-1.5 102.5t-1 97 t3 74.5q3 8 4.5 17t4 16t6.5 11.5t11 4.5q26 0 35 -27q3 -26 3 -70.5t-1.5 -94t-2.5 -97.5t1 -81q16 21 31.5 40.5t27.5 34.5t20.5 23.5t12.5 8.5q11 0 18.5 -12t8.5 -29q-11 -42 -41.5 -71t-69.5 -60q-3 -74 -2 -139t-5 -113.5t-23.5 -76t-56.5 -27.5q-12 0 -46 -2 t-79.5 -4t-97 -3.5t-99 -1t-86 3.5t-56.5 10q-6 11 -11.5 19.5t-9.5 17.5t-6.5 21.5t-2.5 31.5q0 42 3 95t8 107.5t11 106t11 89.5q-44 -26 -87 -24t-77.5 23t-55.5 56.5t-21 75.5zM129 612q6 -24 17 -42q10 -16 28 -29t47 -11q53 2 78 28t25 64q0 44 -24 70.5t-63 26.5 q-22 0 -41.5 -9t-34.5 -24t-23.5 -34.5t-8.5 -39.5zM529 366v1q-2 -15 4 -27t16 -20.5t22.5 -13t25.5 -4.5q26 0 46.5 17.5t17.5 58.5q-5 22 -26.5 37.5t-43.5 15.5q-23 0 -41.5 -15t-20.5 -50z" />
<glyph unicode="&#xe2a;" horiz-adv-x="822" d="M77 616.5q1 7.5 6.5 16.5t16.5 21q24 27 58.5 50t76 39t88 24.5t94.5 7.5q66 -2 115.5 -12t86.5 -30q30 4 60 13.5t55.5 26t42.5 40.5t22 58q4 21 17 30t27 7.5t25 -13.5t10 -33q-12 -80 -63 -128t-123 -67q28 -41 38.5 -100.5t10 -139.5t-9.5 -181.5t-20 -225.5 q-7 -16 -15.5 -22t-20.5 -6q-13 0 -22 7.5t-7 23.5q20 221 -42.5 326t-217.5 93q-33 -3 -64.5 -17.5t-56 -40t-39 -60.5t-13.5 -78q30 14 66 11t67.5 -19.5t53 -44.5t21.5 -65q0 -55 -27.5 -92.5t-87.5 -43.5q-54 -6 -87.5 9t-53 39t-26.5 52.5t-8 51.5q-2 72 8.5 126.5 t30.5 95t48.5 68.5t63.5 46q25 13 61.5 21t75 9.5t75 -4.5t62.5 -19q23 -12 42 -30.5t33.5 -40t25.5 -43t17 -39.5q-2 29 -0.5 67.5t-2.5 80t-16 82t-40 72.5t-75 52t-121 20q-41 0 -82.5 -9t-77.5 -24.5t-65 -36.5t-44 -46q-4 -6 -11.5 -11.5t-16.5 -7t-18 1.5t-16 12 q-6 9 -9 15.5t-2 14zM196 126q0 -23 18 -47t56 -29q24 -3 41.5 1.5t29 14.5t17 24t5.5 29q0 14 -7 28t-19 25t-28.5 18t-35.5 8q-45 2 -61 -19t-16 -53z" />
<glyph unicode="&#xe2b;" horiz-adv-x="903" d="M35 624q0 48 18 78t46 46.5t61.5 22.5t63.5 6q46 0 69.5 -35t32 -92.5t6 -131t-8.5 -150t-12 -150t-4 -130.5q47 64 85 119t75 105t76.5 96.5t90.5 94.5q-74 38 -96 85.5t-2 113.5q6 21 22 36.5t36.5 26t43.5 15.5t44 5q40 -1 70.5 -17t49.5 -41t25.5 -56.5t-0.5 -62.5 t-28.5 -59t-59.5 -46q33 -25 52 -60t28 -76t10 -86.5t-1.5 -90t-7.5 -87t-8 -78.5q0 -10 -4.5 -17t-11 -11t-13.5 -5.5t-13 -1.5q-12 0 -22 7t-13 26q2 32 7 70.5t9 79.5t6 82t-4 78.5t-21 69.5t-43 55q-25 -21 -54.5 -58t-62.5 -81.5t-67.5 -93t-68.5 -92.5t-66.5 -79 t-60.5 -53q-8 -3 -21.5 -3t-26.5 4.5t-22.5 13.5t-9.5 23q0 55 4.5 111t10 112.5t9.5 113.5t4 114q-43 -28 -83 -26t-71 23.5t-49.5 58t-18.5 78.5zM96 631q0 -20 12.5 -43.5t34 -39t50 -16t58.5 25.5q2 11 4 34.5t2 48t-4 44.5t-14 24q-26 9 -51 8t-45.5 -11.5t-33.5 -29.5 t-13 -45zM605.5 641q0.5 -21 9.5 -39.5t26.5 -31t42.5 -14.5q35 -2 55 22.5t21.5 56t-17 59t-61.5 31.5q-26 -1 -43.5 -13.5t-25.5 -31t-7.5 -39.5z" />
<glyph unicode="&#xe2c;" horiz-adv-x="1014" d="M55.5 567.5q-6.5 37.5 6.5 83.5q7 24 22.5 45.5t37 37t47 24.5t51.5 9q27 0 52 -10t45 -29.5t32.5 -50t14.5 -70.5q1 -30 -0.5 -63t-4 -84.5t-6 -130.5t-6.5 -200q25 67 48.5 118.5t45.5 94.5t43 80.5t42 77.5q5 10 13.5 22t18 22.5t18.5 17.5t17 6q19 -2 37 -18.5 t33 -43.5q19 -35 40 -79.5t43.5 -96t45.5 -107t47 -111.5l-1 602q-60 -18 -104 -18.5t-74.5 11.5t-48 34.5t-24 50.5t-3 59t15.5 61q9 22 27.5 41.5t42.5 34t52 24t55.5 11t53 -5t44.5 -23.5q16 -14 23.5 -26.5t9.5 -32t2 -49.5t2 -79q33 8 58 27t48 30q21 1 32 -6.5 t11.5 -18.5t-8.5 -24t-28 -23q-23 -12 -37.5 -19.5t-25.5 -13t-22.5 -11t-27.5 -12.5v-155t0.5 -162t1 -152.5t0 -126.5t-2.5 -84t-5 -25q-9 -23 -24.5 -28t-32.5 1.5t-32.5 21.5t-22.5 33q-35 84 -66 157t-57 129t-47 91.5t-34 44.5q-29 -44 -83 -152.5t-128 -294.5h1 q-6 -16 -20 -23.5t-29 -7.5q-19 0 -33 10.5t-13 30.5q-1 9 -0.5 36t1 65t1 83t1.5 91t2.5 88.5t2.5 75.5q-20 -26 -48.5 -36t-58.5 -7t-58 19.5t-47 43.5t-25.5 64.5zM120 612q-2 -23 8 -51.5t32.5 -45.5t56.5 -12.5t79 48.5q2 46 -4.5 76t-18.5 47t-28.5 24t-34.5 7 q-11 0 -26 -5.5t-28.5 -17t-23.5 -29t-12 -41.5zM663 833.5q6 -26.5 35 -54.5q16 -15 35 -16.5t37 3.5t34 13t26 12q1 24 3 46t1.5 41.5t-6 36t-18.5 30.5q-12 12 -33 12.5t-43 -9t-41 -26.5t-27.5 -39.5t-2.5 -49z" />
<glyph unicode="&#xe2d;" horiz-adv-x="795" d="M78 649q0 7 5 18.5t13 18.5q52 41 121.5 62.5t145.5 21.5q81 0 147.5 -29.5t114 -82t74 -126t26.5 -161.5q0 -75 -20.5 -146t-61.5 -126t-103.5 -88t-146.5 -33q-67 0 -118 23t-86 61.5t-54.5 87t-23 100.5t8.5 103t39.5 92.5t71 70t102.5 36.5q39 5 70 -7t52 -35 t32.5 -53.5t11.5 -61.5q0 -44 -29 -97q-17 -29 -49.5 -47.5t-67.5 -18.5q-15 0 -38.5 4.5t-48 17t-46.5 34t-33 55.5q-14 -77 4 -133.5t51.5 -93.5t75 -55.5t75.5 -18.5q60 0 109 32.5t83.5 83t53 111.5t18.5 117q0 67 -24.5 124.5t-66 99.5t-96.5 66t-117 24 q-57 0 -114 -19.5t-109 -52.5q-10 -6 -23 -6t-21 8t-8 19zM236 392q0 -15 4.5 -29.5t16.5 -26t33 -19.5t53 -10q35 -2 62 18.5t27 66.5q0 30 -11.5 49t-27 30t-32 15t-26.5 3q-42 -3 -70 -30.5t-29 -66.5z" />
<glyph unicode="&#xe2e;" horiz-adv-x="808" d="M49 592q2 34 23.5 63.5t57.5 53.5t77 41t83 25.5t76 7.5q73 -3 123.5 -27.5t95.5 -60.5q27 14 53.5 30t48.5 32t36.5 32t18.5 31q10 16 23.5 21.5t25.5 2t20.5 -15.5t7.5 -30q-5 -22 -17 -39t-27.5 -31.5t-34 -27t-35.5 -24.5q-32 -21 -63 -39q40 -52 61.5 -119 t21.5 -147q0 -75 -20.5 -146t-61.5 -126t-103.5 -88t-146.5 -33q-73 0 -127 27t-89 71t-51.5 99t-14.5 111t22.5 108.5t59.5 90.5q-13 -1 -30 -0.5t-34 4.5t-32 11.5t-24 20.5q-26 37 -24 71zM118 600q-6 -26 14 -37t56.5 -11.5t83 8.5t93.5 23t88.5 31t67.5 34 q-6 13 -23 27.5t-40.5 27t-51.5 20t-56 5.5q-50 -3 -90.5 -16.5t-70.5 -32t-48.5 -39.5t-22.5 -40zM187 343q-14 -77 4 -133.5t51.5 -93.5t75 -55.5t75.5 -18.5q60 0 109 32.5t83.5 83t53 111.5t18.5 117q0 63 -22 118.5t-60 97.5q-39 -19 -78 -34t-81 -29q40 -20 61.5 -60 t21.5 -84t-29 -97q-17 -29 -49.5 -47.5t-67.5 -18.5q-15 0 -38.5 4.5t-48 17t-46.5 34t-33 55.5zM227 396q0 -15 6.5 -31.5t21 -30.5t37 -24t54.5 -12q18 -1 34.5 4.5t29 17.5t20.5 29.5t8 40.5q0 30 -13 50.5t-31 33.5t-36.5 18.5t-28.5 4.5q-21 -2 -39 -10.5t-32 -22 t-22.5 -31.5t-8.5 -37z" />
<glyph unicode="&#xe2f;" horiz-adv-x="804" d="M78 554q1 36 16 70t40.5 60.5t58.5 43t69 16.5q47 0 81.5 -16.5t55.5 -45.5t28 -68.5t0 -86.5q-9 -45 -36 -74.5t-62 -43t-73 -11t-68 21.5q7 -34 28.5 -57t48.5 -36.5t55.5 -19t49.5 -5.5q56 0 96.5 18t68 48.5t43.5 71.5t23 87t6.5 94t-5.5 93l-1 2q-2 13 15 19.5 t36 6.5q15 0 26.5 -5.5t10.5 -19.5q9 -50 14.5 -122.5t7.5 -153t1.5 -161.5t-3.5 -146q1 -16 -11 -24t-29 -11t-34.5 -3.5t-26.5 -1.5q-38 -6 -79.5 -11.5t-76.5 -21.5t-58 -48t-24 -90q0 -17 1.5 -29.5t-0.5 -20.5t-9.5 -12.5t-25.5 -4.5q-29 0 -41 27.5t-12 73.5 q0 65 33.5 102.5t86 58t116.5 29t126 14.5q0 28 2 74t4 95.5t3.5 95.5t0.5 75q-7 -67 -26 -113.5t-44 -76.5t-54 -46t-57 -23.5t-53 -9t-42 -1.5q-153 0 -226.5 84t-74.5 239zM147.5 536q7.5 -31 27.5 -59q30 -16 61.5 -18t58 9.5t43.5 37t17 64.5q0 25 -7.5 48.5t-21.5 40 t-36 23t-50 -2.5q-39 -11 -62 -33.5t-30.5 -50.5t0 -59z" />
<glyph unicode="&#xe30;" horiz-adv-x="657" d="M87 160q-3 33 7 60t28.5 46.5t45 30t56.5 10.5q47 0 76.5 -20t42 -50.5t9.5 -66.5t-21 -67q28 0 49.5 7t40.5 23t38 40.5t41 60.5q5 19 20.5 25.5t26.5 1.5q22 -8 21.5 -20t-9.5 -38q-15 -43 -52 -78t-85.5 -57t-102 -30t-101 1.5t-83.5 39t-48 81.5zM87 576q-3 33 7 60 t28.5 46.5t45 30t56.5 10.5q47 0 76.5 -20.5t42 -51.5t9.5 -67.5t-21 -67.5q28 0 50.5 7t42.5 23t40 40.5t42 60.5q5 19 17.5 27t23.5 3q22 -8 20.5 -20t-10.5 -38q-16 -47 -54 -83.5t-86 -58.5t-101 -29t-99.5 4t-82 41.5t-47.5 82.5zM149 185q0 -43 24.5 -65t75.5 -17 q13 7 24 25t14.5 39.5t-3 43t-26.5 36.5q-26 10 -46 9.5t-34 -10t-21.5 -25.5t-7.5 -36zM152 600q0 -87 101 -78q13 7 23 24.5t12 38.5t-5.5 42t-27.5 36q-26 10 -45 9t-32 -10.5t-19.5 -25.5t-6.5 -36z" />
<glyph unicode="&#xe31;" d="M-439 1052q-2 37 9 64.5t30.5 46.5t45.5 29t54 12q44 3 76 -13.5t49.5 -45t18 -66t-18.5 -78.5q17 -3 44.5 2.5t58 23.5t62 50.5t55.5 84.5q7 15 15.5 22t16 8.5t13.5 0.5t9 -2q10 -7 15.5 -11.5t7 -10.5t-1.5 -14.5t-9 -22.5q-25 -58 -63 -98.5t-84.5 -65t-100 -35 t-110.5 -8.5q-33 1 -66.5 7t-60.5 20.5t-45 39t-20 60.5zM-376 1078.5q-3 -29.5 15.5 -55t60.5 -29.5q25 -2 42 9t26.5 29.5t10.5 40.5t-6.5 40.5t-23.5 31t-41 12.5q-38 -1 -59.5 -25t-24.5 -53.5z" />
<glyph unicode="&#xe32;" horiz-adv-x="661" d="M64.5 600q-3.5 16 9.5 39q16 29 44.5 53.5t61 42.5t65.5 28t59 10q46 0 88.5 -9t77.5 -36t60 -77t37 -133t8.5 -203t-26.5 -287q-3 -21 -15.5 -32.5t-28.5 -11.5q-12 0 -19.5 9.5t-11.5 24.5q1 32 6.5 79t11.5 102t10 114t2 116t-13 108t-35 89t-63 59.5t-98 20.5 q-37 -1 -75.5 -26.5t-75.5 -76.5q-14 -20 -29 -29t-32 1q-15 9 -18.5 25z" />
<glyph unicode="&#xe33;" horiz-adv-x="683" d="M-365 1065q0 25 10 49.5t29 44t46 31t62 11.5q29 0 56.5 -8.5t48.5 -25.5t34 -42.5t13 -59.5q0 -30 -11.5 -59.5t-33 -51.5t-53 -33.5t-71.5 -6.5q-31 4 -55 18.5t-40.5 35.5t-25.5 46t-9 51zM-300 1061q0 -15 5.5 -30t15.5 -27t24.5 -20t32.5 -8t34.5 5.5t29.5 16 t21 25.5t8 35q0 37 -23.5 59.5t-69.5 22.5q-15 0 -29 -6.5t-25 -17.5t-17.5 -25t-6.5 -30zM78.5 614q-3.5 16 9.5 39q16 29 44.5 53.5t61 42.5t65.5 28t59 10q46 0 87.5 -10t74.5 -38.5t57 -80.5t34 -136.5t5.5 -205.5t-27.5 -288q-3 -21 -15.5 -32.5t-28.5 -11.5 q-12 0 -19.5 9.5t-11.5 24.5q1 32 7.5 79.5t13 103.5t12 116.5t4.5 118.5t-10.5 110.5t-32.5 91.5t-61.5 61t-97.5 21q-37 -1 -75.5 -26.5t-75.5 -76.5q-14 -20 -29 -29t-32 1q-15 9 -18.5 25z" />
<glyph unicode="&#xe34;" d="M-775.5 952.5q1.5 19.5 17 44.5t44 51.5t68 48.5t88 36.5t104.5 15.5q15 0 43.5 -3t63.5 -11.5t72.5 -24t69 -39.5t53 -58t26.5 -80q1 -6 -24 -11t-67 -8.5t-96 -5t-111.5 -2t-114 0.5t-103 3.5t-79 6t-41.5 8.5q-15 8 -13.5 27.5zM-676 981q-2 -6 32 -9t85.5 -3.5 t112.5 1t113.5 3.5t88.5 4t38 2q-15 39 -48.5 62t-72 34t-75.5 14t-58 2q-18 -1 -46.5 -5.5t-59.5 -16.5t-60.5 -33t-49.5 -55z" />
<glyph unicode="&#xe35;" d="M-778 961q-4 41 23.5 77.5t70.5 63.5t94 43t95 16q36 0 74.5 -2t77.5 -17.5t78 -50t77 -98.5q0 14 1 35.5t2 44t2 43.5t1 35q5 14 13.5 22t17.5 8t22 -10.5t12 -24.5q-1 -9 -1.5 -29.5t-1.5 -46t-3.5 -53t-6 -50t-8.5 -37t-13 -14.5h-128.5t-139 1t-134 3.5t-114 7.5 t-80 13t-31.5 20zM-710.5 1001q4.5 -6 16.5 -9t29 -3.5t33 -1.5q76 -4 171.5 -8t222.5 -1q-27 34 -52.5 57.5t-54.5 38t-65.5 20.5t-87.5 6q-64 0 -121 -22.5t-87 -59.5q-9 -11 -4.5 -17z" />
<glyph unicode="&#xe36;" d="M-775.5 952.5q1.5 19.5 17 44.5t44 51.5t68 48.5t88 36.5t104.5 15.5h28.5t43 -3t48 -11t44.5 -24q-6 37 11 64.5t45.5 44t63.5 21t66 -5.5q26 -8 44 -30.5t27.5 -51t10 -58t-7.5 -52.5q-13 -35 -37.5 -46.5t-73.5 -9.5q0 -14 7.5 -25.5t9.5 -31.5q1 -6 -24.5 -11t-67 -8 t-96 -4.5t-112 -1.5t-114 1t-103.5 4t-79.5 6.5t-41.5 8.5q-15 8 -13.5 27.5zM-676 981q-1 -6 18 -9.5t51.5 -5t74.5 -1.5t86 1t86.5 2.5t76 3.5t55 4t22.5 3q-10 25 -32.5 43t-50.5 31t-57.5 20.5t-54.5 11.5t-40.5 4t-15.5 -2q-18 -1 -47 -5t-60.5 -15t-61.5 -31.5 t-50 -54.5zM-240 1108.5q3 -25.5 20 -48.5t43 -35q42 -7 66.5 5.5t34 34t5 47.5t-19.5 46.5t-39 31t-55 0.5q-33 -11 -45.5 -33.5t-9.5 -48z" />
<glyph unicode="&#xe37;" d="M-775.5 952.5q1.5 19.5 17 44.5t44 51.5t68 48.5t88 36.5t104.5 15.5q9 0 24 -0.5t34 -2.5t40 -5.5t41 -9.5q1 17 1.5 34t0.5 34q3 18 12 27t18.5 9t17.5 -9.5t9 -27.5q-2 -26 -1 -48.5t0 -38.5q17 -9 35.5 -25.5t32.5 -29.5q0 15 1 32.5t1.5 36t1 36t0.5 31.5 q0 18 9.5 27.5t21 9.5t21 -8.5t8.5 -24.5q-1 -78 -4 -144.5t-6 -121.5q-2 -4 -27.5 -7.5t-67 -6t-94.5 -4.5t-109.5 -2.5t-111 0t-100 2.5t-77 5t-40.5 8q-15 8 -13.5 27.5zM-676 981q-2 -8 31.5 -11.5t85 -4.5t112.5 0.5t114 4t89 5t38 4.5q-10 36 -41.5 58.5t-70.5 34.5 t-78 16t-64 3q-18 -1 -46.5 -5.5t-59.5 -16.5t-60.5 -33t-49.5 -55z" />
<glyph unicode="&#xe38;" d="M-404 -308.5q-4 35.5 14.5 65t53.5 48.5t73 19q37 0 70 -19.5t50 -68.5q6 -17 6 -46t-1.5 -62.5t-4 -67.5t-0.5 -61q-4 -15 -6 -26t-5 -18.5t-7.5 -11t-13.5 -3.5q-6 0 -11 4.5t-9 11t-6.5 13.5t-2.5 12q-1 22 0 39t3 32t5 29.5t6 32.5q-28 -17 -52.5 -22t-45.5 -2.5 t-38.5 11.5t-31.5 21q-42 34 -46 69.5zM-335.5 -286.5q0.5 -21.5 19 -41t50.5 -21.5q27 -2 44 15t19.5 39t-11.5 41t-47 21q-40 2 -57.5 -15t-17 -38.5z" />
<glyph unicode="&#xe39;" d="M-533 -311.5q-4 35.5 14.5 65t53.5 48.5t73 19q18 0 37 -3.5t35.5 -12.5t30 -25t22.5 -40q6 -15 6 -34t-2.5 -41.5t-5 -47.5t-1.5 -52q3 -14 17 -20.5t33 -7.5t39.5 3t35.5 12q8 31 9.5 59t-0.5 56t-5.5 57t-3.5 62q3 18 11.5 26t18 6.5t18.5 -11t14 -27.5q3 -31 5.5 -71 t1.5 -79t-6 -72.5t-17 -52.5q-23 -23 -61 -30.5t-75.5 -3t-65 20.5t-27.5 42v26t1.5 14t3 13.5t4.5 23.5q-28 -17 -52.5 -22t-45.5 -2.5t-38.5 11.5t-31.5 21q-42 34 -46 69.5zM-464.5 -289.5q0.5 -21.5 19 -41t50.5 -21.5q27 -2 44 15t19.5 39t-11.5 41t-47 21 q-40 2 -57.5 -15t-17 -38.5z" />
<glyph unicode="&#xe3a;" d="M-232 -231q-1 13 4.5 25t15 21t21.5 14.5t24 5.5q32 0 50.5 -20t16.5 -46q0 -28 -19.5 -47t-46.5 -19t-46.5 19t-19.5 47z" />
<glyph unicode="&#xe3b;" />
<glyph unicode="&#xe3c;" />
<glyph unicode="&#xe3d;" />
<glyph unicode="&#xe3e;" />
<glyph unicode="&#xe3f;" horiz-adv-x="714" d="M103 576q0 46 2 93t8 95l-1 -2q3 17 13.5 25t22.5 8q15 0 38 -31l33 11q6 2 11 4t13.5 4t22 5t36.5 7q0 12 -0.5 30.5t-0.5 22.5v21q5 15 14 23t20 8q10 0 19.5 -6.5t14.5 -19.5v-23q0 -5 1 -22.5t1 -30.5q25 -8 40 -10.5l27 -4.5q28 -5 56.5 -12.5t42.5 -19.5v1 q26 -23 39.5 -55.5t13.5 -68.5q0 -45 -20.5 -91t-64.5 -81q-4 -3 -8.5 -5.5t-8.5 -6.5q-3 -2 -12.5 -8t-20 -13.5t-19.5 -14t-11 -7.5q102 -34 162.5 -87.5t70.5 -137.5q-1 -32 -21 -61.5t-53.5 -52.5t-78 -39t-94.5 -21q5 -25 8.5 -41.5t5.5 -22.5v1q1 -2 -1 -11 q-17 -16 -35 -16q-9 0 -17 7t-13.5 18.5t-7.5 25.5t0 28q-39 0 -62 -0.5t-37 -2.5h1q-15 -2 -31 -3t-35 -1q-12 0 -26.5 0.5t-33.5 2.5q-2 0 -3.5 0.5t-3.5 0.5q3 0 6 -1q-1 0 -1 1q-5 3 -7.5 9.5t-4.5 14.5q3 64 3 125q0 54 -2 108.5t-5 108.5q-2 56 -4 111t-2 111z M127 -13q5 -2 6 -4q-1 1 -6 4zM134 -17q0 -3 2 -3q-2 0 -2 3zM169 618q0 -30 1 -64t3 -63v-13.5t0.5 -20t0.5 -19.5v-13q20 2 37 4.5t21 2.5q7 1 18.5 2t24.5 2t24.5 2t17.5 2q-1 14 -2 33t-2 39.5t-2 39.5t-1 33q-1 14 -1.5 34.5t-1.5 42.5t-1.5 42.5t-1.5 35.5 q-20 -5 -37.5 -9t-26.5 -5q-24 -3 -48 -13l-21 -28q-1 -16 -1.5 -33t-0.5 -34zM181 38q10 1 30.5 2t43 2.5t43 3t30.5 1.5q-1 21 -2 47t-2 54t-2 55.5t-1 51.5v78q-5 0 -15.5 -1.5t-22.5 -3.5t-23 -3.5t-17 -2.5q-4 -1 -12.5 -2.5t-18 -3t-18.5 -2.5t-13 -2v-274zM300 865 l1 8v-4q-1 -2 -1 -4zM373 567q0 -41 10.5 -67.5t35.5 -21.5l-3 -1q31 3 55 14.5t39.5 28.5t23.5 38t8 42q0 22 -10.5 43t-31 37.5t-52 25.5t-73.5 8v-18.5v-26.5t-0.5 -27.5t-0.5 -22.5q0 -13 -0.5 -26.5t-0.5 -25.5zM384 341q1 -11 1.5 -28t1.5 -36t1.5 -36.5t0.5 -28.5 q0 -29 2 -67t8 -93q46 9 83 25t62.5 35.5t39.5 41.5t14 45q0 38 -29.5 70t-94.5 52h-2q-6 1 -18.5 4t-26 6t-26 6t-17.5 4z" />
<glyph unicode="&#xe40;" horiz-adv-x="458" d="M111 230.5q-3 72.5 2.5 155t16.5 169.5t22 170q3 22 9 33t13 15t13.5 3.5t10.5 -0.5q5 0 11 -3.5t11 -9.5t8 -15t1 -21q-9 -54 -16.5 -107t-13.5 -109.5t-10 -118.5t-4 -135q8 18 24.5 30.5t38.5 18t47 3.5t51 -13v1q18 -8 33.5 -23t26.5 -34.5t17 -41.5t6 -44 q0 -32 -11 -62.5t-31.5 -54t-50.5 -37.5t-68 -14q-55 0 -88 31.5t-49.5 86t-19.5 127zM183 148q1 -24 10.5 -44t22 -34.5t27.5 -22.5t29 -7q17 1 34 11t30.5 26t21.5 35.5t8 39.5q0 18 -6 35t-17 31t-26.5 22.5t-34.5 8.5q-16 0 -34 -9t-33 -23.5t-24 -32.5t-8 -36z" />
<glyph unicode="&#xe41;" horiz-adv-x="896" d="M111 230.5q-3 72.5 2.5 155t16.5 169.5t22 170q3 22 9 33t13 15t13.5 3.5t10.5 -0.5q5 0 11 -3.5t11 -9.5t8 -15t1 -21q-9 -54 -16.5 -107t-13.5 -109.5t-10 -118.5t-4 -135q8 18 24.5 30.5t38.5 18t47 3.5t51 -13v1q18 -8 33.5 -23t26.5 -34.5t17 -41.5t6 -44 q0 -32 -11 -62.5t-31.5 -54t-50.5 -37.5t-68 -14q-55 0 -88 31.5t-49.5 86t-19.5 127zM183 148q1 -24 10.5 -44t22 -34.5t27.5 -22.5t29 -7q17 1 34 11t30.5 26t21.5 35.5t8 39.5q0 18 -6 35t-17 31t-26.5 22.5t-34.5 8.5q-16 0 -34 -9t-33 -23.5t-24 -32.5t-8 -36zM516 230 q-3 69 2 148.5t16 164.5t22 168q3 22 9 33t13 15t13.5 3.5t10.5 -0.5q5 0 11 -3.5t11 -9.5t8 -15t1 -21q-9 -54 -16.5 -102.5t-13 -100t-9 -109.5t-3.5 -131q8 18 24.5 30.5t38.5 18t47 3.5t51 -13v1q18 -8 33.5 -23t26.5 -34.5t17 -41.5t6 -44q0 -32 -11 -62.5t-31.5 -54 t-50.5 -37.5t-68 -14q-55 0 -88 29.5t-50 81t-20 120.5zM599 193q-4 -37 2.5 -64t19 -44t28 -25t29.5 -7q17 1 34 11t30.5 26t21.5 35.5t8 39.5q0 18 -6 35t-17 31t-26.5 22.5t-34.5 8.5q-32 0 -58.5 -16.5t-30.5 -52.5z" />
<glyph unicode="&#xe42;" horiz-adv-x="495" d="M-171 1283q-6 54 4 105t37.5 91t73 64t110.5 24q34 0 68.5 -11.5t68.5 -25.5t67 -26.5t64 -15t59.5 10t54.5 48.5q7 10 16 11.5t16 -2t12 -9t5 -9.5q0 -7 -4 -20.5t-9 -22.5q-32 -36 -65 -51t-66.5 -15.5t-67 10t-67 23.5t-67 25.5t-65.5 16.5t-63 -3.5t-60 -34.5h1 q-9 -7 -18.5 -22.5t-17.5 -36t-12.5 -44t-2.5 -45.5q15 -9 37.5 -7t49 10t56 18.5t57 17t52.5 7t44 -11.5q32 -21 48.5 -78.5t22 -134t3 -163.5t-8.5 -166t-12.5 -142t-8.5 -92q-4 -58 -7.5 -99t-5 -77t-0.5 -73.5t7 -86.5q40 39 82.5 43.5t77.5 -15.5t57.5 -57.5 t22.5 -82.5q0 -23 -11 -46.5t-31.5 -42t-49 -30t-63.5 -9.5q-52 2 -83.5 39t-48.5 98.5t-21.5 142.5t-2 172t10 187.5t15 188t12 174t1 145.5t-17 102.5t-42.5 44.5q-11 2 -34.5 -5.5t-55 -18.5t-68.5 -22t-75 -15q-10 -1 -23 1.5t-25.5 8.5t-22 16t-10.5 24zM251 143 q0 -17 6 -33t16 -28.5t23.5 -20t28.5 -7.5q20 0 39.5 8.5t33.5 23.5t19.5 36.5t-3.5 47.5q-17 26 -40.5 38.5t-43.5 12.5q-32 0 -55.5 -21.5t-23.5 -56.5z" />
<glyph unicode="&#xe43;" horiz-adv-x="487" d="M-158 1449q0 55 20.5 103.5t57 84.5t86 57t108.5 22q67 1 123.5 -14.5t98 -46.5t66 -76t27.5 -102q5 -79 -7 -135t-33.5 -96.5t-47.5 -69t-50 -54t-41 -50.5t-20 -58q-10 -112 -17 -203t-10 -177.5t-2 -177.5t7 -202q37 29 68.5 30.5t67.5 -9.5q40 -13 63 -40t31 -59 t2 -66t-23.5 -61.5t-44.5 -45.5t-62 -18q-33 0 -61.5 9t-50.5 33.5t-36 67t-18 110.5q-5 82 -7 152.5t-1.5 135.5t2.5 126.5t5 125.5t6.5 133t6.5 148q1 38 18 67.5t41.5 56.5t52 55t50 63.5t36.5 81t11 108.5q-3 54 -23.5 91t-54.5 58.5t-79.5 29.5t-96.5 5q-31 -2 -66 -13 t-65 -33.5t-50 -58t-20 -86.5q28 27 53 41.5t47.5 20.5t41.5 6.5t35 0.5q38 -1 68.5 -25t47.5 -60t19 -77t-17 -76.5t-61 -58.5t-112 -22q-53 1 -89 20.5t-58.5 53.5t-32.5 78.5t-10 95.5zM-70 1356.5q-4 -28.5 13 -59.5q14 -26 39 -36.5t53.5 -8t55.5 15.5t45.5 33.5 t23.5 46t-11 52.5q-19 30 -46 43t-55.5 12t-54.5 -14t-42.5 -34.5t-20.5 -50zM218 146.5q-2 -27.5 18 -63.5q21 -20 46 -26t46.5 2t36 29.5t14.5 54.5q-2 34 -19 52.5t-39.5 23.5t-46 -2t-39 -25t-17.5 -45.5z" />
<glyph unicode="&#xe44;" horiz-adv-x="475" d="M-233 1566q-1 24 23 42q17 6 33 -4.5t32 -30.5t31 -45t31 -47t32 -38.5t33 -18.5q20 -2 39.5 11t38 32.5t35.5 43t32 43t28 32t23 10.5q36 -7 70 -22t60.5 -33t44 -37.5t20.5 -36.5q2 -12 -13 -40.5t-38 -64t-48.5 -72.5t-43.5 -65q-9 -20 -14.5 -65t-8 -106.5t-3 -135.5 t1 -152t3.5 -156t4 -148t4 -127.5t3 -94.5q10 16 24.5 25.5t29.5 14t28.5 6t20.5 1.5q46 0 77 -21.5t48 -54t20.5 -72t-5.5 -75.5q-7 -26 -28.5 -45t-50 -29.5t-61.5 -11.5t-63.5 8t-55 29.5t-36.5 52.5q-9 33 -15 98t-10 149.5t-6 182.5t-2 196.5t2 191.5t5.5 168 t8.5 124.5t11 62.5q15 28 40.5 62t48 65.5t34.5 55.5t0 32q-6 13 -20 25.5t-31.5 18.5t-36.5 3t-35 -19q-20 -20 -43.5 -46.5t-47.5 -50.5t-46.5 -41t-38.5 -17q-17 0 -41 16t-51.5 42.5t-55.5 59t-52 65.5q-18 30 -19 54zM228 120q-1 -20 11.5 -37t32.5 -27t43.5 -12.5 t44 6.5t34 29.5t13.5 56.5q0 14 -4 27.5t-14 24t-27 18t-43 10.5q-28 -3 -45 -12t-27 -22t-14 -29t-5 -33z" />
<glyph unicode="&#xe45;" horiz-adv-x="691" d="M72.5 601q-3.5 16 9.5 39q16 29 44.5 53.5t61 42.5t65.5 28t59 10q83 -2 135.5 -37.5t82.5 -103t40 -164.5t8.5 -221t-12 -272.5t-21.5 -319.5q-2 -21 -15 -32.5t-29 -11.5q-12 0 -19.5 9.5t-11.5 24.5q1 71 8 154.5t15.5 172.5t15 178.5t6.5 171.5t-9.5 153.5 t-33.5 123.5t-65 80.5t-104 26.5q-37 -2 -75.5 -27t-75.5 -76q-14 -20 -29 -29t-32 1q-15 9 -18.5 25z" />
<glyph unicode="&#xe46;" horiz-adv-x="949" d="M80 487q2 34 11 73t27 75t46 65t67 44q30 12 68 15t76.5 -8t73.5 -39t60 -78q6 41 26 66t47 38.5t57 18t55 4.5q54 1 87.5 -25.5t51.5 -72t24 -106t4.5 -126.5t-7 -134t-9.5 -129q-4 -31 -16.5 -49t-30.5 -30.5t-40 -24t-44 -30t-42.5 -48t-36 -77.5t-24.5 -119.5 t-8 -173.5q0 -20 -12 -32.5t-24 -12.5q-10 0 -21 16t-12 32q-8 136 7 224t41.5 143t59.5 84.5t62.5 48t49.5 33t20 40.5q0 28 5 76.5t9 104t4.5 113t-8 104.5t-29 77.5t-58.5 32.5q-46 2 -76 -10.5t-47.5 -38t-24.5 -63.5t-7 -87v-22t-1.5 -20t-7.5 -14.5t-18 -5.5 q-13 0 -19 5t-8.5 13.5t-3 20.5t-3.5 26q-3 63 -25.5 105.5t-56 65t-73 24.5t-74.5 -15t-60.5 -53.5t-32.5 -90.5q43 19 83.5 19.5t72 -17t50 -52.5t18.5 -87q0 -83 -42 -114.5t-124 -28.5q-37 1 -64.5 10.5t-45 34t-24.5 68t-3 114.5zM153 397q0 -21 12.5 -38t31 -27 t40.5 -12.5t40.5 4.5t31.5 26t14 51q1 29 -11.5 49.5t-31.5 31t-41 11.5t-41 -9.5t-32 -32t-13 -54.5z" />
<glyph unicode="&#xe47;" d="M-641 1047q0 92 53.5 142.5t150.5 50.5q42 0 83 -4t79.5 0t74 21.5t68.5 59.5q19 -1 31 -9.5t12 -20.5q0 -3 0.5 -8.5t-1 -12t-7.5 -14.5t-18 -17q-18 -12 -37 -25t-49.5 -22t-79 -11t-125.5 7q-71 8 -111 -18.5t-54 -86.5q-4 -17 -4.5 -36t5.5 -36t19 -29.5t37 -15.5 q3 13 6 28t9.5 29.5t18.5 25.5t32 15q13 3 18.5 -6t14.5 -23t26.5 -30.5t54.5 -29.5q-29 52 -24 90t31 60t67.5 28.5t86.5 -2.5q34 -7 52.5 -30.5t22 -54t-8 -63t-36 -58t-62 -39t-87.5 -4.5q-8 1 -23.5 4t-36.5 11t-44.5 23.5t-47.5 41.5q-12 -20 -16.5 -37t-10.5 -29.5 t-18 -18.5t-39 -3q-18 2 -38 10t-36.5 25.5t-27.5 47t-11 74.5zM-312.5 1026.5q2.5 -25.5 22 -46.5t55.5 -21q33 0 54.5 22.5t21.5 56.5q0 -12 0.5 -2t-6.5 26t-26.5 29.5t-59.5 9.5q-34 -4 -49 -26.5t-12.5 -48z" />
<glyph unicode="&#xe48;" d="M-179 1348v147q3 16 12 24t19 8.5t19.5 -7t13.5 -22.5v-146q-1 -18 -10.5 -28t-20.5 -10.5t-21 8t-12 26.5z" />
<glyph unicode="&#xe49;" d="M-419 1367q4 13 12.5 15.5t21.5 0.5q12 -1 20 -3t14.5 -4t14 -3t18.5 -1q11 1 19.5 18t24.5 37q-25 -9 -48.5 -9t-42 9.5t-29.5 29t-11 51.5q0 15 8 28t20 23.5t25 17.5t24 9q57 10 84 -12t31 -59t-12 -78.5t-47 -70.5q64 -6 105.5 18t70.5 90q3 6 8 12.5t11.5 11 t13.5 5.5t14 -3q16 -11 11.5 -22.5t-11.5 -25.5q-26 -49 -55 -79t-68.5 -43.5t-93.5 -10.5t-129 21q-14 3 -20.5 9.5t-3.5 17.5zM-365 1511q-3 -27 14 -40t39 -13.5t40.5 10t20.5 30.5q2 27 -13 41t-35.5 15.5t-40 -10t-25.5 -33.5z" />
<glyph unicode="&#xe4a;" d="M-575.5 1405q-0.5 32 9.5 64t33 57q37 40 83.5 52t95.5 -14q10 -5 19 -14t16 -20q10 24 23 39q11 12 26.5 15t30.5 -1t27 -15t16 -27q11 -42 6 -87t-8 -89q30 -1 54.5 9.5t41 32.5t21.5 55.5t-4 78.5q-2 12 -1 19.5t12 12.5q14 9 24 -0.5t14 -18.5q15 -38 10 -77.5 t-23 -74.5t-45 -61.5t-55.5 -38t-54.5 -4.5t-42 39q-9 17 -7.5 46.5t4.5 60.5t4 56t-9 33q-8 -10 -13.5 -24t-10 -29.5t-10 -29.5t-14.5 -24q-13 -6 -21 -8.5t-18 7.5q-2 34 -18 59t-38.5 35t-48 1.5t-46.5 -40.5q48 3 79 -19t40.5 -54t-4.5 -66t-56 -55q-31 -16 -57 -11 t-44.5 23t-29.5 46.5t-11.5 60.5zM-529.5 1377q2.5 -16 12.5 -29t28 -18q27 -8 42.5 0.5t21 24t2 34.5t-15 32.5t-29 18t-40.5 -8.5q-14 -8 -19 -23t-2.5 -31z" />
<glyph unicode="&#xe4b;" d="M-334 1508q0 9 7 18t22 14q5 4 18.5 5.5t29 1.5t29 -0.5t19.5 -0.5q0 7 -0.5 19t-1 26.5t-1 28t-0.5 23.5q5 17 14 24.5t19 7.5q9 0 17.5 -8.5t13.5 -22.5v-10t0.5 -15.5t0.5 -29v-49.5q25 0 36.5 -0.5t19 -1t16 -1.5t28.5 -1q30 -11 30 -32q0 -22 -31 -32 q-17 0 -23.5 0.5t-13.5 1t-18.5 1t-37.5 0.5q-3 -16 0 -42.5t2 -43.5q-6 -13 -20.5 -24.5t-22.5 -11.5q-10 0 -19 10t-12 27q1 20 3 39.5t-6 48.5l-83 -2q-17 4 -26 12.5t-9 19.5zM-301 1476h5h-3h-2z" />
<glyph unicode="&#xe4c;" d="M-375 1519q0 38 12.5 63t33.5 41t48.5 25.5t57.5 16.5q26 6 53 13.5t51.5 20.5t44 32t29.5 49q8 22 12.5 34t15.5 12q13 0 22 -10.5t8 -30.5q-8 -59 -52.5 -99t-139.5 -59q31 -10 47 -26t22.5 -33.5t7 -33t0.5 -24.5q0 -23 -10.5 -44t-29 -36.5t-43.5 -25t-55 -9.5 q-24 0 -48.5 6.5t-43.5 21.5t-31 38.5t-12 57.5zM-315 1527q0 -63 68 -72q12 -2 28.5 0.5t31 10t25 20.5t11.5 33q1 10 -5.5 25t-20 28t-33.5 20t-45 1q-11 -2 -21.5 -9t-19 -16.5t-14 -20t-5.5 -20.5z" />
<glyph unicode="&#xe4d;" d="M-432 1062q0 66 41.5 107.5t110.5 41.5q39 0 69.5 -12.5t51 -32.5t31 -46.5t10.5 -53.5q0 -29 -10 -54t-28 -44t-43 -30t-55 -11q-29 0 -60.5 8t-57.5 24.5t-43 42t-17 60.5zM-361 1048.5q9 -24.5 30.5 -41.5t49.5 -22.5t52 10.5q16 11 24 20t11.5 18t4 17.5t0.5 19.5 q0 36 -21 62t-61 26q-25 0 -44.5 -16.5t-41.5 -45.5q-13 -23 -4 -47.5z" />
<glyph unicode="&#xe4e;" d="M-607.5 1109.5q-6.5 39.5 3.5 78t41 70.5q15 16 35 25t43.5 13t49.5 5t55 1q-48 68 -53 111.5t19 68.5t70 35t99.5 11t107.5 -3.5t94 -8.5q16 -5 20 -22t4 -27t-8.5 -21t-23.5 -16q-53 3 -97 10t-78.5 11t-59.5 2.5t-41 -14.5q-24 -20 -23.5 -38.5t12.5 -36.5t28.5 -35 t24.5 -35q1 -8 -3 -22t-15 -26.5t-28.5 -19t-42.5 2.5q-28 24 -58 15.5t-53 -35.5t-34 -65.5t0.5 -73.5t49.5 -59.5t113 -24.5q32 0 52.5 11t32.5 29t16.5 41.5t3.5 47.5l-1 -3q4 19 14 28t21 9t19.5 -13t9.5 -31q1 -42 -9 -78.5t-33.5 -63.5t-61 -42.5t-91.5 -16.5 q-41 -1 -79 16.5t-68.5 46t-50.5 66t-26.5 77z" />
<glyph unicode="&#xe4f;" horiz-adv-x="968" d="M125 383q0 78 30 147t81 120t120 81t147 30t147 -30t120.5 -81t81.5 -120t30 -147t-30 -147t-81.5 -120.5t-120.5 -81.5t-147 -30t-147 30t-120 81.5t-81 120.5t-30 147zM173 383q0 -69 26 -129.5t70.5 -105t104.5 -70.5t129 -26t129 26t105 70.5t71 105t26 129.5 t-26 129t-71 104.5t-105 70.5t-129 26t-129 -26t-104.5 -70.5t-70.5 -104.5t-26 -129zM363 383q0 29 11 54.5t30 44t44.5 29.5t54.5 11t54.5 -11t44.5 -29.5t30 -44t11 -54.5t-11 -54.5t-30 -44.5t-44.5 -30t-54.5 -11t-54.5 11t-44.5 30t-30 44.5t-11 54.5z" />
<glyph unicode="&#xe50;" horiz-adv-x="814" d="M66 371q0 71 26 140t73 123.5t111 88t141 33.5q72 -5 124.5 -25t89 -50t60 -68.5t37 -80t19.5 -84t9 -81.5q4 -66 -16.5 -129t-63.5 -112.5t-106.5 -79.5t-145.5 -30q-93 -3 -160.5 26t-111.5 79t-65 115.5t-21 134.5zM143 351q0 -54 23.5 -103.5t62.5 -86t89 -58 t103 -19.5q36 1 79.5 18.5t82.5 49t67.5 75.5t33.5 98q7 72 -8 135t-49 110.5t-85 76.5t-116 32t-117.5 -26.5t-89.5 -77.5t-56.5 -107.5t-19.5 -116.5z" />
<glyph unicode="&#xe51;" horiz-adv-x="853" d="M69 440q0 71 26.5 133t72 107.5t108 72t134.5 26.5q51 0 99.5 -12.5t91 -37t77 -61t57.5 -84.5q39 -81 44 -161.5t-17 -152.5t-68.5 -131t-111.5 -97.5t-145 -52.5t-169 6q-3 3 -9 7.5t-11 10t-7 13t2 18.5q10 24 27 26t30 2q54 -18 116.5 -7.5t119 41t99.5 78.5t60 105 q18 68 9 141.5t-44 135.5t-97 102.5t-149 42.5q-46 1 -91 -16.5t-82 -47t-64.5 -69t-39.5 -82t-6.5 -86t34.5 -81.5q-12 61 0 100.5t35.5 63.5t51 35t46.5 13q38 4 72.5 -7t61.5 -32t45.5 -49.5t23.5 -60.5q7 -41 -10.5 -73.5t-47.5 -55.5t-67.5 -35t-70.5 -13 q-60 1 -104.5 19.5t-73.5 49t-43.5 71t-14.5 85.5zM225 368q-2 -18 5 -34t19 -28t27.5 -19.5t31.5 -7.5q19 0 42 6.5t43 17.5t33 27t13 36q0 27 -13.5 45t-33 29.5t-42.5 16.5t-42 5q-40 0 -59 -22.5t-24 -71.5z" />
<glyph unicode="&#xe52;" horiz-adv-x="1028" d="M60 807q0 17 7.5 32.5t33.5 15.5q14 0 22.5 -5.5t13.5 -13t6.5 -14t2.5 -9.5q-1 -161 -2 -288t3.5 -220t17.5 -151t42 -81q30 -10 87 -16.5t126 -9.5t144 -2t141 6.5t117 15t72 23.5q1 29 4.5 83.5t6.5 120t2 133.5t-9 124.5t-26 93t-50 38.5q-11 1 -24 -19t-26.5 -46.5 t-25.5 -52t-21 -36.5q-11 -10 -24 -15.5t-25.5 -5.5t-23 7t-17.5 22l1 -1q-5 16 -12 42.5t-20 52.5t-33.5 47t-52.5 26q-28 4 -52 -9t-43 -34.5t-31.5 -47.5t-16.5 -47q32 9 66.5 10.5t65 -12.5t53 -46.5t31.5 -89.5q6 -42 -11 -77.5t-47.5 -59.5t-70 -34.5t-78.5 -1.5 q-25 7 -43 25t-29.5 44t-17 57.5t-5.5 64.5q0 56 12 116t41.5 107.5t78 75.5t122.5 19q25 -3 47.5 -17.5t41 -35t32 -44.5t20.5 -45q18 30 34 56t34 45.5t39.5 31.5t50.5 13q34 1 59 -30t41 -82.5t24.5 -118t11.5 -136.5t0.5 -138t-8.5 -122t-15 -88.5t-19 -38.5 q-92 -15 -188.5 -25t-193 -12t-192 6t-183.5 28q-46 10 -70 65.5t-34.5 155t-12 243.5t-2.5 332zM352 426q0 -22 5 -44t16 -38t28.5 -24t42.5 -3q15 4 30.5 14t27.5 23.5t19.5 30.5t5.5 34q-3 28 -14.5 45t-27.5 26t-33.5 11t-32.5 1q-38 -3 -52.5 -18.5t-14.5 -57.5z" />
<glyph unicode="&#xe53;" horiz-adv-x="922" d="M64 372q5 69 20.5 135.5t40.5 119t59 85t76 34.5q55 2 95.5 -16t70 -52t48 -81t30.5 -103q6 49 17 95.5t30.5 83t48.5 58.5t71 22q61 0 97.5 -36.5t55.5 -96t23.5 -135t2 -154.5t-9.5 -154.5t-11 -134.5q-1 -21 -5.5 -30t-16.5 -9q-10 0 -24.5 10t-18.5 26q-5 16 -3 52 t6 83.5t9 103t6.5 111.5t-2 108t-15.5 92t-35 64t-60 25q-41 -3 -62.5 -37t-33 -83.5t-15.5 -106.5t-9 -106q-2 -15 -15.5 -20t-29 -1t-28.5 15.5t-14 30.5q-4 105 -31.5 176t-66.5 104.5t-82.5 27.5t-79 -54t-57 -139.5t-15.5 -230.5q10 25 24.5 40t31 22.5t33.5 10.5t32 4 q22 2 42 -8.5t34.5 -29.5t23 -45t8.5 -54q2 -93 -33 -141.5t-118 -48.5q-43 0 -72.5 31.5t-47.5 83.5t-24 118t-1 135zM150 168q0 -12 6 -29.5t17 -33.5t25 -27.5t31 -11.5q32 0 56 27.5t24 81.5q0 32 -15 58.5t-44 31.5q-15 3 -32.5 -4t-32.5 -20.5t-25 -32.5t-10 -40z" />
<glyph unicode="&#xe54;" horiz-adv-x="931" d="M61 359q0 69 28.5 136.5t77.5 121t114.5 86.5t139.5 33q13 0 37.5 -3.5t55.5 -8.5t64.5 -11t63 -10.5t51.5 -8t30 -2.5q45 3 76.5 12t50.5 27t27 47t7 72q-4 23 4 36t22 13q18 0 38 -23q7 -52 0 -100t-30 -84.5t-64.5 -58.5t-104.5 -22q-35 0 -78 8.5t-86.5 19t-85 19 t-74.5 8.5q-55 0 -107 -29t-92.5 -75t-65 -102t-24.5 -110q0 -42 14.5 -83.5t41 -77t64.5 -61.5t85 -38q33 -6 58.5 -10t49 -1t47.5 16t56 41q-44 40 -60.5 85.5t-16.5 78.5q0 34 15 65.5t40.5 55.5t58 38.5t67.5 14.5q30 0 56 -10t44.5 -28t29 -42.5t10.5 -53.5 q0 -36 -13.5 -63.5t-36.5 -48.5t-53.5 -37.5t-63.5 -29.5q23 -33 52.5 -54.5t62 -31t66 -8t64.5 13.5q20 7 31 0.5t11 -25.5q0 -13 -5.5 -24.5t-18.5 -18.5l4 1q-38 -17 -80 -17t-82.5 12t-75.5 33t-57 46q-58 -54 -128 -67.5t-157 1.5q-57 12 -104 43.5t-80.5 77t-52 101.5 t-18.5 115zM549 288.5q1 -28.5 21 -52.5q15 -11 44 -3.5t57 24.5t46 41.5t11 48.5q-6 18 -16.5 30t-22 18.5t-23.5 9t-21 1.5q-27 -3 -49.5 -21t-35 -43t-11.5 -53.5z" />
<glyph unicode="&#xe55;" horiz-adv-x="987" d="M61 359q0 69 29 136.5t78.5 121t115.5 86.5t140 33q33 1 56.5 -4.5t50.5 -15.5q-38 31 -42.5 70t12.5 73t51.5 57.5t76.5 23.5q33 0 60.5 -14.5t47 -37.5t28.5 -51.5t5 -56t-22 -51t-53 -37.5q49 -5 85 1t59 24t34 50.5t11 82.5q-4 23 4 36t22 13q18 0 38 -23 q7 -52 0 -100t-30 -84.5t-64.5 -58.5t-104.5 -22q-35 0 -78 8.5t-86.5 19t-85 19t-74.5 8.5q-55 0 -107 -29t-92.5 -75t-65 -102t-24.5 -110q0 -42 14.5 -83.5t41 -77t64.5 -61.5t85 -38q33 -6 58.5 -10t49 -1t47.5 16t56 41q-44 40 -60.5 85.5t-16.5 78.5q0 34 15 65.5 t40.5 55.5t58 38.5t67.5 14.5q30 0 56 -10t44.5 -28t29 -42.5t10.5 -53.5q0 -36 -13.5 -63.5t-36.5 -48.5t-53.5 -37.5t-63.5 -29.5q23 -33 52.5 -54.5t62 -31t66 -8t64.5 13.5q20 7 31 0.5t11 -25.5q0 -13 -5.5 -24.5t-18.5 -18.5l4 1q-38 -17 -80 -17t-82.5 12t-75.5 33 t-57 46q-58 -54 -128 -67.5t-157 1.5q-57 12 -104 43.5t-80.5 77t-52 101.5t-18.5 115zM549 288.5q1 -28.5 21 -52.5q15 -11 44 -3.5t57 24.5t46 41.5t11 48.5q-6 18 -16.5 30t-22 18.5t-23.5 9t-21 1.5q-27 -3 -49.5 -21t-35 -43t-11.5 -53.5zM556 795q0 -32 21.5 -53.5 t53.5 -21.5q33 0 55 21.5t22 53.5q0 16 -6.5 31t-17 26.5t-25.5 18.5t-31 7t-29 -7t-22.5 -18.5t-15 -26.5t-5.5 -31z" />
<glyph unicode="&#xe56;" horiz-adv-x="964" d="M-151.5 903.5q-0.5 12.5 3 26.5t12.5 21t28 -8q58 -46 97 -80t66 -60.5t44 -47.5t31 -40t28 -38.5t34 -42.5q69 57 146.5 84t153 27t144.5 -26t121.5 -75t84 -120.5t31.5 -161.5q0 -59 -20.5 -121.5t-59 -115.5t-94 -88.5t-126.5 -39.5q-24 -1 -57 6t-67.5 22t-68 38.5 t-58.5 55t-38 70.5t-6 87q4 32 18 60.5t35 50t48.5 34t60.5 12.5q36 0 68.5 -12.5t56.5 -34t37.5 -51t12.5 -62.5q-1 -37 -15.5 -68t-38 -53t-53.5 -34t-62 -11q54 -34 103.5 -38t91.5 14t75 54t54.5 83t29.5 100t0 105t-33.5 99.5t-70.5 81.5q-53 40 -122 54t-137.5 3.5 t-129.5 -44t-98 -88.5q-15 -17 -31.5 -11.5t-26.5 31.5q-16 39 -44.5 78.5t-62 76t-68 68.5t-63 57t-46.5 41.5t-18 21.5q0 -3 -0.5 9.5zM340 260.5q-1 -36.5 24 -68.5q31 -29 61 -31t55 13t41 42.5t18.5 57.5t-11.5 57t-50 41l1 -1q-38 11 -69.5 -3.5t-50 -42.5 t-19.5 -64.5z" />
<glyph unicode="&#xe57;" horiz-adv-x="1156" d="M62 304q-1 49 0 93.5t3 74.5q2 74 27.5 127.5t64.5 85.5t86.5 41t94 -7.5t86.5 -59t64 -112.5q0 51 16.5 90t44 63.5t62.5 34t70.5 3t69 -30.5t57.5 -67q16 -27 24.5 -70.5t11.5 -96t1.5 -109t-6 -111t-11.5 -102.5t-14 -82q46 2 84 30t67.5 75.5t50.5 109.5t32.5 131 t14 141.5t-5.5 140t-26.5 126.5t-47.5 101q-8 10 -11.5 22t-2.5 21.5t7.5 15t19.5 4.5q35 -3 62.5 -46t44.5 -112.5t23.5 -156.5t0 -178t-26.5 -178t-56 -154.5t-89 -109t-124 -41.5q-8 0 -23.5 0.5t-31.5 5.5t-27.5 16.5t-10.5 34.5q12 70 23 140.5t16 135t2 120.5t-18 96 q-17 44 -39 71t-46 34.5t-47.5 -6t-42.5 -50t-31.5 -99t-14.5 -152.5q-1 -52 -24 -52h-28q-22 0 -35 14t-18 37q0 38 -3 83t-15.5 87t-38 74.5t-71.5 46.5q-59 17 -96.5 -6.5t-57.5 -76t-26 -127.5t-1 -162q9 21 24.5 33t32.5 18.5t34.5 8.5t29.5 2q21 0 41 -8.5t35 -23.5 t24 -34.5t9 -41.5q0 -50 -6.5 -94.5t-29.5 -75.5t-66.5 -44t-116.5 1q-21 4 -35 31t-23 67.5t-12.5 90t-4.5 98.5zM131 131q1 -23 13 -42t37 -28q26 -9 47.5 3t37 35t23 53t5.5 56t-14.5 44t-38.5 18q-24 0 -44.5 -13t-35.5 -33.5t-23 -45t-7 -47.5z" />
<glyph unicode="&#xe58;" horiz-adv-x="1014" d="M61 298q0 100 19 185.5t65 149.5q34 49 77 74t91 35t98 9t100 -5q41 -5 85.5 -9t87.5 -2.5t82 12.5t68.5 35.5t47.5 66.5t19 106q5 18 13 25t23 7q17 0 27.5 -11.5t8.5 -34.5q2 -68 -15.5 -117.5t-50 -82t-77.5 -50.5t-96 -24.5t-106 -2.5t-109 15q-102 21 -173.5 3 t-117 -66t-67.5 -122.5t-24 -167.5q-2 -86 23 -146t64 -79t84 12t82 128q2 7 9 18t17 21t22 16t25 3t26.5 -18t25.5 -48q30 -80 77.5 -113.5t121.5 -33.5q48 0 93 45t75 124q-51 -38 -106.5 -43.5t-102 14.5t-76.5 62t-30 98q0 34 15 66.5t40.5 57t59 39.5t70.5 15 q48 -1 83 -19.5t57.5 -48t34.5 -68.5t15 -79.5t-1 -81t-14 -74.5q-10 -35 -31 -66t-49 -54.5t-62 -37t-70 -13.5q-45 0 -87 13.5t-76 39t-58.5 62t-34.5 83.5q-24 -45 -49 -82.5t-51.5 -65.5t-53 -43.5t-51.5 -15.5q-50 0 -86.5 25t-60 65.5t-35 91.5t-11.5 103zM633 382 q0 -27 13.5 -47t35 -33t48.5 -17.5t54 -0.5t50.5 18t39.5 38q0 36 -10.5 64.5t-27 48t-37 29.5t-39.5 10q-23 0 -45.5 -9.5t-40.5 -25t-29.5 -35t-11.5 -40.5z" />
<glyph unicode="&#xe59;" horiz-adv-x="961" d="M53 351.5q3 66.5 21.5 130.5t50.5 114t76.5 81t99.5 31q35 0 65.5 -12.5t57.5 -32.5t52 -45l49 -49q30 83 73 119.5t105 42.5q31 -5 57.5 -23t52.5 -33.5t53 -23t59 8.5q30 15 41.5 39.5t13 54.5t-3 64t-5.5 69l-1 -3q4 19 13.5 28t20.5 9q6 0 13 -5.5t13 -13.5 t10.5 -18.5t5.5 -20.5q3 -30 1.5 -73.5t-11 -86t-28.5 -76.5t-51 -45q-40 -14 -70 -6.5t-58.5 23t-58.5 33t-70 24.5q-26 2 -46 -10t-33.5 -31.5t-20 -45t-5.5 -50.5q34 -84 88 -149.5t122 -125.5q4 -7 6.5 -14.5t2.5 -12.5q0 -11 -8 -18.5t-22 -7.5q-13 0 -23 5 q-41 18 -78.5 57t-73 87t-70.5 99t-70.5 92.5t-73.5 67.5t-79 24q-42 -2 -75 -22t-57.5 -51.5t-39 -72t-19.5 -84t0.5 -86.5t21.5 -80q32 51 77.5 75t90 18.5t81 -41.5t50.5 -105q6 -27 -9.5 -55.5t-38.5 -51.5t-48 -38t-39 -16q-71 -5 -121.5 22.5t-82 75.5t-44.5 111 t-10 129.5zM196 170q0 -38 21 -62.5t69 -31.5q95 19 95 90q0 31 -13.5 51t-34.5 29t-44.5 8.5t-44.5 -10.5t-34.5 -28.5t-13.5 -45.5z" />
<glyph unicode="&#xe5a;" horiz-adv-x="1064" d="M82 565q1 37 14.5 74t37.5 67t56 48.5t70 18.5q47 0 82.5 -19.5t57.5 -53t28.5 -77t-4.5 -91.5q-8 -42 -36.5 -69.5t-66 -39.5t-78 -9t-72.5 23q3 -25 25.5 -48t52.5 -40.5t62 -28t55 -10.5q75 0 124.5 33t78 83t40 108.5t10.5 109.5q0 23 -0.5 41t0.5 44q-2 13 12 27.5 t34 14.5q16 0 26 -14t9 -28q6 -34 9.5 -91.5t4.5 -129t0 -152t-2.5 -160.5t-2.5 -154.5t-1 -134.5q2 -17 -6.5 -33.5t-26.5 -16.5q-20 0 -37 13t-17 45q0 64 2 118.5t4 106t3 103.5t-1 112q-29 -33 -61.5 -55.5t-65.5 -35.5t-64 -18.5t-57 -5.5q-79 0 -135.5 21t-92.5 62 t-53.5 101.5t-17.5 140.5zM157 585q0 -48 23 -79.5t75 -31.5q25 0 44 9.5t32 26t19 38t6 44.5q0 26 -9 47t-24.5 35t-36 19.5t-42.5 1.5q-51 -10 -69 -41t-18 -69zM868 728q-2 22 11 34.5t30 12.5q13 0 24.5 -7.5t16.5 -24.5q16 -103 20 -206.5t2 -208.5t-6 -212t-5 -218 q-2 -20 -13 -31t-25 -11q-11 0 -21 9.5t-15 24.5q0 103 2.5 206.5t2.5 207.5t-5 210t-19 215v-1z" />
<glyph unicode="&#xe5b;" horiz-adv-x="1526" d="M59 392q0 68 24.5 129.5t65 109t93 75.5t107.5 28q43 0 87 -21t79 -60.5t57.5 -95t22.5 -124.5q0 -30 -12.5 -57t-34.5 -47t-51.5 -32.5t-63.5 -15.5q-40 -3 -73 7t-57 29t-38 43.5t-16 50.5q-3 40 15 79.5t49 68t69.5 41.5t76.5 -1q-20 37 -51.5 51.5t-66.5 14.5 q-48 0 -86 -22.5t-64 -58.5t-39.5 -82t-13.5 -92q0 -67 24.5 -121.5t66.5 -93.5t98 -60t119 -21q64 0 110.5 18t79 50t54.5 76t36.5 96t24 109.5t18.5 116.5q1 12 11 20.5t23.5 10.5t27.5 -3t22 -21q24 -48 47 -94.5t45 -85.5t43.5 -69t43.5 -46q9 52 24.5 104t37.5 95.5 t51.5 74t67.5 38.5q27 -40 57.5 -81t64.5 -69t72 -35t82 21q22 14 42 8.5t26 -25.5q4 -15 -1 -26.5t-14.5 -20t-21.5 -14t-21 -7.5q-49 -12 -97.5 0t-90 37t-71.5 57.5t-43 62.5q-33 -20 -50 -62.5t-27 -94.5t-18.5 -107.5t-24.5 -103.5q-21 -5 -47 11.5t-52.5 46t-52 66.5 t-46 73t-34.5 66t-18 45q-9 -45 -24 -94t-37.5 -97t-52.5 -91t-68 -76t-84.5 -52.5t-101.5 -19.5q-70 0 -139 30t-125.5 81t-93 118t-42.5 141zM326 416q4 -22 13.5 -36t23 -22t29.5 -10.5t31 -1.5q40 3 62.5 14.5t32.5 28.5t9.5 37.5t-7 41.5t-17 41.5t-20.5 36.5 q-28 0 -58 -7t-54 -22t-37.5 -40t-7.5 -61z" />
<glyph unicode="&#x2000;" horiz-adv-x="913" />
<glyph unicode="&#x2001;" horiz-adv-x="1826" />
<glyph unicode="&#x2002;" horiz-adv-x="913" />
<glyph unicode="&#x2003;" horiz-adv-x="1826" />
<glyph unicode="&#x2004;" horiz-adv-x="608" />
<glyph unicode="&#x2005;" horiz-adv-x="456" />
<glyph unicode="&#x2006;" horiz-adv-x="304" />
<glyph unicode="&#x2007;" horiz-adv-x="304" />
<glyph unicode="&#x2008;" horiz-adv-x="228" />
<glyph unicode="&#x2009;" horiz-adv-x="365" />
<glyph unicode="&#x200a;" horiz-adv-x="101" />
<glyph unicode="&#x200b;" />
<glyph unicode="&#x2010;" horiz-adv-x="827" d="M109 415q0 11 7 23t21 17q75 10 140.5 14.5t128.5 5.5t126 -0.5t134 -2.5q32 -11 32 -38q0 -13 -9.5 -25t-21.5 -18l-521 -19q-18 4 -27.5 16.5t-9.5 26.5z" />
<glyph unicode="&#x2011;" horiz-adv-x="827" d="M109 415q0 11 7 23t21 17q75 10 140.5 14.5t128.5 5.5t126 -0.5t134 -2.5q32 -11 32 -38q0 -13 -9.5 -25t-21.5 -18l-521 -19q-18 4 -27.5 16.5t-9.5 26.5z" />
<glyph unicode="&#x2012;" horiz-adv-x="827" d="M109 415q0 11 7 23t21 17q75 10 140.5 14.5t128.5 5.5t126 -0.5t134 -2.5q32 -11 32 -38q0 -13 -9.5 -25t-21.5 -18l-521 -19q-18 4 -27.5 16.5t-9.5 26.5z" />
<glyph unicode="&#x2013;" horiz-adv-x="862" d="M21 520q0 11 10 21t31 11l752 -3q30 -10 30 -32t-31 -32l-755 3q-19 2 -28 11.5t-9 20.5z" />
<glyph unicode="&#x2014;" horiz-adv-x="1292" d="M-27 470q0 19 25 32q34 4 121.5 9t242 8.5t382.5 3.5t543 -5q30 -9 30 -31q0 -10 -10 -19.5t-24 -14.5q-320 6 -636 1t-636 -15q-19 2 -28.5 11t-9.5 20zM3 438l10 1h-2q-3 -1 -8 -1z" />
<glyph unicode="&#x2018;" horiz-adv-x="369" d="M65 979q0 43 12.5 80.5t36 68t58 52t79.5 31.5q18 1 25 -3.5t9 -10.5q2 -5 3.5 -10.5t-1.5 -11t-12 -11.5t-28 -11q-9 -3 -22.5 -7t-27.5 -13t-27 -23.5t-22 -36.5q44 18 72 11.5t44 -25t22 -42.5t6 -42t-8 -36t-21.5 -32t-33 -23t-41.5 -9q-35 0 -59 8.5t-38 22.5 t-20 33t-6 40zM117 963q5 -16 17 -26.5t29.5 -15t34.5 -1.5q26 5 37 21.5t11 33.5q0 29 -18.5 46t-48.5 17q-19 0 -32 -7t-27 -32q-8 -20 -3 -36z" />
<glyph unicode="&#x2019;" horiz-adv-x="392" d="M82 1111q0 18 8 36t21.5 32t32.5 23t42 9q35 0 58.5 -8.5t38 -22.5t20.5 -33t6 -40q0 -43 -12.5 -80.5t-36 -68t-58 -52t-79.5 -31.5q-18 -1 -25 3.5t-9 10.5q-2 5 -3.5 10.5t1.5 11t12 11.5t28 11q9 3 22.5 7t27.5 13t27 23t22 37q-44 -18 -72 -11.5t-44 25t-22 42.5 t-6 42zM128 1111q0 -29 18.5 -46t48.5 -17q19 0 32 7t27 32q7 20 2.5 35.5t-16.5 26t-29.5 15.5t-34.5 2q-26 -5 -37 -21.5t-11 -33.5z" />
<glyph unicode="&#x201a;" d="M-921 961q-4 41 20.5 77.5t63.5 63.5t87 43t92 16q36 0 72.5 -7.5t72.5 -26.5t70 -51.5t65 -82.5q0 14 1 35.5t2 44t2 43.5t1 35q5 14 13.5 22t17.5 8t22 -10.5t12 -24.5q-1 -9 -1.5 -29.5t-1.5 -46t-3.5 -53t-6 -50t-8.5 -37t-13 -14.5h-125t-130 1t-122.5 3.5t-103 7.5 t-71.5 13t-28 20zM-839 1001.5q4 -6.5 15.5 -10t28 -5.5t32.5 -3q36 -3 69 -4.5t71.5 -2.5t85 -0.5t109.5 2.5q-18 19 -37.5 40.5t-46 39.5t-62.5 30t-87 12q-64 0 -103.5 -22t-69.5 -59q-9 -11 -5 -17.5z" />
<glyph unicode="&#xf702;" d="M-921 961q-4 41 20.5 77.5t63.5 63.5t87 43t92 16q36 0 72.5 -7.5t72.5 -26.5t70 -51.5t65 -82.5q0 14 1 35.5t2 44t2 43.5t1 35q5 14 13.5 22t17.5 8t22 -10.5t12 -24.5q-1 -9 -1.5 -29.5t-1.5 -46t-3.5 -53t-6 -50t-8.5 -37t-13 -14.5h-125t-130 1t-122.5 3.5t-103 7.5 t-71.5 13t-28 20zM-839 1001.5q4 -6.5 15.5 -10t28 -5.5t32.5 -3q36 -3 69 -4.5t71.5 -2.5t85 -0.5t109.5 2.5q-18 19 -37.5 40.5t-46 39.5t-62.5 30t-87 12q-64 0 -103.5 -22t-69.5 -59q-9 -11 -5 -17.5z" />
<glyph unicode="&#x201e;" d="M-919 951q-2 18 9 40t33.5 46t57 44t79.5 32.5t101 13.5h24.5t35 -1.5t41 -4t41.5 -8.5q1 17 1.5 28t0.5 28q3 18 12 27t19.5 9t20 -9t14.5 -27q0 -20 1 -42t-4 -40q17 -9 32 -22.5t29 -26.5q1 29 2.5 62t1.5 62q0 18 7.5 27.5t17.5 10.5t20 -7.5t15 -26.5q1 -40 0.5 -72 t-2 -59.5t-4 -52.5t-6.5 -52q-2 -6 -43 -10t-101.5 -7t-132 -3.5t-135.5 0.5t-111.5 4.5t-59.5 10.5q-15 8 -17 26zM-816 981q-2 -8 28 -11.5t77 -4.5t102 0.5t103 4t81 5t35 4.5q-16 28 -48.5 46t-70 28t-74.5 13.5t-62 2.5q-18 -1 -39.5 -2t-44 -9t-45 -25.5t-42.5 -51.5z " />
<glyph unicode="&#xf704;" d="M-919 951q-2 18 9 40t33.5 46t57 44t79.5 32.5t101 13.5h24.5t35 -1.5t41 -4t41.5 -8.5q1 17 1.5 28t0.5 28q3 18 12 27t19.5 9t20 -9t14.5 -27q0 -20 1 -42t-4 -40q17 -9 32 -22.5t29 -26.5q1 29 2.5 62t1.5 62q0 18 7.5 27.5t17.5 10.5t20 -7.5t15 -26.5q1 -40 0.5 -72 t-2 -59.5t-4 -52.5t-6.5 -52q-2 -6 -43 -10t-101.5 -7t-132 -3.5t-135.5 0.5t-111.5 4.5t-59.5 10.5q-15 8 -17 26zM-816 981q-2 -8 28 -11.5t77 -4.5t102 0.5t103 4t81 5t35 4.5q-16 28 -48.5 46t-70 28t-74.5 13.5t-62 2.5q-18 -1 -39.5 -2t-44 -9t-45 -25.5t-42.5 -51.5z " />
<glyph unicode="&#x2020;" d="M-504 1143l1 -2q-2 20 10 29.5t27 8.5q14 -1 27.5 -10.5t18.5 -29.5v3q3 -19 4 -36t1.5 -35.5t-0.5 -40.5t-3 -52q-2 -22 -14.5 -33t-26.5 -10q-11 0 -19.5 10t-11.5 24q1 34 -2 75.5t-12 98.5z" />
<glyph unicode="&#xf705;" d="M-504 1143l1 -2q-2 20 10 29.5t27 8.5q14 -1 27.5 -10.5t18.5 -29.5v3q3 -19 4 -36t1.5 -35.5t-0.5 -40.5t-3 -52q-2 -22 -14.5 -33t-26.5 -10q-11 0 -19.5 10t-11.5 24q1 34 -2 75.5t-12 98.5z" />
<glyph unicode="&#x2021;" d="M-745 930q5 14 16 17t25 1q13 -2 21.5 -4t16.5 -4t16 -3t20 -1q12 1 24 17.5t29 39.5q-28 -10 -55 -11.5t-48 8.5t-34 32t-13 58q0 16 9.5 31.5t23 28t28.5 20t27 9.5q43 6 71 -3.5t43 -28.5t17.5 -46t-5 -56t-25 -57.5t-41.5 -51.5q56 -3 96.5 7.5t71.5 30t54 45.5 t44 55q4 5 8 10.5t9 9.5t10.5 4.5t12.5 -4.5q17 -11 16 -25t-11 -27q-43 -57 -88.5 -93t-98.5 -52.5t-117 -14.5t-144 21q-14 3 -23 14.5t-6 22.5zM-681 1083q-3 -32 16.5 -46.5t45 -15t47.5 12t25 34.5q3 34 -14 52t-41 20t-47.5 -12.5t-31.5 -44.5z" />
<glyph unicode="&#xf706;" d="M-745 930q5 14 16 17t25 1q13 -2 21.5 -4t16.5 -4t16 -3t20 -1q12 1 24 17.5t29 39.5q-28 -10 -55 -11.5t-48 8.5t-34 32t-13 58q0 16 9.5 31.5t23 28t28.5 20t27 9.5q43 6 71 -3.5t43 -28.5t17.5 -46t-5 -56t-25 -57.5t-41.5 -51.5q56 -3 96.5 7.5t71.5 30t54 45.5 t44 55q4 5 8 10.5t9 9.5t10.5 4.5t12.5 -4.5q17 -11 16 -25t-11 -27q-43 -57 -88.5 -93t-98.5 -52.5t-117 -14.5t-144 21q-14 3 -23 14.5t-6 22.5zM-681 1083q-3 -32 16.5 -46.5t45 -15t47.5 12t25 34.5q3 34 -14 52t-41 20t-47.5 -12.5t-31.5 -44.5z" />
<glyph unicode="&#x2022;" horiz-adv-x="708" d="M121 390q0 49 19 93.5t52 78t77.5 53.5t96.5 20q49 0 93 -19t78 -52t54 -77.5t20 -96.5q0 -50 -19.5 -94.5t-53 -78t-78 -53t-94.5 -19.5q-51 0 -95.5 19t-78 52t-52.5 78t-19 96z" />
<glyph unicode="&#x2026;" horiz-adv-x="1040" d="M75 59q0 30 20.5 51t50.5 21t51 -21t21 -51t-21 -50.5t-51 -20.5t-50.5 20.5t-20.5 50.5zM456 59q0 30 20.5 51t50.5 21t51 -21t21 -51t-21 -50.5t-51 -20.5t-50.5 20.5t-20.5 50.5zM848 59q0 30 20.5 51t50.5 21t51 -21t21 -51t-21 -50.5t-51 -20.5t-50.5 20.5 t-20.5 50.5z" />
<glyph unicode="&#x202f;" horiz-adv-x="365" />
<glyph unicode="&#x2030;" d="M-637 1042q0 9 7.5 18t22.5 14q9 2 17.5 4.5t13.5 3.5q1 -1 4 -1h11h9.5t15.5 -0.5t15.5 -0.5h9.5q0 7 -0.5 19t-1 26.5t-1 28t-0.5 23.5q4 17 13 24.5t19 7.5q9 0 18 -8.5t14 -22.5q0 -10 0.5 -16.5t0.5 -16.5v-71q31 0 43 -0.5t19 -1.5q8 -1 15.5 -1.5t22.5 -0.5 q30 -11 30 -32q0 -22 -31 -32h-14.5t-14.5 1q-6 1 -17.5 1.5t-47.5 0.5q0 -3 -1 -11.5t-2 -19t-2 -20.5t-1 -15q-1 -10 -1.5 -18t-0.5 -13q-6 -13 -15 -19t-17 -6q-10 0 -19 10t-12 26v12.5t1 12.5q0 11 2 29.5t6 32.5q-24 4 -35.5 5t-17.5 1q-13 1 -21 0q-2 -1 -7 -2.5 t-14 -3.5q-17 4 -26.5 12.5t-9.5 19.5zM-603 1010h4h-2h-2zM-576 1082l1 1q-1 0 -1 -1z" />
<glyph unicode="&#xf708;" d="M-637 1042q0 9 7.5 18t22.5 14q9 2 17.5 4.5t13.5 3.5q1 -1 4 -1h11h9.5t15.5 -0.5t15.5 -0.5h9.5q0 7 -0.5 19t-1 26.5t-1 28t-0.5 23.5q4 17 13 24.5t19 7.5q9 0 18 -8.5t14 -22.5q0 -10 0.5 -16.5t0.5 -16.5v-71q31 0 43 -0.5t19 -1.5q8 -1 15.5 -1.5t22.5 -0.5 q30 -11 30 -32q0 -22 -31 -32h-14.5t-14.5 1q-6 1 -17.5 1.5t-47.5 0.5q0 -3 -1 -11.5t-2 -19t-2 -20.5t-1 -15q-1 -10 -1.5 -18t-0.5 -13q-6 -13 -15 -19t-17 -6q-10 0 -19 10t-12 26v12.5t1 12.5q0 11 2 29.5t6 32.5q-24 4 -35.5 5t-17.5 1q-13 1 -21 0q-2 -1 -7 -2.5 t-14 -3.5q-17 4 -26.5 12.5t-9.5 19.5zM-603 1010h4h-2h-2zM-576 1082l1 1q-1 0 -1 -1z" />
<glyph unicode="&#x2039;" d="M-227 931v79.5t2 95.5q3 14 13 20.5t21.5 6t22.5 -7.5t15 -20q0 -19 -0.5 -41.5t-0.5 -45.5t-0.5 -46t-0.5 -42q-1 -15 -11.5 -23t-23.5 -8t-24.5 8t-12.5 24z" />
<glyph unicode="&#xf70a;" d="M-227 931v79.5t2 95.5q3 14 13 20.5t21.5 6t22.5 -7.5t15 -20q0 -19 -0.5 -41.5t-0.5 -45.5t-0.5 -46t-0.5 -42q-1 -15 -11.5 -23t-23.5 -8t-24.5 8t-12.5 24z" />
<glyph unicode="&#x203a;" d="M-349 1333q0 50 2.5 99t2.5 99q3 14 11.5 19t19 3t20.5 -10.5t14 -21.5q0 -50 -2.5 -98.5t-2.5 -99.5q-1 -15 -10.5 -21.5t-21 -4.5t-22 11t-11.5 25z" />
<glyph unicode="&#xf713;" d="M-349 1333q0 50 2.5 99t2.5 99q3 14 11.5 19t19 3t20.5 -10.5t14 -21.5q0 -50 -2.5 -98.5t-2.5 -99.5q-1 -15 -10.5 -21.5t-21 -4.5t-22 11t-11.5 25z" />
<glyph unicode="&#x205f;" horiz-adv-x="456" />
<glyph unicode="&#x20ac;" horiz-adv-x="823" d="M60 543q-2 27 8 55t28 55t41.5 50.5t49 41t51 28t47.5 11.5q55 1 89.5 -9.5t63.5 -23t60 -23t78 -10.5q23 0 38 3.5t27 11t23 18.5t26 27q14 6 26.5 8t20.5 2q11 0 17 -9t6 -16q0 -21 -14.5 -39.5t-30.5 -27.5q-39 -23 -83 -29.5t-88 -3.5t-85 12.5t-74 20t-55 19 t-28 9.5q-34 3 -64.5 -14.5t-53.5 -44t-36 -57.5t-12 -56q33 -1 71.5 9t81 23t88.5 25.5t93 16t94.5 -5.5t94.5 -38q48 -30 65.5 -90t17 -133.5t-13 -151.5t-23.5 -145q-6 -35 -26.5 -51t-42.5 -16q-29 0 -46 27.5t-28.5 68t-20 87t-19.5 83.5q-41 -30 -90.5 -33t-93.5 14 t-73.5 51t-29.5 78q0 27 18.5 56t48 50t67 30t75.5 -5q51 -19 78.5 -48t44 -77t29.5 -117.5t36 -169.5q18 54 29 116.5t11.5 122.5t-11.5 112.5t-39 86.5q-17 21 -53 27t-81.5 3t-95.5 -13t-95.5 -21t-80.5 -21.5t-51 -13.5q-21 -5 -39 -9t-32 -0.5t-23 17.5t-11 46z M306 360q0 -15 13.5 -30t38.5 -24t60.5 -8.5t79.5 17.5q-5 26 -7 47.5t-9 38t-22.5 28t-45.5 18.5q-26 6 -46 -1t-33.5 -20.5t-21 -31t-7.5 -34.5z" />
<glyph unicode="&#xf700;" horiz-adv-x="823" d="M60 543q-2 27 8 55t28 55t41.5 50.5t49 41t51 28t47.5 11.5q55 1 89.5 -9.5t63.5 -23t60 -23t78 -10.5q23 0 38 3.5t27 11t23 18.5t26 27q14 6 26.5 8t20.5 2q11 0 17 -9t6 -16q0 -21 -14.5 -39.5t-30.5 -27.5q-39 -23 -83 -29.5t-88 -3.5t-85 12.5t-74 20t-55 19 t-28 9.5q-34 3 -64.5 -14.5t-53.5 -44t-36 -57.5t-12 -56q33 -1 71.5 9t81 23t88.5 25.5t93 16t94.5 -5.5t94.5 -38q48 -30 65.5 -90t17 -133.5t-13 -151.5t-23.5 -145q-6 -35 -26.5 -51t-42.5 -16q-29 0 -46 27.5t-28.5 68t-20 87t-19.5 83.5q-41 -30 -90.5 -33t-93.5 14 t-73.5 51t-29.5 78q0 27 18.5 56t48 50t67 30t75.5 -5q51 -19 78.5 -48t44 -77t29.5 -117.5t36 -169.5q18 54 29 116.5t11.5 122.5t-11.5 112.5t-39 86.5q-17 21 -53 27t-81.5 3t-95.5 -13t-95.5 -21t-80.5 -21.5t-51 -13.5q-21 -5 -39 -9t-32 -0.5t-23 17.5t-11 46z M306 360q0 -15 13.5 -30t38.5 -24t60.5 -8.5t79.5 17.5q-5 26 -7 47.5t-9 38t-22.5 28t-45.5 18.5q-26 6 -46 -1t-33.5 -20.5t-21 -31t-7.5 -34.5z" />
<glyph unicode="&#x2122;" d="M-651 1051q1 27 9 50.5t23.5 42t39.5 31t59 16.5q52 6 85.5 -9.5t52.5 -41.5t26 -56t7 -52q0 -28 -14 -53.5t-36 -45t-48.5 -31t-53.5 -11.5q-28 0 -55.5 14.5t-49 37.5t-34.5 51.5t-11 56.5zM-582 1050q0 -8 3.5 -23.5t13 -31t25.5 -26.5t42 -10q13 1 27.5 6.5t26 15.5 t19 23.5t6.5 30.5q-2 47 -21 67t-58 20q-14 0 -29 -5.5t-27 -15.5t-20 -23t-8 -28z" />
<glyph unicode="&#xf711;" d="M-651 1051q1 27 9 50.5t23.5 42t39.5 31t59 16.5q52 6 85.5 -9.5t52.5 -41.5t26 -56t7 -52q0 -28 -14 -53.5t-36 -45t-48.5 -31t-53.5 -11.5q-28 0 -55.5 14.5t-49 37.5t-34.5 51.5t-11 56.5zM-582 1050q0 -8 3.5 -23.5t13 -31t25.5 -26.5t42 -10q13 1 27.5 6.5t26 15.5 t19 23.5t6.5 30.5q-2 47 -21 67t-58 20q-14 0 -29 -5.5t-27 -15.5t-20 -23t-8 -28z" />
<glyph unicode="&#x25cc;" horiz-adv-x="1256" d="M-20 533q0 8 6 17t20 15q15 3 29.5 3t29 0.5t29 2.5t29.5 7q17 -2 28 -10.5t11 -19.5q0 -16 -23 -32l-125 -14q-17 3 -25.5 12t-8.5 19zM11 502h7h-4h-3zM202 945q0 8 9 10.5t22 2.5q18 0 37 -5.5t35 -15t26 -23.5t9 -32v5q-7 -15 -16 -28.5t-22 -4.5l-21 15 q-10 7 -17.5 10.5t-14 6.5t-14 6t-16.5 10q-17 27 -17 43zM210 143q0 13 7.5 25.5t19 23.5t23.5 21t21 18q15 12 32 12q11 0 19 -8t8 -19q0 -16 -8 -27t-21 -21.5t-29 -23t-32 -30.5l-2 -1h2q-18 -5 -29 4.5t-11 25.5zM574 1129q4 17 13 24.5t19 7.5q9 0 18 -8t14 -22 q1 -28 4 -56t9 -56q-2 -19 -11 -29t-20 -10q-9 0 -18 6t-15 20q-5 29 -8.5 62t-4.5 61zM584 2q2 26 3 41l-1 -3q4 18 13 27.5t20 9.5q9 0 18 -8t14 -22q0 -17 4.5 -40t5.5 -46.5t-4.5 -43.5t-25.5 -32q-23 1 -33 20.5t-13 45t-1 51.5zM651 1019v2l1 -8q-1 2 -1 6zM923 893 q0 12 12.5 28.5t30 33t36.5 29.5t31 18q7 3 12.5 4t9.5 1q7 0 22 -10q9 -17 9 -30l-111 -96q-14 -6 -24 -6q-12 0 -20 8t-8 20zM962 229q0 11 8 19t20 8q6 0 16.5 -6t22.5 -14t22 -15.5t15 -10.5q5 -8 8 -16t3 -13q0 -11 -11 -16.5t-25 -5.5q-9 6 -22.5 12t-26 14.5 t-21.5 19t-9 24.5zM970 866q6 6 6 6.5t-1 -1.5q-2 -2 -2.5 -3t-2.5 -2zM1077 997v2l2 -2h-2zM1154 522q0 12 10 21.5t31 10.5h71q31 -10 31 -32t-32 -32h-72h-3q-18 2 -27 11.5t-9 20.5z" />
<glyph unicode="&#x25fc;" horiz-adv-x="765" d="M0 0v765h765v-765h-765z" />
<glyph unicode="&#xf701;" d="M-948 951.5q0 19.5 13 44t39 51t63 48.5t84 36t103 15q15 0 43 -3t61.5 -11t69.5 -23t66.5 -39t51.5 -57.5t26 -79.5q1 -6 -23 -11t-63.5 -8.5t-90.5 -5.5t-106 -2t-108.5 0.5t-98 3t-75.5 6t-40 8.5q-15 8 -15 27.5zM-847 980q-2 -8 29 -11.5t79.5 -4t105 1t106 4 t83.5 5t36 4.5q-15 39 -47 61.5t-68.5 33t-72 13t-56.5 1.5q-18 -1 -43.5 -5t-52.5 -16t-53 -32.5t-46 -54.5z" />
<glyph unicode="&#xf70c;" d="M-570.5 994.5q-0.5 32.5 9.5 65t34 58.5q38 41 85 53t97 -15q10 -5 19 -14t17 -20q5 11 10 21t13 18q12 12 27.5 15.5t31 -0.5t27.5 -15t16 -27q11 -44 6 -90.5t-8 -91.5q30 -1 55 10t41.5 33.5t22 57t-3.5 80.5q-2 12 -1 19.5t12 13.5q15 8 25 -1t14 -19q15 -38 10 -79 t-23.5 -76.5t-45.5 -62.5t-56 -39t-56 -5t-43 40q-9 17 -7.5 47.5t4.5 61.5t4 57t-9 34q-9 -10 -14 -24.5t-10 -29.5t-10.5 -29.5t-14.5 -24.5q-13 -8 -21 -10t-19 8q-2 35 -18 60.5t-39.5 35.5t-49.5 1.5t-47 -41.5q49 4 81 -18.5t41.5 -55.5t-4.5 -68t-57 -57 q-32 -16 -58.5 -11t-45.5 24t-30 48.5t-11.5 62zM-523.5 965q2.5 -16 13 -29.5t28.5 -18.5q28 -8 43.5 0.5t21 24.5t2 35t-15 33t-30 18.5t-41.5 -9.5q-14 -8 -19 -23t-2.5 -31z" />
<glyph unicode="&#xf70e;" d="M-451 998q0 38 12.5 63t33.5 41t48.5 25.5t57.5 16.5q26 6 49 7.5t42.5 7t35 19t25.5 43.5q8 22 12.5 34t15.5 12q13 0 22 -10.5t8 -30.5q-4 -29 -11.5 -49.5t-24.5 -35t-46 -25t-76 -19.5q31 -10 45.5 -25t20 -30.5t4.5 -29.5t-1 -23q0 -23 -10.5 -44t-29 -36.5 t-43.5 -25t-55 -9.5q-24 0 -48.5 6.5t-43.5 21.5t-31 38.5t-12 57.5zM-383 1003q0 -32 12.5 -48t47.5 -21q12 -2 26 0t26 8t20 18t9 32q1 10 -2.5 24.5t-13 26t-26.5 17.5t-42 0q-21 -5 -39 -21t-18 -36z" />
<glyph unicode="&#xf70f;" horiz-adv-x="1152" d="M74.5 477.5q-0.5 17.5 3.5 35.5q17 83 57.5 134t94.5 79.5t117 38t125 9.5q77 0 123 -37t70 -96.5t30.5 -135t3.5 -153t-11.5 -149.5t-12.5 -125q-1 -9 11 -15t32 -9t46.5 -3.5t54.5 -0.5q25 0 50 1.5t45 4.5t33.5 7.5t15.5 11.5q6 21 9.5 68.5t4.5 109t0 132t-2 138 t-2 126t-1 97.5q5 15 13.5 21t19.5 6t21.5 -8.5t16.5 -23.5q-1 -86 2 -170t4 -172.5t-2 -183.5t-16 -202q-1 -13 -31.5 -19.5t-76 -9t-97.5 -1t-97.5 4.5t-76.5 6.5t-33 5.5q-17 14 -20 35.5t-3 46.5q0 11 4.5 43.5t9.5 78.5t9 100.5t3 110t-9.5 107.5t-27.5 93t-51 66 t-81 26q-46 1 -94 -9.5t-89.5 -35t-72.5 -64t-41 -95.5q23 1 44 0t36 -9.5t22.5 -25t3.5 -45.5q-2 -17 -7.5 -33t-12 -39.5t-13 -58t-11.5 -88.5q36 26 72.5 30t66 -9t48.5 -41t20 -65q1 -25 -8 -52t-28 -49.5t-47.5 -37t-67.5 -13.5q-21 0 -46.5 6.5t-46.5 22.5t-34.5 44 t-10.5 72q1 27 8 71.5t16 91.5t18.5 90t15.5 67q-46 -8 -71 -3t-36.5 18t-12 30.5zM211 101q2 -38 25 -56.5t50 -18.5q31 0 55.5 23.5t21.5 68.5q-2 30 -23.5 45t-48.5 15q-16 0 -31 -5t-26.5 -15t-18 -24.5t-4.5 -32.5z" />
<glyph unicode="&#xf715;" d="M-725.5 1407.5q-0.5 32.5 9.5 65t34 58.5q38 41 85 53t97 -15q10 -5 19 -14t17 -20q5 11 10 21t13 18q12 12 27.5 15.5t31 -0.5t27.5 -15t16 -27q11 -44 6 -90.5t-8 -91.5q30 -1 55 10t41.5 33.5t22 57t-3.5 80.5q-2 12 -1 19.5t12 13.5q15 8 25 -1t14 -19q15 -38 10 -79 t-23.5 -76.5t-45.5 -62.5t-56 -39t-56 -5t-43 40q-9 17 -7.5 47.5t4.5 61.5t4 57t-9 34q-9 -10 -14 -24.5t-10 -29.5t-10.5 -29.5t-14.5 -24.5q-13 -8 -21 -10t-19 8q-2 35 -18 60.5t-39.5 35.5t-49.5 1.5t-47 -41.5q49 4 81 -18.5t41.5 -55.5t-4.5 -68t-57 -57 q-32 -16 -58.5 -11t-45.5 24t-30 48.5t-11.5 62zM-678.5 1378q2.5 -16 13 -29.5t28.5 -18.5q28 -8 43.5 0.5t21 24.5t2 35t-15 33t-30 18.5t-41.5 -9.5q-14 -8 -19 -23t-2.5 -31z" />
<glyph unicode="&#xf718;" d="M-390 -636.5q-4 35.5 14.5 65t53.5 48.5t73 19q18 0 37 -4t35.5 -13.5t30 -26t22.5 -40.5q6 -17 6 -47t-1.5 -65t-4 -70.5t-0.5 -62.5q-2 -26 -11 -40.5t-26 -14.5q-6 0 -11 4.5t-9 11t-6.5 13.5t-2.5 12q-1 22 0 39t3 32t5 29.5t6 32.5q-28 -17 -52.5 -22t-45.5 -2.5 t-38.5 11.5t-31.5 21q-42 34 -46 69.5zM-321.5 -614.5q0.5 -21.5 19 -41t50.5 -21.5q27 -2 44 15t19.5 39t-11.5 41t-47 21q-40 2 -57.5 -15t-17 -38.5z" />
<glyph unicode="&#xf719;" d="M-549 -647.5q-4 35.5 14.5 65t53.5 48.5t73 19q18 0 37 -3.5t35.5 -12.5t30 -25t22.5 -40q6 -15 6 -34t-2.5 -41.5t-5 -47.5t-1.5 -52q3 -14 17 -20.5t33 -7.5t39.5 3t35.5 12q8 31 9.5 59t-0.5 56t-5.5 57t-3.5 62q3 18 11.5 26t18 6.5t18.5 -11t14 -27.5q3 -31 5.5 -71 t1.5 -79t-6 -72.5t-17 -52.5q-23 -23 -61 -30.5t-75.5 -3t-65 20.5t-27.5 42v26t1.5 14t3 13.5t4.5 23.5q-28 -17 -52.5 -22t-45.5 -2.5t-38.5 11.5t-31.5 21q-42 34 -46 69.5zM-480.5 -625.5q0.5 -21.5 19 -41t50.5 -21.5q27 -2 44 15t19.5 39t-11.5 41t-47 21 q-40 2 -57.5 -15t-17 -38.5z" />
<glyph unicode="&#xf71a;" d="M-280 -568q0 12 5.5 23t14 19.5t19.5 13.5t23 5t23.5 -5t20.5 -13.5t14 -19.5t5 -23q0 -26 -18.5 -44.5t-44.5 -18.5q-24 0 -43 18.5t-19 44.5z" />
<glyph horiz-adv-x="1015" d="M55.5 567.5q-6.5 37.5 6.5 83.5q7 24 22.5 45.5t37 37t47 24.5t51.5 9q27 0 52 -10t45 -29.5t32.5 -50t14.5 -70.5q1 -30 -1 -67.5t-5 -95.5t-7 -141.5t-7 -204.5q30 60 56 109t48.5 89.5t41.5 74.5t36 64q5 10 13.5 22t18 22.5t18.5 17.5t17 6q19 -2 37 -18.5t33 -43.5 q38 -69 85 -157.5t95 -200.5l10 432q-60 -18 -104.5 -18.5t-76 11.5t-50 34t-25.5 49.5t-4 58.5t15 61q9 22 27.5 41.5t42.5 34t52 24t55.5 11t53 -5t44.5 -23.5q16 -14 23.5 -26.5t9.5 -32t2 -49.5t2 -79q16 4 25 7.5t15.5 7t12.5 8t18 9.5q14 5 24 -2t12.5 -19.5t-4 -26.5 t-25.5 -24q-12 -6 -19.5 -9t-15 -5t-17.5 -6t-26 -11q0 -110 -0.5 -205t-2 -164t-4 -106t-7.5 -29q-9 -23 -24 -28t-31.5 2t-32 22t-24.5 32q-30 58 -61 117.5t-58 110t-49.5 85.5t-35.5 44q-29 -45 -82.5 -143.5t-128.5 -238.5h1q-6 -16 -20 -23.5t-29 -7.5q-19 0 -33 10.5 t-13 30.5q-1 9 -0.5 36t1 65t1 83t1.5 91t2.5 88.5t2.5 75.5q-20 -26 -48.5 -36t-58.5 -7t-58 19.5t-47 43.5t-25.5 64.5zM120 612q-2 -23 8 -51.5t32.5 -45.5t56.5 -12.5t79 48.5q2 46 -4.5 76t-18.5 47t-28.5 24t-34.5 7q-11 0 -26 -5.5t-28.5 -17t-23.5 -29t-12 -41.5z M665 627q5 -26 34 -52q16 -15 37.5 -16.5t43 3t40 11.5t28.5 11q1 24 3 47t1.5 43.5t-5.5 38t-18 31.5q-12 12 -34 11.5t-46 -10.5t-46 -28t-32.5 -41t-5.5 -49z" />
<glyph horiz-adv-x="679" d="M-597 1004q0 27 8.5 52.5t26.5 45t44.5 31.5t62.5 12q30 0 59.5 -8.5t52 -26t36.5 -43.5t14 -62q0 -31 -9.5 -61.5t-30.5 -54t-54.5 -35t-81.5 -5.5q-32 4 -55.5 19t-40 36.5t-24.5 47.5t-8 52zM-534 996q0 -31 17 -55t47 -33q30 -4 51.5 2.5t35.5 19.5t21 30t7 35 q0 19 -6 37t-19.5 31.5t-34.5 20t-51 3.5q-32 -5 -50 -31.5t-18 -59.5zM73.5 613q-3.5 8 2.5 22q15 35 46.5 63t69.5 47.5t76.5 30t66.5 10.5q69 0 116.5 -23t79 -62.5t48 -92.5t23.5 -113t6.5 -124t-5 -125t-10 -117t-7.5 -100q-1 -22 -15 -33.5t-30 -11.5q-13 0 -24 9 t-15 24q3 66 9.5 134t9.5 136.5t-0.5 138t-19.5 139.5q-19 77 -66 113t-104 36q-49 0 -96 -27t-81 -79l1 3q-14 -17 -33 -17q-9 0 -19.5 1.5t-18 5.5t-11 12z" />
<glyph d="M-781.5 1088.5q-6.5 39.5 3.5 78t41 70.5q15 16 35 25t43.5 13t49.5 5t55 1q-48 68 -53 111.5t19 68.5t70 35t99.5 11t107.5 -3.5t94 -8.5q16 -5 20 -22t4 -27t-8.5 -21t-23.5 -16q-53 3 -97 10t-78.5 11t-59.5 2.5t-41 -14.5q-24 -20 -23.5 -38.5t12.5 -36.5t28.5 -35 t24.5 -35q1 -8 -3 -22t-15 -26.5t-28.5 -19t-42.5 2.5q-28 24 -58 15.5t-53 -35.5t-34 -65.5t0.5 -73.5t49.5 -59.5t113 -24.5q32 0 52.5 11t32.5 29t16.5 41.5t3.5 47.5l-1 -3q4 19 14 28t21 9t19.5 -13t9.5 -31q1 -42 -9 -78.5t-33.5 -63.5t-61 -42.5t-91.5 -16.5 q-41 0 -79 17t-68.5 45.5t-50.5 66t-26.5 77z" />
</font>
</defs>
</svg>
